#N canvas 324 487 265 280 12;
#X obj 93 123 samplerate~;
#X obj 44 91 t f b;
#X obj 44 63 inlet;
#X obj 44 204 outlet;
#X obj 93 147 / 1000;
#X obj 44 179 *;
#X connect 0 0 4 0;
#X connect 1 0 5 0;
#X connect 1 1 0 0;
#X connect 2 0 1 0;
#X connect 4 0 5 1;
#X connect 5 0 3 0;
