#N struct main float n float x float y array circle-l point array poly-l
pnt;
#N struct point float x float y float pa float na float color float
v;
#N struct pnt float x float y;
#N canvas 131 107 1063 812 12;
#X declare -path lst;
#X declare -path seq;
#X declare -path pitches;
#X declare -path ext;
#X declare -path reader;
#X obj 117 323 output~;
#X obj 855 574 loadbang;
#X obj 855 599 f \$0;
#N canvas 0 22 737 536 misc 0;
#X obj 365 318 mtl/transpose;
#X floatatom 481 295 5 0 0 0 - - -, f 5;
#X obj 224 220 f;
#X obj 224 365 + 48;
#X obj 265 220 + 1;
#X obj 224 338 list-obix;
#X obj 224 245 mod 10;
#X obj 287 246 list length;
#X obj 224 270 t f f;
#N canvas 0 22 450 300 barcount 0;
#X obj 82 60 sel;
#X obj 82 94 f;
#X obj 123 94 + 1;
#X obj 82 151 mod 2;
#X obj 82 32 inlet;
#X obj 244 57 inlet;
#X text 299 59 #bars loop;
#X obj 82 180 s \$0bar_count;
#X connect 0 0 1 0;
#X connect 1 0 3 0;
#X connect 2 0 1 1;
#X connect 3 0 2 0;
#X connect 3 0 7 0;
#X connect 4 0 0 0;
#X connect 5 0 3 1;
#X restore 261 294 pd barcount;
#X obj 481 114 r \$0bar_count;
#X floatatom 499 139 5 0 0 0 - - -, f 5;
#X obj 481 163 route 0 1;
#X msg 451 207 0 4 7 9.75 5 4;
#X msg 463 238 0 4 5 8.25 5 4;
#X connect 0 0 5 1;
#X connect 1 0 0 1;
#X connect 2 0 6 0;
#X connect 4 0 2 1;
#X connect 5 0 3 0;
#X connect 6 0 4 0;
#X connect 6 0 8 0;
#X connect 7 0 6 1;
#X connect 8 0 5 0;
#X connect 8 1 9 0;
#X connect 10 0 11 0;
#X connect 10 0 12 0;
#X connect 12 0 13 0;
#X connect 12 1 14 0;
#X connect 13 0 7 0;
#X connect 13 0 0 0;
#X connect 14 0 0 0;
#X connect 14 0 7 0;
#X restore 855 712 pd misc;
#X text 434 232 make stevie;
#X obj 273 135 s \$0reset;
#X msg 273 109 bang;
#X obj 364 135 s \$0play;
#X msg 364 109 1;
#X msg 402 109 0;
#N canvas 274 393 450 300 instr 0;
#N canvas 94 120 203 196 voice_id 0;
#X obj 64 58 f;
#X obj 64 83 mod 3;
#X obj 100 59 + 1;
#X obj 64 33 inlet;
#X text 112 33 bang;
#X obj 64 108 outlet;
#X connect 0 0 1 0;
#X connect 1 0 2 0;
#X connect 1 0 5 0;
#X connect 2 0 0 1;
#X connect 3 0 0 0;
#X restore 160 120 pd voice_id;
#X obj 67 143 list prepend;
#X obj 67 100 t l b;
#X obj 67 177 clone 3 pad;
#X obj 67 68 inlet;
#X obj 67 202 outlet~;
#X connect 0 0 1 1;
#X connect 1 0 3 0;
#X connect 2 0 1 0;
#X connect 2 1 0 0;
#X connect 3 0 5 0;
#X connect 4 0 2 0;
#X restore 117 269 pd instr;
#N canvas 86 322 713 535 fx 0;
#X obj 273 118 rev1~;
#X floatatom 291 96 5 0 0 0 - #0rev -, f 5;
#X obj 180 241 tof/crossfade~ 1;
#X floatatom 282 30 5 0 0 0 - - -, f 5;
#X floatatom 324 189 5 0 0 0 - - -, f 5;
#X obj 234 58 clip~ -0.1 1;
#X obj 151 23 inlet~;
#X obj 180 317 outlet~;
#X obj 305 214 sig~ 0.8;
#X text 382 215 0.08;
#X obj 234 204 hip~ 20;
#X obj 35 183 bp~ 10000 5;
#X obj 35 158 bp~ 1000 5;
#X obj 180 292 *~ 5;
#X obj 273 143 *~ 0.025;
#X obj 180 267 bp~ 800 5;
#X text 262 267 [800 \, 3000];
#X obj 429 355 line;
#X obj 430 330 pack f 15000;
#X obj 457 217 metro 15000;
#X obj 474 197 tgl 15 0 empty empty empty 17 7 0 10 -262144 -1 -1 0
1;
#X obj 455 250 f;
#X obj 489 250 + 1;
#X obj 522 250 mod 2;
#X obj 455 273 moses 1;
#X msg 508 298 800;
#X floatatom 381 409 5 0 0 0 - - -, f 5;
#X msg 455 298 5000;
#X obj 151 133 hip~ 100;
#X connect 0 0 14 0;
#X connect 1 0 0 1;
#X connect 2 0 15 0;
#X connect 3 0 5 1;
#X connect 4 0 8 0;
#X connect 5 0 10 0;
#X connect 5 0 0 0;
#X connect 6 0 5 0;
#X connect 6 0 28 0;
#X connect 8 0 2 2;
#X connect 10 0 2 1;
#X connect 13 0 7 0;
#X connect 14 0 10 0;
#X connect 15 0 13 0;
#X connect 17 0 15 1;
#X connect 17 0 26 0;
#X connect 18 0 17 0;
#X connect 19 0 21 0;
#X connect 20 0 19 0;
#X connect 21 0 22 0;
#X connect 21 0 24 0;
#X connect 22 0 23 0;
#X connect 23 0 21 1;
#X connect 24 0 27 0;
#X connect 24 1 25 0;
#X connect 25 0 18 0;
#X connect 27 0 18 0;
#X connect 28 0 2 0;
#X restore 117 292 pd fx;
#N canvas 238 185 560 625 v1 0;
#X obj 220 402 outlet;
#N canvas 245 37 1000 814 note 0;
#X obj 483 82 inlet;
#X obj 143 300 outlet;
#X obj 590 466 array define \$0pi;
#X obj 590 490 array define \$0dur;
#N canvas 656 78 699 666 interpreter 0;
#X obj 86 72 inlet;
#X obj 224 473 pack;
#X obj 110 159 t f f;
#X obj 115 227 array get \$0pi 0 1;
#X obj 351 227 array get \$0dur 0 1;
#X obj 389 295 * 100;
#X obj 389 320 / 16;
#X text 434 321 4 bars/measure \, 4 16ths/bar;
#X text 451 347 ms in a 16th note;
#X floatatom 405 347 5 0 0 0 - - -, f 5;
#X obj 351 357 *;
#X obj 237 515 outlet;
#X obj 388 270 r \$0ms_in_tick;
#X obj 130 310 array get \$0scale 0 1;
#X text 180 275 pitch index;
#X text 194 341 pitch;
#X floatatom 136 277 5 0 0 0 - - -, f 5;
#X floatatom 150 343 5 0 0 0 - - -, f 5;
#X obj 203 413 midinum;
#X floatatom 122 186 3 0 0 0 - - -, f 3;
#X obj 144 392 + 36;
#X obj 351 383 * 1.5;
#X obj 115 251 - 1;
#X connect 0 0 2 0;
#X connect 1 0 11 0;
#X connect 2 0 3 0;
#X connect 2 0 19 0;
#X connect 2 1 4 0;
#X connect 3 0 22 0;
#X connect 4 0 10 0;
#X connect 5 0 6 0;
#X connect 6 0 9 0;
#X connect 6 0 10 1;
#X connect 10 0 21 0;
#X connect 12 0 5 0;
#X connect 13 0 17 0;
#X connect 13 0 20 0;
#X connect 20 0 1 0;
#X connect 20 0 18 0;
#X connect 21 0 1 1;
#X connect 22 0 13 0;
#X connect 22 0 16 0;
#X restore 143 266 pd interpreter;
#X obj 590 514 array define \$0scale;
#X obj 325 457 r \$0init;
#X obj 325 591 array set \$0scale;
#X obj 362 537 list length;
#X obj 325 510 t l l;
#X obj 362 562 array size \$0scale;
#X obj 572 371 array get \$0scale;
#X obj 572 352 bng 15 250 50 0 empty empty empty 17 7 0 10 -262144
-1 -1;
#X obj 572 395 print;
#X obj 325 486 black_keys;
#X text 200 301 pitch \, dur;
#X obj 325 418 array size \$0dur;
#X obj 333 395 array size \$0pi;
#X obj 325 372 r \$0tpb;
#X obj 170 83 inlet;
#X obj 571 277 array set \$0dur;
#X obj 325 277 array set \$0pi;
#X text 591 96 pi pitch index;
#X text 590 117 dur note duration;
#X obj 571 254 list-distrib;
#X obj 627 187 t b l;
#X obj 325 254 list-distrib;
#X obj 381 186 t b l;
#X obj 418 226 list-map;
#X obj 492 226 + 1;
#X obj 483 107 route pi dur;
#X obj 136 211 bng 15 250 50 0 empty empty empty 17 7 0 10 -262144
-1 -1;
#X obj 99 191 sel 1;
#X obj 143 238 f;
#X obj 99 167 array get name 0 1;
#X obj 170 108 route float symbol;
#X obj 325 227 array get;
#X obj 571 227 array get;
#X obj 99 143 t f f;
#X obj 68 350 print;
#X connect 0 0 30 0;
#X connect 4 0 1 0;
#X connect 4 0 39 0;
#X connect 6 0 14 0;
#X connect 8 0 10 0;
#X connect 9 0 7 0;
#X connect 9 1 8 0;
#X connect 11 0 13 0;
#X connect 12 0 11 0;
#X connect 14 0 9 0;
#X connect 18 0 17 0;
#X connect 18 0 16 0;
#X connect 19 0 35 0;
#X connect 24 0 20 0;
#X connect 25 0 37 0;
#X connect 25 1 24 1;
#X connect 26 0 21 0;
#X connect 27 0 36 0;
#X connect 27 1 28 0;
#X connect 28 0 26 1;
#X connect 28 1 29 0;
#X connect 29 0 28 1;
#X connect 30 0 27 0;
#X connect 30 1 25 0;
#X connect 32 0 31 0;
#X connect 32 0 33 0;
#X connect 33 0 4 0;
#X connect 34 0 32 0;
#X connect 35 0 38 0;
#X connect 35 1 34 2;
#X connect 35 1 36 2;
#X connect 35 1 37 2;
#X connect 36 0 26 0;
#X connect 37 0 24 0;
#X connect 38 0 34 0;
#X connect 38 1 33 1;
#X restore 220 377 pd note;
#X obj 273 276 list-map;
#X obj 351 276 * 100;
#X obj 220 244 phrase3;
#X obj 273 301 outlet;
#X obj 71 77 inlet;
#X text 120 77 bar \, beat pair;
#X obj 220 146 reader pat01 pat02 3;
#X obj 71 103 swap;
#X floatatom 97 132 3 0 0 0 - - -, f 3;
#X obj 220 186 route pat;
#X text 291 149 pattern \, pitch idx \, duration;
#X obj 247 217 r \$0tpb;
#X obj 220 123 change -1;
#X obj 454 244 t a;
#X connect 1 0 0 0;
#X connect 2 0 5 0;
#X connect 2 1 3 0;
#X connect 3 0 2 1;
#X connect 4 0 1 0;
#X connect 4 1 2 0;
#X connect 6 0 9 0;
#X connect 8 0 11 0;
#X connect 9 0 10 0;
#X connect 9 0 1 0;
#X connect 9 1 14 0;
#X connect 11 0 4 0;
#X connect 11 1 15 0;
#X connect 13 0 4 1;
#X connect 14 0 8 0;
#X connect 15 0 1 1;
#X restore 117 230 pd v1;
#X obj 232 278 datavis1-GOP;
#X msg 855 624 \; \$1rev 5 \; \$1init bang \;;
#N canvas 0 22 450 300 decl 0;
#X obj 38 56 declare -path lst;
#X obj 38 82 declare -path seq;
#X obj 38 108 declare -path pitches;
#X obj 38 134 declare -path ext;
#X obj 38 160 declare -path reader;
#X restore 855 685 pd decl;
#N canvas 72 209 536 530 seq 0;
#X floatatom 103 120 3 0 0 1 tpb - #0tpb, f 3;
#X text 179 120 ticks/bar;
#X text 180 141 #bars;
#X floatatom 103 141 3 0 0 1 bs - _#0bs, f 3;
#X obj 103 20 r \$0init;
#X obj 105 402 outlet;
#X obj 103 45 pack 16 2;
#X obj 103 70 unpack;
#X obj 285 142 inlet;
#N canvas 212 23 829 855 range 0;
#X floatatom 103 121 2 0 1e+38 1 b - _#0b, f 2;
#X floatatom 103 163 2 1 1e+38 1 qbs - _#0qbs, f 2;
#X obj 58 14 inlet;
#X obj 58 816 outlet;
#X floatatom 103 142 2 0 3 1 qb - _#0qb, f 2;
#X text 92 697 ticks to skip;
#X obj 237 415 r _\$0b;
#X obj 307 276 r _\$0qb;
#X obj 307 375 *;
#X obj 356 339 / 4;
#X obj 290 487 *;
#X obj 304 517 +;
#X obj 307 400 t b f;
#X text 91 647 ticks to play;
#X obj 202 383 *;
#X obj 58 646 mod;
#X floatatom 66 670 3 0 0 0 - - -, f 3;
#X obj 58 696 +;
#X floatatom 70 722 5 0 0 0 - - -, f 5;
#X obj 202 275 r _\$0qbs;
#X obj 202 343 f;
#X text 91 756 ticks total;
#X obj 422 539 *;
#X obj 468 197 r _\$0bs;
#X obj 455 249 f;
#X obj 468 222 t b f;
#X obj 58 756 mod;
#X floatatom 120 776 5 0 0 0 - - -, f 5;
#X obj 134 121 tgl 20 1 \$0_bp empty bp 2 8 0 14 -262144 -1 -1 1 1
;
#X obj 89 280 expr $i1^1;
#X obj 58 323 spigot;
#X obj 276 454 f;
#X obj 307 336 f;
#X obj 385 283 t b f;
#X obj 115 323 spigot;
#X obj 224 195 r \$0_bp;
#X obj 171 573 pack 0 f f f;
#X obj 171 598 unpack 0 f f f;
#X obj 105 251 f;
#X obj 280 85 sel;
#X obj 105 217 t b b;
#X obj 58 177 t f;
#X obj 280 57 mod;
#X obj 58 37 t f f;
#X text 310 58 upd every bar (cud be a quarter-bar);
#X text 412 683 wraps around;
#X text 411 664 select a range to play;
#X obj 455 37 r \$0tpb;
#X connect 2 0 43 0;
#X connect 6 0 31 0;
#X connect 7 0 32 0;
#X connect 8 0 12 0;
#X connect 9 0 8 1;
#X connect 9 0 14 1;
#X connect 10 0 11 0;
#X connect 11 0 36 2;
#X connect 12 0 31 0;
#X connect 12 1 11 1;
#X connect 14 0 36 1;
#X connect 15 0 16 0;
#X connect 15 0 17 0;
#X connect 17 0 18 0;
#X connect 17 0 26 0;
#X connect 19 0 20 0;
#X connect 20 0 14 0;
#X connect 22 0 36 3;
#X connect 23 0 25 0;
#X connect 24 0 33 0;
#X connect 25 0 24 0;
#X connect 25 1 22 1;
#X connect 26 0 27 0;
#X connect 26 0 3 0;
#X connect 29 0 30 1;
#X connect 30 0 15 0;
#X connect 31 0 10 0;
#X connect 32 0 8 0;
#X connect 33 0 32 0;
#X connect 33 0 20 0;
#X connect 33 1 22 0;
#X connect 33 1 10 1;
#X connect 33 1 9 0;
#X connect 34 0 26 0;
#X connect 35 0 38 1;
#X connect 36 0 37 0;
#X connect 37 1 15 1;
#X connect 37 2 17 1;
#X connect 37 3 26 1;
#X connect 38 0 34 1;
#X connect 38 0 29 0;
#X connect 39 0 40 0;
#X connect 40 0 38 0;
#X connect 40 1 36 0;
#X connect 41 0 34 0;
#X connect 41 0 30 0;
#X connect 42 0 39 0;
#X connect 43 0 41 0;
#X connect 43 1 42 0;
#X connect 47 0 24 0;
#X connect 47 0 42 1;
#X coords 0 -1 1 1 60 85 1 100 100;
#X restore 103 162 pd range;
#X floatatom 123 269 3 0 0 0 - - -, f 3;
#X text 179 182 bar# to start from [0 \, inf) \, bypass tgl;
#X text 179 204 quarter-bar to start from [0 \, 3];
#X text 178 225 quarter-bars to play [1 \, inf);
#X obj 105 370 pack;
#X obj 105 300 t f f;
#X obj 105 335 div;
#X obj 167 335 mod;
#X text 333 143 clock;
#X text 162 403 bar \, beat pair;
#X obj 188 304 r \$0tpb;
#X connect 4 0 6 0;
#X connect 6 0 7 0;
#X connect 7 0 0 0;
#X connect 7 1 3 0;
#X connect 8 0 9 0;
#X connect 9 0 10 0;
#X connect 9 0 15 0;
#X connect 14 0 5 0;
#X connect 15 0 16 0;
#X connect 15 1 17 0;
#X connect 16 0 14 0;
#X connect 17 0 14 1;
#X connect 20 0 16 1;
#X connect 20 0 17 1;
#X coords 0 -1 1 1 74 150 1 100 100;
#X restore 117 75 pd seq;
#N canvas 219 161 473 446 cl 0;
#X obj 100 189 metro 1 64 samp;
#X obj 126 355 outlet;
#X obj 251 199 * 64;
#X obj 217 162 max 1;
#X obj 251 224 samptoms;
#X obj 251 249 s \$0ms_in_tick;
#X obj 100 162 r \$0play;
#X obj 100 229 spdctrl;
#X obj 126 320 f;
#X obj 160 320 + 1;
#X floatatom 103 119 3 0 0 1 spd - -, f 3;
#X obj 103 43 r \$0init;
#X obj 103 69 f 50;
#X text 221 57 clock with speed control;
#X obj 143 102 bng 15 250 50 0 empty \$0reset empty 17 7 0 10 -262144
-1 -1;
#X text 163 101 reset;
#X msg 185 271 0, f 2;
#X text 183 356 to sequencer;
#X obj 194 320 mod 1e+38;
#X connect 0 0 7 0;
#X connect 2 0 4 0;
#X connect 3 0 0 1;
#X connect 3 0 2 0;
#X connect 4 0 5 0;
#X connect 6 0 0 0;
#X connect 7 2 8 0;
#X connect 8 0 9 0;
#X connect 8 0 1 0;
#X connect 9 0 18 0;
#X connect 10 0 3 0;
#X connect 11 0 12 0;
#X connect 12 0 10 0;
#X connect 14 0 16 0;
#X connect 16 0 8 1;
#X connect 18 0 8 1;
#X coords 0 -1 1 1 60 40 1 100 100;
#X restore 117 32 pd cl;
#X connect 1 0 2 0;
#X connect 2 0 14 0;
#X connect 6 0 5 0;
#X connect 8 0 7 0;
#X connect 9 0 7 0;
#X connect 10 0 11 0;
#X connect 11 0 0 0;
#X connect 11 0 0 1;
#X connect 12 0 10 0;
#X connect 12 1 13 0;
#X connect 16 0 12 0;
#X connect 17 0 16 0;
