#N struct main float n float x float y array circle-xs point array
circle-s point array circle-m point array circle-l point array poly-xs
pnt array poly-s pnt array poly-m pnt array poly-l pnt;
#N struct point float x float y float pa float na float color float
v;
#N struct pnt float x float y;
#N canvas 43 23 1436 855 10;
#X declare -path lst;
#X declare -path seq;
#X declare -path pitches;
#X declare -path ext;
#X declare -path reader;
#X declare -path pdkm;
#X declare -path bella;
#X obj 855 574 loadbang;
#X obj 855 599 f \$0;
#N canvas 0 22 737 536 misc 0;
#X obj 365 318 mtl/transpose;
#X floatatom 481 295 5 0 0 0 - - -, f 5;
#X obj 224 220 f;
#X obj 224 365 + 48;
#X obj 265 220 + 1;
#X obj 224 338 list-obix;
#X obj 224 245 mod 10;
#X obj 287 246 list length;
#X obj 224 270 t f f;
#N canvas 0 22 450 300 barcount 0;
#X obj 82 60 sel;
#X obj 82 94 f;
#X obj 123 94 + 1;
#X obj 82 151 mod 2;
#X obj 82 32 inlet;
#X obj 244 57 inlet;
#X text 299 59 #bars loop;
#X obj 82 180 s \$0bar_count;
#X connect 0 0 1 0;
#X connect 1 0 3 0;
#X connect 2 0 1 1;
#X connect 3 0 2 0;
#X connect 3 0 7 0;
#X connect 4 0 0 0;
#X connect 5 0 3 1;
#X restore 261 294 pd barcount;
#X obj 481 114 r \$0bar_count;
#X floatatom 499 139 5 0 0 0 - - -, f 5;
#X obj 481 163 route 0 1;
#X msg 451 207 0 4 7 9.75 5 4;
#X msg 463 238 0 4 5 8.25 5 4;
#X connect 0 0 5 1;
#X connect 1 0 0 1;
#X connect 2 0 6 0;
#X connect 4 0 2 1;
#X connect 5 0 3 0;
#X connect 6 0 4 0;
#X connect 6 0 8 0;
#X connect 7 0 6 1;
#X connect 8 0 5 0;
#X connect 8 1 9 0;
#X connect 10 0 11 0;
#X connect 10 0 12 0;
#X connect 12 0 13 0;
#X connect 12 1 14 0;
#X connect 13 0 7 0;
#X connect 13 0 0 0;
#X connect 14 0 0 0;
#X connect 14 0 7 0;
#X restore 855 722 pd misc;
#X text 648 150 make stevie;
#X obj 777 660 s \$0reset;
#X msg 777 634 bang;
#N canvas 660 274 713 535 fx 0;
#X obj 304 124 rev1~;
#X floatatom 317 105 5 0 0 0 - #0rev -, f 5;
#X obj 180 241 tof/crossfade~ 1;
#X floatatom 282 30 5 0 0 0 - - -, f 5;
#X floatatom 305 193 5 0 0 0 - - -, f 5;
#X obj 151 23 inlet~;
#X obj 305 214 sig~ 0.8;
#X text 379 215 0.08;
#X obj 234 204 hip~ 20;
#X obj 35 183 bp~ 10000 5;
#X obj 35 158 bp~ 1000 5;
#X text 262 267 [800 \, 3000];
#X obj 430 330 pack f 15000;
#X obj 457 217 metro 15000;
#X obj 474 197 tgl 15 0 empty empty empty 17 7 0 10 -262144 -1 -1 0
1;
#X obj 455 250 f;
#X obj 489 250 + 1;
#X obj 522 250 mod 2;
#X obj 455 273 moses 1;
#X floatatom 381 409 5 0 0 0 - - -, f 5;
#X obj 180 267 bp~ 800 5;
#X obj 429 355 line 800;
#X obj 304 145 *~ 0.25;
#X obj 173 423 throw~ main_l;
#X obj 212 388 throw~ main_r;
#X obj 151 133 hip~ 250;
#X msg 455 298 10000;
#X obj 234 58 clip~ 0 1;
#X obj 234 79 *~ 2;
#X obj 234 101 -~ 1;
#X msg 508 298 800;
#X obj 180 292 *~ 2;
#X obj 231 315 inlet~;
#X obj 148 353 *~;
#X obj 201 357 *~;
#X connect 0 0 22 0;
#X connect 1 0 0 1;
#X connect 2 0 20 0;
#X connect 3 0 27 1;
#X connect 4 0 6 0;
#X connect 5 0 25 0;
#X connect 5 0 27 0;
#X connect 6 0 2 2;
#X connect 8 0 2 1;
#X connect 12 0 21 0;
#X connect 13 0 15 0;
#X connect 14 0 13 0;
#X connect 15 0 16 0;
#X connect 15 0 18 0;
#X connect 16 0 17 0;
#X connect 17 0 15 1;
#X connect 18 0 26 0;
#X connect 18 1 30 0;
#X connect 20 0 31 0;
#X connect 21 0 19 0;
#X connect 21 0 20 1;
#X connect 22 0 8 0;
#X connect 25 0 2 0;
#X connect 26 0 12 0;
#X connect 27 0 28 0;
#X connect 28 0 29 0;
#X connect 29 0 0 0;
#X connect 29 0 8 0;
#X connect 30 0 12 0;
#X connect 31 0 33 0;
#X connect 31 0 34 0;
#X connect 32 0 33 1;
#X connect 32 0 34 1;
#X connect 33 0 23 0;
#X connect 34 0 24 0;
#X restore 152 366 pd fx;
#N canvas 538 169 728 663 v1 0;
#N canvas 397 245 1000 814 note 0;
#X obj 538 82 inlet;
#X obj 170 256 outlet;
#N canvas 587 160 751 587 interpreter 0;
#X obj 80 83 inlet;
#X obj 133 447 pack;
#X obj 80 108 t f f;
#X obj 409 267 / 16;
#X text 475 272 4 bars/measure \, 4 16ths/bar;
#X text 472 298 ms in a 16th note;
#X floatatom 417 292 5 0 0 0 - - -, f 5;
#X obj 389 324 *;
#X obj 133 503 outlet;
#X obj 409 221 r \$0ms_in_tick;
#X text 198 282 pitch index;
#X text 197 339 pitch;
#X floatatom 154 284 5 0 0 0 - - -, f 5;
#X floatatom 153 341 5 0 0 0 - - -, f 5;
#X obj 169 388 midinum;
#X floatatom 86 131 3 0 0 0 - - -, f 3;
#X obj 133 258 - 1;
#X obj 80 189 moses 1;
#X obj 336 189 moses 1;
#X obj 244 491 print note;
#X obj 244 467 spigot;
#X obj 297 467 tgl 15 0 empty empty empty 17 7 0 10 -262144 -1 -1 0
1;
#X obj 389 350 * 1;
#X floatatom 419 402 5 0 0 0 - - -, f 5;
#X text 179 367 60;
#X obj 80 164 array get \$0tune_pi 0 1;
#X obj 336 164 array get \$0tune_dur 0 1;
#X obj 133 308 array get \$0tune_scale 0 1;
#X text 535 223 WRONG:metro is div-ed;
#X floatatom 169 406 5 0 0 0 - - -, f 5;
#X obj 449 242 * 4;
#X obj 409 243 * 100;
#X obj 133 368 + 48;
#X connect 0 0 2 0;
#X connect 1 0 8 0;
#X connect 1 0 20 0;
#X connect 2 0 15 0;
#X connect 2 0 25 0;
#X connect 2 1 26 0;
#X connect 3 0 6 0;
#X connect 3 0 7 1;
#X connect 7 0 22 0;
#X connect 9 0 31 0;
#X connect 16 0 12 0;
#X connect 16 0 27 0;
#X connect 17 1 16 0;
#X connect 18 1 7 0;
#X connect 20 0 19 0;
#X connect 21 0 20 1;
#X connect 22 0 1 1;
#X connect 22 0 23 0;
#X connect 25 0 17 0;
#X connect 26 0 18 0;
#X connect 27 0 13 0;
#X connect 27 0 32 0;
#X connect 31 0 3 0;
#X connect 32 0 1 0;
#X connect 32 0 14 0;
#X connect 32 0 29 0;
#X restore 170 232 pd interpreter;
#X obj 325 457 r \$0init;
#X obj 362 537 list length;
#X obj 325 510 t l l;
#X obj 572 352 bng 15 250 50 0 empty empty empty 17 7 0 10 -262144
-1 -1;
#X obj 572 395 print;
#X obj 325 486 black_keys;
#X text 227 257 pitch \, dur;
#X obj 170 83 inlet;
#X text 646 96 pi pitch index;
#X text 645 117 dur note duration;
#X obj 581 234 list-distrib;
#X obj 360 233 list-distrib;
#X obj 453 139 list-map;
#X obj 527 139 + 1;
#X obj 538 107 route pi dur;
#X obj 619 324 print pi;
#X obj 721 324 print dur;
#X obj 315 306 list length;
#X obj 278 147 t l l;
#X obj 91 414 print onsets;
#X obj 170 108 route float;
#X obj 315 331 change;
#X obj 91 387 spigot;
#X obj 144 387 tgl 15 0 empty empty empty 17 7 0 10 -262144 -1 -1 0
1;
#X obj 721 300 spigot;
#X obj 774 300 tgl 15 0 empty empty empty 17 7 0 10 -262144 -1 -1 0
1;
#X obj 619 300 spigot;
#X obj 672 300 tgl 15 0 empty empty empty 17 7 0 10 -262144 -1 -1 0
1;
#X obj 590 466 array define \$0tune_pi;
#X obj 590 490 array define \$0tune_dur;
#X obj 590 514 array define \$0tune_scale;
#X obj 360 256 array set \$0tune_pi;
#X obj 581 257 array set \$0tune_dur;
#X obj 315 396 array size \$0tune_dur;
#X obj 323 373 array size \$0tune_pi;
#X obj 362 562 array size \$0tune_scale;
#X obj 325 591 array set \$0tune_scale;
#X obj 572 371 array get \$0tune_scale;
#X connect 0 0 17 0;
#X connect 2 0 1 0;
#X connect 3 0 8 0;
#X connect 4 0 38 0;
#X connect 5 0 39 0;
#X connect 5 1 4 0;
#X connect 6 0 40 0;
#X connect 8 0 5 0;
#X connect 10 0 23 0;
#X connect 13 0 27 0;
#X connect 13 0 35 0;
#X connect 14 0 29 0;
#X connect 14 0 34 0;
#X connect 15 0 14 1;
#X connect 15 1 16 0;
#X connect 16 0 15 1;
#X connect 17 0 15 0;
#X connect 17 1 13 1;
#X connect 20 0 24 0;
#X connect 21 0 13 0;
#X connect 21 0 14 0;
#X connect 21 0 25 0;
#X connect 21 1 20 0;
#X connect 23 0 2 0;
#X connect 23 1 21 0;
#X connect 24 0 36 0;
#X connect 24 0 37 0;
#X connect 25 0 22 0;
#X connect 26 0 25 1;
#X connect 27 0 19 0;
#X connect 28 0 27 1;
#X connect 29 0 18 0;
#X connect 30 0 29 1;
#X connect 40 0 7 0;
#X restore 283 427 pd note;
#X obj 438 467 list-map;
#X obj 516 467 * 100;
#X obj 283 296 phrase3;
#X obj 438 521 outlet;
#X obj 134 40 inlet;
#X floatatom 154 161 3 0 0 0 - - -, f 3;
#X text 415 238 pattern \, pitch idx \, duration;
#X obj 336 265 route list;
#X obj 283 203 t b f;
#X obj 438 492 list prepend 0;
#X obj 283 493 wavsh~;
#X obj 283 519 outlet~;
#X obj 521 134 r tune_enable;
#X obj 521 159 switch~;
#X obj 134 106 t f f;
#X obj 171 141 div;
#X obj 134 141 mod;
#X obj 197 106 r \$0tpb;
#X floatatom 221 161 3 0 0 0 - - -, f 3;
#X text 183 40 ticks;
#X text 52 141 beat \, bar;
#X obj 134 71 spigot;
#X obj 192 71 tgl 15 0 empty tune_enable empty 17 7 0 10 -262144 -1
-1 0 1;
#X obj 337 235 reader tune03 tune03 3;
#X text 103 451 TODO:add arpeggiator;
#X connect 0 0 11 0;
#X connect 1 0 10 0;
#X connect 1 1 2 0;
#X connect 2 0 1 1;
#X connect 3 0 0 0;
#X connect 3 1 1 0;
#X connect 5 0 22 0;
#X connect 8 0 3 1;
#X connect 8 1 0 1;
#X connect 9 0 3 0;
#X connect 9 1 24 0;
#X connect 10 0 4 0;
#X connect 11 0 12 0;
#X connect 13 0 14 0;
#X connect 15 0 17 0;
#X connect 15 1 16 0;
#X connect 16 0 9 0;
#X connect 16 0 19 0;
#X connect 17 0 6 0;
#X connect 17 0 0 0;
#X connect 18 0 16 1;
#X connect 18 0 17 1;
#X connect 22 0 15 0;
#X connect 23 0 22 1;
#X connect 24 0 8 0;
#X restore 152 343 pd v1;
#N canvas 0 22 450 300 decl 0;
#X obj 38 56 declare -path lst;
#X obj 38 82 declare -path seq;
#X obj 38 108 declare -path pitches;
#X obj 38 134 declare -path ext;
#X obj 38 160 declare -path reader;
#X obj 38 186 declare -path pdkm;
#X obj 38 213 declare -path bella;
#X restore 855 695 pd decl;
#N canvas 219 161 473 446 cl 0;
#X obj 100 189 metro 1 64 samp;
#X obj 81 356 outlet;
#X obj 251 199 * 64;
#X obj 217 162 max 1;
#X obj 251 224 samptoms;
#X obj 251 249 s \$0ms_in_tick;
#X obj 100 162 r \$0play;
#X obj 100 229 spdctrl;
#X obj 81 331 f;
#X obj 115 331 + 1;
#X floatatom 103 119 3 0 0 1 spd - -, f 3;
#X obj 103 43 r \$0init;
#X obj 103 69 f 50;
#X text 221 57 clock with speed control;
#X obj 143 102 bng 15 250 50 0 empty \$0reset empty 17 7 0 10 -262144
-1 -1;
#X text 163 101 reset;
#X msg 192 265 0, f 2;
#X text 138 357 to sequencer;
#X obj 149 331 mod 1e+38;
#X obj 26 219 t b b;
#X obj 26 241 timer;
#X floatatom 26 263 5 0 0 0 - - -, f 5;
#X obj 253 334 f;
#X obj 287 334 + 1;
#X obj 321 334 mod 1e+38;
#X obj 253 359 outlet;
#X text 298 360 2x faster;
#X connect 0 0 7 0;
#X connect 2 0 4 0;
#X connect 3 0 0 1;
#X connect 3 0 2 0;
#X connect 4 0 5 0;
#X connect 6 0 0 0;
#X connect 7 1 22 0;
#X connect 7 2 8 0;
#X connect 8 0 9 0;
#X connect 8 0 1 0;
#X connect 9 0 18 0;
#X connect 10 0 3 0;
#X connect 11 0 12 0;
#X connect 12 0 10 0;
#X connect 14 0 16 0;
#X connect 16 0 8 1;
#X connect 16 0 22 1;
#X connect 18 0 8 1;
#X connect 19 0 20 0;
#X connect 19 1 20 1;
#X connect 20 0 21 0;
#X connect 22 0 23 0;
#X connect 22 0 25 0;
#X connect 23 0 24 0;
#X connect 24 0 22 1;
#X coords 0 -1 1 1 60 40 1 100 100;
#X restore 117 32 pd cl;
#N canvas 229 162 1051 668 v2 0;
#X obj 53 32 inlet;
#X obj 53 289 bella~;
#X floatatom 97 291 2 0 0 0 - - -, f 2;
#X obj 811 130 switch~;
#N canvas 0 22 450 300 fx 0;
#X obj 83 60 inlet~;
#X obj 83 167 outlet~;
#X floatatom 161 127 5 1 10 0 - - -, f 5;
#X obj 83 104 dkwesley~ 32 3;
#X obj 83 126 dktanh~ 7;
#X connect 0 0 3 0;
#X connect 2 0 4 1;
#X connect 3 0 4 0;
#X connect 4 0 1 0;
#X restore 69 356 pd fx;
#X obj 103 406 *~;
#X obj 811 108 r drums_enable;
#X floatatom 292 292 2 0 0 0 - - -, f 2;
#N canvas 69 258 491 427 fx 0;
#X obj 81 60 inlet~;
#X obj 121 312 outlet~;
#N canvas 695 88 450 300 rev 0;
#X floatatom 114 74 0 0 120 0 - - -;
#X text 155 74 level \, dB;
#X floatatom 149 96 0 0 100 0 - - -;
#X text 190 96 liveness \, 0-100;
#X floatatom 184 120 4 0 5000 0 - - -, f 4;
#X floatatom 219 143 0 0 100 0 - - -;
#X text 232 118 crossover frequency \, Hz.;
#X text 255 145 HF damping \, percent;
#X obj 38 91 inlet~;
#X obj 46 218 outlet~;
#X obj 108 226 outlet~;
#X obj 44 169 rev3~ 120 65 3000 20;
#X connect 0 0 11 2;
#X connect 2 0 11 3;
#X connect 4 0 11 4;
#X connect 5 0 11 5;
#X connect 8 0 11 0;
#X connect 11 0 9 0;
#X connect 11 1 10 0;
#X restore 80 230 pd rev;
#X floatatom 161 172 3 1 10 0 - - -, f 3;
#X obj 81 149 dkwesley~ 32 8;
#X obj 81 170 dktanh~ 5;
#X obj 197 308 outlet~;
#X obj 109 266 tof/crossfade~;
#X floatatom 222 185 5 0 0 0 - - -, f 5;
#X obj 222 207 * 0.01;
#X obj 222 232 sig~ 0.98;
#X connect 0 0 4 0;
#X connect 2 0 7 0;
#X connect 2 1 7 1;
#X connect 3 0 5 1;
#X connect 4 0 5 0;
#X connect 5 0 2 0;
#X connect 5 0 7 2;
#X connect 5 0 7 3;
#X connect 7 0 1 0;
#X connect 7 1 6 0;
#X connect 8 0 9 0;
#X connect 9 0 10 0;
#X connect 10 0 7 4;
#X restore 258 355 pd fx;
#X obj 26 636 outlet~;
#X obj 82 636 outlet~;
#X obj 53 57 t f f;
#X obj 124 74 div 8;
#X obj 53 82 mod 8;
#X floatatom 186 91 5 0 0 0 - - -, f 5;
#X floatatom 60 103 5 0 0 0 - - -, f 5;
#X obj 248 290 bella~;
#N canvas 105 188 917 610 get 0;
#X obj 141 47 inlet;
#X text 180 47 idx;
#X obj 332 463 outlet;
#X obj 332 441 route 1;
#X obj 119 239 array get bdsn-pattern 0 1, f 16;
#X obj 341 239 array get bdsn-pitch 0 1, f 14;
#X obj 440 239 array get bdsn-duration 0 1, f 17;
#X obj 558 239 array get bdsn-gate 0 1, f 13;
#X obj 652 239 array get bdsn-accent 0 1, f 15;
#X obj 141 69 t f f f f f f;
#X obj 230 239 array get bdsn-onsetid 0 1, f 16;
#X obj 332 419 pack f f f f f f;
#X connect 0 0 9 0;
#X connect 3 0 2 0;
#X connect 4 0 11 0;
#X connect 5 0 11 2;
#X connect 6 0 11 3;
#X connect 7 0 11 4;
#X connect 8 0 11 5;
#X connect 9 0 4 0;
#X connect 9 1 10 0;
#X connect 9 2 5 0;
#X connect 9 3 6 0;
#X connect 9 4 7 0;
#X connect 9 5 8 0;
#X connect 10 0 11 1;
#X connect 11 0 3 0;
#X restore 245 170 pd get;
#X obj 759 507 muddle bdsn 8;
#N canvas 503 234 606 487 gate 0;
#X obj 324 64 inlet;
#X obj 324 239 line~;
#X msg 377 201 0 5;
#X obj 418 124 - 5;
#X text 363 63 gate ms \, accent rms;
#X obj 324 88 swap;
#X msg 324 120 \$1 5;
#X obj 377 154 b;
#X obj 377 180 del;
#X obj 34 27 inlet~;
#X obj 133 285 *~;
#X obj 29 421 outlet~;
#X obj 19 368 *~;
#X obj 102 117 tgl 15 0 empty empty bypass 17 7 0 10 -262144 -1 -1
0 1;
#X obj 173 299 == 0;
#X obj 173 321 pack 0 5;
#X obj 173 343 line~;
#X obj 133 367 *~;
#X obj 58 320 pack 0 5;
#X obj 58 342 line~;
#X obj 210 53 r \$0init;
#X msg 210 75 0, f 2;
#X connect 0 0 5 0;
#X connect 1 0 10 1;
#X connect 2 0 1 0;
#X connect 3 0 8 1;
#X connect 5 0 6 0;
#X connect 5 1 3 0;
#X connect 6 0 1 0;
#X connect 6 0 7 0;
#X connect 7 0 8 0;
#X connect 8 0 2 0;
#X connect 9 0 10 0;
#X connect 9 0 12 0;
#X connect 10 0 17 0;
#X connect 12 0 11 0;
#X connect 13 0 14 0;
#X connect 13 0 18 0;
#X connect 14 0 15 0;
#X connect 15 0 16 0;
#X connect 16 0 17 1;
#X connect 17 0 11 0;
#X connect 18 0 19 0;
#X connect 19 0 12 1;
#X connect 20 0 21 0;
#X connect 21 0 13 0;
#X coords 0 -1 1 1 58 36 1 100 100;
#X restore 69 313 pd gate;
#N canvas 503 234 606 487 gate 0;
#X obj 324 64 inlet;
#X obj 324 239 line~;
#X msg 377 201 0 5;
#X obj 418 134 - 5;
#X text 363 63 gate ms \, accent rms;
#X obj 324 88 swap;
#X msg 324 120 \$1 5;
#X obj 377 154 b;
#X obj 377 180 del;
#X obj 34 27 inlet~;
#X obj 133 285 *~;
#X obj 29 421 outlet~;
#X obj 19 368 *~;
#X obj 102 117 tgl 15 0 empty empty bypass 17 7 0 10 -262144 -1 -1
0 1;
#X obj 173 299 == 0;
#X obj 173 321 pack 0 5;
#X obj 173 343 line~;
#X obj 133 367 *~;
#X obj 58 320 pack 0 5;
#X obj 58 342 line~;
#X obj 210 53 r \$0init;
#X msg 210 75 0, f 2;
#X connect 0 0 5 0;
#X connect 1 0 10 1;
#X connect 2 0 1 0;
#X connect 3 0 8 1;
#X connect 5 0 6 0;
#X connect 5 1 3 0;
#X connect 6 0 1 0;
#X connect 6 0 7 0;
#X connect 7 0 8 0;
#X connect 8 0 2 0;
#X connect 9 0 10 0;
#X connect 9 0 12 0;
#X connect 10 0 17 0;
#X connect 12 0 11 0;
#X connect 13 0 14 0;
#X connect 13 0 18 0;
#X connect 14 0 15 0;
#X connect 15 0 16 0;
#X connect 16 0 17 1;
#X connect 17 0 11 0;
#X connect 18 0 19 0;
#X connect 19 0 12 1;
#X connect 20 0 21 0;
#X connect 21 0 13 0;
#X coords 0 -1 1 1 58 36 1 100 100;
#X restore 258 312 pd gate;
#X obj 149 260 print;
#X obj 759 476 reader bdsn01 bdsn01 6;
#X obj 856 583 outlet;
#X obj 245 203 route 0 1;
#N canvas 22 37 362 511 bd-transient 0;
#X obj 49 54 inlet;
#X obj 49 76 b;
#X obj 49 287 osc~;
#X obj 37 250 line~;
#X obj 58 342 clip~ 0 1;
#X obj 58 367 *~ 2;
#X obj 58 392 -~ 1;
#X msg 134 225 0;
#X obj 49 312 *~ 2;
#X obj 102 116 tgl 15 0 empty empty bypass 17 7 0 10 -262144 -1 -1
0 1;
#X obj 49 161 del 5;
#X msg 37 225 220 \, 0 10;
#X obj 58 414 outlet~;
#X obj 103 146 == 0;
#X obj 49 188 spigot 1;
#X connect 0 0 1 0;
#X connect 1 0 10 0;
#X connect 2 0 8 0;
#X connect 3 0 2 0;
#X connect 4 0 5 0;
#X connect 5 0 6 0;
#X connect 6 0 12 0;
#X connect 7 0 2 1;
#X connect 8 0 4 0;
#X connect 9 0 13 0;
#X connect 10 0 14 0;
#X connect 11 0 3 0;
#X connect 13 0 14 1;
#X connect 14 0 11 0;
#X connect 14 0 7 0;
#X coords 0 -1 1 1 85 35 1 100 100;
#X restore 138 290 pd bd-transient;
#X obj 138 330 *~;
#X obj 336 330 *~;
#N canvas 22 37 362 511 sn-transient 0;
#X obj 49 54 inlet;
#X obj 49 76 b;
#X obj 102 116 tgl 15 0 empty empty bypass 17 7 0 10 -262144 -1 -1
0 1;
#X obj 48 438 outlet~;
#X obj 103 146 == 0;
#X obj 48 239 line~;
#X obj 48 361 clip~ 0 1;
#X obj 48 386 *~ 2;
#X obj 48 411 -~ 1;
#X obj 49 178 spigot;
#X obj 49 151 del 5;
#X obj 68 279 noise~;
#X obj 48 320 *~;
#X obj 65 299 bp~ 5000 5;
#X msg 48 214 3 \, 0 5;
#X connect 0 0 1 0;
#X connect 1 0 10 0;
#X connect 2 0 4 0;
#X connect 4 0 9 1;
#X connect 5 0 12 0;
#X connect 6 0 7 0;
#X connect 7 0 8 0;
#X connect 8 0 3 0;
#X connect 9 0 14 0;
#X connect 10 0 9 0;
#X connect 11 0 13 0;
#X connect 12 0 6 0;
#X connect 13 0 12 1;
#X connect 14 0 5 0;
#X coords 0 -1 1 1 85 35 1 100 100;
#X restore 336 290 pd sn-transient;
#X obj 258 392 +~;
#X obj 289 391 +~;
#X obj 257 425 *~;
#X obj 290 425 *~;
#X text 900 583 pattern visualisation;
#X obj 130 403 db~;
#X obj 167 329 db~;
#X obj 323 392 db~;
#X obj 365 329 db~;
#X floatatom 186 113 5 0 0 0 - - -, f 5;
#X obj 124 96 mod 4;
#X obj 306 187 print;
#X floatatom 544 292 2 0 0 0 - - -, f 2;
#X obj 500 290 bella~;
#N canvas 503 234 606 487 gate 0;
#X obj 324 64 inlet;
#X obj 324 239 line~;
#X msg 377 201 0 5;
#X obj 418 134 - 5;
#X text 363 63 gate ms \, accent rms;
#X obj 324 88 swap;
#X msg 324 120 \$1 5;
#X obj 377 154 b;
#X obj 377 180 del;
#X obj 34 27 inlet~;
#X obj 133 285 *~;
#X obj 29 421 outlet~;
#X obj 19 368 *~;
#X obj 102 117 tgl 15 0 empty empty bypass 17 7 0 10 -262144 -1 -1
0 1;
#X obj 173 299 == 0;
#X obj 173 321 pack 0 5;
#X obj 173 343 line~;
#X obj 133 367 *~;
#X obj 58 320 pack 0 5;
#X obj 58 342 line~;
#X obj 210 53 r \$0init;
#X msg 210 75 0, f 2;
#X connect 0 0 5 0;
#X connect 1 0 10 1;
#X connect 2 0 1 0;
#X connect 3 0 8 1;
#X connect 5 0 6 0;
#X connect 5 1 3 0;
#X connect 6 0 1 0;
#X connect 6 0 7 0;
#X connect 7 0 8 0;
#X connect 8 0 2 0;
#X connect 9 0 10 0;
#X connect 9 0 12 0;
#X connect 10 0 17 0;
#X connect 12 0 11 0;
#X connect 13 0 14 0;
#X connect 13 0 18 0;
#X connect 14 0 15 0;
#X connect 15 0 16 0;
#X connect 16 0 17 1;
#X connect 17 0 11 0;
#X connect 18 0 19 0;
#X connect 19 0 12 1;
#X connect 20 0 21 0;
#X connect 21 0 13 0;
#X coords 0 -1 1 1 58 36 1 100 100;
#X restore 510 312 pd gate;
#X obj 877 476 reader hh hh 4;
#X obj 877 506 muddle hh 8;
#X obj 759 528 list prepend 1;
#X obj 877 527 list prepend 2;
#N canvas 105 188 538 431 get 0;
#X obj 141 47 inlet;
#X text 180 47 idx;
#X obj 199 348 outlet;
#X obj 199 326 route 1;
#X obj 144 193 array get bdsn-pattern 0 1, f 16;
#X obj 253 193 array get bdsn-gate 0 1, f 13;
#X obj 347 193 array get bdsn-accent 0 1, f 15;
#X obj 141 69 t f f f f f f;
#X obj 199 304 pack f f f;
#X connect 0 0 7 0;
#X connect 3 0 2 0;
#X connect 4 0 8 0;
#X connect 5 0 8 1;
#X connect 6 0 8 2;
#X connect 7 0 4 0;
#X connect 7 4 5 0;
#X connect 7 5 6 0;
#X connect 8 0 3 0;
#X restore 534 169 pd get;
#N canvas 0 22 450 300 fx 0;
#X obj 83 60 inlet~;
#X obj 83 167 outlet~;
#X floatatom 161 127 5 1 10 0 - - -, f 5;
#X obj 83 104 dkwesley~ 32 3;
#X obj 83 126 dktanh~ 7;
#X connect 0 0 3 0;
#X connect 2 0 4 1;
#X connect 3 0 4 0;
#X connect 4 0 1 0;
#X restore 510 354 pd fx;
#X obj 510 381 *~;
#X obj 537 378 db~;
#X text 549 354 add panning \, downsampling \, delay;
#X obj 123 124 s \$0_bar;
#X obj 52 124 s \$0_tick;
#X obj 781 437 r \$0_bar;
#X obj 377 100 r \$0_tick;
#N canvas 518 256 694 545 BD 0;
#X obj 121 379 outlet;
#X text 206 442 TODO: the higher pitch the shorter duration (keyboard
tracking), f 63;
#X obj 90 49 inlet;
#X text 130 50 pitch \, dur \, gate \, accent;
#X obj 90 140 unpack f f f f;
#X obj 90 261 pack;
#X obj 117 239 * 100;
#X obj 389 218 r \$0ms_in_tick;
#X obj 389 238 * 4;
#X obj 374 258 *;
#X text 167 380 pitch \, dur;
#X obj 404 378 outlet;
#X text 450 379 gate \, accent;
#X text 153 240 dur in tenths of a second;
#X obj 392 306 pack;
#X obj 567 212 t f;
#X obj 595 326 print;
#X text 123 196 8-20;
#X obj 90 97 spigot;
#X obj 123 79 tgl 15 0 empty bd_enable empty 17 7 0 10 -262144 -1 -1
0 1;
#X connect 2 0 18 0;
#X connect 4 0 5 0;
#X connect 4 1 6 0;
#X connect 4 2 9 0;
#X connect 4 3 15 0;
#X connect 5 0 0 0;
#X connect 6 0 5 1;
#X connect 7 0 8 0;
#X connect 8 0 9 1;
#X connect 9 0 14 0;
#X connect 14 0 11 0;
#X connect 15 0 14 1;
#X connect 18 0 4 0;
#X connect 19 0 18 1;
#X restore 93 255 pd BD;
#N canvas 142 216 694 545 SD 0;
#X obj 121 379 outlet;
#X text 206 442 TODO: the higher pitch the shorter duration (keyboard
tracking), f 63;
#X obj 90 49 inlet;
#X text 130 50 pitch \, dur \, gate \, accent;
#X obj 90 140 unpack f f f f;
#X obj 120 357 pack;
#X obj 201 288 * 100;
#X obj 473 250 r \$0ms_in_tick;
#X obj 473 270 * 4;
#X obj 458 290 *;
#X text 167 380 pitch \, dur;
#X obj 482 372 outlet;
#X text 528 373 gate \, accent;
#X text 238 281 dur in tenths of a second, f 13;
#X obj 481 350 pack;
#X obj 579 234 t f;
#X obj 578 110 print;
#X obj 461 320 * 1;
#X text 402 321 gate-mod;
#X obj 66 275 +;
#X text 91 275 pitch-mod;
#X obj 201 262 * 1;
#X text 226 262 dur-mod;
#X obj 90 97 spigot;
#X obj 123 79 tgl 15 0 empty sd_enable empty 17 7 0 10 -262144 -1 -1
0 1;
#X connect 2 0 23 0;
#X connect 4 0 19 0;
#X connect 4 1 21 0;
#X connect 4 2 9 0;
#X connect 4 3 15 0;
#X connect 5 0 0 0;
#X connect 6 0 5 1;
#X connect 7 0 8 0;
#X connect 8 0 9 1;
#X connect 9 0 17 0;
#X connect 14 0 11 0;
#X connect 15 0 14 1;
#X connect 17 0 14 0;
#X connect 19 0 5 0;
#X connect 21 0 6 0;
#X connect 23 0 4 0;
#X connect 24 0 23 1;
#X restore 282 260 pd SD;
#N canvas 142 216 694 545 HH 0;
#X obj 121 379 outlet;
#X text 206 442 TODO: the higher pitch the shorter duration (keyboard
tracking), f 63;
#X obj 90 49 inlet;
#X obj 120 357 pack;
#X obj 191 287 * 100;
#X obj 473 250 r \$0ms_in_tick;
#X obj 473 270 * 4;
#X obj 458 290 *;
#X text 167 380 pitch \, dur;
#X obj 482 372 outlet;
#X text 528 373 gate \, accent;
#X text 228 280 dur in tenths of a second, f 13;
#X obj 481 350 pack;
#X obj 579 234 t f;
#X obj 461 320 * 1;
#X text 402 321 gate-mod;
#X obj 66 275 +;
#X text 91 275 pitch-mod;
#X obj 191 261 * 1;
#X text 216 261 dur-mod;
#X obj 90 97 spigot;
#X obj 123 79 tgl 15 0 empty hh_enable empty 17 7 0 10 -262144 -1 -1
0 1;
#X obj 66 215 f 139;
#X obj 191 216 f 4;
#X obj 90 119 t b b l;
#X text 130 50 gate \, accent;
#X obj 412 167 unpack;
#X connect 2 0 20 0;
#X connect 3 0 0 0;
#X connect 4 0 3 1;
#X connect 5 0 6 0;
#X connect 6 0 7 1;
#X connect 7 0 14 0;
#X connect 12 0 9 0;
#X connect 13 0 12 1;
#X connect 14 0 12 0;
#X connect 16 0 3 0;
#X connect 18 0 4 0;
#X connect 20 0 24 0;
#X connect 21 0 20 1;
#X connect 22 0 16 0;
#X connect 23 0 18 0;
#X connect 24 0 22 0;
#X connect 24 1 23 0;
#X connect 24 2 26 0;
#X connect 26 0 7 0;
#X connect 26 1 13 0;
#X restore 534 263 pd HH;
#X obj 105 431 throw~ bd;
#X obj 94 513 catch~ bd;
#X obj 272 467 throw~ sd_l;
#X obj 293 446 throw~ sd_r;
#X obj 100 534 catch~ sd_l;
#X obj 107 555 catch~ sd_r;
#X obj 500 436 throw~ hh_l;
#X obj 521 415 throw~ hh_r;
#X obj 122 597 catch~ hh_r;
#X obj 115 576 catch~ hh_l;
#X obj 557 234 print;
#X connect 0 0 11 0;
#X connect 1 0 19 0;
#X connect 2 0 1 1;
#X connect 4 0 5 0;
#X connect 5 0 60 0;
#X connect 6 0 3 0;
#X connect 7 0 16 1;
#X connect 8 0 29 0;
#X connect 8 1 30 0;
#X connect 11 0 13 0;
#X connect 11 1 12 0;
#X connect 12 0 14 0;
#X connect 12 0 39 0;
#X connect 13 0 15 0;
#X connect 13 0 54 0;
#X connect 16 0 20 0;
#X connect 17 0 24 0;
#X connect 18 0 46 0;
#X connect 19 0 4 0;
#X connect 20 0 8 0;
#X connect 22 0 18 0;
#X connect 24 0 57 0;
#X connect 24 1 58 0;
#X connect 25 0 26 0;
#X connect 26 0 5 0;
#X connect 27 0 29 1;
#X connect 27 0 30 1;
#X connect 28 0 27 0;
#X connect 29 0 31 0;
#X connect 30 0 32 0;
#X connect 31 0 62 0;
#X connect 32 0 63 0;
#X connect 34 0 5 1;
#X connect 35 0 26 1;
#X connect 36 0 31 1;
#X connect 36 0 32 1;
#X connect 37 0 27 1;
#X connect 39 0 38 0;
#X connect 39 0 53 0;
#X connect 41 0 42 1;
#X connect 42 0 43 0;
#X connect 43 0 49 0;
#X connect 44 0 45 0;
#X connect 45 0 47 0;
#X connect 46 0 23 0;
#X connect 47 0 23 0;
#X connect 48 0 59 0;
#X connect 49 0 50 0;
#X connect 50 0 66 0;
#X connect 50 0 67 0;
#X connect 51 0 50 1;
#X connect 55 0 22 0;
#X connect 55 0 44 0;
#X connect 56 0 17 0;
#X connect 56 0 48 0;
#X connect 57 0 1 0;
#X connect 57 1 19 1;
#X connect 57 1 25 0;
#X connect 58 0 16 0;
#X connect 58 1 20 1;
#X connect 58 1 28 0;
#X connect 59 0 42 0;
#X connect 59 1 43 1;
#X connect 61 0 9 0;
#X connect 61 0 10 0;
#X connect 64 0 9 0;
#X connect 65 0 10 0;
#X connect 68 0 10 0;
#X connect 69 0 9 0;
#X restore 389 388 pd v2;
#X obj 44 584 tgl 15 0 \$0play empty start 17 7 0 15 -262144 -1 -1
1 1;
#X obj 40 606 cnv 15 190 90 empty empty empty 20 12 0 14 -228856 -66577
0;
#X obj 44 622 tgl 15 0 drums_enable sound_enable drums 17 7 0 10 -262144
-1 -1 0 1;
#X obj 44 639 tgl 15 0 tune_enable sound_enable tune 17 7 0 10 -262144
-1 -1 0 1;
#X obj 44 656 tgl 15 0 pad_enable sound_enable pad 17 7 0 10 -262144
-1 -1 0 1;
#X text 42 604 mute/unmute sounds;
#X obj 95 622 tgl 15 0 bd_enable sound_enable bd 17 7 0 10 -262144
-1 -1 0 1;
#X obj 126 622 tgl 15 0 sd_enable sound_enable sd 17 7 0 10 -262144
-1 -1 0 1;
#X obj 158 622 tgl 15 0 hh_enable sound_enable hh 17 7 0 10 -262144
-1 -1 0 1;
#X obj 189 622 tgl 15 0 fx_enable sound_enable fx 17 7 0 10 -262144
-1 -1 0 1;
#X obj 121 707 catch~ main_l;
#X obj 153 732 catch~ main_r;
#X obj 121 829 output~;
#X obj 121 802 +~;
#X obj 153 802 +~;
#N canvas 0 23 450 300 rev 0;
#X obj 57 49 inlet~;
#X obj 57 166 outlet~;
#X obj 189 50 inlet~;
#X obj 189 167 outlet~;
#X connect 0 0 1 0;
#X connect 2 0 3 0;
#X restore 62 761 pd rev;
#X obj 381 467 datavis4-GOP;
#N canvas 0 22 450 300 fx 0;
#X obj 104 77 inlet~;
#X obj 145 195 throw~ main_l;
#X obj 158 171 throw~ main_r;
#X obj 141 102 inlet~;
#X obj 112 140 *~;
#X obj 146 144 *~;
#X obj 238 100 inlet~;
#X connect 0 0 4 0;
#X connect 3 0 5 0;
#X connect 4 0 1 0;
#X connect 5 0 2 0;
#X connect 6 0 4 1;
#X connect 6 0 5 1;
#X restore 389 411 pd fx;
#N canvas 72 201 895 686 v3 0;
#N canvas 0 22 450 278 (subpatch) 0;
#X array peaks 16 float 3;
#A 0 38.5709 43.571 50.7141 57.8572 62.1431 63.5715 69.2859 72.8573
72.143 66.4287 57.1429 44.9998 32.8568 12.8566 7.85654 5.71365;
#X coords 0 100 16 0 200 140 1 0 0;
#X restore 481 379 graph;
#X obj 98 397 pack f f f;
#X obj 350 267 *;
#X obj 555 104 switch~;
#X floatatom 358 290 5 0 0 0 - - -, f 5;
#X text 548 347 variable timbre;
#X obj 326 436 mtl/spectrum~;
#X obj 73 25 inlet;
#X obj 108 480 outlet~;
#X obj 198 479 outlet~;
#X obj 109 74 mod 8;
#X floatatom 120 49 3 0 0 0 - - -, f 3;
#X obj 369 219 r \$0ms_in_tick;
#X obj 369 239 * 4;
#X obj 45 72 div 8;
#X obj 45 94 change;
#X obj 54 123 t f b;
#X floatatom 68 151 5 0 0 0 - - -, f 5;
#X obj 555 82 r pad_enable;
#X obj 113 211 sel 0 1 2 3;
#X floatatom 145 321 3 0 0 0 - - -, f 3;
#X obj 139 272 array get \$0tune_scale 0 1;
#X obj 100 454 *~ 7;
#X obj 193 452 *~ 7;
#X obj 37 332 f;
#X obj 64 332 + 1;
#X obj 90 332 mod 4;
#X obj 37 174 t b f;
#X msg 310 216 2, f 2;
#X msg 98 241 0;
#X msg 166 241 1, f 2;
#X obj 137 300 + 12;
#X msg 203 241 4, f 2;
#X msg 130 241 1, f 2;
#X obj 98 425 clone 4 sinebank;
#X obj 98 181 mod 2;
#X text 134 182 TEMP;
#X text 542 334 morph bw presets;
#X text 522 316 TODO:;
#X obj 671 190 lists-xfade;
#X msg 719 131 1 1 1;
#X msg 748 155 2 2 2;
#X floatatom 671 144 5 0 0 0 - - -, f 5;
#X obj 671 163 / 100;
#X obj 671 212 list prepend set;
#X obj 671 234 list trim;
#X msg 671 256 1 1 1, f 21;
#X connect 1 0 34 0;
#X connect 2 0 1 2;
#X connect 2 0 4 0;
#X connect 7 0 10 0;
#X connect 7 0 11 0;
#X connect 7 0 14 0;
#X connect 12 0 13 0;
#X connect 13 0 2 1;
#X connect 14 0 15 0;
#X connect 15 0 16 0;
#X connect 16 0 17 0;
#X connect 16 0 27 0;
#X connect 16 1 28 0;
#X connect 18 0 3 0;
#X connect 19 0 29 0;
#X connect 19 1 33 0;
#X connect 19 2 30 0;
#X connect 19 3 32 0;
#X connect 21 0 31 0;
#X connect 22 0 8 0;
#X connect 23 0 9 0;
#X connect 23 0 6 0;
#X connect 24 0 25 0;
#X connect 24 0 1 0;
#X connect 25 0 26 0;
#X connect 26 0 24 1;
#X connect 27 0 24 0;
#X connect 27 1 35 0;
#X connect 28 0 2 0;
#X connect 29 0 21 0;
#X connect 30 0 21 0;
#X connect 31 0 20 0;
#X connect 31 0 1 1;
#X connect 32 0 21 0;
#X connect 33 0 21 0;
#X connect 34 0 22 0;
#X connect 34 1 23 0;
#X connect 35 0 19 0;
#X connect 39 0 44 0;
#X connect 40 0 39 1;
#X connect 41 0 39 2;
#X connect 42 0 43 0;
#X connect 43 0 39 0;
#X connect 44 0 45 0;
#X connect 45 0 46 0;
#X restore 518 371 pd v3;
#N canvas 659 274 713 535 fx 0;
#X obj 133 279 throw~ main_l;
#X obj 208 256 throw~ main_r;
#X obj 102 53 inlet~;
#X obj 176 53 inlet~;
#X obj 112 167 tof/crossfade~;
#X obj 434 210 cnv 15 200 20 empty empty /stereoexpand/ 2 12 0 8 -258401
-262144 0;
#X obj 435 241 hsl 100 15 0 1 0 0 /stereoexpand/rolloff /stereoexpand/rolloff_
rolloff 105 7 0 8 -262144 -1 -1 1980 1;
#X obj 435 260 hsl 100 15 0 200 0 0 /stereoexpand/width /stereoexpand/width_
width 105 7 0 8 -262144 -1 -1 10 1;
#X obj 180 119 mtl/stereoexpand~ /id stereoexpand;
#X obj 127 228 *~;
#X obj 203 225 *~;
#X obj 485 142 line~;
#X obj 483 118 pack 0 50;
#X floatatom 486 78 5 0 100 0 - - -, f 5;
#X obj 486 97 / 100;
#X obj 240 188 inlet~;
#X connect 2 0 8 0;
#X connect 2 0 4 0;
#X connect 3 0 8 1;
#X connect 3 0 4 1;
#X connect 4 0 9 0;
#X connect 4 1 10 0;
#X connect 8 0 4 2;
#X connect 8 1 4 3;
#X connect 9 0 0 0;
#X connect 10 0 1 0;
#X connect 11 0 4 4;
#X connect 12 0 11 0;
#X connect 13 0 14 0;
#X connect 14 0 12 0;
#X connect 15 0 9 1;
#X connect 15 0 10 1;
#X restore 518 392 pd fx;
#X obj 561 378 sig~;
#X floatatom 561 360 5 0 0 0 - - -, f 5;
#X obj 561 400 dbtorms~;
#X obj 431 398 sig~;
#X floatatom 431 380 5 0 0 0 - - -, f 5;
#X obj 431 420 dbtorms~;
#X obj 197 352 sig~;
#X floatatom 197 334 5 0 0 0 - - -, f 5;
#X obj 197 374 dbtorms~;
#N canvas 274 393 450 300 clone 0;
#N canvas 94 120 203 196 voice_id 0;
#X obj 64 58 f;
#X obj 64 83 mod 3;
#X obj 100 59 + 1;
#X obj 64 33 inlet;
#X text 112 33 bang;
#X obj 64 108 outlet;
#X connect 0 0 1 0;
#X connect 1 0 2 0;
#X connect 1 0 5 0;
#X connect 2 0 0 1;
#X connect 3 0 0 0;
#X restore 160 120 pd voice_id;
#X obj 67 143 list prepend;
#X obj 67 100 t l b;
#X obj 67 68 inlet;
#X obj 67 202 outlet~;
#X obj 67 174 clone;
#X connect 0 0 1 1;
#X connect 2 0 1 0;
#X connect 2 1 0 0;
#X connect 3 0 2 0;
#X restore 85 367 pd clone;
#X obj 44 673 tgl 15 0 bass_enable sound_enable bass 17 7 0 10 -262144
-1 -1 0 1;
#X msg 855 624 \; \$1rev 5 \; \$1init bang \;;
#X obj 208 85 seq;
#X floatatom 176 235 3 0 0 0 - - -, f 3;
#X obj 117 85 seq;
#X floatatom 266 235 3 0 0 0 - - -, f 3;
#X connect 0 0 1 0;
#X connect 1 0 42 0;
#X connect 5 0 4 0;
#X connect 7 0 6 0;
#X connect 7 1 27 0;
#X connect 9 0 45 0;
#X connect 9 1 43 0;
#X connect 10 0 28 0;
#X connect 10 1 28 1;
#X connect 10 2 27 0;
#X connect 21 0 24 0;
#X connect 21 0 26 0;
#X connect 22 0 25 0;
#X connect 22 0 26 1;
#X connect 24 0 23 0;
#X connect 25 0 23 1;
#X connect 26 0 24 1;
#X connect 26 1 25 1;
#X connect 29 0 30 0;
#X connect 29 1 30 1;
#X connect 31 0 33 0;
#X connect 32 0 31 0;
#X connect 33 0 30 2;
#X connect 34 0 36 0;
#X connect 35 0 34 0;
#X connect 36 0 28 2;
#X connect 37 0 39 0;
#X connect 38 0 37 0;
#X connect 39 0 6 1;
#X connect 43 0 46 0;
#X connect 45 0 7 0;
#X connect 45 0 10 0;
#X connect 45 0 29 0;
#X connect 45 0 44 0;
