#N struct main float n float x float y array circle-xs point array
circle-s point array circle-m point array circle-l point array poly-xs
pnt array poly-s pnt array poly-m pnt array poly-l pnt;
#N struct point float x float y float pa float na float color float
v;
#N struct pnt float x float y;
#N canvas 224 46 1063 812 12;
#X declare -path lst;
#X declare -path seq;
#X declare -path pitches;
#X declare -path ext;
#X declare -path reader;
#X declare -path pdkm;
#X declare -path bella;
#X obj 855 574 loadbang;
#X obj 855 599 f \$0;
#N canvas 0 22 737 536 misc 0;
#X obj 365 318 mtl/transpose;
#X floatatom 481 295 5 0 0 0 - - -, f 5;
#X obj 224 220 f;
#X obj 224 365 + 48;
#X obj 265 220 + 1;
#X obj 224 338 list-obix;
#X obj 224 245 mod 10;
#X obj 287 246 list length;
#X obj 224 270 t f f;
#N canvas 0 22 450 300 barcount 0;
#X obj 82 60 sel;
#X obj 82 94 f;
#X obj 123 94 + 1;
#X obj 82 151 mod 2;
#X obj 82 32 inlet;
#X obj 244 57 inlet;
#X text 299 59 #bars loop;
#X obj 82 180 s \$0bar_count;
#X connect 0 0 1 0;
#X connect 1 0 3 0;
#X connect 2 0 1 1;
#X connect 3 0 2 0;
#X connect 3 0 7 0;
#X connect 4 0 0 0;
#X connect 5 0 3 1;
#X restore 261 294 pd barcount;
#X obj 481 114 r \$0bar_count;
#X floatatom 499 139 5 0 0 0 - - -, f 5;
#X obj 481 163 route 0 1;
#X msg 451 207 0 4 7 9.75 5 4;
#X msg 463 238 0 4 5 8.25 5 4;
#X connect 0 0 5 1;
#X connect 1 0 0 1;
#X connect 2 0 6 0;
#X connect 4 0 2 1;
#X connect 5 0 3 0;
#X connect 6 0 4 0;
#X connect 6 0 8 0;
#X connect 7 0 6 1;
#X connect 8 0 5 0;
#X connect 8 1 9 0;
#X connect 10 0 11 0;
#X connect 10 0 12 0;
#X connect 12 0 13 0;
#X connect 12 1 14 0;
#X connect 13 0 7 0;
#X connect 13 0 0 0;
#X connect 14 0 0 0;
#X connect 14 0 7 0;
#X restore 855 712 pd misc;
#X text 434 232 make stevie;
#X obj 633 541 s \$0reset;
#X msg 633 515 bang;
#X obj 724 541 s \$0play;
#X msg 724 515 1, f 2;
#X msg 768 515 0, f 2;
#N canvas 274 393 450 300 instr 0;
#N canvas 94 120 203 196 voice_id 0;
#X obj 64 58 f;
#X obj 64 83 mod 3;
#X obj 100 59 + 1;
#X obj 64 33 inlet;
#X text 112 33 bang;
#X obj 64 108 outlet;
#X connect 0 0 1 0;
#X connect 1 0 2 0;
#X connect 1 0 5 0;
#X connect 2 0 0 1;
#X connect 3 0 0 0;
#X restore 160 120 pd voice_id;
#X obj 67 143 list prepend;
#X obj 67 100 t l b;
#X obj 67 68 inlet;
#X obj 67 202 outlet~;
#X obj 67 174 clone;
#X connect 0 0 1 1;
#X connect 2 0 1 0;
#X connect 2 1 0 0;
#X connect 3 0 2 0;
#X restore 40 305 pd instr;
#N canvas 660 274 713 535 fx 0;
#X obj 273 118 rev1~;
#X floatatom 291 96 5 0 0 0 - #0rev -, f 5;
#X obj 180 241 tof/crossfade~ 1;
#X floatatom 282 30 5 0 0 0 - - -, f 5;
#X floatatom 305 193 5 0 0 0 - - -, f 5;
#X obj 234 58 clip~ -0.1 1;
#X obj 151 23 inlet~;
#X obj 305 214 sig~ 0.8;
#X text 379 215 0.08;
#X obj 234 204 hip~ 20;
#X obj 35 183 bp~ 10000 5;
#X obj 35 158 bp~ 1000 5;
#X text 262 267 [800 \, 3000];
#X obj 430 330 pack f 15000;
#X obj 457 217 metro 15000;
#X obj 474 197 tgl 15 0 empty empty empty 17 7 0 10 -262144 -1 -1 0
1;
#X obj 455 250 f;
#X obj 489 250 + 1;
#X obj 522 250 mod 2;
#X obj 455 273 moses 1;
#X msg 508 298 800;
#X floatatom 381 409 5 0 0 0 - - -, f 5;
#X obj 180 292 *~ 5;
#X obj 151 133 hip~ 150;
#X msg 455 298 5000;
#X obj 180 267 bp~ 800 5;
#X obj 429 355 line 800;
#X obj 292 151 *~ 0.25;
#X obj 173 423 throw~ main_l;
#X obj 186 399 throw~ main_r;
#N canvas 0 22 450 300 (subpatch) 0;
#X obj 65 66 inlet~;
#X obj 69 202 outlet~;
#X obj 261 65 inlet~;
#X obj 265 201 outlet~;
#X obj 65 129 *~;
#X obj 255 138 *~;
#X obj 343 93 inlet~;
#X connect 0 0 4 0;
#X connect 2 0 5 0;
#X connect 4 0 1 0;
#X connect 5 0 3 0;
#X connect 6 0 4 1;
#X connect 6 0 5 1;
#X restore 155 356 pd;
#X obj 190 354 db~ 97;
#X connect 0 0 9 0;
#X connect 1 0 0 1;
#X connect 2 0 25 0;
#X connect 3 0 5 1;
#X connect 4 0 7 0;
#X connect 5 0 0 0;
#X connect 6 0 23 0;
#X connect 6 0 5 0;
#X connect 7 0 2 2;
#X connect 9 0 2 1;
#X connect 13 0 26 0;
#X connect 14 0 16 0;
#X connect 15 0 14 0;
#X connect 16 0 17 0;
#X connect 16 0 19 0;
#X connect 17 0 18 0;
#X connect 18 0 16 1;
#X connect 19 0 24 0;
#X connect 19 1 20 0;
#X connect 20 0 13 0;
#X connect 22 0 30 0;
#X connect 22 0 30 1;
#X connect 23 0 2 0;
#X connect 24 0 13 0;
#X connect 25 0 22 0;
#X connect 26 0 21 0;
#X connect 26 0 25 1;
#X connect 27 0 9 0;
#X connect 30 0 28 0;
#X connect 30 1 29 0;
#X connect 31 0 30 2;
#X restore 117 303 pd fx;
#N canvas 238 185 728 663 v1 0;
#N canvas 397 245 1000 814 note 0;
#X obj 538 82 inlet;
#X obj 170 256 outlet;
#N canvas 587 160 751 587 interpreter 0;
#X obj 80 83 inlet;
#X obj 133 447 pack;
#X obj 80 108 t f f;
#X obj 410 246 * 100;
#X obj 410 271 / 16;
#X text 455 272 4 bars/measure \, 4 16ths/bar;
#X text 472 298 ms in a 16th note;
#X floatatom 426 298 5 0 0 0 - - -, f 5;
#X obj 389 324 *;
#X obj 133 503 outlet;
#X obj 409 221 r \$0ms_in_tick;
#X text 198 282 pitch index;
#X text 197 339 pitch;
#X floatatom 154 284 5 0 0 0 - - -, f 5;
#X floatatom 153 341 5 0 0 0 - - -, f 5;
#X obj 169 388 midinum;
#X floatatom 86 131 3 0 0 0 - - -, f 3;
#X obj 133 258 - 1;
#X obj 80 189 moses 1;
#X obj 336 189 moses 1;
#X obj 244 491 print note;
#X obj 244 467 spigot;
#X obj 297 467 tgl 15 0 empty empty empty 17 7 0 10 -262144 -1 -1 0
1;
#X obj 389 350 * 1;
#X floatatom 419 402 5 0 0 0 - - -, f 5;
#X floatatom 340 261 5 0 0 0 - - -, f 5;
#X text 179 367 60;
#X obj 133 368 + 48;
#X obj 80 164 array get \$0tune_pi 0 1;
#X obj 336 164 array get \$0tune_dur 0 1;
#X obj 133 308 array get \$0tune_scale 0 1;
#X connect 0 0 2 0;
#X connect 1 0 9 0;
#X connect 1 0 21 0;
#X connect 2 0 16 0;
#X connect 2 0 28 0;
#X connect 2 1 29 0;
#X connect 3 0 4 0;
#X connect 4 0 7 0;
#X connect 4 0 8 1;
#X connect 8 0 23 0;
#X connect 10 0 3 0;
#X connect 17 0 13 0;
#X connect 17 0 30 0;
#X connect 18 1 17 0;
#X connect 19 1 8 0;
#X connect 21 0 20 0;
#X connect 22 0 21 1;
#X connect 23 0 1 1;
#X connect 23 0 24 0;
#X connect 27 0 1 0;
#X connect 27 0 15 0;
#X connect 28 0 18 0;
#X connect 29 0 19 0;
#X connect 30 0 14 0;
#X connect 30 0 27 0;
#X restore 170 232 pd interpreter;
#X obj 325 457 r \$0init;
#X obj 362 537 list length;
#X obj 325 510 t l l;
#X obj 572 352 bng 15 250 50 0 empty empty empty 17 7 0 10 -262144
-1 -1;
#X obj 572 395 print;
#X obj 325 486 black_keys;
#X text 227 257 pitch \, dur;
#X obj 170 83 inlet;
#X text 646 96 pi pitch index;
#X text 645 117 dur note duration;
#X obj 581 234 list-distrib;
#X obj 360 233 list-distrib;
#X obj 453 139 list-map;
#X obj 527 139 + 1;
#X obj 538 107 route pi dur;
#X obj 619 324 print pi;
#X obj 721 324 print dur;
#X obj 315 306 list length;
#X obj 278 147 t l l;
#X obj 91 414 print onsets;
#X obj 170 108 route float;
#X obj 315 331 change;
#X obj 91 387 spigot;
#X obj 144 387 tgl 15 0 empty empty empty 17 7 0 10 -262144 -1 -1 0
1;
#X obj 721 300 spigot;
#X obj 774 300 tgl 15 0 empty empty empty 17 7 0 10 -262144 -1 -1 0
1;
#X obj 619 300 spigot;
#X obj 672 300 tgl 15 0 empty empty empty 17 7 0 10 -262144 -1 -1 0
1;
#X obj 590 466 array define \$0tune_pi;
#X obj 590 490 array define \$0tune_dur;
#X obj 590 514 array define \$0tune_scale;
#X obj 360 256 array set \$0tune_pi;
#X obj 581 257 array set \$0tune_dur;
#X obj 315 396 array size \$0tune_dur;
#X obj 323 373 array size \$0tune_pi;
#X obj 362 562 array size \$0tune_scale;
#X obj 325 591 array set \$0tune_scale;
#X obj 572 371 array get \$0tune_scale;
#X connect 0 0 17 0;
#X connect 2 0 1 0;
#X connect 3 0 8 0;
#X connect 4 0 38 0;
#X connect 5 0 39 0;
#X connect 5 1 4 0;
#X connect 6 0 40 0;
#X connect 8 0 5 0;
#X connect 10 0 23 0;
#X connect 13 0 27 0;
#X connect 13 0 35 0;
#X connect 14 0 29 0;
#X connect 14 0 34 0;
#X connect 15 0 14 1;
#X connect 15 1 16 0;
#X connect 16 0 15 1;
#X connect 17 0 15 0;
#X connect 17 1 13 1;
#X connect 20 0 24 0;
#X connect 21 0 13 0;
#X connect 21 0 14 0;
#X connect 21 0 25 0;
#X connect 21 1 20 0;
#X connect 23 0 2 0;
#X connect 23 1 21 0;
#X connect 24 0 36 0;
#X connect 24 0 37 0;
#X connect 25 0 22 0;
#X connect 26 0 25 1;
#X connect 27 0 19 0;
#X connect 28 0 27 1;
#X connect 29 0 18 0;
#X connect 30 0 29 1;
#X connect 40 0 7 0;
#X restore 283 427 pd note;
#X obj 438 467 list-map;
#X obj 516 467 * 100;
#X obj 283 296 phrase3;
#X obj 438 521 outlet;
#X obj 134 40 inlet;
#X text 183 40 bar \, beat pair;
#X obj 336 230 reader pat01 pat02 3;
#X obj 134 136 swap;
#X floatatom 160 165 3 0 0 0 - - -, f 3;
#X text 407 233 pattern \, pitch idx \, duration;
#X obj 315 131 change -1;
#X obj 336 265 route list;
#X obj 283 183 t b f;
#X obj 438 492 list prepend 0;
#X obj 283 493 wavsh~;
#X obj 283 519 outlet~;
#X obj 521 134 r tune_enable;
#X obj 521 159 switch~;
#X connect 0 0 15 0;
#X connect 1 0 14 0;
#X connect 1 1 2 0;
#X connect 2 0 1 1;
#X connect 3 0 0 0;
#X connect 3 1 1 0;
#X connect 5 0 8 0;
#X connect 7 0 12 0;
#X connect 8 0 9 0;
#X connect 8 0 0 0;
#X connect 8 1 13 0;
#X connect 11 0 13 0;
#X connect 12 0 3 1;
#X connect 12 1 0 1;
#X connect 13 0 3 0;
#X connect 13 1 7 0;
#X connect 14 0 4 0;
#X connect 15 0 16 0;
#X connect 17 0 18 0;
#X restore 117 280 pd v1;
#X msg 855 624 \; \$1rev 5 \; \$1init bang \;;
#N canvas 0 22 450 300 decl 0;
#X obj 38 56 declare -path lst;
#X obj 38 82 declare -path seq;
#X obj 38 108 declare -path pitches;
#X obj 38 134 declare -path ext;
#X obj 38 160 declare -path reader;
#X obj 38 186 declare -path pdkm;
#X obj 38 213 declare -path bella;
#X restore 855 685 pd decl;
#N canvas 72 209 536 530 seq 0;
#X floatatom 103 120 3 0 0 1 tpb - #0tpb, f 3;
#X text 179 120 ticks/bar;
#X text 180 141 #bars;
#X floatatom 103 141 3 0 0 1 bs - _#0bs, f 3;
#X obj 103 20 r \$0init;
#X obj 105 402 outlet;
#X obj 103 45 pack 16 2;
#X obj 103 70 unpack;
#X obj 285 142 inlet;
#N canvas 212 23 829 855 range 0;
#X floatatom 103 121 2 0 1e+38 1 b - _#0b, f 2;
#X floatatom 103 163 2 1 1e+38 1 qbs - _#0qbs, f 2;
#X obj 58 14 inlet;
#X obj 58 816 outlet;
#X floatatom 103 142 2 0 3 1 qb - _#0qb, f 2;
#X text 92 697 ticks to skip;
#X obj 237 415 r _\$0b;
#X obj 307 276 r _\$0qb;
#X obj 307 375 *;
#X obj 356 339 / 4;
#X obj 290 487 *;
#X obj 304 517 +;
#X obj 307 400 t b f;
#X text 91 647 ticks to play;
#X obj 202 383 *;
#X obj 58 646 mod;
#X floatatom 66 670 3 0 0 0 - - -, f 3;
#X obj 58 696 +;
#X floatatom 70 722 5 0 0 0 - - -, f 5;
#X obj 202 275 r _\$0qbs;
#X obj 202 343 f;
#X text 91 756 ticks total;
#X obj 422 539 *;
#X obj 468 197 r _\$0bs;
#X obj 455 249 f;
#X obj 468 222 t b f;
#X obj 58 756 mod;
#X floatatom 120 776 5 0 0 0 - - -, f 5;
#X obj 134 121 tgl 20 1 \$0_bp empty bp 2 8 0 14 -262144 -1 -1 0 1
;
#X obj 89 280 expr $i1^1;
#X obj 58 323 spigot;
#X obj 276 454 f;
#X obj 307 336 f;
#X obj 385 283 t b f;
#X obj 115 323 spigot;
#X obj 224 195 r \$0_bp;
#X obj 171 573 pack 0 f f f;
#X obj 171 598 unpack 0 f f f;
#X obj 105 251 f;
#X obj 280 85 sel;
#X obj 105 217 t b b;
#X obj 58 177 t f;
#X obj 280 57 mod;
#X obj 58 37 t f f;
#X text 310 58 upd every bar (cud be a quarter-bar);
#X text 412 683 wraps around;
#X text 411 664 select a range to play;
#X obj 455 37 r \$0tpb;
#X connect 2 0 43 0;
#X connect 6 0 31 0;
#X connect 7 0 32 0;
#X connect 8 0 12 0;
#X connect 9 0 8 1;
#X connect 9 0 14 1;
#X connect 10 0 11 0;
#X connect 11 0 36 2;
#X connect 12 0 31 0;
#X connect 12 1 11 1;
#X connect 14 0 36 1;
#X connect 15 0 16 0;
#X connect 15 0 17 0;
#X connect 17 0 18 0;
#X connect 17 0 26 0;
#X connect 19 0 20 0;
#X connect 20 0 14 0;
#X connect 22 0 36 3;
#X connect 23 0 25 0;
#X connect 24 0 33 0;
#X connect 25 0 24 0;
#X connect 25 1 22 1;
#X connect 26 0 27 0;
#X connect 26 0 3 0;
#X connect 29 0 30 1;
#X connect 30 0 15 0;
#X connect 31 0 10 0;
#X connect 32 0 8 0;
#X connect 33 0 32 0;
#X connect 33 0 20 0;
#X connect 33 1 22 0;
#X connect 33 1 10 1;
#X connect 33 1 9 0;
#X connect 34 0 26 0;
#X connect 35 0 38 1;
#X connect 36 0 37 0;
#X connect 37 1 15 1;
#X connect 37 2 17 1;
#X connect 37 3 26 1;
#X connect 38 0 34 1;
#X connect 38 0 29 0;
#X connect 39 0 40 0;
#X connect 40 0 38 0;
#X connect 40 1 36 0;
#X connect 41 0 34 0;
#X connect 41 0 30 0;
#X connect 42 0 39 0;
#X connect 43 0 41 0;
#X connect 43 1 42 0;
#X connect 47 0 24 0;
#X connect 47 0 42 1;
#X coords 0 -1 1 1 60 85 1 100 100;
#X restore 103 162 pd range;
#X floatatom 123 269 3 0 0 0 - - -, f 3;
#X text 179 182 bar# to start from [0 \, inf) \, bypass tgl;
#X text 179 204 quarter-bar to start from [0 \, 3];
#X text 178 225 quarter-bars to play [1 \, inf);
#X obj 105 370 pack;
#X obj 105 300 t f f;
#X obj 105 335 div;
#X obj 167 335 mod;
#X text 333 143 clock;
#X text 162 403 bar \, beat pair;
#X obj 188 304 r \$0tpb;
#X connect 4 0 6 0;
#X connect 6 0 7 0;
#X connect 7 0 0 0;
#X connect 7 1 3 0;
#X connect 8 0 9 0;
#X connect 9 0 10 0;
#X connect 9 0 15 0;
#X connect 14 0 5 0;
#X connect 15 0 16 0;
#X connect 15 1 17 0;
#X connect 16 0 14 0;
#X connect 17 0 14 1;
#X connect 20 0 16 1;
#X connect 20 0 17 1;
#X coords 0 -1 1 1 74 150 1 100 100;
#X restore 117 75 pd seq;
#N canvas 219 161 473 446 cl 0;
#X obj 100 189 metro 1 64 samp;
#X obj 126 355 outlet;
#X obj 251 199 * 64;
#X obj 217 162 max 1;
#X obj 251 224 samptoms;
#X obj 251 249 s \$0ms_in_tick;
#X obj 100 162 r \$0play;
#X obj 100 229 spdctrl;
#X obj 126 320 f;
#X obj 160 320 + 1;
#X floatatom 103 119 3 0 0 1 spd - -, f 3;
#X obj 103 43 r \$0init;
#X obj 103 69 f 50;
#X text 221 57 clock with speed control;
#X obj 143 102 bng 15 250 50 0 empty \$0reset empty 17 7 0 10 -262144
-1 -1;
#X text 163 101 reset;
#X msg 185 271 0, f 2;
#X text 183 356 to sequencer;
#X obj 194 320 mod 1e+38;
#X connect 0 0 7 0;
#X connect 2 0 4 0;
#X connect 3 0 0 1;
#X connect 3 0 2 0;
#X connect 4 0 5 0;
#X connect 6 0 0 0;
#X connect 7 2 8 0;
#X connect 8 0 9 0;
#X connect 8 0 1 0;
#X connect 9 0 18 0;
#X connect 10 0 3 0;
#X connect 11 0 12 0;
#X connect 12 0 10 0;
#X connect 14 0 16 0;
#X connect 16 0 8 1;
#X connect 18 0 8 1;
#X coords 0 -1 1 1 60 40 1 100 100;
#X restore 117 32 pd cl;
#X obj 191 225 unpack;
#X floatatom 191 250 2 0 0 0 - - -, f 2;
#X floatatom 236 250 3 0 0 0 - - -, f 3;
#N canvas 535 162 800 668 v2 1;
#X obj 53 32 inlet;
#X obj 53 64 swap;
#X floatatom 58 86 3 0 0 0 - - -, f 3;
#X obj 106 96 change -1;
#X obj 92 119 t b f;
#X obj 68 377 bella~;
#N canvas 27 37 939 750 pitch-dur 0;
#X obj 154 145 t b b;
#X floatatom 190 440 5 0 0 0 - - -, f 5;
#X floatatom 219 410 5 0 0 0 - - -, f 5;
#X obj 61 42 inlet;
#X obj 305 669 outlet;
#X floatatom 86 319 0 0 0 0 - - -;
#X text 122 319 pitch;
#X obj 61 122 moses 1;
#X obj 289 76 tgl 15 0 empty empty empty 17 7 0 10 -262144 -1 -1 1
1;
#X obj 61 98 f;
#X text 311 75 pitch variation;
#X floatatom 660 241 0 0 0 0 - - -;
#X obj 660 264 * 100;
#X text 685 237 duration in tenths;
#X text 686 247 of a second;
#X obj 61 68 t b f;
#X obj 681 42 tgl 15 0 empty empty empty 17 7 0 10 -262144 -1 -1 0
1;
#X text 703 41 duration variation;
#X obj 260 572 pack;
#X obj 487 342 f;
#X obj 545 147 t b f b;
#X obj 574 239 spigot;
#X text 363 557 TODO: the higher pitch the shorter duration (keyboard
tracking), f 63;
#X floatatom 586 282 5 0 0 0 - - -, f 5;
#X obj 61 244 b;
#X obj 61 374 f;
#X obj 490 52 loadbang;
#X text 126 288 72;
#X obj 540 280 * 1.75;
#X obj 181 196 f;
#X obj 181 282 sel 1;
#X msg 181 304 0;
#X obj 181 234 t f f;
#X floatatom 257 310 5 0 0 0 - - -, f 5;
#X obj 239 288 t f;
#X msg 95 287 72;
#X obj 167 418 + 60;
#X obj 181 260 == 0.5;
#X obj 247 215 + 0.25;
#X text 714 270 8-20;
#X msg 701 207 8;
#X connect 0 1 29 0;
#X connect 2 0 36 1;
#X connect 3 0 15 0;
#X connect 5 0 25 1;
#X connect 7 0 24 0;
#X connect 7 1 0 0;
#X connect 8 0 9 1;
#X connect 9 0 7 0;
#X connect 11 0 12 0;
#X connect 12 0 19 1;
#X connect 15 0 9 0;
#X connect 15 1 20 0;
#X connect 16 0 21 1;
#X connect 18 0 4 0;
#X connect 19 0 18 1;
#X connect 20 0 19 0;
#X connect 20 1 21 0;
#X connect 20 2 11 0;
#X connect 21 0 28 0;
#X connect 23 0 28 1;
#X connect 24 0 5 0;
#X connect 24 0 25 0;
#X connect 25 0 18 0;
#X connect 26 0 40 0;
#X connect 26 0 8 0;
#X connect 28 0 19 1;
#X connect 29 0 32 0;
#X connect 30 0 31 0;
#X connect 31 0 29 1;
#X connect 32 0 37 0;
#X connect 32 1 34 0;
#X connect 32 1 38 0;
#X connect 34 0 33 0;
#X connect 34 0 36 0;
#X connect 35 0 5 0;
#X connect 36 0 1 0;
#X connect 36 0 18 0;
#X connect 37 0 30 0;
#X connect 38 0 29 1;
#X connect 40 0 11 0;
#X restore 68 353 pd pitch-dur;
#X floatatom 129 379 2 0 0 0 - - -, f 2;
#X obj 618 129 switch~;
#N canvas 0 22 450 300 fx 0;
#X obj 83 60 inlet~;
#X obj 83 167 outlet~;
#X floatatom 161 127 5 1 10 0 - - -, f 5;
#X obj 83 104 dkwesley~ 32 3;
#X obj 83 126 dktanh~ 7;
#X connect 0 0 3 0;
#X connect 2 0 4 1;
#X connect 3 0 4 0;
#X connect 4 0 1 0;
#X restore 68 401 pd fx;
#X obj 102 429 db~ 97;
#X obj 68 431 *~;
#X obj 618 107 r drums_enable;
#X obj 352 375 bella~;
#N canvas 27 37 939 750 pitch-dur 0;
#X obj 154 145 t b b;
#X floatatom 190 440 5 0 0 0 - - -, f 5;
#X floatatom 219 410 5 0 0 0 - - -, f 5;
#X obj 61 42 inlet;
#X obj 305 669 outlet;
#X floatatom 86 319 0 0 0 0 - - -;
#X text 122 319 pitch;
#X obj 61 122 moses 1;
#X obj 211 33 tgl 15 0 empty empty empty 17 7 0 10 -262144 -1 -1 0
1;
#X obj 61 98 f;
#X text 233 32 pitch variation;
#X floatatom 660 241 0 0 0 0 - - -;
#X obj 660 264 * 100;
#X text 685 237 duration in tenths;
#X text 686 247 of a second;
#X obj 61 68 t b f;
#X obj 681 42 tgl 15 0 empty empty empty 17 7 0 10 -262144 -1 -1 0
1;
#X text 703 41 duration variation;
#X obj 260 572 pack;
#X obj 487 342 f;
#X obj 545 147 t b f b;
#X obj 574 239 spigot;
#X text 442 500 TODO: the higher pitch the shorter duration (keyboard
tracking), f 63;
#X floatatom 586 282 5 0 0 0 - - -, f 5;
#X obj 61 244 b;
#X obj 61 374 f;
#X obj 490 52 loadbang;
#X text 126 288 72;
#X obj 540 280 * 1.75;
#X obj 181 196 f;
#X obj 181 282 sel 1;
#X msg 181 304 0;
#X obj 181 234 t f f;
#X floatatom 257 310 5 0 0 0 - - -, f 5;
#X obj 239 288 t f;
#X msg 95 287 72;
#X obj 167 418 + 91;
#X obj 181 260 == 1;
#X obj 247 215 + 0.25;
#X msg 701 207 20;
#X connect 0 1 29 0;
#X connect 2 0 36 1;
#X connect 3 0 15 0;
#X connect 5 0 25 1;
#X connect 7 0 24 0;
#X connect 7 1 0 0;
#X connect 8 0 9 1;
#X connect 9 0 7 0;
#X connect 11 0 12 0;
#X connect 12 0 19 1;
#X connect 15 0 9 0;
#X connect 15 1 20 0;
#X connect 16 0 21 1;
#X connect 18 0 4 0;
#X connect 19 0 18 1;
#X connect 20 0 19 0;
#X connect 20 1 21 0;
#X connect 20 2 11 0;
#X connect 21 0 28 0;
#X connect 23 0 28 1;
#X connect 24 0 5 0;
#X connect 24 0 25 0;
#X connect 25 0 18 0;
#X connect 26 0 35 0;
#X connect 26 0 39 0;
#X connect 28 0 19 1;
#X connect 29 0 32 0;
#X connect 30 0 31 0;
#X connect 31 0 29 1;
#X connect 32 0 37 0;
#X connect 32 1 34 0;
#X connect 32 1 38 0;
#X connect 34 0 33 0;
#X connect 34 0 36 0;
#X connect 35 0 5 0;
#X connect 36 0 1 0;
#X connect 36 0 18 0;
#X connect 37 0 30 0;
#X connect 38 0 29 1;
#X connect 39 0 11 0;
#X restore 352 350 pd pitch-dur;
#X floatatom 409 377 2 0 0 0 - - -, f 2;
#N canvas 0 22 614 593 fx 0;
#X obj 81 60 inlet~;
#X obj 121 392 outlet~;
#N canvas 0 22 450 300 rev 0;
#X floatatom 114 74 0 0 120 0 - - -;
#X text 155 74 level \, dB;
#X floatatom 149 96 0 0 100 0 - - -;
#X text 190 96 liveness \, 0-100;
#X floatatom 184 120 4 0 5000 0 - - -, f 4;
#X floatatom 219 143 0 0 100 0 - - -;
#X text 232 118 crossover frequency \, Hz.;
#X text 255 145 HF damping \, percent;
#X obj 38 91 inlet~;
#X obj 46 218 outlet~;
#X obj 108 226 outlet~;
#X obj 44 169 rev3~ 120 65 3000 20;
#X connect 0 0 11 2;
#X connect 2 0 11 3;
#X connect 4 0 11 4;
#X connect 5 0 11 5;
#X connect 8 0 11 0;
#X connect 11 0 9 0;
#X connect 11 1 10 0;
#X restore 80 310 pd rev;
#X floatatom 161 172 3 1 10 0 - - -, f 3;
#X obj 81 149 dkwesley~ 32 8;
#X obj 182 235 *~;
#N canvas 0 22 283 324 decay 0;
#X obj 77 83 f;
#X obj 109 83 + 1;
#X obj 77 129 route 0 1;
#X obj 77 61 t b l;
#X msg 152 107 \$2;
#X obj 67 233 vline~;
#X obj 93 186 *;
#X msg 68 210 1 5 \, 0 \$1 5;
#X msg 152 158 0.1;
#X obj 77 107 mod 3;
#X msg 76 156 0.5;
#X obj 79 31 inlet;
#X obj 67 255 outlet~;
#X msg 112 157 1;
#X connect 0 0 9 0;
#X connect 1 0 0 1;
#X connect 2 0 10 0;
#X connect 2 1 13 0;
#X connect 2 2 8 0;
#X connect 3 0 0 0;
#X connect 3 1 4 0;
#X connect 4 0 6 1;
#X connect 5 0 12 0;
#X connect 6 0 7 0;
#X connect 7 0 5 0;
#X connect 8 0 6 0;
#X connect 9 0 1 0;
#X connect 9 0 2 0;
#X connect 10 0 6 0;
#X connect 11 0 3 0;
#X connect 13 0 6 0;
#X restore 229 181 pd decay;
#X obj 81 170 dktanh~ 5;
#X obj 228 391 outlet~;
#X obj 109 346 tof/crossfade~;
#X obj 208 308 sig~;
#X floatatom 206 286 5 0 0 0 - - -, f 5;
#X text 304 183 TODO: replace with dur from file;
#X connect 0 0 4 0;
#X connect 2 0 9 0;
#X connect 2 1 9 1;
#X connect 3 0 7 1;
#X connect 4 0 7 0;
#X connect 5 0 2 0;
#X connect 5 0 9 2;
#X connect 5 0 9 3;
#X connect 6 0 5 1;
#X connect 7 0 5 0;
#X connect 9 0 1 0;
#X connect 9 1 8 0;
#X connect 10 0 9 4;
#X connect 11 0 10 0;
#X restore 352 399 pd fx;
#N canvas 0 22 450 300 (subpatch) 0;
#X obj 65 66 inlet~;
#X obj 69 202 outlet~;
#X obj 261 65 inlet~;
#X obj 265 201 outlet~;
#X obj 65 129 *~;
#X obj 255 138 *~;
#X obj 343 93 inlet~;
#X connect 0 0 4 0;
#X connect 2 0 5 0;
#X connect 4 0 1 0;
#X connect 5 0 3 0;
#X connect 6 0 4 1;
#X connect 6 0 5 1;
#X restore 359 434 pd;
#X obj 394 432 db~ 97;
#X obj 92 202 phrase3;
#X obj 145 175 route list;
#X text 217 146 pattern \, accent \, duration;
#X obj 145 144 reader dr01 dr02 3;
#X obj 503 222 list-map;
#X obj 581 222 * 100;
#X obj 503 272 outlet;
#N canvas 397 245 1000 814 note 0;
#X obj 538 82 inlet;
#X obj 60 219 outlet;
#X obj 434 485 r \$0init;
#X obj 170 83 inlet;
#X text 652 116 dur note duration;
#X obj 591 234 list-distrib;
#X obj 360 233 list-distrib;
#X obj 677 321 print pi;
#X obj 779 321 print dur;
#X obj 315 306 list length;
#X obj 278 147 t l l;
#X obj 91 414 print onsets;
#X obj 170 108 route float;
#X obj 315 331 change;
#X obj 91 387 spigot;
#X obj 144 387 tgl 15 0 empty empty empty 17 7 0 10 -262144 -1 -1 0
1;
#X obj 779 297 spigot;
#X obj 832 297 tgl 15 0 empty empty empty 17 7 0 10 -262144 -1 -1 0
1;
#X obj 677 297 spigot;
#X obj 730 297 tgl 15 0 empty empty empty 17 7 0 10 -262144 -1 -1 0
1;
#X obj 590 490 array define \$0bd_dur;
#X obj 315 396 array size \$0bd_dur;
#X obj 590 466 array define \$0bd_acc;
#X obj 323 373 array size \$0bd_acc;
#X obj 591 257 array set \$0bd_dur;
#X obj 360 256 array set \$0bd_acc;
#X obj 538 107 route acc dur;
#X text 653 98 acc accent;
#X text 117 220 acc \, dur;
#N canvas 242 172 751 587 interp 0;
#X obj 80 83 inlet;
#X obj 133 447 pack;
#X obj 80 108 t f f;
#X obj 442 246 * 100;
#X obj 442 271 / 16;
#X text 487 272 4 bars/measure \, 4 16ths/bar;
#X text 504 298 ms in a 16th note;
#X floatatom 458 298 5 0 0 0 - - -, f 5;
#X obj 421 324 *;
#X obj 133 503 outlet;
#X obj 441 221 r \$0ms_in_tick;
#X floatatom 154 284 5 0 0 0 - - -, f 5;
#X floatatom 86 131 3 0 0 0 - - -, f 3;
#X obj 133 258 - 1;
#X obj 244 467 spigot;
#X obj 297 467 tgl 15 0 empty empty empty 17 7 0 10 -262144 -1 -1 0
1;
#X floatatom 431 356 5 0 0 0 - - -, f 5;
#X obj 336 189 moses 1e-05;
#X obj 80 189 moses 1e-05;
#X obj 80 164 array get \$0bd_acc 0 1;
#X obj 336 164 array get \$0bd_dur 0 1;
#X obj 133 308 array get \$0bd_acc 0 1;
#X text 198 282 accent;
#X obj 244 491 print acc_dur;
#X connect 0 0 2 0;
#X connect 1 0 9 0;
#X connect 1 0 14 0;
#X connect 2 0 12 0;
#X connect 2 0 19 0;
#X connect 2 1 20 0;
#X connect 3 0 4 0;
#X connect 4 0 7 0;
#X connect 4 0 8 1;
#X connect 8 0 1 1;
#X connect 8 0 16 0;
#X connect 10 0 3 0;
#X connect 13 0 11 0;
#X connect 13 0 21 0;
#X connect 14 0 23 0;
#X connect 15 0 14 1;
#X connect 17 1 8 0;
#X connect 18 1 13 0;
#X connect 19 0 18 0;
#X connect 20 0 17 0;
#X connect 21 0 1 0;
#X restore 60 176 pd interp;
#X connect 0 0 26 0;
#X connect 3 0 12 0;
#X connect 5 0 16 0;
#X connect 5 0 24 0;
#X connect 6 0 18 0;
#X connect 6 0 25 0;
#X connect 9 0 13 0;
#X connect 10 0 5 0;
#X connect 10 0 6 0;
#X connect 10 0 14 0;
#X connect 10 1 9 0;
#X connect 12 0 29 0;
#X connect 12 1 10 0;
#X connect 13 0 21 0;
#X connect 13 0 23 0;
#X connect 14 0 11 0;
#X connect 15 0 14 1;
#X connect 16 0 8 0;
#X connect 17 0 16 1;
#X connect 18 0 7 0;
#X connect 19 0 18 1;
#X connect 26 0 6 1;
#X connect 26 1 5 1;
#X connect 29 0 1 0;
#X restore 140 229 pd note;
#X obj 151 569 outlet~;
#X obj 244 573 outlet~;
#X obj 503 247 list prepend 1;
#X obj 53 261 list-obix;
#X floatatom 53 286 5 0 0 0 - - -, f 5;
#X connect 0 0 1 0;
#X connect 1 0 2 0;
#X connect 1 0 30 0;
#X connect 1 1 4 0;
#X connect 3 0 4 0;
#X connect 4 0 19 0;
#X connect 4 1 22 0;
#X connect 5 0 9 0;
#X connect 6 0 5 0;
#X connect 7 0 5 1;
#X connect 9 0 11 0;
#X connect 10 0 11 1;
#X connect 11 0 27 0;
#X connect 11 0 28 0;
#X connect 12 0 8 0;
#X connect 13 0 16 0;
#X connect 14 0 13 0;
#X connect 15 0 13 1;
#X connect 16 0 17 0;
#X connect 16 1 17 1;
#X connect 17 0 27 0;
#X connect 17 1 28 0;
#X connect 18 0 17 2;
#X connect 19 0 30 1;
#X connect 19 1 23 0;
#X connect 20 0 19 1;
#X connect 22 0 20 0;
#X connect 23 0 29 0;
#X connect 23 1 24 0;
#X connect 24 0 23 1;
#X connect 29 0 25 0;
#X connect 30 0 31 0;
#X restore 198 280 pd v2;
#X obj 44 584 tgl 15 0 \$0play empty start 17 7 0 15 -262144 -1 -1
0 1;
#X obj 40 606 cnv 15 200 80 empty empty empty 20 12 0 14 -228856 -66577
0;
#X obj 44 622 tgl 15 0 drums_enable empty drums 17 7 0 10 -262144 -1
-1 0 1;
#X obj 44 639 tgl 15 0 tune_enable sound_enable tune 17 7 0 10 -262144
-1 -1 0 1;
#X obj 44 656 tgl 15 0 pad_enable sound_enable pad 17 7 0 10 -262144
-1 -1 0 1;
#X text 42 604 mute/unmute sounds;
#X obj 95 622 tgl 15 0 bd_enable sound_enable bd 17 7 0 10 -262144
-1 -1 0 1;
#X obj 126 622 tgl 15 0 sd_enable sound_enable sd 17 7 0 10 -262144
-1 -1 0 1;
#X obj 158 622 tgl 15 0 hh_enable sound_enable hh 17 7 0 10 -262144
-1 -1 0 1;
#X obj 189 622 tgl 15 0 fx_enable sound_enable fx 17 7 0 10 -262144
-1 -1 0 1;
#X obj 121 707 catch~ main_l;
#X obj 153 732 catch~ main_r;
#X obj 121 829 output~;
#X obj 121 802 +~;
#X obj 153 802 +~;
#N canvas 0 23 450 300 rev 0;
#X obj 57 49 inlet~;
#X obj 57 166 outlet~;
#X obj 189 50 inlet~;
#X obj 189 167 outlet~;
#X connect 0 0 1 0;
#X connect 2 0 3 0;
#X restore 62 761 pd rev;
#X obj 210 75 datavis4-GOP;
#N canvas 0 22 450 300 fx 0;
#X obj 119 76 inlet~;
#X obj 145 195 throw~ main_l;
#X obj 158 171 throw~ main_r;
#N canvas 0 22 450 300 (subpatch) 0;
#X obj 65 66 inlet~;
#X obj 69 202 outlet~;
#X obj 261 65 inlet~;
#X obj 265 201 outlet~;
#X obj 65 129 *~;
#X obj 255 138 *~;
#X obj 343 93 inlet~;
#X connect 0 0 4 0;
#X connect 2 0 5 0;
#X connect 4 0 1 0;
#X connect 5 0 3 0;
#X connect 6 0 4 1;
#X connect 6 0 5 1;
#X restore 127 128 pd;
#X obj 162 126 db~ 97;
#X obj 135 100 inlet~;
#X connect 0 0 3 0;
#X connect 3 0 1 0;
#X connect 3 1 2 0;
#X connect 4 0 3 2;
#X connect 5 0 3 1;
#X restore 198 303 pd fx;
#X connect 0 0 1 0;
#X connect 1 0 12 0;
#X connect 5 0 4 0;
#X connect 7 0 6 0;
#X connect 8 0 6 0;
#X connect 11 0 10 0;
#X connect 11 1 36 0;
#X connect 14 0 11 0;
#X connect 14 0 16 0;
#X connect 14 0 19 0;
#X connect 15 0 14 0;
#X connect 16 0 17 0;
#X connect 16 1 18 0;
#X connect 19 0 37 0;
#X connect 19 1 37 1;
#X connect 30 0 33 0;
#X connect 30 0 35 0;
#X connect 31 0 34 0;
#X connect 31 0 35 1;
#X connect 33 0 32 0;
#X connect 34 0 32 1;
#X connect 35 0 33 1;
#X connect 35 1 34 1;
