#N canvas 60 473 211 295 10;
#X obj 104 153 pack f 50;
#X obj 104 127 dbtorms;
#X obj 104 175 line~;
#X obj 102 51 loadbang;
#X obj 104 197 outlet~;
#X obj 102 103 nbx 3 14 0 110 0 1 \$0send-stub \$0receive-stub empty
0 -8 0 10 -262144 -1 -1 81 256;
#X connect 0 0 2 0;
#X connect 1 0 0 0;
#X connect 2 0 4 0;
#X connect 3 0 5 0;
#X connect 5 0 1 0;
#X coords 0 -1 1 1 40 20 2 100 100;
