#N canvas 60 473 211 295 10;
#X obj 104 153 pack f 50;
#X obj 104 127 dbtorms;
#X floatatom 103 103 5 0 110 0 - - -, f 5;
#X obj 104 175 line~;
#X obj 103 43 loadbang;
#X obj 104 197 outlet~;
#X msg 103 65 99;
#X msg 153 84 set \$1;
#X connect 0 0 3 0;
#X connect 1 0 0 0;
#X connect 2 0 1 0;
#X connect 2 0 7 0;
#X connect 3 0 5 0;
#X connect 4 0 6 0;
#X connect 6 0 2 0;
#X connect 7 0 6 0;
#X coords 0 -1 1 1 38 20 2 100 100;
