#N canvas 60 473 211 295 10;
#X obj 104 153 pack f 50;
#X obj 104 127 dbtorms;
#X floatatom 104 107 5 0 110 0 - - -, f 5;
#X obj 104 175 line~;
#X obj 104 44 loadbang;
#X obj 104 66 f \$1;
#X obj 104 197 outlet~;
#X connect 0 0 3 0;
#X connect 1 0 0 0;
#X connect 2 0 1 0;
#X connect 3 0 6 0;
#X connect 4 0 5 0;
#X connect 5 0 2 0;
#X coords 0 -1 1 1 39 24 2 100 100;
