#N canvas 109 163 655 543 12;
#X obj 238 193 osc~;
#X obj 68 238 *~;
#X obj 68 372 cos~;
#X obj 68 339 +~;
#X obj 68 183 senv3~;
#X obj 68 59 inlet;
#X obj 238 168 mtof;
#X obj 68 397 outlet~;
#X text 117 60 pitch \, duration;
#X obj 68 151 pack f 50 f;
#X obj 68 84 t b l;
#X obj 174 104 unpack;
#X obj 270 419 line~;
#X obj 313 360 del;
#X obj 289 334 b;
#X obj 343 328 - 50;
#X msg 315 391 0 50;
#X obj 379 46 noise~;
#X obj 379 148 samphold~;
#X obj 474 105 phasor~ 0.25;
#X obj 329 196 +~;
#X obj 329 221 osc~;
#X obj 329 169 sig~;
#X obj 379 71 abs~;
#X obj 379 96 max~ 0.25;
#X obj 474 55 osc~ 0.1;
#X obj 474 80 +~ 1;
#X obj 379 173 lop~ 10;
#X obj 379 123 *~ 5;
#X obj 89 307 sig~ 0.15;
#X obj 68 125 f 0.27;
#X msg 260 304 0.27 30;
#X connect 0 0 1 1;
#X connect 1 0 3 0;
#X connect 2 0 7 0;
#X connect 3 0 2 0;
#X connect 4 0 1 0;
#X connect 5 0 10 0;
#X connect 6 0 0 0;
#X connect 6 0 22 0;
#X connect 9 0 4 0;
#X connect 10 0 30 0;
#X connect 10 1 11 0;
#X connect 11 0 6 0;
#X connect 11 1 9 2;
#X connect 11 1 31 0;
#X connect 11 1 15 0;
#X connect 13 0 16 0;
#X connect 14 0 13 0;
#X connect 15 0 13 1;
#X connect 16 0 12 0;
#X connect 17 0 23 0;
#X connect 18 0 27 0;
#X connect 19 0 18 1;
#X connect 20 0 21 0;
#X connect 21 0 1 1;
#X connect 22 0 20 0;
#X connect 23 0 24 0;
#X connect 24 0 28 0;
#X connect 25 0 26 0;
#X connect 26 0 19 0;
#X connect 27 0 20 1;
#X connect 28 0 18 0;
#X connect 29 0 3 1;
#X connect 30 0 9 0;
#X connect 31 0 12 0;
#X connect 31 0 14 0;
