#N canvas 0 22 398 414 12;
#X obj 211 226 pack 0 0;
#X obj 106 291 line~;
#X obj 106 316 *~;
#X obj 53 178 del;
#X obj 53 34 inlet;
#X obj 53 58 t b l;
#X obj 53 200 pack 0 0;
#X text 102 35 peak rms \, attack ms \, decay ms;
#X obj 211 125 unpack f f f;
#X obj 106 366 outlet~;
#X obj 211 177 sqrt;
#X connect 0 0 1 0;
#X connect 1 0 2 0;
#X connect 1 0 2 1;
#X connect 2 0 9 0;
#X connect 3 0 6 0;
#X connect 4 0 5 0;
#X connect 5 0 3 0;
#X connect 5 1 8 0;
#X connect 6 0 1 0;
#X connect 8 0 10 0;
#X connect 8 1 0 1;
#X connect 8 1 3 1;
#X connect 8 2 6 1;
#X connect 10 0 0 0;
