#N canvas 137 104 458 423 10;
#X obj 227 40 inlet;
#X obj 99 37 inlet;
#X obj 74 202 list-iter;
#X obj 99 135 t l l;
#X obj 251 244 list length;
#X obj 172 351 outlet;
#X obj 172 329 list-group;
#X text 138 39 list;
#X text 267 40 scalar;
#X obj 158 248 * \$1;
#X connect 0 0 9 1;
#X connect 1 0 3 0;
#X connect 2 0 9 0;
#X connect 3 0 2 0;
#X connect 3 1 4 0;
#X connect 4 0 6 1;
#X connect 6 0 5 0;
#X connect 9 0 6 0;
