#N canvas 2 23 1436 855 10;
#X declare -path lst;
#N canvas 467 126 764 570 cl 0;
#X obj 100 189 metro 1 64 samp;
#X obj 100 413 outlet;
#X obj 187 159 max 1;
#X obj 100 388 f;
#X obj 134 388 + 1;
#X floatatom 103 119 3 0 0 1 spd - -, f 3;
#X text 483 95 clock with speed control;
#X obj 143 102 bng 15 250 50 0 empty \$0reset empty 17 7 0 10 -262144
-1 -1;
#X text 163 101 reset;
#X msg 344 173 0, f 2;
#X text 157 414 to sequencer;
#X obj 168 388 mod 1e+38;
#X obj 100 170 tgl 15 1 empty empty empty 17 7 0 10 -262144 -1 -1 1
1;
#X obj 100 229 seq/spdctrl2;
#X obj 453 389 con/mstobpm;
#X obj 453 431 outlet;
#X obj 453 243 * 64;
#X obj 453 268 con/samptoms;
#X floatatom 460 312 7 0 0 0 - - -, f 7;
#X text 485 291 speed reduction rate;
#X obj 453 410 int;
#X obj 103 42 loadbang;
#X text 483 354 beat is a quarter-bar;
#X obj 453 354 * 4;
#X obj 100 255 route 16;
#X obj 453 291 * 1;
#X obj 103 69 86;
#X connect 0 0 13 0;
#X connect 2 0 0 1;
#X connect 2 0 16 0;
#X connect 3 0 4 0;
#X connect 3 0 1 0;
#X connect 4 0 11 0;
#X connect 5 0 2 0;
#X connect 7 0 9 0;
#X connect 9 0 3 1;
#X connect 11 0 3 1;
#X connect 12 0 0 0;
#X connect 13 0 24 0;
#X connect 14 0 20 0;
#X connect 16 0 17 0;
#X connect 17 0 25 0;
#X connect 20 0 15 0;
#X connect 21 0 26 0;
#X connect 23 0 14 0;
#X connect 24 0 3 0;
#X connect 25 0 18 0;
#X connect 25 0 23 0;
#X connect 26 0 5 0;
#X coords 0 -1 1 1 60 36 1 100 100;
#X restore 80 46 pd cl;
#X floatatom 131 227 3 0 0 1 - - -, f 3;
#X obj 80 102 seq;
#X floatatom 133 81 3 0 0 1 bpm - -, f 3;
#N canvas 175 51 1191 769 ptrn 0;
#X obj 1043 554 array get \$0ptrn;
#X msg 1043 530 bang;
#X obj 101 387 loadbang;
#X obj 837 185 inlet;
#X obj 942 300 array get \$0ptrn 0 1;
#X text 1041 503 debug;
#X obj 837 415 outlet;
#X msg 1043 601 bang;
#X obj 1043 625 array get \$0map;
#X floatatom 103 132 8 0 0 2 b1 #0r-ptrn1 #0s-ptrn1, f 8;
#X floatatom 103 150 8 0 0 0 - #0r-map1 #0s-map1, f 8;
#X obj 942 323 array get \$0map 0 1;
#X obj 837 218 mod 16;
#X floatatom 157 132 8 0 0 2 b2 #0r-ptrn2 #0s-ptrn2, f 8;
#X floatatom 157 150 8 0 0 1 map #0r-map2 #0s-map2, f 8;
#X floatatom 103 168 8 0 0 0 - #0r-acc1 #0s-acc1, f 8;
#X floatatom 157 168 8 0 0 1 acc #0r-acc2 #0s-acc2, f 8;
#X text 933 107 TODO: add gate;
#X msg 1044 677 bang;
#X obj 1044 699 array get \$0acc;
#X obj 942 346 array get \$0acc 0 1;
#X obj 837 257 t f f f f;
#X obj 837 393 pack f f f f;
#X text 206 132 ptrn;
#N canvas 0 22 492 419 set-ptrn 0;
#X obj 112 228 lst/list-map;
#X obj 196 228 - 48;
#X obj 112 83 moocow/any2bytes 0 -1;
#X obj 112 271 list prepend 0;
#X obj 112 250 con/dec2bin;
#X obj 112 294 array define \$0ptrn 16;
#X obj 112 205 list;
#X obj 158 152 t b l;
#X obj 112 181 list;
#X obj 112 131 t b l;
#X obj 158 130 moocow/any2bytes 0 -1;
#X obj 112 58 r \$0s-ptrn1;
#X obj 158 105 r \$0s-ptrn2;
#X connect 0 0 4 0;
#X connect 0 1 1 0;
#X connect 1 0 0 1;
#X connect 2 0 9 0;
#X connect 3 0 5 0;
#X connect 4 0 3 0;
#X connect 6 0 0 0;
#X connect 7 0 8 0;
#X connect 7 1 6 1;
#X connect 8 0 6 0;
#X connect 9 0 8 0;
#X connect 9 1 8 1;
#X connect 10 0 7 0;
#X connect 11 0 2 0;
#X connect 12 0 10 0;
#X restore 101 222 pd set-ptrn;
#N canvas 0 22 860 645 set-map 0;
#X obj 260 410 lst/list-distrib;
#X obj 260 358 array get \$0ptrn;
#X obj 260 433 list prepend 0;
#X obj 376 164 moocow/any2bytes 0 -1;
#X obj 260 140 t b f;
#X obj 260 456 array define \$0map 16;
#X obj 260 118 r \$0s-map1;
#X obj 376 357 lst/list-map;
#X obj 460 357 - 48;
#X obj 376 334 list;
#X obj 376 306 list;
#X obj 376 186 t b l;
#X obj 421 186 r \$0s-map2;
#X obj 421 209 moocow/any2bytes 0 -1;
#X obj 421 232 t b b l;
#X connect 0 0 2 0;
#X connect 1 0 0 0;
#X connect 2 0 5 0;
#X connect 3 0 11 0;
#X connect 4 0 1 0;
#X connect 4 1 3 0;
#X connect 6 0 4 0;
#X connect 7 0 0 1;
#X connect 7 1 8 0;
#X connect 8 0 7 1;
#X connect 9 0 7 0;
#X connect 10 0 9 0;
#X connect 11 0 10 0;
#X connect 11 1 10 1;
#X connect 12 0 13 0;
#X connect 13 0 14 0;
#X connect 14 0 1 0;
#X connect 14 1 10 0;
#X connect 14 2 9 1;
#X restore 101 246 pd set-map;
#N canvas 0 22 860 645 set-acc 0;
#X obj 260 410 lst/list-distrib;
#X obj 260 358 array get \$0ptrn;
#X obj 260 433 list prepend 0;
#X obj 376 164 moocow/any2bytes 0 -1;
#X obj 260 140 t b f;
#X obj 376 357 lst/list-map;
#X obj 460 357 - 48;
#X obj 376 334 list;
#X obj 376 306 list;
#X obj 376 186 t b l;
#X obj 421 209 moocow/any2bytes 0 -1;
#X obj 421 232 t b b l;
#X obj 260 457 array define \$0acc 16;
#X obj 260 118 r \$0s-acc1;
#X obj 421 186 r \$0s-acc2;
#X connect 0 0 2 0;
#X connect 1 0 0 0;
#X connect 2 0 12 0;
#X connect 3 0 9 0;
#X connect 4 0 1 0;
#X connect 4 1 3 0;
#X connect 5 0 0 1;
#X connect 5 1 6 0;
#X connect 6 0 5 1;
#X connect 7 0 5 0;
#X connect 8 0 7 0;
#X connect 9 0 8 0;
#X connect 9 1 8 1;
#X connect 10 0 11 0;
#X connect 11 0 1 0;
#X connect 11 1 8 0;
#X connect 11 2 7 1;
#X connect 13 0 4 0;
#X connect 14 0 10 0;
#X restore 101 270 pd set-acc;
#X obj 116 119 bng 10 250 50 0 \$0s-wr1 \$0r-wr1 w 13 5 0 10 -262144
-1 -1;
#X obj 170 119 bng 10 250 50 0 \$0s-wr2 \$0r-wr2 w 13 5 0 10 -262144
-1 -1;
#N canvas 0 22 548 420 write-to-textfile 0;
#X obj 133 89 r \$0s-wr1;
#X obj 179 208 r \$0s-acc1;
#X obj 164 186 r \$0s-map1;
#X obj 150 164 r \$0s-ptrn1;
#X obj 244 330 list trim;
#X obj 292 91 r \$0s-wr2;
#X obj 380 207 r \$0s-acc2;
#X obj 366 186 r \$0s-map2;
#X obj 349 165 r \$0s-ptrn2;
#X obj 244 352 s \$0reader;
#X obj 244 308 list prepend write;
#X obj 302 238 pack 2 f f f;
#X obj 103 236 pack 1 f f f;
#X obj 227 281 route 1 2;
#X connect 0 0 12 0;
#X connect 1 0 12 3;
#X connect 2 0 12 2;
#X connect 3 0 12 1;
#X connect 4 0 9 0;
#X connect 5 0 11 0;
#X connect 6 0 11 3;
#X connect 7 0 11 2;
#X connect 8 0 11 1;
#X connect 10 0 4 0;
#X connect 11 0 13 0;
#X connect 12 0 13 0;
#X connect 13 0 10 0;
#X connect 13 1 10 0;
#X restore 101 294 pd write-to-textfile;
#X obj 101 459 s \$0reader;
#X msg 101 420 0 1;
#X text 169 420 preset \, bar#;
#X msg 135 420 2 2;
#X obj 1044 721 print acc;
#X obj 1043 647 print map;
#X obj 1043 576 print ptrn;
#X obj 532 304 sel;
#X obj 532 326 t b b;
#X obj 532 348 timer;
#X floatatom 532 370 7 0 0 0 - - -, f 7;
#X floatatom 532 411 8 0 0 0 - - -, f 8;
#X obj 532 389 * 4;
#X connect 0 0 36 0;
#X connect 1 0 0 0;
#X connect 2 0 31 0;
#X connect 2 0 33 0;
#X connect 3 0 12 0;
#X connect 3 0 37 0;
#X connect 4 0 22 1;
#X connect 7 0 8 0;
#X connect 8 0 35 0;
#X connect 11 0 22 2;
#X connect 12 0 21 0;
#X connect 18 0 19 0;
#X connect 19 0 34 0;
#X connect 20 0 22 3;
#X connect 21 0 22 0;
#X connect 21 1 4 0;
#X connect 21 2 11 0;
#X connect 21 3 20 0;
#X connect 22 0 6 0;
#X connect 31 0 30 0;
#X connect 33 0 30 0;
#X connect 37 0 38 0;
#X connect 38 0 39 0;
#X connect 38 1 39 1;
#X connect 39 0 40 0;
#X connect 40 0 42 0;
#X connect 42 0 41 0;
#X coords 0 -1 1 1 135 84 1 100 100;
#X restore 80 248 pd ptrn;
#N canvas 258 75 1143 822 trig 0;
#X obj 121 45 inlet;
#X obj 121 255 list split 1;
#X obj 287 323 route 1;
#X text 317 471 1 bd;
#X text 317 488 2 sd;
#X obj 287 508 route 1 2;
#X text 336 323 filter offsets;
#X obj 289 581 s tr808-bd;
#X obj 318 555 s tr808-sd;
#X text 160 46 iter \, onset \, map \, acc;
#X text 542 567 map instr;
#X obj 519 643 s tr808-SD-vol;
#X obj 520 451 route 1 2 3;
#X text 596 451 accents;
#X msg 576 484 127;
#X msg 541 484 80;
#X obj 287 559 b;
#X obj 536 517 f;
#X obj 287 345 t l l;
#X obj 477 427 unpack;
#X obj 477 543 pack;
#X text 523 428 manage accents;
#X obj 478 566 route 1 2;
#X obj 478 694 s tr808-BD-vol;
#X text 350 509 map instr;
#X obj 316 532 b;
#X obj 121 523 change;
#X floatatom 505 673 5 0 0 0 - - -, f 5;
#X text 577 385 volume;
#N canvas 0 22 598 435 OH 0;
#X obj 80 186 inlet;
#N canvas 0 22 450 278 (subpatch) 0;
#X array \$0acc-OH 8 float 3;
#A 0 0.749997 0.425001 0.449995 0.44999 0.775009 0.499993 0.525002
0.524996;
#X coords 0 1 8 0 100 40 1 0 0;
#X restore 102 120 graph;
#X obj 80 269 b;
#X obj 80 290 s tr808-oh;
#X obj 157 352 s tr808-OH-vol;
#X floatatom 80 251 5 0 0 0 - - -, f 5;
#X obj 80 216 t f f;
#X obj 157 244 array get \$0acc-OH 0 1;
#X obj 157 266 min 1;
#X obj 157 288 * 127;
#X floatatom 152 104 5 0 100 1 vol - -, f 5;
#X obj 152 37 loadbang;
#X msg 152 59 12;
#X obj 157 330 *;
#X obj 441 242 * 0.01;
#X msg 85 71 set \$1;
#X connect 0 0 6 0;
#X connect 2 0 3 0;
#X connect 5 0 2 0;
#X connect 6 0 5 0;
#X connect 6 1 7 0;
#X connect 7 0 8 0;
#X connect 8 0 9 0;
#X connect 9 0 13 0;
#X connect 10 0 14 0;
#X connect 10 0 15 0;
#X connect 11 0 12 0;
#X connect 12 0 10 0;
#X connect 13 0 4 0;
#X connect 14 0 13 1;
#X connect 15 0 12 0;
#X coords 0 -1 1 1 104 62 2 100 100;
#X restore 121 557 pd OH;
#X obj 121 501 div 2;
#X floatatom 161 502 5 0 0 0 - - -, f 5;
#X obj 918 746 declare -path lst;
#X obj 121 426 spigot;
#X obj 315 120 r drum-play;
#X obj 286 300 spigot;
#X obj 121 479 spigot;
#X obj 168 479 r OH-play;
#X obj 801 140 tgl 15 1 OH-play empty OH 17 7 0 10 -262144 -1 -1 0
1;
#X obj 519 597 t f f;
#X obj 478 671 * 1;
#X floatatom 147 284 5 0 0 0 - - -, f 5;
#X floatatom 547 622 5 0 0 0 - - -, f 5;
#X obj 519 620 * 1;
#X msg 507 484 3;
#X connect 0 0 1 0;
#X connect 1 0 41 0;
#X connect 1 0 33 0;
#X connect 1 1 35 0;
#X connect 2 0 18 0;
#X connect 5 0 16 0;
#X connect 5 1 25 0;
#X connect 12 0 44 0;
#X connect 12 1 15 0;
#X connect 12 2 14 0;
#X connect 14 0 17 0;
#X connect 15 0 17 0;
#X connect 16 0 7 0;
#X connect 17 0 20 1;
#X connect 18 0 5 0;
#X connect 18 1 19 0;
#X connect 19 0 20 0;
#X connect 19 1 12 0;
#X connect 20 0 22 0;
#X connect 22 0 40 0;
#X connect 22 1 39 0;
#X connect 25 0 8 0;
#X connect 26 0 29 0;
#X connect 27 0 40 1;
#X connect 30 0 26 0;
#X connect 31 0 30 1;
#X connect 33 0 36 0;
#X connect 34 0 33 1;
#X connect 34 0 35 1;
#X connect 35 0 2 0;
#X connect 36 0 30 0;
#X connect 37 0 36 1;
#X connect 39 0 43 0;
#X connect 40 0 23 0;
#X connect 42 0 43 1;
#X connect 43 0 11 0;
#X connect 44 0 17 0;
#X restore 80 338 pd trig;
#X obj 107 791 output~;
#X obj 79 377 tr808;
#X text 574 99 phrase is a combination of patterns;
#N canvas 680 160 518 588 reader 0;
#X obj 216 10 r \$0reader;
#X obj 230 279 unpack f f f;
#X obj 279 53 unpack;
#X obj 103 181 list prepend;
#X obj 103 428 unpack f f f;
#X obj 172 454 s \$0r-ptrn1;
#X obj 137 474 s \$0r-acc1;
#X obj 103 494 s \$0r-map1;
#X obj 299 305 s \$0r-ptrn2;
#X obj 264 325 s \$0r-acc2;
#X obj 230 345 s \$0r-map2;
#X obj 134 144 bng 10 250 50 0 empty empty debug 13 6 0 8 -262144 -1
-1;
#X msg 37 124 print;
#X obj 216 31 route write;
#X obj 103 55 list prepend add;
#X obj 103 77 list trim;
#X text 119 403 ptrn should be last;
#X obj 230 257 cyclone/zl rot -1;
#X obj 103 386 cyclone/zl rot -1;
#X obj 103 205 route 1 2;
#X obj 155 10 inlet;
#X obj 233 173 print l;
#X obj 103 116 rdr/reader pat 1;
#X connect 0 0 13 0;
#X connect 1 0 10 0;
#X connect 1 1 9 0;
#X connect 1 2 8 0;
#X connect 2 0 22 0;
#X connect 2 1 3 1;
#X connect 3 0 19 0;
#X connect 4 0 7 0;
#X connect 4 1 6 0;
#X connect 4 2 5 0;
#X connect 11 0 12 0;
#X connect 12 0 22 0;
#X connect 13 0 14 0;
#X connect 13 1 2 0;
#X connect 14 0 15 0;
#X connect 15 0 22 0;
#X connect 17 0 1 0;
#X connect 18 0 4 0;
#X connect 19 0 18 0;
#X connect 19 1 17 0;
#X connect 20 0 13 0;
#X connect 22 0 3 0;
#X connect 22 0 21 0;
#X coords 0 -1 1 1 75 57 1 100 100;
#X restore 220 248 pd reader;
#X obj 1211 692 cnv 15 58 120 empty empty empty 20 12 0 20 -228856
-66577 0;
#X obj 1215 738 tgl 15 0 bass-play all-play bass 17 7 0 10 -262144
-1 -1 1 1;
#X obj 1215 717 tgl 15 0 drum-play all-play drum 17 7 0 10 -262144
-1 -1 1 1;
#X obj 1215 696 tgl 15 1 all-play empty all 17 7 0 10 -262144 -1 -1
1 1;
#X msg 242 190 \$1 1;
#X floatatom 240 167 5 0 0 0 - - -, f 5;
#X msg 286 214 \$1 2;
#X floatatom 289 193 5 0 0 0 - - -, f 5;
#N canvas 0 22 683 451 wesley 0;
#X obj 344 63 inlet~;
#X obj 347 367 outlet~;
#X obj 464 138 *~;
#X obj 375 155 == 0;
#X obj 336 202 *~ 1;
#X obj 158 103 tgl 15 1 empty empty empty 17 7 0 10 -262144 -1 -1 1
1;
#X obj 428 243 pdkm/dktanh~ 2;
#X obj 427 272 pdkm/dkwesley~ 16 2;
#X connect 0 0 2 0;
#X connect 0 0 4 0;
#X connect 2 0 6 0;
#X connect 3 0 4 1;
#X connect 4 0 1 0;
#X connect 5 0 3 0;
#X connect 5 0 2 1;
#X connect 6 0 7 0;
#X connect 7 0 1 0;
#X coords 0 -1 1 1 75 21 1 100 100;
#X restore 79 518 pd wesley;
#X msg 256 127 3;
#X msg 308 153 4;
#X obj 310 96 loadbang;
#X msg 665 781 print;
#X msg 664 733 start;
#X msg 666 759 stop;
#X text 717 733 start streaming audio;
#X text 712 759 stop streaming audio;
#X obj 100 829 writesf~ 2;
#X msg 655 704 open -bytes 4 /tmp/baz.wav;
#X text 214 59 TODO: swing;
#X connect 0 0 2 0;
#X connect 0 1 3 0;
#X connect 2 0 1 0;
#X connect 2 0 4 0;
#X connect 4 0 5 0;
#X connect 6 0 27 0;
#X connect 6 1 27 1;
#X connect 7 0 18 0;
#X connect 14 0 9 0;
#X connect 15 0 14 0;
#X connect 16 0 9 0;
#X connect 17 0 16 0;
#X connect 18 0 6 0;
#X connect 18 0 6 1;
#X connect 19 0 15 0;
#X connect 20 0 17 0;
#X connect 21 0 19 0;
#X connect 21 0 20 0;
#X connect 22 0 27 0;
#X connect 23 0 27 0;
#X connect 24 0 27 0;
#X connect 28 0 27 0;
#X coords 0 855 1 854 40 20 0;
