#N canvas 123 23 1436 855 10;
#X declare -path lst;
#N canvas 467 126 764 570 cl 0;
#X obj 100 189 metro 1 64 samp;
#X obj 100 413 outlet;
#X obj 187 159 max 1;
#X obj 100 388 f;
#X obj 134 388 + 1;
#X floatatom 103 119 3 0 0 1 spd - -, f 3;
#X text 483 95 clock with speed control;
#X obj 143 102 bng 15 250 50 0 empty \$0reset empty 17 7 0 10 -262144
-1 -1;
#X text 163 101 reset;
#X msg 344 173 0, f 2;
#X text 157 414 to sequencer;
#X obj 168 388 mod 1e+38;
#X obj 100 170 tgl 15 1 empty empty empty 17 7 0 10 -262144 -1 -1 1
1;
#X obj 453 389 con/mstobpm;
#X obj 453 431 outlet;
#X obj 453 243 * 64;
#X obj 453 268 con/samptoms;
#X floatatom 460 312 7 0 0 0 - - -, f 7;
#X text 485 291 speed reduction rate;
#X obj 453 410 int;
#X obj 103 42 loadbang;
#X text 483 354 beat is a quarter-bar;
#X obj 453 354 * 4;
#X obj 100 255 route 16;
#X obj 453 291 * 1;
#X obj 103 69 86;
#X obj 100 229 seq/spdctrl;
#X connect 0 0 26 0;
#X connect 2 0 0 1;
#X connect 2 0 15 0;
#X connect 3 0 4 0;
#X connect 3 0 1 0;
#X connect 4 0 11 0;
#X connect 5 0 2 0;
#X connect 7 0 9 0;
#X connect 9 0 3 1;
#X connect 11 0 3 1;
#X connect 12 0 0 0;
#X connect 13 0 19 0;
#X connect 15 0 16 0;
#X connect 16 0 24 0;
#X connect 19 0 14 0;
#X connect 20 0 25 0;
#X connect 22 0 13 0;
#X connect 23 0 3 0;
#X connect 24 0 17 0;
#X connect 24 0 22 0;
#X connect 25 0 5 0;
#X connect 26 0 23 0;
#X coords 0 -1 1 1 60 36 1 100 100;
#X restore 80 46 pd cl;
#X floatatom 131 227 3 0 0 1 - - -, f 3;
#X obj 80 102 seq;
#X floatatom 133 81 3 0 0 1 bpm - -, f 3;
#N canvas 321 54 615 790 ptrn 0;
#X obj 101 284 inlet;
#X obj 206 399 array get \$0ptrn 0 1;
#X obj 101 514 outlet;
#X obj 206 422 array get \$0map 0 1;
#X obj 101 317 mod 16;
#X text 378 590 TODO: add gate;
#X obj 206 445 array get \$0acc 0 1;
#X obj 101 356 t f f f f;
#X obj 101 492 pack f f f f;
#N canvas 108 154 1229 737 set 0;
#X obj 892 551 array define \$0ptrn 16;
#X msg 1013 426 0;
#X msg 1058 425 8;
#X obj 875 470 con/dec2bin;
#X obj 892 527 list prepend;
#X obj 109 607 lst/list-distrib;
#X obj 109 575 array get \$0ptrn;
#X obj 167 668 array define \$0map 16;
#X obj 109 451 t b l;
#X msg 270 430 8;
#X msg 228 429 0;
#X obj 167 645 list prepend;
#X obj 484 609 lst/list-distrib;
#X obj 484 579 array get \$0ptrn;
#X obj 484 458 t b l;
#X obj 544 665 array define \$0acc 16;
#X obj 544 642 list prepend;
#X msg 603 440 0;
#X msg 642 440 8;
#X obj 470 97 route 1 2;
#X obj 109 525 pack f 8;
#X obj 109 503 f;
#X obj 109 547 unpack;
#X obj 484 532 pack f 8;
#X obj 484 510 f;
#X obj 484 554 unpack;
#X obj 905 350 t l b;
#X obj 1008 351 t l b;
#X obj 654 331 t l b;
#X obj 553 330 t l b;
#X obj 164 321 t l b;
#X obj 266 321 t l b;
#X obj 470 75 inlet;
#X obj 464 152 print preset;
#X obj 619 150 print preset;
#X obj 388 186 route map acc pat;
#X obj 642 192 route map acc pat;
#X connect 1 0 4 1;
#X connect 2 0 4 1;
#X connect 3 0 4 0;
#X connect 4 0 0 0;
#X connect 5 0 11 0;
#X connect 6 0 5 0;
#X connect 8 0 21 0;
#X connect 8 1 5 1;
#X connect 9 0 11 1;
#X connect 9 0 21 1;
#X connect 10 0 11 1;
#X connect 10 0 21 1;
#X connect 11 0 7 0;
#X connect 12 0 16 0;
#X connect 13 0 12 0;
#X connect 14 0 24 0;
#X connect 14 1 12 1;
#X connect 16 0 15 0;
#X connect 17 0 16 1;
#X connect 17 0 24 1;
#X connect 18 0 16 1;
#X connect 18 0 24 1;
#X connect 19 0 33 0;
#X connect 19 0 35 0;
#X connect 19 1 34 0;
#X connect 19 1 36 0;
#X connect 20 0 22 0;
#X connect 21 0 20 0;
#X connect 22 0 6 0;
#X connect 22 1 6 1;
#X connect 23 0 25 0;
#X connect 24 0 23 0;
#X connect 25 0 13 0;
#X connect 25 1 13 1;
#X connect 26 0 3 0;
#X connect 26 1 1 0;
#X connect 27 0 3 0;
#X connect 27 1 2 0;
#X connect 28 0 14 0;
#X connect 28 1 18 0;
#X connect 29 0 14 0;
#X connect 29 1 17 0;
#X connect 30 0 8 0;
#X connect 30 1 10 0;
#X connect 31 0 8 0;
#X connect 31 1 9 0;
#X connect 32 0 19 0;
#X connect 35 0 30 0;
#X connect 35 1 29 0;
#X connect 35 2 26 0;
#X connect 36 0 31 0;
#X connect 36 1 28 0;
#X connect 36 2 27 0;
#X restore 462 476 pd set;
#N canvas 0 22 510 409 debug 0;
#X obj 160 129 array get \$0ptrn;
#X msg 160 105 bang;
#X msg 160 176 bang;
#X obj 160 200 array get \$0map;
#X msg 161 252 bang;
#X obj 161 274 array get \$0acc;
#X obj 42 38 inlet;
#X obj 160 151 print pat-array;
#X obj 160 222 print map-array;
#X obj 161 296 print acc-array;
#X connect 0 0 7 0;
#X connect 1 0 0 0;
#X connect 2 0 3 0;
#X connect 3 0 8 0;
#X connect 4 0 5 0;
#X connect 5 0 9 0;
#X connect 6 0 1 0;
#X connect 6 0 2 0;
#X connect 6 0 4 0;
#X restore 231 518 pd debug;
#X msg 231 492 bang;
#X obj 455 388 unpack;
#X obj 462 451 list prepend;
#X msg 391 389 print;
#X obj 427 420 rdr/reader pat 3;
#X msg 437 359 \$1 1;
#X floatatom 437 338 3 0 0 0 - - -, f 3;
#X msg 478 358 \$1 2;
#X floatatom 478 338 3 0 0 0 - - -, f 3;
#X obj 453 285 loadbang;
#X msg 437 316 5, f 2;
#X msg 478 316 6, f 2;
#X connect 0 0 4 0;
#X connect 1 0 8 1;
#X connect 3 0 8 2;
#X connect 4 0 7 0;
#X connect 6 0 8 3;
#X connect 7 0 8 0;
#X connect 7 1 1 0;
#X connect 7 2 3 0;
#X connect 7 3 6 0;
#X connect 8 0 2 0;
#X connect 11 0 10 0;
#X connect 12 0 15 0;
#X connect 12 1 13 1;
#X connect 13 0 9 0;
#X connect 14 0 15 0;
#X connect 15 0 13 0;
#X connect 16 0 12 0;
#X connect 17 0 16 0;
#X connect 18 0 12 0;
#X connect 19 0 18 0;
#X connect 20 0 21 0;
#X connect 20 0 22 0;
#X connect 21 0 17 0;
#X connect 22 0 19 0;
#X coords 0 790 1 789 160 54 0;
#X restore 80 248 pd ptrn;
#N canvas 258 75 1143 822 trig 0;
#X obj 121 45 inlet;
#X obj 121 255 list split 1;
#X obj 287 323 route 1;
#X text 317 471 1 bd;
#X text 317 488 2 sd;
#X obj 287 508 route 1 2;
#X text 336 323 filter offsets;
#X obj 289 581 s tr808-bd;
#X obj 318 555 s tr808-sd;
#X text 160 46 iter \, onset \, map \, acc;
#X text 542 567 map instr;
#X obj 519 643 s tr808-SD-vol;
#X obj 520 451 route 1 2 3;
#X text 596 451 accents;
#X msg 576 484 127;
#X msg 541 484 80;
#X obj 287 559 b;
#X obj 536 517 f;
#X obj 287 345 t l l;
#X obj 477 427 unpack;
#X obj 477 543 pack;
#X text 523 428 manage accents;
#X obj 478 566 route 1 2;
#X obj 478 694 s tr808-BD-vol;
#X text 350 509 map instr;
#X obj 316 532 b;
#X obj 121 523 change;
#X floatatom 505 673 5 0 0 0 - - -, f 5;
#X text 577 385 volume;
#N canvas 0 22 598 435 OH 0;
#X obj 80 186 inlet;
#N canvas 0 22 450 278 (subpatch) 0;
#X array \$0acc-OH 8 float 3;
#A 0 0.749997 0.425001 0.449995 0.44999 0.775009 0.499993 0.525002
0.524996;
#X coords 0 1 8 0 100 40 1 0 0;
#X restore 102 120 graph;
#X obj 80 269 b;
#X obj 80 290 s tr808-oh;
#X obj 157 352 s tr808-OH-vol;
#X floatatom 80 251 5 0 0 0 - - -, f 5;
#X obj 80 216 t f f;
#X obj 157 244 array get \$0acc-OH 0 1;
#X obj 157 266 min 1;
#X obj 157 288 * 127;
#X floatatom 152 104 5 0 100 1 vol - -, f 5;
#X obj 152 37 loadbang;
#X msg 152 59 12;
#X obj 157 330 *;
#X obj 441 242 * 0.01;
#X msg 85 71 set \$1;
#X connect 0 0 6 0;
#X connect 2 0 3 0;
#X connect 5 0 2 0;
#X connect 6 0 5 0;
#X connect 6 1 7 0;
#X connect 7 0 8 0;
#X connect 8 0 9 0;
#X connect 9 0 13 0;
#X connect 10 0 14 0;
#X connect 10 0 15 0;
#X connect 11 0 12 0;
#X connect 12 0 10 0;
#X connect 13 0 4 0;
#X connect 14 0 13 1;
#X connect 15 0 12 0;
#X coords 0 -1 1 1 104 62 2 100 100;
#X restore 121 557 pd OH;
#X obj 121 501 div 2;
#X floatatom 161 502 5 0 0 0 - - -, f 5;
#X obj 918 746 declare -path lst;
#X obj 121 426 spigot;
#X obj 315 120 r drum-play;
#X obj 286 300 spigot;
#X obj 121 479 spigot;
#X obj 168 479 r OH-play;
#X obj 801 140 tgl 15 1 OH-play empty OH 17 7 0 10 -262144 -1 -1 0
1;
#X obj 519 597 t f f;
#X obj 478 671 * 1;
#X floatatom 147 284 5 0 0 0 - - -, f 5;
#X floatatom 547 622 5 0 0 0 - - -, f 5;
#X obj 519 620 * 1;
#X msg 507 484 20;
#X connect 0 0 1 0;
#X connect 1 0 41 0;
#X connect 1 0 33 0;
#X connect 1 1 35 0;
#X connect 2 0 18 0;
#X connect 5 0 16 0;
#X connect 5 1 25 0;
#X connect 12 0 44 0;
#X connect 12 1 15 0;
#X connect 12 2 14 0;
#X connect 14 0 17 0;
#X connect 15 0 17 0;
#X connect 16 0 7 0;
#X connect 17 0 20 1;
#X connect 18 0 5 0;
#X connect 18 1 19 0;
#X connect 19 0 20 0;
#X connect 19 1 12 0;
#X connect 20 0 22 0;
#X connect 22 0 40 0;
#X connect 22 1 39 0;
#X connect 25 0 8 0;
#X connect 26 0 29 0;
#X connect 27 0 40 1;
#X connect 30 0 26 0;
#X connect 31 0 30 1;
#X connect 33 0 36 0;
#X connect 34 0 33 1;
#X connect 34 0 35 1;
#X connect 35 0 2 0;
#X connect 36 0 30 0;
#X connect 37 0 36 1;
#X connect 39 0 43 0;
#X connect 40 0 23 0;
#X connect 42 0 43 1;
#X connect 43 0 11 0;
#X connect 44 0 17 0;
#X restore 80 288 pd trig;
#X obj 107 791 output~;
#X obj 79 377 tr808;
#X text 574 99 phrase is a combination of patterns;
#X obj 1211 692 cnv 15 58 120 empty empty empty 20 12 0 20 -228856
-66577 0;
#X obj 1215 738 tgl 15 0 bass-play all-play bass 17 7 0 10 -262144
-1 -1 1 1;
#X obj 1215 717 tgl 15 0 drum-play all-play drum 17 7 0 10 -262144
-1 -1 1 1;
#X obj 1215 696 tgl 15 1 all-play empty all 17 7 0 10 -262144 -1 -1
1 1;
#N canvas 0 22 683 451 wesley 0;
#X obj 344 63 inlet~;
#X obj 347 367 outlet~;
#X obj 464 138 *~;
#X obj 375 155 == 0;
#X obj 336 202 *~ 1;
#X obj 158 103 tgl 15 1 empty empty empty 17 7 0 10 -262144 -1 -1 1
1;
#X obj 428 243 pdkm/dktanh~ 2;
#X obj 427 272 pdkm/dkwesley~ 16 2;
#X connect 0 0 2 0;
#X connect 0 0 4 0;
#X connect 2 0 6 0;
#X connect 3 0 4 1;
#X connect 4 0 1 0;
#X connect 5 0 3 0;
#X connect 5 0 2 1;
#X connect 6 0 7 0;
#X connect 7 0 1 0;
#X coords 0 -1 1 1 75 21 1 100 100;
#X restore 79 518 pd wesley;
#X msg 665 781 print;
#X msg 664 733 start;
#X msg 666 759 stop;
#X text 717 733 start streaming audio;
#X text 712 759 stop streaming audio;
#X obj 100 829 writesf~ 2;
#X msg 655 704 open -bytes 4 /tmp/baz.wav;
#X text 214 59 TODO: swing;
#X connect 0 0 2 0;
#X connect 0 1 3 0;
#X connect 2 0 1 0;
#X connect 2 0 4 0;
#X connect 4 0 5 0;
#X connect 6 0 19 0;
#X connect 6 1 19 1;
#X connect 7 0 13 0;
#X connect 13 0 6 0;
#X connect 13 0 6 1;
#X connect 14 0 19 0;
#X connect 15 0 19 0;
#X connect 16 0 19 0;
#X connect 20 0 19 0;
#X coords 0 855 1 854 40 20 0;
