#N canvas 649 175 767 663 12;
#X obj 149 42 inlet;
#X obj 426 256 f \$2;
#X obj 406 51 loadbang;
#X obj 531 40 inlet;
#X obj 531 102 t b f;
#X obj 149 162 f;
#X obj 218 166 + 1;
#X obj 161 323 moses;
#X obj 226 411 swap;
#X obj 226 436 -;
#X obj 231 471 moses;
#X obj 348 582 outlet;
#X msg 238 122 0, f 2;
#X obj 324 41 inlet;
#X obj 304 405 + 1;
#X obj 165 502 t f f;
#X text 412 583 fetch complete;
#X msg 38 215 0, f 2;
#X text 362 361 upon change of range the fetcher resets itself;
#X obj 149 187 t f f;
#X obj 348 554 b;
#X obj 149 87 b;
#X obj 324 89 f \$1;
#X obj 170 253 +;
#X obj 122 591 outlet;
#X text 361 384 range [\$1 \, \$2] inclusive;
#X msg 92 59 bang;
#X obj 411 527 bng 15 250 50 0 empty empty empty 17 7 0 10 -262144
-1 -1;
#X floatatom 222 331 5 0 0 0 - - -, f 5;
#X obj 221 367 -;
#X connect 0 0 21 0;
#X connect 1 0 7 1;
#X connect 1 0 8 1;
#X connect 1 0 29 1;
#X connect 2 0 1 0;
#X connect 2 0 22 0;
#X connect 3 0 4 0;
#X connect 4 0 1 0;
#X connect 4 0 12 0;
#X connect 4 1 1 1;
#X connect 5 0 19 0;
#X connect 6 0 5 1;
#X connect 7 0 24 0;
#X connect 7 1 28 0;
#X connect 7 1 29 0;
#X connect 8 0 9 0;
#X connect 8 1 9 1;
#X connect 9 0 10 0;
#X connect 10 0 17 0;
#X connect 10 0 15 0;
#X connect 10 1 24 0;
#X connect 12 0 5 1;
#X connect 13 0 22 0;
#X connect 14 0 10 1;
#X connect 15 0 24 0;
#X connect 15 1 20 0;
#X connect 17 0 6 0;
#X connect 19 0 23 0;
#X connect 19 1 6 0;
#X connect 20 0 11 0;
#X connect 20 0 27 0;
#X connect 21 0 5 0;
#X connect 22 0 12 0;
#X connect 22 0 14 0;
#X connect 22 0 23 1;
#X connect 23 0 7 0;
#X connect 26 0 21 0;
#X connect 29 0 8 0;
