#N canvas 174 228 592 595 12;
#X obj 167 276 pow;
#X obj 256 231 /;
#X msg 167 216 2;
#X obj 167 110 inlet;
#X text 210 111 idx;
#X obj 196 302 inlet;
#X text 242 301 root \, Hz;
#X obj 167 331 * \$1;
#X msg 256 209 1 12;
#X obj 167 161 t b b;
#X obj 167 353 outlet;
#X connect 0 0 7 0;
#X connect 1 0 0 1;
#X connect 2 0 0 0;
#X connect 3 0 9 0;
#X connect 5 0 7 1;
#X connect 7 0 10 0;
#X connect 8 0 1 0;
#X connect 9 0 2 0;
#X connect 9 1 8 0;
#X coords 0 595 1 594 39 24 0;
