#N canvas 93 22 305 575 10;
#N canvas 135 231 131 203 wavetable-oscilator 0;
#X obj 7 162 outlet~;
#X obj 7 8 inlet~;
#X restore 11 519 pd wavetable-oscilator;
#N canvas 0 22 233 228 waveform-selector 0;
#X obj 16 42 sel 0 1 2 3, f 25;
#X msg 16 64 set square;
#X msg 52 92 set sawtooth;
#X obj 16 20 inlet;
#X obj 16 176 outlet;
#X connect 0 0 1 0;
#X connect 0 1 2 0;
#X connect 1 0 4 0;
#X connect 2 0 4 0;
#X connect 3 0 0 0;
#X restore 140 495 pd waveform-selector;
#X obj 140 471 r oscillator-waveform;
#X obj 11 11 r note-data;
#X obj 11 541 throw~ osc-sum;
#X obj 11 497 mtof~;
#X connect 0 0 4 0;
#X connect 2 0 1 0;
#X connect 5 0 0 0;
