#N canvas 404 135 334 418 10;
#X obj 65 132 f;
#X obj 104 132 + 1;
#X obj 65 250 change;
#X obj 65 77 inlet;
#X obj 65 346 outlet;
#X obj 157 77 inlet;
#X msg 157 100 0, f 2;
#X text 195 77 reset;
#X text 103 78 bang;
#X obj 65 157 mod 96;
#X obj 175 165 f \$1;
#X obj 175 144 loadbang;
#X obj 175 186 swap 96;
#X obj 175 208 /;
#X text 179 244 \$1 bit resolution;
#X obj 65 225 div;
#X obj 65 275 t f f;
#X obj 115 292 sel;
#X obj 115 314 outlet;
#X connect 0 0 9 0;
#X connect 1 0 0 1;
#X connect 2 0 16 0;
#X connect 3 0 0 0;
#X connect 5 0 6 0;
#X connect 6 0 0 1;
#X connect 9 0 1 0;
#X connect 9 0 15 0;
#X connect 10 0 12 0;
#X connect 11 0 10 0;
#X connect 12 0 13 0;
#X connect 12 1 13 1;
#X connect 13 0 15 1;
#X connect 15 0 2 0;
#X connect 16 0 4 0;
#X connect 16 1 17 0;
#X connect 17 0 18 0;
