#N canvas 326 23 532 492 12;
#X obj 56 186 bang~;
#X obj 56 277 f;
#X obj 96 277 + 1;
#X obj 93 382 sel;
#X obj 56 355 t f f;
#X obj 93 404 outlet;
#X obj 56 431 outlet;
#X obj 215 60 inlet;
#X msg 263 188 set \$1 1 1;
#X obj 263 166 * 64;
#X obj 78 58 inlet;
#X msg 179 173 0, f 2;
#X text 151 404 bang every cycle;
#X text 262 60 reset;
#X obj 263 130 clip 1 1e+06;
#X msg 412 177 \; pd dsp 1;
#X obj 263 212 block~ 64 1 1;
#X obj 412 152 loadbang;
#X text 290 105 block multiplier;
#X obj 332 304 timer;
#X obj 332 277 t b b;
#X obj 332 329 int;
#X obj 332 356 change;
#X obj 332 384 * 100;
#X floatatom 342 411 5 0 0 0 - - -, f 5;
#X text 115 432 phase 0-100;
#X obj 332 435 outlet;
#X text 388 436 cycle length;
#X obj 56 301 mod 100;
#X connect 0 0 1 0;
#X connect 0 0 20 0;
#X connect 1 0 28 0;
#X connect 2 0 1 1;
#X connect 3 0 5 0;
#X connect 4 0 6 0;
#X connect 4 1 3 0;
#X connect 7 0 11 0;
#X connect 8 0 16 0;
#X connect 9 0 8 0;
#X connect 10 0 14 0;
#X connect 11 0 1 1;
#X connect 14 0 9 0;
#X connect 17 0 15 0;
#X connect 19 0 21 0;
#X connect 20 0 19 0;
#X connect 20 1 19 1;
#X connect 21 0 22 0;
#X connect 22 0 23 0;
#X connect 23 0 24 0;
#X connect 23 0 26 0;
#X connect 28 0 2 0;
#X connect 28 0 4 0;
