#N canvas 704 149 681 558 10;
#X floatatom 103 114 3 0 0 1 tpb - #0tpb, f 3;
#X text 161 115 ticks/bar;
#X text 161 132 #bars;
#X floatatom 103 131 3 0 0 1 bs - _#0bs, f 3;
#X obj 103 282 outlet;
#X obj 103 76 unpack;
#X obj 285 131 inlet;
#N canvas 212 23 829 855 range 0;
#X floatatom 103 156 2 1 1e+38 1 qblen - _#0qblen, f 2;
#X obj 58 14 inlet;
#X obj 58 816 outlet;
#X floatatom 103 139 2 0 3 1 qbloc - _#0qbloc, f 2;
#X text 92 697 ticks to skip;
#X obj 307 375 *;
#X obj 356 339 / 4;
#X obj 290 487 *;
#X obj 304 517 +;
#X obj 307 400 t b f;
#X text 91 647 ticks to play;
#X obj 202 383 *;
#X obj 58 646 mod;
#X floatatom 66 670 3 0 0 0 - - -, f 3;
#X obj 58 696 +;
#X floatatom 70 722 5 0 0 0 - - -, f 5;
#X obj 202 343 f;
#X text 91 756 ticks total;
#X obj 422 539 *;
#X obj 468 197 r _\$0bs;
#X obj 455 249 f;
#X obj 468 222 t b f;
#X obj 58 756 mod;
#X floatatom 120 776 5 0 0 0 - - -, f 5;
#X obj 103 116 tgl 20 0 \$0_bp \$0bp bp 2 8 0 14 -262144 -1 -1 1 1
;
#X obj 89 280 expr $i1^1;
#X obj 58 323 spigot;
#X obj 276 454 f;
#X obj 307 336 f;
#X obj 385 283 t b f;
#X obj 115 323 spigot;
#X obj 224 195 r \$0_bp;
#X obj 171 573 pack 0 f f f;
#X obj 171 598 unpack 0 f f f;
#X obj 105 251 f;
#X obj 280 85 sel;
#X obj 105 217 t b b;
#X obj 58 177 t f;
#X obj 280 59 mod;
#X obj 58 37 t f f;
#X text 412 683 wraps around;
#X text 411 664 select a range to play;
#X obj 455 37 r \$0tpb;
#X obj 307 276 r _\$0qbloc;
#X obj 202 276 r _\$0qblen;
#X text 158 147 range location and length in bar quarters;
#X text 310 58 upd every bar or every n quarter bars (qblen);
#X connect 1 0 39 0;
#X connect 5 0 9 0;
#X connect 6 0 5 1;
#X connect 6 0 11 1;
#X connect 7 0 8 0;
#X connect 8 0 32 2;
#X connect 9 0 27 0;
#X connect 9 1 8 1;
#X connect 11 0 32 1;
#X connect 11 0 38 1;
#X connect 12 0 13 0;
#X connect 12 0 14 0;
#X connect 14 0 15 0;
#X connect 14 0 22 0;
#X connect 16 0 11 0;
#X connect 18 0 32 3;
#X connect 19 0 21 0;
#X connect 20 0 29 0;
#X connect 21 0 20 0;
#X connect 21 1 18 1;
#X connect 22 0 23 0;
#X connect 22 0 2 0;
#X connect 25 0 26 1;
#X connect 26 0 12 0;
#X connect 27 0 7 0;
#X connect 28 0 5 0;
#X connect 29 0 28 0;
#X connect 29 0 16 0;
#X connect 29 1 18 0;
#X connect 29 1 7 1;
#X connect 29 1 6 0;
#X connect 30 0 22 0;
#X connect 31 0 34 1;
#X connect 32 0 33 0;
#X connect 33 1 12 1;
#X connect 33 2 14 1;
#X connect 33 3 22 1;
#X connect 34 0 30 1;
#X connect 34 0 25 0;
#X connect 35 0 36 0;
#X connect 36 0 34 0;
#X connect 36 1 32 0;
#X connect 37 0 30 0;
#X connect 37 0 26 0;
#X connect 38 0 35 0;
#X connect 39 0 37 0;
#X connect 39 1 38 0;
#X connect 42 0 20 0;
#X connect 42 0 38 1;
#X connect 43 0 28 0;
#X connect 44 0 16 0;
#X coords 0 -1 1 1 52 74 1 100 100;
#X restore 103 148 pd range;
#X floatatom 123 259 3 0 0 0 - - -, f 3;
#X text 164 188 quarter-bar to start from [0 \, 3];
#X text 163 205 quarter-bars to play [1 \, inf);
#X text 323 132 clock;
#X obj 103 20 loadbang;
#X obj 178 49 s \$0bp;
#X text 164 166 bypass tgl;
#X obj 103 55 pack 16 1;
#X connect 5 0 0 0;
#X connect 5 1 3 0;
#X connect 6 0 7 0;
#X connect 7 0 8 0;
#X connect 7 0 4 0;
#X connect 12 0 13 0;
#X connect 12 0 15 0;
#X connect 15 0 5 0;
#X coords 0 -1 1 1 58 125 1 100 100;
