#N canvas 197 75 725 673 10;
#X msg 336 527 1, f 2;
#N canvas 829 23 634 802 patgen 0;
#N canvas 21 23 706 829 interp 0;
#X obj 532 111 list length;
#X text 604 111 tuplet size;
#X text 244 191 absolute size;
#X msg 188 217 1 \$1;
#X obj 188 239 /;
#X obj 173 290 *;
#X obj 110 191 list-iter;
#X obj 173 313 +;
#X obj 173 335 f;
#X msg 379 221 0, f 2;
#X obj 173 390 * 100;
#X obj 173 412 % 100;
#X obj 506 239 iter;
#X msg 571 243 1 \$1;
#X obj 571 265 /;
#X obj 506 306 *;
#X text 183 774 straight;
#X text 241 456 phrased;
#X obj 188 191 list-sum;
#X obj 506 360 * 100;
#X obj 506 382 % 100;
#X obj 53 56 t l b l l b b l;
#X obj 124 556 list-obix;
#X obj 36 520 list-obix;
#X obj 56 323 iter;
#X obj 56 345 t f f;
#X obj 64 601 -;
#X text 346 773 potential energies;
#X obj 506 406 * 0.01;
#X obj 173 434 * 0.01;
#X obj 53 27 inlet;
#X obj 139 724 list;
#X obj 139 773 outlet;
#X obj 302 773 outlet;
#X text 600 443 straight;
#X obj 152 671 t b l;
#X obj 173 357 + 0.005;
#X obj 506 328 + 0.005;
#X obj 173 456 list-group;
#X obj 531 442 list-group;
#X obj 152 645 list-group;
#X obj 173 478 cyclone/zl rot 1;
#X connect 0 0 13 0;
#X connect 0 0 12 1;
#X connect 0 0 24 1;
#X connect 0 0 38 1;
#X connect 0 0 39 1;
#X connect 0 0 40 1;
#X connect 3 0 4 0;
#X connect 4 0 5 1;
#X connect 5 0 7 0;
#X connect 6 0 5 0;
#X connect 7 0 8 0;
#X connect 8 0 7 1;
#X connect 8 0 36 0;
#X connect 9 0 7 1;
#X connect 10 0 11 0;
#X connect 11 0 29 0;
#X connect 12 0 15 0;
#X connect 13 0 14 0;
#X connect 14 0 15 1;
#X connect 15 0 37 0;
#X connect 18 0 3 0;
#X connect 19 0 20 0;
#X connect 20 0 28 0;
#X connect 21 1 24 0;
#X connect 21 2 6 0;
#X connect 21 3 18 0;
#X connect 21 4 9 0;
#X connect 21 5 12 0;
#X connect 21 6 0 0;
#X connect 22 0 26 1;
#X connect 23 0 26 0;
#X connect 24 0 25 0;
#X connect 25 0 23 0;
#X connect 25 1 22 0;
#X connect 26 0 40 0;
#X connect 28 0 39 0;
#X connect 29 0 38 0;
#X connect 30 0 21 0;
#X connect 31 0 32 0;
#X connect 35 0 31 0;
#X connect 35 1 33 0;
#X connect 36 0 10 0;
#X connect 37 0 19 0;
#X connect 38 0 41 0;
#X connect 39 0 22 1;
#X connect 39 0 31 1;
#X connect 40 0 35 0;
#X connect 41 0 23 1;
#X restore 254 196 pd interp;
#X obj 387 204 print potential energy;
#X obj 421 284 print straight tuplet;
#X obj 125 39 inlet;
#X obj 254 100 inlet;
#X obj 125 414 list-obix;
#X obj 228 390 list-obix;
#X obj 329 281 list length;
#X obj 125 334 iter;
#X obj 125 96 t b f;
#X obj 125 356 t f f;
#X obj 155 475 +;
#X obj 155 531 * 100;
#X obj 155 655 % 100;
#X obj 165 163 * 0.01;
#X obj 196 452 *;
#X obj 226 724 outlet;
#X floatatom 87 535 10 0 0 0 - - -, f 10;
#X floatatom 120 697 10 0 0 0 - - -, f 10;
#X obj 155 503 + 0.005;
#X obj 155 616 +;
#X obj 226 691 list-group;
#X text 164 40 groove \, offset;
#X text 295 100 pattern;
#X obj 125 61 unpack;
#X obj 441 515 t f;
#X obj 386 180 spigot;
#X obj 417 158 tgl 15 0 empty empty empty 17 7 0 10 -262144 -1 -1 0
1;
#X obj 419 260 spigot;
#X obj 450 238 tgl 15 0 empty empty empty 17 7 0 10 -262144 -1 -1 0
1;
#X obj 463 93 r \$0debug;
#X connect 0 0 5 1;
#X connect 0 0 28 0;
#X connect 0 1 6 1;
#X connect 0 1 7 0;
#X connect 0 1 26 0;
#X connect 3 0 24 0;
#X connect 4 0 0 0;
#X connect 5 0 11 0;
#X connect 6 0 15 0;
#X connect 7 0 8 1;
#X connect 7 0 21 1;
#X connect 8 0 10 0;
#X connect 9 0 8 0;
#X connect 9 1 14 0;
#X connect 10 0 5 0;
#X connect 10 1 6 0;
#X connect 11 0 19 0;
#X connect 11 0 17 0;
#X connect 12 0 20 0;
#X connect 13 0 18 0;
#X connect 13 0 21 0;
#X connect 14 0 15 1;
#X connect 15 0 11 1;
#X connect 19 0 12 0;
#X connect 20 0 13 0;
#X connect 21 0 16 0;
#X connect 24 0 9 0;
#X connect 24 1 25 0;
#X connect 25 0 20 1;
#X connect 26 0 1 0;
#X connect 27 0 26 1;
#X connect 28 0 2 0;
#X connect 29 0 28 1;
#X connect 30 0 27 0;
#X connect 30 0 29 0;
#X restore 373 217 pd patgen;
#X obj 336 484 list-iter;
#X obj 336 360 list;
#X obj 336 320 once;
#X obj 373 239 t b l;
#X msg 336 292 reload;
#X obj 336 390 t l b;
#X obj 336 505 t b f;
#N canvas 157 214 450 278 (subpatch) 0;
#X array \$0cycle 100 float 0;
#X coords 0 1.1 100 0 100 70 1 0 0;
#X restore 479 477 graph;
#X obj 363 413 f \$0;
#X msg 363 438 \; \$1cycle const 0;
#X obj 336 550 tabwrite \$0cycle;
#X obj 232 35 inlet;
#X text 193 106 phase;
#X obj 76 277 outlet;
#X obj 170 173 sel;
#X obj 415 294 outlet;
#X text 458 294 indexes;
#X obj 101 255 bng 15 250 50 0 empty empty empty 17 7 0 10 -262144
-1 -1;
#X obj 76 233 sel 1;
#X obj 76 209 tabread \$0cycle;
#X obj 373 144 t b l;
#X obj 131 149 t f f f;
#X obj 403 88 t b f;
#X obj 373 120 list;
#X obj 373 175 pack \$1 \$2;
#X text 57 407 TODO: pattern in two formats: binary and decimal (get
external from creating rhythms), f 32;
#X obj 232 60 route float list groove offset;
#X text 498 226 \$1 groove (0-100);
#X text 498 241 \$2 offset (0-100);
#X obj 532 87 tgl 15 0 empty empty empty 17 7 0 10 -262144 -1 -1 0
1;
#X obj 532 108 s \$0debug;
#X text 196 166 reset pattern at 0 if groove/offset did change, f
24;
#X connect 0 0 12 0;
#X connect 1 0 5 0;
#X connect 2 0 8 0;
#X connect 3 0 7 0;
#X connect 4 0 3 0;
#X connect 5 0 6 0;
#X connect 5 1 3 1;
#X connect 5 1 17 0;
#X connect 6 0 4 0;
#X connect 7 0 2 0;
#X connect 7 1 10 0;
#X connect 8 0 0 0;
#X connect 8 1 12 1;
#X connect 10 0 11 0;
#X connect 13 0 28 0;
#X connect 16 0 4 0;
#X connect 20 0 19 0;
#X connect 20 0 15 0;
#X connect 21 0 20 0;
#X connect 22 0 26 0;
#X connect 22 1 1 1;
#X connect 23 0 21 0;
#X connect 23 2 16 0;
#X connect 24 0 25 0;
#X connect 24 1 26 1;
#X connect 25 0 22 0;
#X connect 26 0 1 0;
#X connect 28 0 23 0;
#X connect 28 1 25 0;
#X connect 28 2 26 0;
#X connect 28 3 24 0;
#X connect 31 0 32 0;
