#N canvas 682 109 675 596 12;
#X obj 163 103 inlet;
#X obj 163 346 outlet;
#X obj 339 346 outlet;
#N canvas 724 316 568 470 to_phase 0;
#X obj 142 131 list-iter;
#X obj 142 249 f;
#X obj 142 160 t b f;
#X obj 142 191 spigot;
#X obj 100 62 inlet;
#X text 148 63 list in binary format;
#X obj 100 308 list-group;
#X obj 100 330 outlet;
#X obj 231 200 *;
#X obj 246 153 swap 1;
#X obj 246 175 /;
#X obj 100 84 t b l b;
#X obj 246 131 array size \$0onsets;
#X connect 0 0 2 0;
#X connect 0 1 8 0;
#X connect 1 0 6 0;
#X connect 2 0 3 0;
#X connect 2 1 3 1;
#X connect 3 0 1 0;
#X connect 4 0 11 0;
#X connect 6 0 7 0;
#X connect 8 0 1 1;
#X connect 9 0 10 0;
#X connect 9 1 10 1;
#X connect 10 0 8 1;
#X connect 11 0 6 0;
#X connect 11 1 0 0;
#X connect 11 2 12 0;
#X connect 12 0 9 0;
#X restore 339 318 pd to_phase;
#X text 395 346 onsets in phase format;
#X obj 164 424 array define \$0onsets;
#X obj 365 289 array set \$0onsets;
#X obj 339 159 dec2bin;
#X obj 163 221 array get \$0onsets;
#X obj 339 185 t l l l;
#X obj 392 236 change;
#X obj 392 260 array size \$0onsets;
#X obj 392 212 list length;
#X obj 339 104 inlet;
#X connect 0 0 8 0;
#X connect 3 0 2 0;
#X connect 7 0 9 0;
#X connect 8 0 1 0;
#X connect 9 0 3 0;
#X connect 9 1 6 0;
#X connect 9 2 12 0;
#X connect 10 0 11 0;
#X connect 12 0 10 0;
#X connect 13 0 7 0;
