#N canvas 100 115 538 510 10;
#X obj 189 118 f;
#X obj 216 118 + 1;
#X obj 162 205 div 2;
#X obj 89 230 change;
#X obj 162 230 change;
#X obj 89 205 div 1;
#X obj 236 230 change;
#X obj 236 205 div 4;
#X obj 312 230 change;
#X obj 391 229 change;
#X obj 189 94 inlet;
#X text 227 95 bang;
#X obj 243 118 mod 96;
#X obj 312 205 div 8;
#X obj 391 204 div 16;
#X obj 391 282 1;
#X obj 312 284 2;
#X obj 236 284 4;
#X obj 162 285 8;
#X obj 89 286 16;
#X obj 230 340 outlet;
#X text 255 365 1x \, 2x \, 4x \, 8x \, 16x speeds;
#X text 267 379 route the speed you need;
#X obj 89 253 b;
#X obj 162 257 b;
#X obj 236 257 b;
#X obj 312 258 b;
#X obj 391 255 b;
#X connect 0 0 1 0;
#X connect 0 0 5 0;
#X connect 0 0 2 0;
#X connect 0 0 7 0;
#X connect 0 0 13 0;
#X connect 0 0 14 0;
#X connect 1 0 12 0;
#X connect 2 0 4 0;
#X connect 3 0 23 0;
#X connect 4 0 24 0;
#X connect 5 0 3 0;
#X connect 6 0 25 0;
#X connect 7 0 6 0;
#X connect 8 0 26 0;
#X connect 9 0 27 0;
#X connect 10 0 0 0;
#X connect 12 0 0 1;
#X connect 13 0 8 0;
#X connect 14 0 9 0;
#X connect 15 0 20 0;
#X connect 16 0 20 0;
#X connect 17 0 20 0;
#X connect 18 0 20 0;
#X connect 19 0 20 0;
#X connect 23 0 19 0;
#X connect 24 0 18 0;
#X connect 25 0 17 0;
#X connect 26 0 16 0;
#X connect 27 0 15 0;
