#N canvas 319 301 495 500 10;
#X obj 179 327 f \$1;
#X obj 117 55 inlet;
#X obj 200 305 inlet;
#X obj 199 246 list length;
#X obj 242 355 ==;
#X obj 160 180 t l l l;
#X obj 199 268 t b f;
#X obj 146 389 spigot;
#X obj 276 159 t l;
#X obj 146 411 t l b;
#X obj 401 320 t b;
#X obj 146 433 outlet;
#X obj 160 156 list prepend;
#X obj 59 205 t b b;
#X msg 114 294 1, f 2;
#X obj 45 320 list;
#X obj 117 77 route bang;
#X connect 0 0 4 0;
#X connect 1 0 16 0;
#X connect 2 0 0 1;
#X connect 3 0 6 0;
#X connect 4 0 7 1;
#X connect 5 0 7 0;
#X connect 5 0 15 1;
#X connect 5 1 8 0;
#X connect 5 2 3 0;
#X connect 6 0 0 0;
#X connect 6 1 4 1;
#X connect 7 0 9 0;
#X connect 8 0 12 1;
#X connect 9 0 11 0;
#X connect 9 1 10 0;
#X connect 10 0 12 1;
#X connect 12 0 5 0;
#X connect 13 0 15 0;
#X connect 13 1 14 0;
#X connect 14 0 7 1;
#X connect 15 0 7 0;
#X connect 16 0 13 0;
#X connect 16 1 12 0;
