#N canvas 207 56 1101 821 12;
#N canvas 196 94 1029 689 mx-rm2 0;
#X obj 54 780 outlet~;
#X obj -3 514 t f f;
#X obj 4 540 *;
#X obj 2 53 inlet~;
#X text 5 37 audio;
#X obj -36 666 *~;
#X obj 64 55 inlet~;
#X obj -18 609 +~;
#X obj -20 636 clip~ -1 1;
#X text 57 37 level/rm;
#X obj -50 426 *~;
#X obj 10 308 t f f;
#X obj 9 335 *;
#X obj -42 508 *~;
#X obj -21 473 *~;
#X obj 20 480 sig~;
#X obj 103 125 tgl 12 1 empty empty q 3 5 0 10 -262144 -1 -162280 0
1;
#X obj 29 456 == 0;
#X obj 132 53 inlet~;
#X text 135 37 audio;
#X obj 194 55 inlet~;
#X text 187 37 level/rm;
#X obj 102 145 vsl 15 110 0 1 0 1 empty empty lv 2 7 0 10 -262144 -1
-1 3900 1;
#X obj 119 127 vsl 8 128 0 1 0 1 empty empty m 2 5 0 10 -262144 -1
-1 2900 1;
#X obj 0 586 line~;
#X msg 2 560 \$1 10;
#X obj 5 385 line~;
#X msg 7 359 \$1 10;
#X obj 137 514 t f f;
#X obj 144 540 *;
#X obj 104 666 *~;
#X obj 122 609 +~;
#X obj 120 636 clip~ -1 1;
#X obj 90 426 *~;
#X obj 150 308 t f f;
#X obj 149 335 *;
#X obj 98 508 *~;
#X obj 119 473 *~;
#X obj 160 480 sig~;
#X obj 133 125 tgl 12 1 empty empty q 3 5 0 10 -262144 -1 -162280 0
1;
#X obj 169 456 == 0;
#X obj 132 145 vsl 15 110 0 1 0 1 empty empty lv 2 7 0 10 -262144 -1
-1 4600 1;
#X obj 149 127 vsl 8 128 0 1 0 1 empty empty m 2 5 0 10 -262144 -1
-1 2900 1;
#X obj 140 586 line~;
#X msg 142 560 \$1 10;
#X obj 145 385 line~;
#X msg 147 359 \$1 10;
#X obj 114 779 outlet~;
#N canvas 325 375 1041 699 preset16 0;
#X obj 22 60 inlet;
#X obj -55 808 outlet, f 8;
#X obj 52 167 list prepend;
#X obj 166 133 f;
#X obj 85 28 inlet;
#X obj 153 -2 inlet;
#X text 28 43 data;
#X text 12 809 data out;
#X msg 508 588;
#X msg 489 555;
#X msg 475 527;
#X msg 464 494;
#X msg 450 466;
#X msg 436 437;
#X msg 422 409;
#X msg 412 374;
#X msg 398 346;
#X msg 387 313;
#X msg 373 285;
#X msg 359 256;
#X msg 345 228;
#X msg 329 197;
#X msg 310 163;
#X msg 291 111;
#X msg 261 68 0 0 1 0 0 0;
#X obj 259 36 route 0 1 2 3 4 5 6 7 8 9 10 11 12 13 14 15;
#X text 70 3 store nr;
#X obj 52 125 list;
#X obj 91 67 t b f;
#X obj 153 27 t b f;
#X text 151 -21 recall nr;
#X msg 32 96 symbol set;
#X connect 0 0 27 1;
#X connect 2 0 25 0;
#X connect 3 0 25 0;
#X connect 4 0 28 0;
#X connect 5 0 29 0;
#X connect 8 0 1 0;
#X connect 9 0 1 0;
#X connect 10 0 1 0;
#X connect 11 0 1 0;
#X connect 12 0 1 0;
#X connect 13 0 1 0;
#X connect 14 0 1 0;
#X connect 15 0 1 0;
#X connect 16 0 1 0;
#X connect 17 0 1 0;
#X connect 18 0 1 0;
#X connect 19 0 1 0;
#X connect 20 0 1 0;
#X connect 21 0 1 0;
#X connect 22 0 1 0;
#X connect 23 0 1 0;
#X connect 24 0 1 0;
#X connect 25 0 24 0;
#X connect 25 1 23 0;
#X connect 25 2 22 0;
#X connect 25 3 21 0;
#X connect 25 4 20 0;
#X connect 25 5 19 0;
#X connect 25 6 18 0;
#X connect 25 7 17 0;
#X connect 25 8 16 0;
#X connect 25 9 15 0;
#X connect 25 10 14 0;
#X connect 25 11 13 0;
#X connect 25 12 12 0;
#X connect 25 13 11 0;
#X connect 25 14 10 0;
#X connect 25 15 9 0;
#X connect 25 16 8 0;
#X connect 27 0 2 0;
#X connect 28 0 31 0;
#X connect 28 1 2 1;
#X connect 29 0 3 0;
#X connect 29 1 3 1;
#X connect 31 0 27 0;
#X coords 0 699 1 698 115 18 0;
#X restore 370 408 pd preset16;
#X obj 342 380 f;
#X obj 368 294 r \$0presetstore;
#X obj 483 293 r \$0presetrecall;
#X obj 368 316 t f b;
#X obj 381 225 bng 15 250 50 0 empty empty empty 17 7 0 10 -262144
-1 -1;
#X floatatom 455 237 5 0 0 0 - - -, f 5;
#X obj 391 268 int;
#X obj 430 226 bng 15 250 50 0 empty empty empty 17 7 0 10 -262144
-1 -1;
#X obj 432 268 int;
#X text 301 42 2 chan mixer/am-/ringmodulator \, constant level \,
mod amount lin/quad switch \, 2 single outputs;
#X obj 368 381 pack f f f f f f;
#X obj 371 433 unpack f f f f f f;
#X connect 1 0 2 0;
#X connect 1 1 2 1;
#X connect 2 0 25 0;
#X connect 3 0 5 0;
#X connect 5 0 0 0;
#X connect 6 0 10 0;
#X connect 7 0 8 0;
#X connect 8 0 5 1;
#X connect 10 0 13 0;
#X connect 10 0 14 0;
#X connect 11 0 12 0;
#X connect 11 1 12 1;
#X connect 12 0 27 0;
#X connect 13 0 7 0;
#X connect 14 0 13 1;
#X connect 15 0 13 1;
#X connect 16 0 14 1;
#X connect 16 0 17 0;
#X connect 16 0 49 1;
#X connect 17 0 15 0;
#X connect 18 0 30 0;
#X connect 20 0 33 0;
#X connect 22 0 1 0;
#X connect 22 0 59 1;
#X connect 23 0 11 0;
#X connect 23 0 59 2;
#X connect 24 0 7 1;
#X connect 25 0 24 0;
#X connect 26 0 10 1;
#X connect 27 0 26 0;
#X connect 28 0 29 0;
#X connect 28 1 29 1;
#X connect 29 0 44 0;
#X connect 30 0 47 0;
#X connect 31 0 32 0;
#X connect 32 0 30 1;
#X connect 33 0 36 0;
#X connect 33 0 37 0;
#X connect 34 0 35 0;
#X connect 34 1 35 1;
#X connect 35 0 46 0;
#X connect 36 0 31 0;
#X connect 37 0 36 1;
#X connect 38 0 36 1;
#X connect 39 0 37 1;
#X connect 39 0 40 0;
#X connect 39 0 59 3;
#X connect 40 0 38 0;
#X connect 41 0 28 0;
#X connect 41 0 59 4;
#X connect 42 0 34 0;
#X connect 42 0 59 5;
#X connect 43 0 31 1;
#X connect 44 0 43 0;
#X connect 45 0 33 1;
#X connect 46 0 45 0;
#X connect 48 0 60 0;
#X connect 49 0 59 0;
#X connect 50 0 52 0;
#X connect 51 0 48 2;
#X connect 52 0 48 1;
#X connect 52 1 49 0;
#X connect 53 0 55 0;
#X connect 54 0 55 1;
#X connect 54 0 57 1;
#X connect 55 0 52 0;
#X connect 56 0 57 0;
#X connect 57 0 48 2;
#X connect 59 0 48 0;
#X connect 60 0 16 0;
#X connect 60 1 22 0;
#X connect 60 2 23 0;
#X connect 60 3 39 0;
#X connect 60 4 41 0;
#X connect 60 5 42 0;
#X coords 0 -1 1 1 60 160 1 100 100;
#X restore 410 203 pd mx-rm2;
#X obj 419 731 output~;
#X obj 382 485 lop~;
#X floatatom 401 449 5 0 0 0 - - -, f 5;
#X obj 323 187 osc~;
#X obj 541 200 osc~;
#X floatatom 561 177 5 0 0 0 - - -, f 5;
#X obj 564 252 osc~;
#X floatatom 582 224 5 0 0 0 - - -, f 5;
#X obj 332 256 osc~;
#X floatatom 348 231 5 0 0 0 - - -, f 5;
#X obj 401 380 +~;
#X obj 498 483 lop~;
#X floatatom 517 447 5 0 0 0 - - -, f 5;
#X obj 503 378 +~;
#X floatatom 256 516 0 0 120 0 - - -;
#X floatatom 290 517 0 0 100 0 - - -;
#X floatatom 324 518 0 0 120 0 - - -;
#X floatatom 357 541 0 0 120 0 - - -;
#X obj 198 571 rev2~ 100 90 3000 20;
#X floatatom 691 501 0 0 120 0 - - -;
#X floatatom 725 502 0 0 100 0 - - -;
#X floatatom 759 503 0 0 120 0 - - -;
#X floatatom 792 526 0 0 120 0 - - -;
#X obj 649 555 rev2~ 100 90 3000 20;
#X floatatom 325 163 5 0 0 0 - - -, f 5;
#X text 617 404 TODO:satie~;
#X obj 773 337 env~;
#X floatatom 773 362 5 0 0 0 - - -, f 5;
#X obj 285 667 *~;
#X floatatom 314 615 5 0 100 0 - - -, f 5;
#X obj 314 637 / 100;
#X obj 626 666 *~;
#X floatatom 655 614 5 0 100 0 - - -, f 5;
#X obj 655 636 / 100;
#X obj 380 405 ../saturation;
#X obj 502 403 ../saturation;
#X connect 0 0 11 0;
#X connect 0 1 14 0;
#X connect 2 0 19 0;
#X connect 2 0 1 0;
#X connect 3 0 2 1;
#X connect 4 0 0 0;
#X connect 5 0 0 1;
#X connect 6 0 5 0;
#X connect 7 0 0 3;
#X connect 8 0 7 0;
#X connect 9 0 0 2;
#X connect 10 0 9 0;
#X connect 11 0 35 0;
#X connect 12 0 24 0;
#X connect 12 0 1 1;
#X connect 13 0 12 1;
#X connect 14 0 27 0;
#X connect 14 0 36 0;
#X connect 15 0 19 1;
#X connect 16 0 19 2;
#X connect 17 0 19 3;
#X connect 18 0 19 4;
#X connect 19 0 29 0;
#X connect 20 0 24 1;
#X connect 21 0 24 2;
#X connect 22 0 24 3;
#X connect 23 0 24 4;
#X connect 24 0 32 0;
#X connect 25 0 4 0;
#X connect 27 0 28 0;
#X connect 29 0 1 0;
#X connect 30 0 31 0;
#X connect 31 0 29 1;
#X connect 32 0 1 1;
#X connect 33 0 34 0;
#X connect 34 0 32 1;
#X connect 35 0 2 0;
#X connect 36 0 12 0;
