#N canvas 513 314 306 490 12;
#X obj 34 37 inlet;
#X obj 57 136 list;
#X obj 192 38 inlet;
#X text 190 16 list;
#X obj 57 164 list-iter;
#X text 31 14 elem to inspect;
#X obj 57 276 route;
#X obj 57 199 route symbol float;
#X obj 150 237 pack;
#X obj 57 237 pack s f;
#X obj 34 364 outlet;
#X text 93 365 output -1 if not found;
#X msg 242 223 -1, f 2;
#X obj 34 81 t b b f b;
#X obj 34 330 f;
#X connect 0 0 13 0;
#X connect 1 0 4 0;
#X connect 2 0 1 1;
#X connect 4 0 7 0;
#X connect 4 1 8 1;
#X connect 4 1 9 1;
#X connect 6 0 14 1;
#X connect 7 0 9 0;
#X connect 7 1 8 0;
#X connect 8 0 6 0;
#X connect 9 0 6 0;
#X connect 12 0 14 1;
#X connect 13 0 14 0;
#X connect 13 1 1 0;
#X connect 13 2 6 1;
#X connect 13 3 12 0;
#X connect 14 0 10 0;
