#N canvas 0 22 286 361 12;
#X obj 37 39 inlet;
#X obj 169 40 inlet;
#X obj 75 292 outlet;
#X obj 37 172 list;
#X text 178 19 list;
#X text 38 17 idx;
#X obj 37 112 t b f;
#X obj 37 205 list split;
#X obj 75 235 f;
#X connect 0 0 6 0;
#X connect 1 0 3 1;
#X connect 3 0 7 0;
#X connect 6 0 3 0;
#X connect 6 1 7 1;
#X connect 7 1 8 0;
#X connect 8 0 2 0;
