#N canvas 137 104 458 423 10;
#X obj 99 113 list;
#X obj 227 40 inlet;
#X obj 99 37 inlet;
#X obj 74 202 list-iter;
#X obj 99 66 t b f;
#X obj 99 135 t l l;
#X obj 251 244 list length;
#X obj 158 248 * 1;
#X obj 172 351 outlet;
#X text 267 40 list;
#X text 138 39 scalar;
#X obj 172 329 list-group;
#X connect 0 0 5 0;
#X connect 1 0 0 1;
#X connect 2 0 4 0;
#X connect 3 0 7 0;
#X connect 4 0 0 0;
#X connect 4 1 7 1;
#X connect 5 0 3 0;
#X connect 5 1 6 0;
#X connect 6 0 11 1;
#X connect 7 0 11 0;
#X connect 11 0 8 0;
