#N canvas 427 161 450 300 12;
#X obj 165 41 bng 20 250 50 0 empty empty empty 17 7 0 10 -262144 -1
-1;
#X msg 70 41 3, f 2;
#X obj 68 135 comp 4;
#X msg 123 195 1e+06;
#X obj 72 223 text set comp-test;
#X obj 68 160 t l b;
#X obj 234 214 text define comp-test;
#X msg 234 135 clear;
#X obj 165 68 t b b;
#X obj 70 68 t f b;
#X connect 0 0 8 0;
#X connect 1 0 9 0;
#X connect 2 0 5 0;
#X connect 3 0 4 1;
#X connect 5 0 4 0;
#X connect 5 1 3 0;
#X connect 7 0 6 0;
#X connect 8 0 2 0;
#X connect 8 1 7 0;
#X connect 9 0 2 0;
#X connect 9 1 7 0;
