#N canvas 427 161 450 300 12;
#X obj 139 101 bng 20 250 50 0 empty empty empty 17 7 0 10 -262144
-1 -1;
#X obj 68 135 comprnd;
#X obj 68 160 print;
#X msg 68 62 8, f 2;
#X msg 107 65 4, f 2;
#X msg 143 68 16;
#X connect 0 0 1 0;
#X connect 1 0 2 0;
#X connect 3 0 1 0;
#X connect 4 0 1 0;
#X connect 5 0 1 0;
