#N canvas 60 473 212 373 10;
#X obj 46 282 dac~;
#X obj 104 153 pack f 50;
#X obj 104 127 dbtorms;
#X floatatom 104 107 5 0 110 0 - - -, f 5;
#X obj 104 175 line~;
#X obj 49 226 *~;
#X obj 83 226 *~;
#X obj 49 20 inlet~;
#X obj 83 47 inlet~;
#X obj 127 303 outlet~;
#X obj 144 273 outlet~;
#X connect 1 0 4 0;
#X connect 2 0 1 0;
#X connect 3 0 2 0;
#X connect 4 0 6 1;
#X connect 4 0 5 1;
#X connect 5 0 0 0;
#X connect 5 0 9 0;
#X connect 6 0 0 1;
#X connect 6 0 10 0;
#X connect 7 0 5 0;
#X connect 8 0 6 0;
#X coords 0 -1 1 1 39 24 2 100 100;
