#N canvas 143 140 943 704 10;
#X obj 283 192 + 1;
#X obj 159 361 change;
#X obj 375 352 change;
#X obj 531 353 change;
#X obj 256 74 inlet;
#X text 294 75 bang;
#X obj 163 382 b;
#X obj 375 377 b;
#X obj 531 378 b;
#X obj 382 84 loadbang;
#X obj 310 192 mod;
#X obj 531 328 div;
#X obj 375 327 div;
#X obj 156 340 div;
#X obj 529 203 swap;
#X obj 382 145 t f b f;
#X obj 529 225 /;
#X obj 46 355 sel;
#X obj 256 192 f;
#X obj 256 232 t f f;
#X obj 842 405 sel;
#X obj 804 588 outlet;
#X floatatom 669 205 5 0 0 0 - - -, f 5;
#X obj 616 479 del;
#X obj 604 450 t b;
#X obj 53 504 1;
#X obj 212 509 3;
#X obj 295 511 4;
#X obj 377 512 5;
#X obj 519 508 7;
#X obj 594 513 8;
#X obj 321 632 outlet;
#X obj 382 123 105;
#X obj 669 225 * 105;
#X obj 613 247 / 2;
#X obj 641 270 / 4;
#X obj 129 446 del;
#X obj 292 455 del;
#X obj 271 429 t b;
#X obj 134 508 2;
#X obj 121 476 b;
#X obj 108 420 b;
#X obj 284 485 b;
#X obj 677 281 / 6;
#X obj 465 475 del;
#X obj 453 443 b;
#X obj 712 291 / 8;
#X obj 664 85 inlet;
#X text 706 87 ms in tick;
#X msg 412 193 3 5 7;
#X obj 412 255 unpack f f f;
#X obj 749 297 / 9;
#X obj 707 479 del;
#X obj 693 444 t b;
#X obj 679 513 9;
#X obj 443 508 6;
#X obj 772 445 * 2;
#X obj 749 479 del;
#X text 802 608 gati;
#X obj 412 217 lst/list-map;
#X connect 0 0 10 0;
#X connect 1 0 6 0;
#X connect 2 0 7 0;
#X connect 3 0 8 0;
#X connect 4 0 18 0;
#X connect 6 0 26 0;
#X connect 6 0 45 0;
#X connect 6 0 53 0;
#X connect 7 0 28 0;
#X connect 8 0 29 0;
#X connect 9 0 32 0;
#X connect 10 0 18 1;
#X connect 11 0 3 0;
#X connect 12 0 2 0;
#X connect 13 0 1 0;
#X connect 14 0 16 0;
#X connect 14 1 16 1;
#X connect 15 0 10 1;
#X connect 15 1 49 0;
#X connect 15 2 14 1;
#X connect 16 0 59 1;
#X connect 17 0 25 0;
#X connect 17 0 41 0;
#X connect 18 0 0 0;
#X connect 18 0 19 0;
#X connect 19 0 11 0;
#X connect 19 0 12 0;
#X connect 19 0 13 0;
#X connect 19 0 17 0;
#X connect 19 1 20 0;
#X connect 20 0 21 0;
#X connect 22 0 33 0;
#X connect 23 0 30 0;
#X connect 24 0 23 0;
#X connect 24 0 30 0;
#X connect 25 0 31 0;
#X connect 26 0 31 0;
#X connect 27 0 31 0;
#X connect 28 0 31 0;
#X connect 29 0 31 0;
#X connect 30 0 31 0;
#X connect 32 0 15 0;
#X connect 33 0 34 0;
#X connect 33 0 43 0;
#X connect 33 0 35 0;
#X connect 33 0 46 0;
#X connect 33 0 51 0;
#X connect 34 0 36 1;
#X connect 35 0 37 1;
#X connect 36 0 40 0;
#X connect 37 0 42 0;
#X connect 38 0 37 0;
#X connect 38 0 42 0;
#X connect 39 0 31 0;
#X connect 40 0 39 0;
#X connect 40 0 38 0;
#X connect 41 0 36 0;
#X connect 41 0 40 0;
#X connect 42 0 27 0;
#X connect 42 0 24 0;
#X connect 43 0 44 1;
#X connect 44 0 55 0;
#X connect 45 0 44 0;
#X connect 45 0 55 0;
#X connect 46 0 23 1;
#X connect 47 0 22 0;
#X connect 49 0 59 0;
#X connect 50 0 13 1;
#X connect 50 1 12 1;
#X connect 50 2 11 1;
#X connect 51 0 52 1;
#X connect 51 0 56 0;
#X connect 52 0 54 0;
#X connect 53 0 52 0;
#X connect 53 0 54 0;
#X connect 53 0 57 0;
#X connect 54 0 31 0;
#X connect 55 0 31 0;
#X connect 56 0 57 1;
#X connect 57 0 54 0;
#X connect 59 0 50 0;
#X connect 59 1 14 0;
