#N canvas 693 195 752 655 12;
#X obj 182 360 *~;
#X obj 112 309 tri_trevor~;
#N canvas 206 78 673 456 stwid 0;
#X obj 281 398 outlet~;
#X obj 236 255 lop~ 500;
#X obj 295 254 hip~ 500;
#X obj 156 254 lop~ 500;
#X obj 95 254 hip~ 500;
#X msg 317 193 \$1 20;
#X obj 316 213 line 0 2;
#X obj 297 132 + 30;
#X obj 296 107 * 60;
#X obj 464 252 + 1;
#X obj 464 209 expr pow($f1 \, 2);
#X obj 464 231 * 45;
#X obj 462 292 line~;
#X msg 465 273 \$1 20;
#X obj 130 61 inlet~;
#X obj 127 382 outlet~;
#X obj 194 60 inlet~;
#X obj 297 153 mtof;
#X floatatom 381 83 5 0 100 0 - - -, f 5;
#X obj 381 102 / 100;
#X floatatom 487 122 5 0 100 0 - - -, f 5;
#X obj 487 141 / 100;
#X floatatom 367 167 5 0 0 0 - - -, f 5;
#X msg 414 65 29;
#X msg 494 99 80;
#X obj 494 36 loadbang;
#X obj 181 164 *~;
#X obj 32 124 == 0;
#X obj 173 102 tgl 15 1 empty empty empty 17 7 0 10 -262144 -1 -1 1
1;
#X obj 120 161 *~;
#X obj 14 254 *~;
#X obj 47 254 *~;
#X obj 325 294 delwrite~ \$0-del3 50;
#X obj 463 335 vd~ \$0-del3;
#X connect 1 0 0 0;
#X connect 2 0 32 0;
#X connect 3 0 15 0;
#X connect 4 0 15 0;
#X connect 5 0 6 0;
#X connect 6 0 4 1;
#X connect 6 0 3 1;
#X connect 6 0 1 1;
#X connect 6 0 2 1;
#X connect 7 0 17 0;
#X connect 8 0 7 0;
#X connect 9 0 13 0;
#X connect 10 0 11 0;
#X connect 11 0 9 0;
#X connect 12 0 33 0;
#X connect 13 0 12 0;
#X connect 14 0 29 0;
#X connect 14 0 30 0;
#X connect 16 0 26 0;
#X connect 16 0 31 0;
#X connect 17 0 5 0;
#X connect 17 0 22 0;
#X connect 18 0 19 0;
#X connect 19 0 8 0;
#X connect 20 0 21 0;
#X connect 21 0 10 0;
#X connect 23 0 18 0;
#X connect 24 0 20 0;
#X connect 25 0 23 0;
#X connect 25 0 24 0;
#X connect 26 0 1 0;
#X connect 26 0 2 0;
#X connect 27 0 30 1;
#X connect 27 0 31 1;
#X connect 28 0 27 0;
#X connect 28 0 26 1;
#X connect 28 0 29 1;
#X connect 29 0 4 0;
#X connect 29 0 3 0;
#X connect 30 0 15 0;
#X connect 31 0 0 0;
#X connect 33 0 0 0;
#X coords 0 -1 1 1 97 21 1 100 100;
#X restore 173 478 pd stwid;
#X obj 308 331 *~;
#X obj 310 302 vline~;
#X obj 176 414 *~;
#X obj 31 371 osc~;
#X obj 151 217 osc~;
#X obj 149 191 *~ 0.5;
#X obj 151 239 *~ 0.5;
#X obj 186 54 inlet;
#X obj 79 108 mtof~;
#X obj 578 96 loadbang;
#X obj 355 130 f \$1;
#X obj 95 147 lop~ 50;
#X obj 230 628 outlet~;
#X obj 302 627 outlet~;
#X obj 355 183 osc~;
#X obj 355 155 *~ 0.01;
#X obj 355 208 *~ 0.15;
#X obj 183 446 *~;
#X obj 254 108 / 127;
#X obj 186 79 unpack;
#X floatatom 272 148 5 0 0 0 - - -, f 5;
#X obj 31 343 *~;
#X obj 31 396 *~ 0.2;
#X obj 94 366 swap 1;
#X obj 94 391 /;
#X obj 180 523 lop~ 500;
#X obj 275 516 lop~ 500;
#X obj 355 233 +~ 0.35;
#X obj 71 285 * 0.5;
#X obj 47 314 + 1;
#X msg 311 275 1 100 \, 0 3000 100;
#X connect 0 0 5 1;
#X connect 1 0 0 0;
#X connect 2 0 28 0;
#X connect 2 1 29 0;
#X connect 3 0 0 1;
#X connect 4 0 3 0;
#X connect 4 0 3 1;
#X connect 5 0 20 0;
#X connect 6 0 25 0;
#X connect 7 0 9 0;
#X connect 8 0 7 0;
#X connect 9 0 0 0;
#X connect 10 0 22 0;
#X connect 11 0 14 0;
#X connect 11 0 24 0;
#X connect 12 0 13 0;
#X connect 13 0 18 0;
#X connect 13 0 31 0;
#X connect 14 0 1 0;
#X connect 14 0 8 0;
#X connect 17 0 19 0;
#X connect 18 0 17 0;
#X connect 19 0 30 0;
#X connect 20 0 2 0;
#X connect 20 0 2 1;
#X connect 21 0 20 1;
#X connect 21 0 23 0;
#X connect 22 0 11 0;
#X connect 22 0 33 0;
#X connect 22 1 21 0;
#X connect 24 0 6 0;
#X connect 25 0 5 0;
#X connect 26 0 27 0;
#X connect 26 1 27 1;
#X connect 27 0 25 1;
#X connect 28 0 15 0;
#X connect 29 0 16 0;
#X connect 30 0 1 1;
#X connect 31 0 32 0;
#X connect 32 0 24 1;
#X connect 32 0 26 0;
#X connect 33 0 4 0;
