#N canvas 0 22 922 679 12;
#X obj 205 116 inlet;
#X obj 453 583 outlet;
#X obj 242 356 list-iter;
#X obj 478 114 inlet;
#X text 254 117 binary mask;
#X obj 250 255 ==;
#X obj 242 457 list-obix;
#X text 530 115 ptrn in decimal form;
#X obj 205 281 spigot;
#X obj 231 181 list-sum;
#X obj 515 178 list length;
#X obj 242 430 f;
#X obj 275 430 + 1;
#X msg 674 275 0, f 2;
#X obj 242 383 sel 1;
#X obj 478 139 t l l;
#X msg 554 400 1 0 1 1;
#X obj 554 425 +;
#X msg 555 450 4 2 2;
#X obj 555 475 ==;
#X msg 555 500 4 0 2 2;
#X text 552 376 example;
#X obj 453 554 list-group;
#X obj 205 141 t l l b;
#X obj 205 534 b;
#X obj 205 315 t l l;
#X connect 0 0 23 0;
#X connect 2 0 14 0;
#X connect 3 0 15 0;
#X connect 5 0 8 1;
#X connect 6 0 22 0;
#X connect 8 0 25 0;
#X connect 9 0 5 0;
#X connect 10 0 5 1;
#X connect 11 0 12 0;
#X connect 11 0 6 0;
#X connect 12 0 11 1;
#X connect 13 0 11 1;
#X connect 14 0 11 0;
#X connect 14 1 22 0;
#X connect 15 0 6 1;
#X connect 15 1 10 0;
#X connect 22 0 1 0;
#X connect 23 0 8 0;
#X connect 23 1 9 0;
#X connect 23 2 13 0;
#X connect 24 0 22 0;
#X connect 25 0 24 0;
#X connect 25 1 2 0;
