#N canvas 346 214 861 672 12;
#X obj 465 234 sqrt;
#X obj 17 501 *~;
#X obj 227 322 line~;
#X obj 227 349 *~;
#X obj 227 376 *~;
#X msg 227 258 0 \$1;
#X obj 465 261 sqrt;
#X obj 227 160 t b b;
#X obj 17 105 bng 15 250 50 0 empty empty empty 0 -6 0 8 -262144 -1
-1;
#X msg 465 288 \$1 5;
#X obj 227 205 del 5;
#X obj 465 207 * 0.1;
#X obj 17 264 + \$4;
#X text 515 179 get amplitude from argument 1;
#X text 524 206 normalize to 0.1;
#X text 516 233 take fourth root (square root twice);
#X text 544 250 because we'll raise line~ output to;
#X text 543 267 fourth power;
#X text 515 292 attack time 5 msec;
#X text 280 204 decay after 5 msec;
#X text 483 151 attack;
#X text 275 230 actual duration;
#X obj 17 200 float \$3;
#X text 60 264 plus detune;
#X text 271 258 decay msg to line~;
#X text 266 350 raise to fourth power for;
#X text 267 368 natural-sounding decay shape;
#X text 620 39 arguments:;
#X text 594 64 1 amplitude \; 2 relative duration \; 3 relative frequency
\; 4 detune;
#X obj 17 295 phasor~;
#X obj 17 536 outlet~;
#X obj 145 24 inlet;
#X obj 145 49 route bang list;
#X obj 464 180 float;
#X obj 227 231 float;
#X text 26 175 actual frequency;
#X msg 692 390 1;
#X obj 699 445 tgl 15 0 empty empty empty 17 7 0 10 -262144 -1 -1 0
1;
#X obj 692 422 change 0;
#N canvas 816 177 425 289 fm 0;
#X obj 44 52 inlet~;
#X obj 126 34 inlet~;
#X obj 44 107 +~;
#X obj 44 151 cos~;
#X obj 44 206 outlet~;
#X obj 126 85 *~;
#X obj 126 109 rzero~ -1;
#X obj 256 205 table \$0fb 1;
#X obj 147 59 tabreceive~ \$0fb;
#X obj 58 179 tabsend~ \$0fb;
#X obj 256 182 block~ 1 1 1;
#X connect 0 0 2 0;
#X connect 1 0 5 0;
#X connect 2 0 3 0;
#X connect 3 0 4 0;
#X connect 3 0 9 0;
#X connect 5 0 6 0;
#X connect 6 0 2 1;
#X connect 8 0 5 1;
#X restore 17 457 pd fm;
#N canvas 0 22 450 300 noisi 0;
#X text 36 101 variable multiplier;
#X text 36 58 variable freq (increment slowly to 2.5);
#X obj 25 122 *~ 5;
#X obj 25 156 outlet~;
#X obj 25 78 zexy/noisi~ 0.5;
#X obj 257 172 switch~ 64 1 1;
#X connect 2 0 3 0;
#X connect 4 0 2 0;
#X restore 599 516 pd noisi;
#X floatatom 75 365 5 0 0 1 index - -, f 5;
#X obj 75 386 * 0.5;
#X obj 54 431 lop~ 500;
#X obj 145 77 t b b;
#X obj 203 77 unpack f f f f f;
#X obj 54 412 *~;
#X obj 483 468 > 0;
#X obj 483 443 env~ 4096;
#X obj 692 481 switch~ 64 1 1;
#X connect 0 0 6 0;
#X connect 1 0 30 0;
#X connect 1 0 48 0;
#X connect 2 0 3 0;
#X connect 2 0 3 1;
#X connect 3 0 4 0;
#X connect 3 0 4 1;
#X connect 4 0 1 1;
#X connect 4 0 46 0;
#X connect 5 0 2 0;
#X connect 6 0 9 0;
#X connect 7 0 10 0;
#X connect 7 1 33 0;
#X connect 8 0 7 0;
#X connect 8 0 22 0;
#X connect 9 0 2 0;
#X connect 10 0 34 0;
#X connect 11 0 0 0;
#X connect 12 0 29 0;
#X connect 22 0 12 0;
#X connect 29 0 39 0;
#X connect 31 0 32 0;
#X connect 32 0 44 0;
#X connect 32 1 45 0;
#X connect 33 0 11 0;
#X connect 34 0 5 0;
#X connect 36 0 38 0;
#X connect 38 0 37 0;
#X connect 38 0 49 0;
#X connect 39 0 1 0;
#X connect 41 0 42 0;
#X connect 42 0 46 1;
#X connect 43 0 39 1;
#X connect 44 0 8 0;
#X connect 44 1 36 0;
#X connect 45 0 33 1;
#X connect 45 1 34 1;
#X connect 45 2 22 1;
#X connect 45 3 12 1;
#X connect 45 4 41 0;
#X connect 46 0 43 0;
#X connect 47 0 38 0;
#X connect 48 0 47 0;
