#N canvas 162 62 1131 773 12;
#X obj 585 472 textfile;
#X msg 697 214 rewind;
#X obj 569 323 t b f;
#X obj 102 33 inlet;
#X msg 611 194 0, f 2;
#X obj 519 235 f;
#X obj 550 235 + 1;
#X obj 519 194 until;
#X obj 585 534 f;
#X obj 585 606 list;
#X obj 585 85 t b f;
#X obj 633 267 t b;
#X obj 585 505 t b a;
#X obj 585 123 t b b b;
#X obj 948 377 symbol \$1;
#X obj 948 351 loadbang;
#X msg 948 403 read \$1.txt cr;
#X obj 550 388 until;
#X text 829 117 \$1 name of file to read from;
#X floatatom 102 104 3 0 0 1 pr - #0_prst, f 3;
#X obj 912 259 t f;
#X obj 585 563 sel;
#X obj 569 299 moses;
#X obj 837 279 + 1;
#X obj 585 656 outlet;
#X obj 149 104 bng 17 250 50 0 empty empty empty 17 7 0 10 -262144
-1 -1;
#X text 175 103 preset# \, write to file;
#X text 148 33 preset#;
#X obj 585 57 r \$0_prst;
#X text 829 87 preset reader;
#X msg 149 279 write \$1.txt cr;
#X obj 585 631 list trim;
#X obj 149 253 symbol \$1;
#X obj 550 363 f \$2;
#X text 829 134 \$2 #lines in preset;
#X msg 877 357 bang;
#X obj 102 58 route float;
#X msg 700 380 clear;
#X connect 0 0 12 0;
#X connect 1 0 0 0;
#X connect 2 0 33 0;
#X connect 2 1 8 1;
#X connect 3 0 36 0;
#X connect 4 0 5 1;
#X connect 5 0 6 0;
#X connect 5 0 22 0;
#X connect 6 0 5 1;
#X connect 7 0 5 0;
#X connect 8 0 21 0;
#X connect 9 0 31 0;
#X connect 10 0 13 0;
#X connect 10 1 20 0;
#X connect 11 0 7 1;
#X connect 12 0 8 0;
#X connect 12 1 9 1;
#X connect 13 0 7 0;
#X connect 13 1 4 0;
#X connect 13 2 1 0;
#X connect 14 0 16 0;
#X connect 15 0 14 0;
#X connect 16 0 0 0;
#X connect 17 0 0 0;
#X connect 20 0 21 1;
#X connect 20 0 23 0;
#X connect 21 0 9 0;
#X connect 22 0 2 0;
#X connect 22 1 11 0;
#X connect 23 0 22 1;
#X connect 25 0 32 0;
#X connect 28 0 10 0;
#X connect 30 0 0 0;
#X connect 31 0 24 0;
#X connect 32 0 30 0;
#X connect 33 0 17 0;
#X connect 35 0 14 0;
#X connect 36 0 19 0;
#X connect 36 1 0 0;
#X connect 37 0 0 0;
#X coords 0 -1 1 1 68 25 2 100 100;
