#N canvas 283 157 450 300 10;
#X obj 96 59 key;
#X floatatom 96 81 5 0 0 0 - - -, f 5;
#X obj 96 100 sel 32 115;
#X obj 34 156 print spacebar;
#X obj 137 161 print s;
#X connect 0 0 1 0;
#X connect 1 0 2 0;
#X connect 2 0 3 0;
#X connect 2 1 4 0;
