#N canvas 283 157 450 300 10;
#X obj 146 91 adc~;
#X obj 134 204 dac~;
#X obj 146 134 *~;
#X floatatom 233 85 5 0 0 0 - - -, f 5;
#X obj 233 104 pack f 30;
#X obj 233 126 line~;
#X connect 0 0 2 0;
#X connect 2 0 1 0;
#X connect 2 0 1 1;
#X connect 3 0 4 0;
#X connect 4 0 5 0;
#X connect 5 0 2 1;
