#N canvas 283 157 450 300 10;
#X obj 135 45 adc~;
#X obj 115 211 dac~;
#X obj 135 67 delwrite~ carrot 2000;
#X floatatom 133 116 5 0 0 0 - - -, f 5;
#X obj 133 135 delread~ carrot;
#X obj 133 175 *~;
#X floatatom 279 139 5 0 0 0 - - -, f 5;
#X obj 279 158 pack f 30;
#X obj 279 180 line~;
#X connect 0 0 2 0;
#X connect 3 0 4 0;
#X connect 4 0 5 0;
#X connect 5 0 1 0;
#X connect 5 0 1 1;
#X connect 6 0 7 0;
#X connect 7 0 8 0;
#X connect 8 0 5 1;
