#N canvas 92 22 602 637 10;
#X obj 50 373 dac~;
#X floatatom 78 249 5 0 0 0 - - -, f 5;
#X obj 78 268 delread~ carrot;
#X obj 91 154 +~;
#X obj 116 128 r~ recirculate;
#X obj 97 342 s~ recirculate;
#X obj 91 182 delwrite~ carrot 8000;
#X obj 91 93 *~;
#X floatatom 237 57 5 0 0 0 - - -, f 5;
#X obj 237 76 pack f 30;
#X obj 237 98 line~;
#X obj 237 34 tgl 15 0 empty empty empty 17 7 0 10 -262144 -1 -1 1
1;
#X floatatom 231 273 5 0 0 0 - - -, f 5;
#X obj 231 292 pack f 30;
#X obj 231 314 line~;
#X obj 78 308 *~;
#X obj 317 23 key;
#X floatatom 317 45 5 0 0 0 - - -, f 5;
#X obj 317 64 sel 115;
#X obj 78 226 r delay-time;
#X obj 231 246 r feedback;
#X msg 394 122 \; delay-time 1500 \; feedback 1 \;;
#X text 268 272 recirculation;
#X msg 390 214 \; delay-time 50 \; feedback 0.94 \;;
#X obj 23 -63 adc~;
#X obj 23 -41 *~;
#X obj 58 -40 tgl 15 0 empty empty empty 17 7 0 10 -262144 -1 -1 0
1;
#X obj 170 -8 readsf~;
#X msg 125 -98 0 \, open guit-clean-01.wav \, 1;
#X msg 161 -76 0 \, open guit-clean-02.wav \, 1;
#X msg 185 -54 0 \, open hendrix.wav \, 1;
#X obj 91 58 +~;
#X obj 343 -98 bng 15 250 50 0 empty empty empty 17 7 0 10 -262144
-1 -1;
#X text 315 -22 use the "s" key to start and stop recording, f 22
;
#X text 393 96 A LOOPER;
#X text 375 192 A recirculating delay network;
#X connect 1 0 2 0;
#X connect 2 0 15 0;
#X connect 3 0 6 0;
#X connect 4 0 3 1;
#X connect 7 0 3 0;
#X connect 8 0 9 0;
#X connect 9 0 10 0;
#X connect 10 0 7 1;
#X connect 11 0 8 0;
#X connect 12 0 13 0;
#X connect 13 0 14 0;
#X connect 14 0 15 1;
#X connect 15 0 0 0;
#X connect 15 0 0 1;
#X connect 15 0 5 0;
#X connect 16 0 17 0;
#X connect 17 0 18 0;
#X connect 18 0 11 0;
#X connect 19 0 1 0;
#X connect 20 0 12 0;
#X connect 24 0 25 0;
#X connect 25 0 31 0;
#X connect 26 0 25 1;
#X connect 27 0 31 1;
#X connect 28 0 27 0;
#X connect 29 0 27 0;
#X connect 30 0 27 0;
#X connect 31 0 7 0;
#X connect 32 0 28 0;
#X connect 32 0 29 0;
