#N canvas 551 38 456 594 10;
#X obj 109 124 delwrite~ carrot 8000;
#X floatatom 203 335 5 0 0 0 - - -, f 5;
#X obj 203 354 pack f 30;
#X obj 203 376 line~;
#X obj 95 389 *~;
#X obj 79 458 dac~;
#X obj 168 294 vd~ carrot;
#X obj 287 175 *~ 10;
#X obj 84 89 +~;
#X obj 28 22 adc~;
#X obj 28 44 *~;
#X obj 63 45 tgl 15 0 empty empty empty 17 7 0 10 -262144 -1 -1 0 1
;
#X obj 175 77 readsf~;
#X msg 130 -13 0 \, open guit-clean-01.wav \, 1;
#X msg 166 9 0 \, open guit-clean-02.wav \, 1;
#X msg 190 31 0 \, open hendrix.wav \, 1;
#X obj 287 197 +~ 10;
#X obj 287 153 osc~ 0.2;
#X floatatom 359 179 5 0 0 0 - - -, f 5;
#X floatatom 287 133 5 0 0 0 - - -, f 5;
#X text 246 334 set output level;
#X text 361 228 CHORUSING;
#X obj 286 220 *~;
#X obj 343 225 tgl 15 0 empty empty empty 17 7 0 10 -257985 -1 -1 0
1;
#X msg 131 166 100;
#X obj 131 208 sig~;
#X obj 132 145 loadbang;
#X obj 131 230 *~;
#X obj 168 231 tgl 15 0 empty empty empty 17 7 0 10 -257985 -1 -1 0
1;
#X floatatom 131 188 5 0 0 0 - - -, f 5;
#X text 186 234 ECHO;
#X connect 1 0 2 0;
#X connect 2 0 3 0;
#X connect 3 0 4 1;
#X connect 4 0 5 0;
#X connect 4 0 5 1;
#X connect 6 0 4 0;
#X connect 7 0 16 0;
#X connect 8 0 4 0;
#X connect 8 0 0 0;
#X connect 9 0 10 0;
#X connect 10 0 8 0;
#X connect 11 0 10 1;
#X connect 12 0 8 1;
#X connect 13 0 12 0;
#X connect 14 0 12 0;
#X connect 15 0 12 0;
#X connect 16 0 22 0;
#X connect 17 0 7 0;
#X connect 18 0 7 1;
#X connect 18 0 16 1;
#X connect 19 0 17 0;
#X connect 22 0 6 0;
#X connect 23 0 22 1;
#X connect 24 0 29 0;
#X connect 25 0 27 0;
#X connect 26 0 24 0;
#X connect 27 0 6 0;
#X connect 28 0 27 1;
#X connect 29 0 25 0;
