#N canvas 94 22 646 614 10;
#X obj 138 114 delwrite~ carrot 2000;
#X obj 116 76 *~;
#X obj 353 19 tgl 15 0 empty empty empty 17 7 0 10 -262144 -1 -1 0
1;
#X obj 353 39 pack f 30;
#X obj 353 61 line~;
#X obj 179 15 readsf~;
#X msg 199 -101 0 \, open guit-clean-01.wav \, 1;
#X msg 214 -77 0 \, open guit-clean-02.wav \, 1;
#X msg 224 -40 0 \, open hendrix.wav \, 1;
#X floatatom 128 205 5 0 0 0 - - -, f 5;
#X obj 6 -34 fiddle~;
#X floatatom 6 -12 5 0 0 0 - - -, f 5;
#X obj 6 7 + 0.5;
#X obj 6 29 int;
#X floatatom 6 51 5 0 0 0 - - -, f 5;
#X floatatom 236 205 5 0 0 0 - - -, f 5;
#X floatatom 341 206 5 0 0 0 - - -, f 5;
#X floatatom 449 206 5 0 0 0 - - -, f 5;
#X msg 361 122 -12 4 7 12;
#X obj 361 144 unpack f f f f;
#X obj 472 24 loadbang;
#X obj 89 -80 adc~;
#X obj 65 323 +~;
#X obj 128 237 ps-abs;
#X obj 50 393 dac~;
#X obj 65 345 /~ 5;
#X obj 236 237 ps-abs;
#X obj 341 238 ps-abs;
#X obj 449 238 ps-abs;
#X text 437 123 major chord;
#X connect 1 0 0 0;
#X connect 1 0 22 0;
#X connect 2 0 3 0;
#X connect 3 0 4 0;
#X connect 4 0 1 1;
#X connect 5 0 1 0;
#X connect 6 0 5 0;
#X connect 7 0 5 0;
#X connect 8 0 5 0;
#X connect 9 0 23 0;
#X connect 10 0 11 0;
#X connect 11 0 12 0;
#X connect 12 0 13 0;
#X connect 13 0 14 0;
#X connect 15 0 26 0;
#X connect 16 0 27 0;
#X connect 17 0 28 0;
#X connect 18 0 19 0;
#X connect 19 0 9 0;
#X connect 19 1 15 0;
#X connect 19 2 16 0;
#X connect 19 3 17 0;
#X connect 20 0 18 0;
#X connect 20 0 2 0;
#X connect 21 0 1 0;
#X connect 21 0 10 0;
#X connect 22 0 25 0;
#X connect 23 0 22 1;
#X connect 25 0 24 0;
#X connect 25 0 24 1;
#X connect 26 0 22 1;
#X connect 27 0 22 1;
#X connect 28 0 22 1;
