#N canvas 0 22 428 632 10;
#X obj -138 463 vd~ carrot;
#X obj 67 393 +~ 0.5;
#X obj -134 425 *~ 100;
#X obj 3 480 vd~ carrot;
#X obj 14 454 *~ 100;
#X obj 91 503 cos~;
#X obj 39 525 *~;
#X obj -47 437 cos~;
#X obj -126 515 *~;
#X floatatom -34 323 5 0 0 0 - - -, f 5;
#X obj 67 415 wrap~;
#X obj -34 343 phasor~;
#X obj -48 389 -~ 0.5;
#X obj -48 411 *~ 0.5;
#X obj 91 457 -~ 0.5;
#X obj 91 478 *~ 0.5;
#X floatatom -47 125 0 0 0 0 - - -;
#X obj -47 172 exp;
#X floatatom -47 195 6 0 0 0 - - -, f 6;
#X obj -46 216 - 1;
#X obj -46 238 * -1;
#X floatatom -43 268 5 0 0 0 - - -, f 5;
#X text -23 128 <-- transposition (semitones);
#X text -22 218 center around zero;
#X text -15 237 invert direction;
#X text -6 194 <-- speed;
#X obj -47 150 * 0.0577623;
#X obj -40 293 / 0.1;
#X obj -46 94 inlet;
#X obj -31 581 outlet~;
#X connect 0 0 8 0;
#X connect 1 0 10 0;
#X connect 2 0 0 0;
#X connect 3 0 6 0;
#X connect 4 0 3 0;
#X connect 5 0 6 1;
#X connect 6 0 29 0;
#X connect 7 0 8 1;
#X connect 8 0 29 0;
#X connect 9 0 11 0;
#X connect 10 0 4 0;
#X connect 10 0 14 0;
#X connect 11 0 1 0;
#X connect 11 0 2 0;
#X connect 11 0 12 0;
#X connect 12 0 13 0;
#X connect 13 0 7 0;
#X connect 14 0 15 0;
#X connect 15 0 5 0;
#X connect 16 0 26 0;
#X connect 17 0 18 0;
#X connect 18 0 19 0;
#X connect 19 0 20 0;
#X connect 20 0 21 0;
#X connect 21 0 27 0;
#X connect 26 0 17 0;
#X connect 27 0 9 0;
#X connect 28 0 16 0;
