{
	"patcher" : 	{
		"fileversion" : 1,
		"rect" : [ 25.0, 69.0, 640.0, 480.0 ],
		"bglocked" : 0,
		"defrect" : [ 25.0, 69.0, 640.0, 480.0 ],
		"openrect" : [ 0.0, 0.0, 0.0, 0.0 ],
		"openinpresentation" : 0,
		"default_fontsize" : 14.0,
		"default_fontface" : 0,
		"default_fontname" : "Arial",
		"gridonopen" : 0,
		"gridsize" : [ 15.0, 15.0 ],
		"gridsnaponopen" : 0,
		"toolbarvisible" : 1,
		"boxanimatetime" : 200,
		"imprint" : 0,
		"enablehscroll" : 1,
		"enablevscroll" : 1,
		"devicewidth" : 0.0,
		"boxes" : [ 			{
				"box" : 				{
					"maxclass" : "button",
					"numinlets" : 1,
					"patching_rect" : [ 293.0, 84.0, 20.0, 20.0 ],
					"id" : "obj-7",
					"numoutlets" : 1,
					"outlettype" : [ "bang" ]
				}

			}
, 			{
				"box" : 				{
					"maxclass" : "newobj",
					"text" : "float",
					"fontsize" : 14.0,
					"numinlets" : 2,
					"patching_rect" : [ 287.0, 125.0, 37.0, 23.0 ],
					"id" : "obj-1",
					"numoutlets" : 1,
					"fontname" : "Arial",
					"outlettype" : [ "float" ]
				}

			}
, 			{
				"box" : 				{
					"maxclass" : "newobj",
					"text" : "loadmess 0",
					"fontsize" : 14.0,
					"numinlets" : 1,
					"patching_rect" : [ 17.0, 45.0, 82.0, 23.0 ],
					"id" : "obj-36",
					"numoutlets" : 1,
					"fontname" : "Arial",
					"outlettype" : [ "" ]
				}

			}
, 			{
				"box" : 				{
					"maxclass" : "newobj",
					"text" : "+ 1",
					"fontsize" : 14.0,
					"numinlets" : 2,
					"patching_rect" : [ 108.0, 83.0, 32.5, 23.0 ],
					"id" : "obj-35",
					"numoutlets" : 1,
					"fontname" : "Arial",
					"outlettype" : [ "int" ]
				}

			}
, 			{
				"box" : 				{
					"maxclass" : "newobj",
					"text" : "r Fmode2",
					"fontsize" : 14.0,
					"numinlets" : 0,
					"patching_rect" : [ 102.0, 44.0, 70.0, 23.0 ],
					"id" : "obj-34",
					"numoutlets" : 1,
					"fontname" : "Arial",
					"outlettype" : [ "" ]
				}

			}
, 			{
				"box" : 				{
					"maxclass" : "newobj",
					"text" : "r FF2",
					"fontsize" : 14.0,
					"numinlets" : 0,
					"patching_rect" : [ 312.0, 80.0, 44.0, 23.0 ],
					"id" : "obj-33",
					"numoutlets" : 1,
					"fontname" : "Arial",
					"outlettype" : [ "" ]
				}

			}
, 			{
				"box" : 				{
					"maxclass" : "newobj",
					"text" : "* 1.",
					"fontsize" : 14.0,
					"numinlets" : 2,
					"patching_rect" : [ 222.0, 108.0, 32.5, 23.0 ],
					"id" : "obj-29",
					"numoutlets" : 1,
					"fontname" : "Arial",
					"outlettype" : [ "float" ]
				}

			}
, 			{
				"box" : 				{
					"maxclass" : "newobj",
					"text" : "r S2",
					"fontsize" : 14.0,
					"numinlets" : 0,
					"patching_rect" : [ 474.0, 198.0, 36.0, 23.0 ],
					"id" : "obj-28",
					"numoutlets" : 1,
					"fontname" : "Arial",
					"outlettype" : [ "" ]
				}

			}
, 			{
				"box" : 				{
					"maxclass" : "newobj",
					"text" : "r D2",
					"fontsize" : 14.0,
					"numinlets" : 0,
					"patching_rect" : [ 432.0, 198.0, 37.0, 23.0 ],
					"id" : "obj-27",
					"numoutlets" : 1,
					"fontname" : "Arial",
					"outlettype" : [ "" ]
				}

			}
, 			{
				"box" : 				{
					"maxclass" : "newobj",
					"text" : "adsr~",
					"fontsize" : 14.0,
					"numinlets" : 5,
					"patching_rect" : [ 357.0, 232.0, 73.0, 23.0 ],
					"id" : "obj-26",
					"numoutlets" : 4,
					"fontname" : "Arial",
					"outlettype" : [ "signal", "signal", "", "" ]
				}

			}
, 			{
				"box" : 				{
					"maxclass" : "newobj",
					"text" : "switch 2",
					"fontsize" : 14.0,
					"numinlets" : 3,
					"patching_rect" : [ 221.0, 151.0, 61.0, 23.0 ],
					"id" : "obj-4",
					"numoutlets" : 1,
					"fontname" : "Arial",
					"outlettype" : [ "" ]
				}

			}
, 			{
				"box" : 				{
					"maxclass" : "newobj",
					"text" : "pak 0. 1.",
					"fontsize" : 14.0,
					"numinlets" : 2,
					"patching_rect" : [ 221.0, 79.0, 64.0, 23.0 ],
					"id" : "obj-3",
					"numoutlets" : 1,
					"fontname" : "Arial",
					"outlettype" : [ "" ]
				}

			}
, 			{
				"box" : 				{
					"maxclass" : "newobj",
					"text" : "r ratio2",
					"fontsize" : 14.0,
					"numinlets" : 0,
					"patching_rect" : [ 268.0, 43.0, 54.0, 23.0 ],
					"id" : "obj-2",
					"numoutlets" : 1,
					"fontname" : "Arial",
					"outlettype" : [ "" ]
				}

			}
, 			{
				"box" : 				{
					"maxclass" : "newobj",
					"text" : "+~ 440.",
					"fontsize" : 14.0,
					"numinlets" : 2,
					"patching_rect" : [ 183.0, 232.0, 58.0, 23.0 ],
					"id" : "obj-20",
					"numoutlets" : 1,
					"fontname" : "Arial",
					"outlettype" : [ "signal" ]
				}

			}
, 			{
				"box" : 				{
					"maxclass" : "newobj",
					"text" : "cycle~",
					"fontsize" : 14.0,
					"numinlets" : 2,
					"patching_rect" : [ 183.0, 272.0, 51.0, 23.0 ],
					"id" : "obj-19",
					"numoutlets" : 1,
					"fontname" : "Arial",
					"outlettype" : [ "signal" ]
				}

			}
, 			{
				"box" : 				{
					"maxclass" : "newobj",
					"text" : "*~ 0.",
					"fontsize" : 14.0,
					"numinlets" : 2,
					"patching_rect" : [ 184.0, 317.0, 40.0, 23.0 ],
					"id" : "obj-16",
					"numoutlets" : 1,
					"fontname" : "Arial",
					"outlettype" : [ "signal" ]
				}

			}
, 			{
				"box" : 				{
					"maxclass" : "newobj",
					"text" : "r G2",
					"fontsize" : 14.0,
					"numinlets" : 0,
					"patching_rect" : [ 436.0, 232.0, 38.0, 23.0 ],
					"id" : "obj-15",
					"numoutlets" : 1,
					"fontname" : "Arial",
					"outlettype" : [ "" ]
				}

			}
, 			{
				"box" : 				{
					"maxclass" : "newobj",
					"text" : "*~ 1.",
					"fontsize" : 14.0,
					"numinlets" : 2,
					"patching_rect" : [ 357.0, 272.0, 40.0, 23.0 ],
					"id" : "obj-14",
					"numoutlets" : 1,
					"fontname" : "Arial",
					"outlettype" : [ "signal" ]
				}

			}
, 			{
				"box" : 				{
					"maxclass" : "newobj",
					"text" : "r R2",
					"fontsize" : 14.0,
					"numinlets" : 0,
					"patching_rect" : [ 523.0, 198.0, 37.0, 23.0 ],
					"id" : "obj-11",
					"numoutlets" : 1,
					"fontname" : "Arial",
					"outlettype" : [ "" ]
				}

			}
, 			{
				"box" : 				{
					"maxclass" : "newobj",
					"text" : "r A2",
					"fontsize" : 14.0,
					"numinlets" : 0,
					"patching_rect" : [ 390.0, 198.0, 35.0, 23.0 ],
					"id" : "obj-10",
					"numoutlets" : 1,
					"fontname" : "Arial",
					"outlettype" : [ "" ]
				}

			}
, 			{
				"box" : 				{
					"maxclass" : "newobj",
					"text" : "/ 127.",
					"fontsize" : 14.0,
					"numinlets" : 2,
					"patching_rect" : [ 427.0, 128.0, 46.0, 23.0 ],
					"id" : "obj-5",
					"numoutlets" : 1,
					"fontname" : "Arial",
					"outlettype" : [ "float" ]
				}

			}
, 			{
				"box" : 				{
					"maxclass" : "inlet",
					"numinlets" : 0,
					"patching_rect" : [ 183.0, 43.0, 25.0, 25.0 ],
					"id" : "obj-22",
					"numoutlets" : 1,
					"outlettype" : [ "" ],
					"comment" : ""
				}

			}
, 			{
				"box" : 				{
					"maxclass" : "inlet",
					"numinlets" : 0,
					"patching_rect" : [ 221.0, 43.0, 25.0, 25.0 ],
					"id" : "obj-23",
					"numoutlets" : 1,
					"outlettype" : [ "" ],
					"comment" : ""
				}

			}
, 			{
				"box" : 				{
					"maxclass" : "inlet",
					"numinlets" : 0,
					"patching_rect" : [ 425.0, 43.0, 25.0, 25.0 ],
					"id" : "obj-24",
					"numoutlets" : 1,
					"outlettype" : [ "" ],
					"comment" : ""
				}

			}
, 			{
				"box" : 				{
					"maxclass" : "outlet",
					"numinlets" : 1,
					"patching_rect" : [ 184.0, 400.0, 25.0, 25.0 ],
					"id" : "obj-25",
					"numoutlets" : 0,
					"comment" : ""
				}

			}
 ],
		"lines" : [ 			{
				"patchline" : 				{
					"source" : [ "obj-16", 0 ],
					"destination" : [ "obj-25", 0 ],
					"hidden" : 0,
					"midpoints" : [  ]
				}

			}
, 			{
				"patchline" : 				{
					"source" : [ "obj-14", 0 ],
					"destination" : [ "obj-16", 1 ],
					"hidden" : 0,
					"midpoints" : [ 366.5, 305.5, 214.5, 305.5 ]
				}

			}
, 			{
				"patchline" : 				{
					"source" : [ "obj-20", 0 ],
					"destination" : [ "obj-19", 0 ],
					"hidden" : 0,
					"midpoints" : [  ]
				}

			}
, 			{
				"patchline" : 				{
					"source" : [ "obj-19", 0 ],
					"destination" : [ "obj-16", 0 ],
					"hidden" : 0,
					"midpoints" : [  ]
				}

			}
, 			{
				"patchline" : 				{
					"source" : [ "obj-22", 0 ],
					"destination" : [ "obj-20", 0 ],
					"hidden" : 0,
					"midpoints" : [  ]
				}

			}
, 			{
				"patchline" : 				{
					"source" : [ "obj-23", 0 ],
					"destination" : [ "obj-3", 0 ],
					"hidden" : 0,
					"midpoints" : [  ]
				}

			}
, 			{
				"patchline" : 				{
					"source" : [ "obj-2", 0 ],
					"destination" : [ "obj-3", 1 ],
					"hidden" : 0,
					"midpoints" : [  ]
				}

			}
, 			{
				"patchline" : 				{
					"source" : [ "obj-15", 0 ],
					"destination" : [ "obj-14", 1 ],
					"hidden" : 0,
					"midpoints" : [  ]
				}

			}
, 			{
				"patchline" : 				{
					"source" : [ "obj-24", 0 ],
					"destination" : [ "obj-5", 0 ],
					"hidden" : 0,
					"midpoints" : [  ]
				}

			}
, 			{
				"patchline" : 				{
					"source" : [ "obj-5", 0 ],
					"destination" : [ "obj-26", 0 ],
					"hidden" : 0,
					"midpoints" : [  ]
				}

			}
, 			{
				"patchline" : 				{
					"source" : [ "obj-26", 0 ],
					"destination" : [ "obj-14", 0 ],
					"hidden" : 0,
					"midpoints" : [  ]
				}

			}
, 			{
				"patchline" : 				{
					"source" : [ "obj-11", 0 ],
					"destination" : [ "obj-26", 4 ],
					"hidden" : 0,
					"midpoints" : [  ]
				}

			}
, 			{
				"patchline" : 				{
					"source" : [ "obj-28", 0 ],
					"destination" : [ "obj-26", 3 ],
					"hidden" : 0,
					"midpoints" : [  ]
				}

			}
, 			{
				"patchline" : 				{
					"source" : [ "obj-27", 0 ],
					"destination" : [ "obj-26", 2 ],
					"hidden" : 0,
					"midpoints" : [  ]
				}

			}
, 			{
				"patchline" : 				{
					"source" : [ "obj-10", 0 ],
					"destination" : [ "obj-26", 1 ],
					"hidden" : 0,
					"midpoints" : [  ]
				}

			}
, 			{
				"patchline" : 				{
					"source" : [ "obj-3", 0 ],
					"destination" : [ "obj-29", 0 ],
					"hidden" : 0,
					"midpoints" : [  ]
				}

			}
, 			{
				"patchline" : 				{
					"source" : [ "obj-4", 0 ],
					"destination" : [ "obj-20", 1 ],
					"hidden" : 0,
					"midpoints" : [  ]
				}

			}
, 			{
				"patchline" : 				{
					"source" : [ "obj-29", 0 ],
					"destination" : [ "obj-4", 1 ],
					"hidden" : 0,
					"midpoints" : [  ]
				}

			}
, 			{
				"patchline" : 				{
					"source" : [ "obj-34", 0 ],
					"destination" : [ "obj-35", 0 ],
					"hidden" : 0,
					"midpoints" : [  ]
				}

			}
, 			{
				"patchline" : 				{
					"source" : [ "obj-35", 0 ],
					"destination" : [ "obj-4", 0 ],
					"hidden" : 0,
					"midpoints" : [  ]
				}

			}
, 			{
				"patchline" : 				{
					"source" : [ "obj-36", 0 ],
					"destination" : [ "obj-35", 0 ],
					"hidden" : 0,
					"midpoints" : [  ]
				}

			}
, 			{
				"patchline" : 				{
					"source" : [ "obj-1", 0 ],
					"destination" : [ "obj-4", 2 ],
					"hidden" : 0,
					"midpoints" : [  ]
				}

			}
, 			{
				"patchline" : 				{
					"source" : [ "obj-33", 0 ],
					"destination" : [ "obj-1", 0 ],
					"hidden" : 0,
					"midpoints" : [  ]
				}

			}
, 			{
				"patchline" : 				{
					"source" : [ "obj-7", 0 ],
					"destination" : [ "obj-1", 0 ],
					"hidden" : 0,
					"midpoints" : [  ]
				}

			}
, 			{
				"patchline" : 				{
					"source" : [ "obj-23", 0 ],
					"destination" : [ "obj-7", 0 ],
					"hidden" : 0,
					"midpoints" : [  ]
				}

			}
 ]
	}

}
