{
	"patcher" : 	{
		"fileversion" : 1,
		"rect" : [ 74.0, 89.0, 788.0, 659.0 ],
		"bglocked" : 0,
		"defrect" : [ 74.0, 89.0, 788.0, 659.0 ],
		"openrect" : [ 0.0, 0.0, 0.0, 0.0 ],
		"openinpresentation" : 0,
		"default_fontsize" : 14.0,
		"default_fontface" : 0,
		"default_fontname" : "Arial",
		"gridonopen" : 0,
		"gridsize" : [ 15.0, 15.0 ],
		"gridsnaponopen" : 0,
		"toolbarvisible" : 1,
		"boxanimatetime" : 200,
		"imprint" : 0,
		"enablehscroll" : 1,
		"enablevscroll" : 1,
		"devicewidth" : 0.0,
		"boxes" : [ 			{
				"box" : 				{
					"maxclass" : "comment",
					"text" : "Op 4",
					"fontsize" : 14.0,
					"numinlets" : 1,
					"patching_rect" : [ 513.0, 27.0, 41.0, 23.0 ],
					"id" : "obj-115",
					"numoutlets" : 0,
					"fontname" : "Arial"
				}

			}
, 			{
				"box" : 				{
					"maxclass" : "comment",
					"text" : "Op 3",
					"fontsize" : 14.0,
					"numinlets" : 1,
					"patching_rect" : [ 426.0, 30.0, 41.0, 23.0 ],
					"id" : "obj-114",
					"numoutlets" : 0,
					"fontname" : "Arial"
				}

			}
, 			{
				"box" : 				{
					"maxclass" : "comment",
					"text" : "Op 2",
					"fontsize" : 14.0,
					"numinlets" : 1,
					"patching_rect" : [ 342.0, 30.0, 41.0, 23.0 ],
					"id" : "obj-113",
					"numoutlets" : 0,
					"fontname" : "Arial"
				}

			}
, 			{
				"box" : 				{
					"maxclass" : "comment",
					"text" : "Op 1",
					"fontsize" : 14.0,
					"numinlets" : 1,
					"patching_rect" : [ 258.0, 140.0, 41.0, 23.0 ],
					"id" : "obj-111",
					"numoutlets" : 0,
					"fontname" : "Arial"
				}

			}
, 			{
				"box" : 				{
					"maxclass" : "comment",
					"text" : "Op 4 feedback",
					"fontsize" : 14.0,
					"numinlets" : 1,
					"patching_rect" : [ 590.0, 587.0, 102.0, 23.0 ],
					"id" : "obj-109",
					"numoutlets" : 0,
					"fontname" : "Arial"
				}

			}
, 			{
				"box" : 				{
					"maxclass" : "comment",
					"text" : "Fixed Frequency Mode",
					"fontsize" : 14.0,
					"numinlets" : 1,
					"patching_rect" : [ 253.0, 585.0, 154.0, 23.0 ],
					"id" : "obj-107",
					"numoutlets" : 0,
					"fontname" : "Arial"
				}

			}
, 			{
				"box" : 				{
					"maxclass" : "comment",
					"text" : "Fixed frequency",
					"fontsize" : 14.0,
					"numinlets" : 1,
					"patching_rect" : [ 587.0, 472.0, 110.0, 23.0 ],
					"id" : "obj-105",
					"numoutlets" : 0,
					"fontname" : "Arial"
				}

			}
, 			{
				"box" : 				{
					"maxclass" : "comment",
					"text" : "Gain (0 to mute)",
					"fontsize" : 14.0,
					"numinlets" : 1,
					"patching_rect" : [ 587.0, 413.0, 150.0, 23.0 ],
					"id" : "obj-103",
					"numoutlets" : 0,
					"fontname" : "Arial"
				}

			}
, 			{
				"box" : 				{
					"maxclass" : "comment",
					"text" : "Indices",
					"fontsize" : 14.0,
					"numinlets" : 1,
					"patching_rect" : [ 585.0, 117.0, 55.0, 23.0 ],
					"id" : "obj-101",
					"numoutlets" : 0,
					"fontname" : "Arial"
				}

			}
, 			{
				"box" : 				{
					"maxclass" : "comment",
					"text" : "Ratios",
					"fontsize" : 14.0,
					"numinlets" : 1,
					"patching_rect" : [ 585.0, 66.0, 50.0, 23.0 ],
					"id" : "obj-99",
					"numoutlets" : 0,
					"fontname" : "Arial"
				}

			}
, 			{
				"box" : 				{
					"maxclass" : "comment",
					"text" : "Releases",
					"fontsize" : 14.0,
					"numinlets" : 1,
					"patching_rect" : [ 587.0, 340.0, 69.0, 23.0 ],
					"id" : "obj-97",
					"numoutlets" : 0,
					"fontname" : "Arial"
				}

			}
, 			{
				"box" : 				{
					"maxclass" : "comment",
					"text" : "Sustains",
					"fontsize" : 14.0,
					"numinlets" : 1,
					"patching_rect" : [ 587.0, 294.0, 64.0, 23.0 ],
					"id" : "obj-95",
					"numoutlets" : 0,
					"fontname" : "Arial"
				}

			}
, 			{
				"box" : 				{
					"maxclass" : "comment",
					"text" : "Decays",
					"fontsize" : 14.0,
					"numinlets" : 1,
					"patching_rect" : [ 587.0, 236.0, 57.0, 23.0 ],
					"id" : "obj-93",
					"numoutlets" : 0,
					"fontname" : "Arial"
				}

			}
, 			{
				"box" : 				{
					"maxclass" : "comment",
					"text" : "Attacks",
					"fontsize" : 14.0,
					"numinlets" : 1,
					"patching_rect" : [ 587.0, 178.0, 56.0, 23.0 ],
					"id" : "obj-91",
					"numoutlets" : 0,
					"fontname" : "Arial"
				}

			}
, 			{
				"box" : 				{
					"maxclass" : "newobj",
					"text" : "send~ analize",
					"hidden" : 1,
					"fontsize" : 14.0,
					"numinlets" : 1,
					"patching_rect" : [ 89.0, 325.0, 97.0, 23.0 ],
					"id" : "obj-89",
					"numoutlets" : 0,
					"fontname" : "Arial"
				}

			}
, 			{
				"box" : 				{
					"maxclass" : "newobj",
					"text" : "r elsewhere",
					"hidden" : 1,
					"fontsize" : 14.0,
					"numinlets" : 0,
					"patching_rect" : [ 82.0, 216.0, 83.0, 23.0 ],
					"id" : "obj-87",
					"numoutlets" : 1,
					"fontname" : "Arial",
					"outlettype" : [ "" ]
				}

			}
, 			{
				"box" : 				{
					"maxclass" : "preset",
					"numinlets" : 1,
					"patching_rect" : [ 230.0, 58.0, 100.0, 40.0 ],
					"id" : "obj-86",
					"numoutlets" : 4,
					"outlettype" : [ "preset", "int", "preset", "int" ],
					"preset_data" : [ 						{
							"number" : 1,
							"data" : [ 6, "obj-29", "gain~", "list", 96, 10.0, 5, "obj-21", "number", "int", 22, 5, "obj-20", "number", "int", 540, 5, "obj-15", "number", "int", 315, 5, "obj-14", "number", "int", 30, 5, "obj-10", "flonum", "float", 1.0, 5, "obj-9", "flonum", "float", 0.0, 5, "obj-37", "flonum", "float", 1.0, 5, "obj-3", "flonum", "float", 1.0, 5, "obj-17", "number", "int", 0, 5, "obj-8", "number", "int", 0, 5, "obj-26", "flonum", "float", 1.0, 5, "obj-24", "flonum", "float", 1.0, 5, "obj-28", "flonum", "float", 0.0, 5, "obj-40", "toggle", "int", 0, 5, "obj-57", "number", "int", 565, 5, "obj-56", "number", "int", 17, 5, "obj-52", "flonum", "float", 1.0, 5, "obj-51", "flonum", "float", 0.0, 5, "obj-49", "flonum", "float", 1.0, 5, "obj-48", "number", "int", 0, 5, "obj-45", "flonum", "float", 1.0, 5, "obj-43", "flonum", "float", 0.0, 5, "obj-41", "toggle", "int", 0, 5, "obj-75", "number", "int", 167, 5, "obj-74", "number", "int", 42, 5, "obj-70", "flonum", "float", 1.0, 5, "obj-69", "flonum", "float", 0.0, 5, "obj-67", "flonum", "float", 1.0, 5, "obj-66", "number", "int", 0, 5, "obj-63", "flonum", "float", 1.0, 5, "obj-61", "flonum", "float", 0.0, 5, "obj-59", "toggle", "int", 0, 5, "obj-6", "flonum", "float", 0.0, 5, "obj-84", "flonum", "float", 0.0, 5, "obj-82", "toggle", "int", 0 ]
						}
, 						{
							"number" : 2,
							"data" : [ 6, "obj-29", "gain~", "list", 97, 10.0, 5, "obj-21", "number", "int", 22, 5, "obj-20", "number", "int", 540, 5, "obj-15", "number", "int", 315, 5, "obj-14", "number", "int", 30, 5, "obj-10", "flonum", "float", 1.0, 5, "obj-9", "flonum", "float", 0.95, 5, "obj-37", "flonum", "float", 1.0, 5, "obj-3", "flonum", "float", 1.0, 5, "obj-17", "number", "int", 0, 5, "obj-8", "number", "int", 0, 5, "obj-26", "flonum", "float", 1.0, 5, "obj-24", "flonum", "float", 1.0, 5, "obj-28", "flonum", "float", 0.0, 5, "obj-40", "toggle", "int", 0, 5, "obj-57", "number", "int", 562, 5, "obj-56", "number", "int", 23, 5, "obj-52", "flonum", "float", 1.0, 5, "obj-51", "flonum", "float", 0.11, 5, "obj-49", "flonum", "float", 0.5, 5, "obj-48", "number", "int", 68, 5, "obj-45", "flonum", "float", 1.0, 5, "obj-43", "flonum", "float", 0.8, 5, "obj-41", "toggle", "int", 0, 5, "obj-75", "number", "int", 500, 5, "obj-74", "number", "int", 38, 5, "obj-70", "flonum", "float", 1.0, 5, "obj-69", "flonum", "float", 0.0, 5, "obj-67", "flonum", "float", 0.7, 5, "obj-66", "number", "int", 37, 5, "obj-63", "flonum", "float", 1.0, 5, "obj-61", "flonum", "float", 0.8, 5, "obj-59", "toggle", "int", 0, 5, "obj-6", "flonum", "float", 0.0, 5, "obj-84", "flonum", "float", 0.0, 5, "obj-82", "toggle", "int", 0 ]
						}
 ]
				}

			}
, 			{
				"box" : 				{
					"maxclass" : "toggle",
					"numinlets" : 1,
					"patching_rect" : [ 254.0, 530.0, 20.0, 20.0 ],
					"id" : "obj-82",
					"numoutlets" : 1,
					"outlettype" : [ "int" ]
				}

			}
, 			{
				"box" : 				{
					"maxclass" : "newobj",
					"text" : "s Fmode1",
					"fontsize" : 14.0,
					"numinlets" : 1,
					"patching_rect" : [ 254.0, 556.0, 73.0, 23.0 ],
					"id" : "obj-83",
					"numoutlets" : 0,
					"fontname" : "Arial"
				}

			}
, 			{
				"box" : 				{
					"maxclass" : "flonum",
					"fontsize" : 14.0,
					"numinlets" : 1,
					"patching_rect" : [ 254.0, 468.0, 48.0, 23.0 ],
					"id" : "obj-84",
					"numoutlets" : 2,
					"bgcolor" : [ 0.866667, 0.866667, 0.866667, 1.0 ],
					"triscale" : 0.9,
					"fontname" : "Arial",
					"outlettype" : [ "float", "bang" ],
					"htextcolor" : [ 0.870588, 0.870588, 0.870588, 1.0 ]
				}

			}
, 			{
				"box" : 				{
					"maxclass" : "newobj",
					"text" : "s FF1",
					"fontsize" : 14.0,
					"numinlets" : 1,
					"patching_rect" : [ 254.0, 497.0, 46.0, 23.0 ],
					"id" : "obj-85",
					"numoutlets" : 0,
					"fontname" : "Arial"
				}

			}
, 			{
				"box" : 				{
					"maxclass" : "message",
					"text" : "FMalg8~",
					"fontsize" : 14.0,
					"numinlets" : 2,
					"patching_rect" : [ 112.0, 103.0, 65.0, 21.0 ],
					"id" : "obj-78",
					"numoutlets" : 1,
					"fontname" : "Arial",
					"outlettype" : [ "" ]
				}

			}
, 			{
				"box" : 				{
					"maxclass" : "message",
					"text" : "FMalg6~",
					"fontsize" : 14.0,
					"numinlets" : 2,
					"patching_rect" : [ 112.0, 72.0, 65.0, 21.0 ],
					"id" : "obj-79",
					"numoutlets" : 1,
					"fontname" : "Arial",
					"outlettype" : [ "" ]
				}

			}
, 			{
				"box" : 				{
					"maxclass" : "message",
					"text" : "FMalg4~",
					"fontsize" : 14.0,
					"numinlets" : 2,
					"patching_rect" : [ 112.0, 41.0, 65.0, 21.0 ],
					"id" : "obj-80",
					"numoutlets" : 1,
					"fontname" : "Arial",
					"outlettype" : [ "" ]
				}

			}
, 			{
				"box" : 				{
					"maxclass" : "message",
					"text" : "FMalg2~",
					"fontsize" : 14.0,
					"numinlets" : 2,
					"patching_rect" : [ 112.0, 10.0, 65.0, 21.0 ],
					"id" : "obj-81",
					"numoutlets" : 1,
					"fontname" : "Arial",
					"outlettype" : [ "" ]
				}

			}
, 			{
				"box" : 				{
					"maxclass" : "message",
					"text" : "FMalg7~",
					"fontsize" : 14.0,
					"numinlets" : 2,
					"patching_rect" : [ 34.0, 103.0, 65.0, 21.0 ],
					"id" : "obj-77",
					"numoutlets" : 1,
					"fontname" : "Arial",
					"outlettype" : [ "" ]
				}

			}
, 			{
				"box" : 				{
					"maxclass" : "message",
					"text" : "FMalg5~",
					"fontsize" : 14.0,
					"numinlets" : 2,
					"patching_rect" : [ 34.0, 72.0, 65.0, 21.0 ],
					"id" : "obj-39",
					"numoutlets" : 1,
					"fontname" : "Arial",
					"outlettype" : [ "" ]
				}

			}
, 			{
				"box" : 				{
					"maxclass" : "message",
					"text" : "FMalg3~",
					"fontsize" : 14.0,
					"numinlets" : 2,
					"patching_rect" : [ 34.0, 41.0, 65.0, 21.0 ],
					"id" : "obj-2",
					"numoutlets" : 1,
					"fontname" : "Arial",
					"outlettype" : [ "" ]
				}

			}
, 			{
				"box" : 				{
					"maxclass" : "flonum",
					"fontsize" : 14.0,
					"numinlets" : 1,
					"patching_rect" : [ 593.0, 532.0, 77.0, 23.0 ],
					"id" : "obj-6",
					"numoutlets" : 2,
					"bgcolor" : [ 0.866667, 0.866667, 0.866667, 1.0 ],
					"triscale" : 0.9,
					"fontname" : "Arial",
					"outlettype" : [ "float", "bang" ],
					"htextcolor" : [ 0.870588, 0.870588, 0.870588, 1.0 ]
				}

			}
, 			{
				"box" : 				{
					"maxclass" : "newobj",
					"text" : "s FB4",
					"fontsize" : 14.0,
					"numinlets" : 1,
					"patching_rect" : [ 593.0, 561.0, 47.0, 23.0 ],
					"id" : "obj-31",
					"numoutlets" : 0,
					"fontname" : "Arial"
				}

			}
, 			{
				"box" : 				{
					"maxclass" : "message",
					"text" : "FMalg1~",
					"fontsize" : 14.0,
					"numinlets" : 2,
					"patching_rect" : [ 34.0, 10.0, 65.0, 21.0 ],
					"id" : "obj-5",
					"numoutlets" : 1,
					"fontname" : "Arial",
					"outlettype" : [ "" ]
				}

			}
, 			{
				"box" : 				{
					"maxclass" : "toggle",
					"numinlets" : 1,
					"patching_rect" : [ 505.0, 532.0, 20.0, 20.0 ],
					"id" : "obj-59",
					"numoutlets" : 1,
					"outlettype" : [ "int" ]
				}

			}
, 			{
				"box" : 				{
					"maxclass" : "newobj",
					"text" : "s Fmode4",
					"fontsize" : 14.0,
					"numinlets" : 1,
					"patching_rect" : [ 505.0, 558.0, 73.0, 23.0 ],
					"id" : "obj-60",
					"numoutlets" : 0,
					"fontname" : "Arial"
				}

			}
, 			{
				"box" : 				{
					"maxclass" : "flonum",
					"fontsize" : 14.0,
					"numinlets" : 1,
					"patching_rect" : [ 505.0, 470.0, 48.0, 23.0 ],
					"id" : "obj-61",
					"numoutlets" : 2,
					"bgcolor" : [ 0.866667, 0.866667, 0.866667, 1.0 ],
					"triscale" : 0.9,
					"fontname" : "Arial",
					"outlettype" : [ "float", "bang" ],
					"htextcolor" : [ 0.870588, 0.870588, 0.870588, 1.0 ]
				}

			}
, 			{
				"box" : 				{
					"maxclass" : "newobj",
					"text" : "s FF4",
					"fontsize" : 14.0,
					"numinlets" : 1,
					"patching_rect" : [ 505.0, 499.0, 46.0, 23.0 ],
					"id" : "obj-62",
					"numoutlets" : 0,
					"fontname" : "Arial"
				}

			}
, 			{
				"box" : 				{
					"maxclass" : "flonum",
					"maximum" : 1.0,
					"fontsize" : 14.0,
					"numinlets" : 1,
					"patching_rect" : [ 505.0, 409.0, 48.0, 23.0 ],
					"id" : "obj-63",
					"numoutlets" : 2,
					"bgcolor" : [ 0.866667, 0.866667, 0.866667, 1.0 ],
					"triscale" : 0.9,
					"fontname" : "Arial",
					"outlettype" : [ "float", "bang" ],
					"minimum" : 0.0,
					"htextcolor" : [ 0.870588, 0.870588, 0.870588, 1.0 ]
				}

			}
, 			{
				"box" : 				{
					"maxclass" : "newobj",
					"text" : "s G4",
					"fontsize" : 14.0,
					"numinlets" : 1,
					"patching_rect" : [ 505.0, 438.0, 40.0, 23.0 ],
					"id" : "obj-64",
					"numoutlets" : 0,
					"fontname" : "Arial"
				}

			}
, 			{
				"box" : 				{
					"maxclass" : "newobj",
					"text" : "s D4",
					"fontsize" : 14.0,
					"numinlets" : 1,
					"patching_rect" : [ 505.0, 261.0, 39.0, 23.0 ],
					"id" : "obj-65",
					"numoutlets" : 0,
					"fontname" : "Arial"
				}

			}
, 			{
				"box" : 				{
					"maxclass" : "number",
					"fontsize" : 14.0,
					"numinlets" : 1,
					"patching_rect" : [ 505.0, 232.0, 47.0, 23.0 ],
					"id" : "obj-66",
					"numoutlets" : 2,
					"bgcolor" : [ 0.866667, 0.866667, 0.866667, 1.0 ],
					"triscale" : 0.9,
					"fontname" : "Arial",
					"outlettype" : [ "int", "bang" ],
					"htextcolor" : [ 0.870588, 0.870588, 0.870588, 1.0 ]
				}

			}
, 			{
				"box" : 				{
					"maxclass" : "flonum",
					"maximum" : 1.0,
					"fontsize" : 14.0,
					"numinlets" : 1,
					"patching_rect" : [ 505.0, 289.0, 48.0, 23.0 ],
					"id" : "obj-67",
					"numoutlets" : 2,
					"bgcolor" : [ 0.866667, 0.866667, 0.866667, 1.0 ],
					"triscale" : 0.9,
					"fontname" : "Arial",
					"outlettype" : [ "float", "bang" ],
					"minimum" : 0.0,
					"htextcolor" : [ 0.870588, 0.870588, 0.870588, 1.0 ]
				}

			}
, 			{
				"box" : 				{
					"maxclass" : "newobj",
					"text" : "s S4",
					"fontsize" : 14.0,
					"numinlets" : 1,
					"patching_rect" : [ 505.0, 315.0, 39.0, 23.0 ],
					"id" : "obj-68",
					"numoutlets" : 0,
					"fontname" : "Arial"
				}

			}
, 			{
				"box" : 				{
					"maxclass" : "flonum",
					"fontsize" : 14.0,
					"numinlets" : 1,
					"patching_rect" : [ 505.0, 115.0, 43.0, 23.0 ],
					"id" : "obj-69",
					"numoutlets" : 2,
					"bgcolor" : [ 0.866667, 0.866667, 0.866667, 1.0 ],
					"triscale" : 0.9,
					"fontname" : "Arial",
					"outlettype" : [ "float", "bang" ],
					"htextcolor" : [ 0.870588, 0.870588, 0.870588, 1.0 ]
				}

			}
, 			{
				"box" : 				{
					"maxclass" : "flonum",
					"fontsize" : 14.0,
					"numinlets" : 1,
					"patching_rect" : [ 505.0, 58.0, 53.0, 23.0 ],
					"id" : "obj-70",
					"numoutlets" : 2,
					"bgcolor" : [ 0.866667, 0.866667, 0.866667, 1.0 ],
					"triscale" : 0.9,
					"fontname" : "Arial",
					"outlettype" : [ "float", "bang" ],
					"htextcolor" : [ 0.870588, 0.870588, 0.870588, 1.0 ]
				}

			}
, 			{
				"box" : 				{
					"maxclass" : "newobj",
					"text" : "s index4",
					"fontsize" : 14.0,
					"numinlets" : 1,
					"patching_rect" : [ 505.0, 144.0, 63.0, 23.0 ],
					"id" : "obj-71",
					"numoutlets" : 0,
					"fontname" : "Arial"
				}

			}
, 			{
				"box" : 				{
					"maxclass" : "newobj",
					"text" : "s ratio4",
					"fontsize" : 14.0,
					"numinlets" : 1,
					"patching_rect" : [ 505.0, 87.0, 56.0, 23.0 ],
					"id" : "obj-72",
					"numoutlets" : 0,
					"fontname" : "Arial"
				}

			}
, 			{
				"box" : 				{
					"maxclass" : "newobj",
					"text" : "s A4",
					"fontsize" : 14.0,
					"numinlets" : 1,
					"patching_rect" : [ 505.0, 204.0, 38.0, 23.0 ],
					"id" : "obj-73",
					"numoutlets" : 0,
					"fontname" : "Arial"
				}

			}
, 			{
				"box" : 				{
					"maxclass" : "number",
					"fontsize" : 14.0,
					"numinlets" : 1,
					"patching_rect" : [ 505.0, 175.0, 50.0, 23.0 ],
					"id" : "obj-74",
					"numoutlets" : 2,
					"bgcolor" : [ 0.866667, 0.866667, 0.866667, 1.0 ],
					"triscale" : 0.9,
					"fontname" : "Arial",
					"outlettype" : [ "int", "bang" ],
					"htextcolor" : [ 0.870588, 0.870588, 0.870588, 1.0 ]
				}

			}
, 			{
				"box" : 				{
					"maxclass" : "number",
					"fontsize" : 14.0,
					"numinlets" : 1,
					"patching_rect" : [ 505.0, 341.0, 63.0, 23.0 ],
					"id" : "obj-75",
					"numoutlets" : 2,
					"bgcolor" : [ 0.866667, 0.866667, 0.866667, 1.0 ],
					"triscale" : 0.9,
					"fontname" : "Arial",
					"outlettype" : [ "int", "bang" ],
					"htextcolor" : [ 0.870588, 0.870588, 0.870588, 1.0 ]
				}

			}
, 			{
				"box" : 				{
					"maxclass" : "newobj",
					"text" : "s R4",
					"fontsize" : 14.0,
					"numinlets" : 1,
					"patching_rect" : [ 505.0, 368.0, 39.0, 23.0 ],
					"id" : "obj-76",
					"numoutlets" : 0,
					"fontname" : "Arial"
				}

			}
, 			{
				"box" : 				{
					"maxclass" : "toggle",
					"numinlets" : 1,
					"patching_rect" : [ 422.0, 532.0, 20.0, 20.0 ],
					"id" : "obj-41",
					"numoutlets" : 1,
					"outlettype" : [ "int" ]
				}

			}
, 			{
				"box" : 				{
					"maxclass" : "newobj",
					"text" : "s Fmode3",
					"fontsize" : 14.0,
					"numinlets" : 1,
					"patching_rect" : [ 422.0, 558.0, 73.0, 23.0 ],
					"id" : "obj-42",
					"numoutlets" : 0,
					"fontname" : "Arial"
				}

			}
, 			{
				"box" : 				{
					"maxclass" : "flonum",
					"fontsize" : 14.0,
					"numinlets" : 1,
					"patching_rect" : [ 422.0, 470.0, 48.0, 23.0 ],
					"id" : "obj-43",
					"numoutlets" : 2,
					"bgcolor" : [ 0.866667, 0.866667, 0.866667, 1.0 ],
					"triscale" : 0.9,
					"fontname" : "Arial",
					"outlettype" : [ "float", "bang" ],
					"htextcolor" : [ 0.870588, 0.870588, 0.870588, 1.0 ]
				}

			}
, 			{
				"box" : 				{
					"maxclass" : "newobj",
					"text" : "s FF3",
					"fontsize" : 14.0,
					"numinlets" : 1,
					"patching_rect" : [ 422.0, 499.0, 46.0, 23.0 ],
					"id" : "obj-44",
					"numoutlets" : 0,
					"fontname" : "Arial"
				}

			}
, 			{
				"box" : 				{
					"maxclass" : "flonum",
					"maximum" : 1.0,
					"fontsize" : 14.0,
					"numinlets" : 1,
					"patching_rect" : [ 422.0, 409.0, 48.0, 23.0 ],
					"id" : "obj-45",
					"numoutlets" : 2,
					"bgcolor" : [ 0.866667, 0.866667, 0.866667, 1.0 ],
					"triscale" : 0.9,
					"fontname" : "Arial",
					"outlettype" : [ "float", "bang" ],
					"minimum" : 0.0,
					"htextcolor" : [ 0.870588, 0.870588, 0.870588, 1.0 ]
				}

			}
, 			{
				"box" : 				{
					"maxclass" : "newobj",
					"text" : "s G3",
					"fontsize" : 14.0,
					"numinlets" : 1,
					"patching_rect" : [ 422.0, 438.0, 40.0, 23.0 ],
					"id" : "obj-46",
					"numoutlets" : 0,
					"fontname" : "Arial"
				}

			}
, 			{
				"box" : 				{
					"maxclass" : "newobj",
					"text" : "s D3",
					"fontsize" : 14.0,
					"numinlets" : 1,
					"patching_rect" : [ 422.0, 261.0, 39.0, 23.0 ],
					"id" : "obj-47",
					"numoutlets" : 0,
					"fontname" : "Arial"
				}

			}
, 			{
				"box" : 				{
					"maxclass" : "number",
					"fontsize" : 14.0,
					"numinlets" : 1,
					"patching_rect" : [ 422.0, 232.0, 47.0, 23.0 ],
					"id" : "obj-48",
					"numoutlets" : 2,
					"bgcolor" : [ 0.866667, 0.866667, 0.866667, 1.0 ],
					"triscale" : 0.9,
					"fontname" : "Arial",
					"outlettype" : [ "int", "bang" ],
					"htextcolor" : [ 0.870588, 0.870588, 0.870588, 1.0 ]
				}

			}
, 			{
				"box" : 				{
					"maxclass" : "flonum",
					"maximum" : 1.0,
					"fontsize" : 14.0,
					"numinlets" : 1,
					"patching_rect" : [ 422.0, 289.0, 48.0, 23.0 ],
					"id" : "obj-49",
					"numoutlets" : 2,
					"bgcolor" : [ 0.866667, 0.866667, 0.866667, 1.0 ],
					"triscale" : 0.9,
					"fontname" : "Arial",
					"outlettype" : [ "float", "bang" ],
					"minimum" : 0.0,
					"htextcolor" : [ 0.870588, 0.870588, 0.870588, 1.0 ]
				}

			}
, 			{
				"box" : 				{
					"maxclass" : "newobj",
					"text" : "s S3",
					"fontsize" : 14.0,
					"numinlets" : 1,
					"patching_rect" : [ 422.0, 315.0, 39.0, 23.0 ],
					"id" : "obj-50",
					"numoutlets" : 0,
					"fontname" : "Arial"
				}

			}
, 			{
				"box" : 				{
					"maxclass" : "flonum",
					"fontsize" : 14.0,
					"numinlets" : 1,
					"patching_rect" : [ 422.0, 115.0, 67.0, 23.0 ],
					"id" : "obj-51",
					"numoutlets" : 2,
					"bgcolor" : [ 0.866667, 0.866667, 0.866667, 1.0 ],
					"triscale" : 0.9,
					"fontname" : "Arial",
					"outlettype" : [ "float", "bang" ],
					"htextcolor" : [ 0.870588, 0.870588, 0.870588, 1.0 ]
				}

			}
, 			{
				"box" : 				{
					"maxclass" : "flonum",
					"fontsize" : 14.0,
					"numinlets" : 1,
					"patching_rect" : [ 422.0, 58.0, 81.0, 23.0 ],
					"id" : "obj-52",
					"numoutlets" : 2,
					"bgcolor" : [ 0.866667, 0.866667, 0.866667, 1.0 ],
					"triscale" : 0.9,
					"fontname" : "Arial",
					"outlettype" : [ "float", "bang" ],
					"htextcolor" : [ 0.870588, 0.870588, 0.870588, 1.0 ]
				}

			}
, 			{
				"box" : 				{
					"maxclass" : "newobj",
					"text" : "s index3",
					"fontsize" : 14.0,
					"numinlets" : 1,
					"patching_rect" : [ 422.0, 144.0, 63.0, 23.0 ],
					"id" : "obj-53",
					"numoutlets" : 0,
					"fontname" : "Arial"
				}

			}
, 			{
				"box" : 				{
					"maxclass" : "newobj",
					"text" : "s ratio3",
					"fontsize" : 14.0,
					"numinlets" : 1,
					"patching_rect" : [ 422.0, 87.0, 56.0, 23.0 ],
					"id" : "obj-54",
					"numoutlets" : 0,
					"fontname" : "Arial"
				}

			}
, 			{
				"box" : 				{
					"maxclass" : "newobj",
					"text" : "s A3",
					"fontsize" : 14.0,
					"numinlets" : 1,
					"patching_rect" : [ 422.0, 204.0, 38.0, 23.0 ],
					"id" : "obj-55",
					"numoutlets" : 0,
					"fontname" : "Arial"
				}

			}
, 			{
				"box" : 				{
					"maxclass" : "number",
					"fontsize" : 14.0,
					"numinlets" : 1,
					"patching_rect" : [ 422.0, 175.0, 50.0, 23.0 ],
					"id" : "obj-56",
					"numoutlets" : 2,
					"bgcolor" : [ 0.866667, 0.866667, 0.866667, 1.0 ],
					"triscale" : 0.9,
					"fontname" : "Arial",
					"outlettype" : [ "int", "bang" ],
					"htextcolor" : [ 0.870588, 0.870588, 0.870588, 1.0 ]
				}

			}
, 			{
				"box" : 				{
					"maxclass" : "number",
					"fontsize" : 14.0,
					"numinlets" : 1,
					"patching_rect" : [ 422.0, 341.0, 63.0, 23.0 ],
					"id" : "obj-57",
					"numoutlets" : 2,
					"bgcolor" : [ 0.866667, 0.866667, 0.866667, 1.0 ],
					"triscale" : 0.9,
					"fontname" : "Arial",
					"outlettype" : [ "int", "bang" ],
					"htextcolor" : [ 0.870588, 0.870588, 0.870588, 1.0 ]
				}

			}
, 			{
				"box" : 				{
					"maxclass" : "newobj",
					"text" : "s R3",
					"fontsize" : 14.0,
					"numinlets" : 1,
					"patching_rect" : [ 422.0, 368.0, 39.0, 23.0 ],
					"id" : "obj-58",
					"numoutlets" : 0,
					"fontname" : "Arial"
				}

			}
, 			{
				"box" : 				{
					"maxclass" : "toggle",
					"numinlets" : 1,
					"patching_rect" : [ 339.0, 532.0, 20.0, 20.0 ],
					"id" : "obj-40",
					"numoutlets" : 1,
					"outlettype" : [ "int" ]
				}

			}
, 			{
				"box" : 				{
					"maxclass" : "newobj",
					"text" : "s Fmode2",
					"fontsize" : 14.0,
					"numinlets" : 1,
					"patching_rect" : [ 339.0, 558.0, 73.0, 23.0 ],
					"id" : "obj-32",
					"numoutlets" : 0,
					"fontname" : "Arial"
				}

			}
, 			{
				"box" : 				{
					"maxclass" : "flonum",
					"fontsize" : 14.0,
					"numinlets" : 1,
					"patching_rect" : [ 339.0, 470.0, 48.0, 23.0 ],
					"id" : "obj-28",
					"numoutlets" : 2,
					"bgcolor" : [ 0.866667, 0.866667, 0.866667, 1.0 ],
					"triscale" : 0.9,
					"fontname" : "Arial",
					"outlettype" : [ "float", "bang" ],
					"htextcolor" : [ 0.870588, 0.870588, 0.870588, 1.0 ]
				}

			}
, 			{
				"box" : 				{
					"maxclass" : "newobj",
					"text" : "s FF2",
					"fontsize" : 14.0,
					"numinlets" : 1,
					"patching_rect" : [ 339.0, 499.0, 46.0, 23.0 ],
					"id" : "obj-30",
					"numoutlets" : 0,
					"fontname" : "Arial"
				}

			}
, 			{
				"box" : 				{
					"maxclass" : "flonum",
					"maximum" : 1.0,
					"fontsize" : 14.0,
					"numinlets" : 1,
					"patching_rect" : [ 339.0, 409.0, 74.0, 23.0 ],
					"id" : "obj-24",
					"numoutlets" : 2,
					"bgcolor" : [ 0.866667, 0.866667, 0.866667, 1.0 ],
					"triscale" : 0.9,
					"fontname" : "Arial",
					"outlettype" : [ "float", "bang" ],
					"minimum" : 0.0,
					"htextcolor" : [ 0.870588, 0.870588, 0.870588, 1.0 ]
				}

			}
, 			{
				"box" : 				{
					"maxclass" : "newobj",
					"text" : "s G2",
					"fontsize" : 14.0,
					"numinlets" : 1,
					"patching_rect" : [ 339.0, 438.0, 40.0, 23.0 ],
					"id" : "obj-25",
					"numoutlets" : 0,
					"fontname" : "Arial"
				}

			}
, 			{
				"box" : 				{
					"maxclass" : "flonum",
					"maximum" : 1.0,
					"fontsize" : 14.0,
					"numinlets" : 1,
					"patching_rect" : [ 255.0, 409.0, 48.0, 23.0 ],
					"id" : "obj-26",
					"numoutlets" : 2,
					"bgcolor" : [ 0.866667, 0.866667, 0.866667, 1.0 ],
					"triscale" : 0.9,
					"fontname" : "Arial",
					"outlettype" : [ "float", "bang" ],
					"minimum" : 0.0,
					"htextcolor" : [ 0.870588, 0.870588, 0.870588, 1.0 ]
				}

			}
, 			{
				"box" : 				{
					"maxclass" : "newobj",
					"text" : "s G1",
					"fontsize" : 14.0,
					"numinlets" : 1,
					"patching_rect" : [ 255.0, 438.0, 40.0, 23.0 ],
					"id" : "obj-27",
					"numoutlets" : 0,
					"fontname" : "Arial"
				}

			}
, 			{
				"box" : 				{
					"maxclass" : "newobj",
					"text" : "s D2",
					"fontsize" : 14.0,
					"numinlets" : 1,
					"patching_rect" : [ 339.0, 261.0, 39.0, 23.0 ],
					"id" : "obj-7",
					"numoutlets" : 0,
					"fontname" : "Arial"
				}

			}
, 			{
				"box" : 				{
					"maxclass" : "number",
					"fontsize" : 14.0,
					"numinlets" : 1,
					"patching_rect" : [ 339.0, 232.0, 47.0, 23.0 ],
					"id" : "obj-8",
					"numoutlets" : 2,
					"bgcolor" : [ 0.866667, 0.866667, 0.866667, 1.0 ],
					"triscale" : 0.9,
					"fontname" : "Arial",
					"outlettype" : [ "int", "bang" ],
					"htextcolor" : [ 0.870588, 0.870588, 0.870588, 1.0 ]
				}

			}
, 			{
				"box" : 				{
					"maxclass" : "number",
					"fontsize" : 14.0,
					"numinlets" : 1,
					"patching_rect" : [ 255.0, 232.0, 39.0, 23.0 ],
					"id" : "obj-17",
					"numoutlets" : 2,
					"bgcolor" : [ 0.866667, 0.866667, 0.866667, 1.0 ],
					"triscale" : 0.9,
					"fontname" : "Arial",
					"outlettype" : [ "int", "bang" ],
					"htextcolor" : [ 0.870588, 0.870588, 0.870588, 1.0 ]
				}

			}
, 			{
				"box" : 				{
					"maxclass" : "newobj",
					"text" : "s D1",
					"fontsize" : 14.0,
					"numinlets" : 1,
					"patching_rect" : [ 255.0, 261.0, 39.0, 23.0 ],
					"id" : "obj-18",
					"numoutlets" : 0,
					"fontname" : "Arial"
				}

			}
, 			{
				"box" : 				{
					"maxclass" : "flonum",
					"maximum" : 1.0,
					"fontsize" : 14.0,
					"numinlets" : 1,
					"patching_rect" : [ 339.0, 289.0, 48.0, 23.0 ],
					"id" : "obj-3",
					"numoutlets" : 2,
					"bgcolor" : [ 0.866667, 0.866667, 0.866667, 1.0 ],
					"triscale" : 0.9,
					"fontname" : "Arial",
					"outlettype" : [ "float", "bang" ],
					"minimum" : 0.0,
					"htextcolor" : [ 0.870588, 0.870588, 0.870588, 1.0 ]
				}

			}
, 			{
				"box" : 				{
					"maxclass" : "newobj",
					"text" : "s S2",
					"fontsize" : 14.0,
					"numinlets" : 1,
					"patching_rect" : [ 339.0, 315.0, 39.0, 23.0 ],
					"id" : "obj-4",
					"numoutlets" : 0,
					"fontname" : "Arial"
				}

			}
, 			{
				"box" : 				{
					"maxclass" : "flonum",
					"maximum" : 1.0,
					"fontsize" : 14.0,
					"numinlets" : 1,
					"patching_rect" : [ 255.0, 289.0, 48.0, 23.0 ],
					"id" : "obj-37",
					"numoutlets" : 2,
					"bgcolor" : [ 0.866667, 0.866667, 0.866667, 1.0 ],
					"triscale" : 0.9,
					"fontname" : "Arial",
					"outlettype" : [ "float", "bang" ],
					"minimum" : 0.0,
					"htextcolor" : [ 0.870588, 0.870588, 0.870588, 1.0 ]
				}

			}
, 			{
				"box" : 				{
					"maxclass" : "newobj",
					"text" : "s S1",
					"fontsize" : 14.0,
					"numinlets" : 1,
					"patching_rect" : [ 255.0, 315.0, 39.0, 23.0 ],
					"id" : "obj-38",
					"numoutlets" : 0,
					"fontname" : "Arial"
				}

			}
, 			{
				"box" : 				{
					"maxclass" : "newobj",
					"text" : "poly~ FMalg1~ 8",
					"fontsize" : 14.0,
					"numinlets" : 1,
					"patching_rect" : [ 36.0, 286.0, 115.0, 23.0 ],
					"id" : "obj-36",
					"numoutlets" : 1,
					"fontname" : "Arial",
					"outlettype" : [ "signal" ]
				}

			}
, 			{
				"box" : 				{
					"maxclass" : "newobj",
					"text" : "prepend midinote",
					"fontsize" : 14.0,
					"numinlets" : 1,
					"patching_rect" : [ 36.0, 249.0, 119.0, 23.0 ],
					"id" : "obj-35",
					"numoutlets" : 1,
					"fontname" : "Arial",
					"outlettype" : [ "" ]
				}

			}
, 			{
				"box" : 				{
					"maxclass" : "newobj",
					"text" : "pack",
					"fontsize" : 14.0,
					"numinlets" : 2,
					"patching_rect" : [ 36.0, 215.0, 40.0, 23.0 ],
					"id" : "obj-34",
					"numoutlets" : 1,
					"fontname" : "Arial",
					"outlettype" : [ "" ]
				}

			}
, 			{
				"box" : 				{
					"maxclass" : "flonum",
					"fontsize" : 14.0,
					"numinlets" : 1,
					"patching_rect" : [ 339.0, 115.0, 43.0, 23.0 ],
					"id" : "obj-9",
					"numoutlets" : 2,
					"bgcolor" : [ 0.866667, 0.866667, 0.866667, 1.0 ],
					"triscale" : 0.9,
					"fontname" : "Arial",
					"outlettype" : [ "float", "bang" ],
					"htextcolor" : [ 0.870588, 0.870588, 0.870588, 1.0 ]
				}

			}
, 			{
				"box" : 				{
					"maxclass" : "flonum",
					"fontsize" : 14.0,
					"numinlets" : 1,
					"patching_rect" : [ 339.0, 58.0, 58.0, 23.0 ],
					"id" : "obj-10",
					"numoutlets" : 2,
					"bgcolor" : [ 0.866667, 0.866667, 0.866667, 1.0 ],
					"triscale" : 0.9,
					"fontname" : "Arial",
					"outlettype" : [ "float", "bang" ],
					"htextcolor" : [ 0.870588, 0.870588, 0.870588, 1.0 ]
				}

			}
, 			{
				"box" : 				{
					"maxclass" : "newobj",
					"text" : "s index2",
					"fontsize" : 14.0,
					"numinlets" : 1,
					"patching_rect" : [ 339.0, 144.0, 63.0, 23.0 ],
					"id" : "obj-11",
					"numoutlets" : 0,
					"fontname" : "Arial"
				}

			}
, 			{
				"box" : 				{
					"maxclass" : "newobj",
					"text" : "s ratio2",
					"fontsize" : 14.0,
					"numinlets" : 1,
					"patching_rect" : [ 339.0, 87.0, 56.0, 23.0 ],
					"id" : "obj-12",
					"numoutlets" : 0,
					"fontname" : "Arial"
				}

			}
, 			{
				"box" : 				{
					"maxclass" : "newobj",
					"text" : "s A2",
					"fontsize" : 14.0,
					"numinlets" : 1,
					"patching_rect" : [ 339.0, 204.0, 38.0, 23.0 ],
					"id" : "obj-13",
					"numoutlets" : 0,
					"fontname" : "Arial"
				}

			}
, 			{
				"box" : 				{
					"maxclass" : "number",
					"fontsize" : 14.0,
					"numinlets" : 1,
					"patching_rect" : [ 339.0, 175.0, 50.0, 23.0 ],
					"id" : "obj-14",
					"numoutlets" : 2,
					"bgcolor" : [ 0.866667, 0.866667, 0.866667, 1.0 ],
					"triscale" : 0.9,
					"fontname" : "Arial",
					"outlettype" : [ "int", "bang" ],
					"htextcolor" : [ 0.870588, 0.870588, 0.870588, 1.0 ]
				}

			}
, 			{
				"box" : 				{
					"maxclass" : "number",
					"fontsize" : 14.0,
					"numinlets" : 1,
					"patching_rect" : [ 339.0, 341.0, 63.0, 23.0 ],
					"id" : "obj-15",
					"numoutlets" : 2,
					"bgcolor" : [ 0.866667, 0.866667, 0.866667, 1.0 ],
					"triscale" : 0.9,
					"fontname" : "Arial",
					"outlettype" : [ "int", "bang" ],
					"htextcolor" : [ 0.870588, 0.870588, 0.870588, 1.0 ]
				}

			}
, 			{
				"box" : 				{
					"maxclass" : "newobj",
					"text" : "s R2",
					"fontsize" : 14.0,
					"numinlets" : 1,
					"patching_rect" : [ 339.0, 368.0, 39.0, 23.0 ],
					"id" : "obj-16",
					"numoutlets" : 0,
					"fontname" : "Arial"
				}

			}
, 			{
				"box" : 				{
					"maxclass" : "newobj",
					"text" : "s R1",
					"fontsize" : 14.0,
					"numinlets" : 1,
					"patching_rect" : [ 255.0, 368.0, 39.0, 23.0 ],
					"id" : "obj-19",
					"numoutlets" : 0,
					"fontname" : "Arial"
				}

			}
, 			{
				"box" : 				{
					"maxclass" : "number",
					"fontsize" : 14.0,
					"numinlets" : 1,
					"patching_rect" : [ 255.0, 341.0, 63.0, 23.0 ],
					"id" : "obj-20",
					"numoutlets" : 2,
					"bgcolor" : [ 0.866667, 0.866667, 0.866667, 1.0 ],
					"triscale" : 0.9,
					"fontname" : "Arial",
					"outlettype" : [ "int", "bang" ],
					"htextcolor" : [ 0.870588, 0.870588, 0.870588, 1.0 ]
				}

			}
, 			{
				"box" : 				{
					"maxclass" : "number",
					"fontsize" : 14.0,
					"numinlets" : 1,
					"patching_rect" : [ 255.0, 175.0, 39.0, 23.0 ],
					"id" : "obj-21",
					"numoutlets" : 2,
					"bgcolor" : [ 0.866667, 0.866667, 0.866667, 1.0 ],
					"triscale" : 0.9,
					"fontname" : "Arial",
					"outlettype" : [ "int", "bang" ],
					"htextcolor" : [ 0.870588, 0.870588, 0.870588, 1.0 ]
				}

			}
, 			{
				"box" : 				{
					"maxclass" : "newobj",
					"text" : "s A1",
					"fontsize" : 14.0,
					"numinlets" : 1,
					"patching_rect" : [ 255.0, 204.0, 38.0, 23.0 ],
					"id" : "obj-22",
					"numoutlets" : 0,
					"fontname" : "Arial"
				}

			}
, 			{
				"box" : 				{
					"maxclass" : "ezdac~",
					"numinlets" : 2,
					"patching_rect" : [ 36.0, 431.0, 33.0, 33.0 ],
					"id" : "obj-23",
					"numoutlets" : 0,
					"local" : 128
				}

			}
, 			{
				"box" : 				{
					"maxclass" : "gain~",
					"numinlets" : 2,
					"patching_rect" : [ 36.0, 328.0, 21.0, 67.0 ],
					"id" : "obj-29",
					"numoutlets" : 2,
					"orientation" : 2,
					"outlettype" : [ "signal", "int" ]
				}

			}
, 			{
				"box" : 				{
					"maxclass" : "newobj",
					"text" : "notein",
					"fontsize" : 14.0,
					"numinlets" : 1,
					"patching_rect" : [ 36.0, 183.0, 49.0, 23.0 ],
					"id" : "obj-33",
					"numoutlets" : 3,
					"fontname" : "Arial",
					"outlettype" : [ "int", "int", "int" ]
				}

			}
, 			{
				"box" : 				{
					"maxclass" : "message",
					"text" : "patchername $1",
					"fontsize" : 14.0,
					"numinlets" : 2,
					"patching_rect" : [ 15.0, 152.0, 110.0, 21.0 ],
					"id" : "obj-1",
					"numoutlets" : 1,
					"fontname" : "Arial",
					"outlettype" : [ "" ]
				}

			}
 ],
		"lines" : [ 			{
				"patchline" : 				{
					"source" : [ "obj-82", 0 ],
					"destination" : [ "obj-83", 0 ],
					"hidden" : 0,
					"midpoints" : [  ]
				}

			}
, 			{
				"patchline" : 				{
					"source" : [ "obj-84", 0 ],
					"destination" : [ "obj-85", 0 ],
					"hidden" : 0,
					"midpoints" : [  ]
				}

			}
, 			{
				"patchline" : 				{
					"source" : [ "obj-81", 0 ],
					"destination" : [ "obj-1", 0 ],
					"hidden" : 0,
					"midpoints" : [ 121.5, 34.0, 24.5, 34.0 ]
				}

			}
, 			{
				"patchline" : 				{
					"source" : [ "obj-80", 0 ],
					"destination" : [ "obj-1", 0 ],
					"hidden" : 0,
					"midpoints" : [ 121.5, 63.0, 132.0, 63.0, 132.0, 64.0, 24.5, 64.0 ]
				}

			}
, 			{
				"patchline" : 				{
					"source" : [ "obj-79", 0 ],
					"destination" : [ "obj-1", 0 ],
					"hidden" : 0,
					"midpoints" : [ 121.5, 93.0, 132.0, 93.0, 132.0, 97.0, 24.5, 97.0 ]
				}

			}
, 			{
				"patchline" : 				{
					"source" : [ "obj-78", 0 ],
					"destination" : [ "obj-1", 0 ],
					"hidden" : 0,
					"midpoints" : [ 121.5, 139.0, 24.5, 139.0 ]
				}

			}
, 			{
				"patchline" : 				{
					"source" : [ "obj-2", 0 ],
					"destination" : [ "obj-1", 0 ],
					"hidden" : 0,
					"midpoints" : [ 43.5, 63.0, 24.5, 63.0 ]
				}

			}
, 			{
				"patchline" : 				{
					"source" : [ "obj-39", 0 ],
					"destination" : [ "obj-1", 0 ],
					"hidden" : 0,
					"midpoints" : [ 43.5, 96.0, 24.5, 96.0 ]
				}

			}
, 			{
				"patchline" : 				{
					"source" : [ "obj-77", 0 ],
					"destination" : [ "obj-1", 0 ],
					"hidden" : 0,
					"midpoints" : [ 43.5, 138.0, 24.5, 138.0 ]
				}

			}
, 			{
				"patchline" : 				{
					"source" : [ "obj-29", 0 ],
					"destination" : [ "obj-23", 1 ],
					"hidden" : 0,
					"midpoints" : [  ]
				}

			}
, 			{
				"patchline" : 				{
					"source" : [ "obj-29", 0 ],
					"destination" : [ "obj-23", 0 ],
					"hidden" : 0,
					"midpoints" : [  ]
				}

			}
, 			{
				"patchline" : 				{
					"source" : [ "obj-26", 0 ],
					"destination" : [ "obj-27", 0 ],
					"hidden" : 0,
					"midpoints" : [  ]
				}

			}
, 			{
				"patchline" : 				{
					"source" : [ "obj-24", 0 ],
					"destination" : [ "obj-25", 0 ],
					"hidden" : 0,
					"midpoints" : [  ]
				}

			}
, 			{
				"patchline" : 				{
					"source" : [ "obj-45", 0 ],
					"destination" : [ "obj-46", 0 ],
					"hidden" : 0,
					"midpoints" : [  ]
				}

			}
, 			{
				"patchline" : 				{
					"source" : [ "obj-63", 0 ],
					"destination" : [ "obj-64", 0 ],
					"hidden" : 0,
					"midpoints" : [  ]
				}

			}
, 			{
				"patchline" : 				{
					"source" : [ "obj-67", 0 ],
					"destination" : [ "obj-68", 0 ],
					"hidden" : 0,
					"midpoints" : [  ]
				}

			}
, 			{
				"patchline" : 				{
					"source" : [ "obj-49", 0 ],
					"destination" : [ "obj-50", 0 ],
					"hidden" : 0,
					"midpoints" : [  ]
				}

			}
, 			{
				"patchline" : 				{
					"source" : [ "obj-3", 0 ],
					"destination" : [ "obj-4", 0 ],
					"hidden" : 0,
					"midpoints" : [  ]
				}

			}
, 			{
				"patchline" : 				{
					"source" : [ "obj-41", 0 ],
					"destination" : [ "obj-42", 0 ],
					"hidden" : 0,
					"midpoints" : [  ]
				}

			}
, 			{
				"patchline" : 				{
					"source" : [ "obj-59", 0 ],
					"destination" : [ "obj-60", 0 ],
					"hidden" : 0,
					"midpoints" : [  ]
				}

			}
, 			{
				"patchline" : 				{
					"source" : [ "obj-61", 0 ],
					"destination" : [ "obj-62", 0 ],
					"hidden" : 0,
					"midpoints" : [  ]
				}

			}
, 			{
				"patchline" : 				{
					"source" : [ "obj-75", 0 ],
					"destination" : [ "obj-76", 0 ],
					"hidden" : 0,
					"midpoints" : [  ]
				}

			}
, 			{
				"patchline" : 				{
					"source" : [ "obj-66", 0 ],
					"destination" : [ "obj-65", 0 ],
					"hidden" : 0,
					"midpoints" : [  ]
				}

			}
, 			{
				"patchline" : 				{
					"source" : [ "obj-74", 0 ],
					"destination" : [ "obj-73", 0 ],
					"hidden" : 0,
					"midpoints" : [  ]
				}

			}
, 			{
				"patchline" : 				{
					"source" : [ "obj-69", 0 ],
					"destination" : [ "obj-71", 0 ],
					"hidden" : 0,
					"midpoints" : [  ]
				}

			}
, 			{
				"patchline" : 				{
					"source" : [ "obj-70", 0 ],
					"destination" : [ "obj-72", 0 ],
					"hidden" : 0,
					"midpoints" : [  ]
				}

			}
, 			{
				"patchline" : 				{
					"source" : [ "obj-43", 0 ],
					"destination" : [ "obj-44", 0 ],
					"hidden" : 0,
					"midpoints" : [  ]
				}

			}
, 			{
				"patchline" : 				{
					"source" : [ "obj-57", 0 ],
					"destination" : [ "obj-58", 0 ],
					"hidden" : 0,
					"midpoints" : [  ]
				}

			}
, 			{
				"patchline" : 				{
					"source" : [ "obj-48", 0 ],
					"destination" : [ "obj-47", 0 ],
					"hidden" : 0,
					"midpoints" : [  ]
				}

			}
, 			{
				"patchline" : 				{
					"source" : [ "obj-56", 0 ],
					"destination" : [ "obj-55", 0 ],
					"hidden" : 0,
					"midpoints" : [  ]
				}

			}
, 			{
				"patchline" : 				{
					"source" : [ "obj-51", 0 ],
					"destination" : [ "obj-53", 0 ],
					"hidden" : 0,
					"midpoints" : [  ]
				}

			}
, 			{
				"patchline" : 				{
					"source" : [ "obj-52", 0 ],
					"destination" : [ "obj-54", 0 ],
					"hidden" : 0,
					"midpoints" : [  ]
				}

			}
, 			{
				"patchline" : 				{
					"source" : [ "obj-40", 0 ],
					"destination" : [ "obj-32", 0 ],
					"hidden" : 0,
					"midpoints" : [  ]
				}

			}
, 			{
				"patchline" : 				{
					"source" : [ "obj-28", 0 ],
					"destination" : [ "obj-30", 0 ],
					"hidden" : 0,
					"midpoints" : [  ]
				}

			}
, 			{
				"patchline" : 				{
					"source" : [ "obj-8", 0 ],
					"destination" : [ "obj-7", 0 ],
					"hidden" : 0,
					"midpoints" : [  ]
				}

			}
, 			{
				"patchline" : 				{
					"source" : [ "obj-17", 0 ],
					"destination" : [ "obj-18", 0 ],
					"hidden" : 0,
					"midpoints" : [  ]
				}

			}
, 			{
				"patchline" : 				{
					"source" : [ "obj-9", 0 ],
					"destination" : [ "obj-11", 0 ],
					"hidden" : 0,
					"midpoints" : [  ]
				}

			}
, 			{
				"patchline" : 				{
					"source" : [ "obj-10", 0 ],
					"destination" : [ "obj-12", 0 ],
					"hidden" : 0,
					"midpoints" : [  ]
				}

			}
, 			{
				"patchline" : 				{
					"source" : [ "obj-15", 0 ],
					"destination" : [ "obj-16", 0 ],
					"hidden" : 0,
					"midpoints" : [  ]
				}

			}
, 			{
				"patchline" : 				{
					"source" : [ "obj-14", 0 ],
					"destination" : [ "obj-13", 0 ],
					"hidden" : 0,
					"midpoints" : [  ]
				}

			}
, 			{
				"patchline" : 				{
					"source" : [ "obj-37", 0 ],
					"destination" : [ "obj-38", 0 ],
					"hidden" : 0,
					"midpoints" : [  ]
				}

			}
, 			{
				"patchline" : 				{
					"source" : [ "obj-20", 0 ],
					"destination" : [ "obj-19", 0 ],
					"hidden" : 0,
					"midpoints" : [  ]
				}

			}
, 			{
				"patchline" : 				{
					"source" : [ "obj-21", 0 ],
					"destination" : [ "obj-22", 0 ],
					"hidden" : 0,
					"midpoints" : [  ]
				}

			}
, 			{
				"patchline" : 				{
					"source" : [ "obj-33", 0 ],
					"destination" : [ "obj-34", 0 ],
					"hidden" : 0,
					"midpoints" : [  ]
				}

			}
, 			{
				"patchline" : 				{
					"source" : [ "obj-33", 1 ],
					"destination" : [ "obj-34", 1 ],
					"hidden" : 0,
					"midpoints" : [  ]
				}

			}
, 			{
				"patchline" : 				{
					"source" : [ "obj-34", 0 ],
					"destination" : [ "obj-35", 0 ],
					"hidden" : 0,
					"midpoints" : [  ]
				}

			}
, 			{
				"patchline" : 				{
					"source" : [ "obj-5", 0 ],
					"destination" : [ "obj-1", 0 ],
					"hidden" : 0,
					"midpoints" : [ 43.5, 33.0, 24.5, 33.0 ]
				}

			}
, 			{
				"patchline" : 				{
					"source" : [ "obj-6", 0 ],
					"destination" : [ "obj-31", 0 ],
					"hidden" : 0,
					"midpoints" : [  ]
				}

			}
, 			{
				"patchline" : 				{
					"source" : [ "obj-87", 0 ],
					"destination" : [ "obj-35", 0 ],
					"hidden" : 1,
					"midpoints" : [  ]
				}

			}
, 			{
				"patchline" : 				{
					"source" : [ "obj-36", 0 ],
					"destination" : [ "obj-89", 0 ],
					"hidden" : 1,
					"midpoints" : [  ]
				}

			}
, 			{
				"patchline" : 				{
					"source" : [ "obj-35", 0 ],
					"destination" : [ "obj-36", 0 ],
					"hidden" : 0,
					"midpoints" : [  ]
				}

			}
, 			{
				"patchline" : 				{
					"source" : [ "obj-36", 0 ],
					"destination" : [ "obj-29", 0 ],
					"hidden" : 0,
					"midpoints" : [  ]
				}

			}
, 			{
				"patchline" : 				{
					"source" : [ "obj-1", 0 ],
					"destination" : [ "obj-36", 0 ],
					"hidden" : 0,
					"midpoints" : [ 24.5, 282.0, 45.5, 282.0 ]
				}

			}
 ]
	}

}
