#N canvas 295 171 696 535 10;
#X obj 77 199 clone 11 partial;
#X obj 77 221 outlet~;
#N canvas 0 22 450 278 (subpatch) 0;
#X array \$0db 10 float 2;
#X coords 0 110 10 0 100 70 1 0 0;
#X restore 75 326 graph;
#N canvas 0 22 450 278 (subpatch) 0;
#X array \$0dur 10 float 2;
#X coords 0 100 10 0 100 70 1 0 0;
#X restore 182 326 graph;
#N canvas 0 22 450 278 (subpatch) 0;
#X array \$0freq 10 float 2;
#X coords 0 500 10 0 100 70 1 0 0;
#X restore 289 326 graph;
#N canvas 0 22 450 278 (subpatch) 0;
#X array \$0detune 10 float 2;
#X coords 0 200 10 0 100 70 1 0 0;
#X restore 397 326 graph;
#X obj 77 58 inlet;
#X msg 77 139 all bang;
#X text 73 412 morph bw presets (see salamander tut);
#N canvas 0 22 450 278 (subpatch) 0;
#X array \$0feed 10 float 2;
#X coords 0 100 10 0 100 70 1 0 0;
#X restore 505 326 graph;
#X obj 387 68 inlet;
#N canvas 236 158 798 628 read-for-all-harmonics 0;
#X obj 232 378 dbtorms;
#X obj 75 170 iter 11;
#X obj 75 197 sel;
#X obj 314 378 * 0.01;
#X obj 406 378 * 0.01;
#X obj 501 378 * 0.01;
#X obj 243 265 t f f;
#X text 277 463 actual duration;
#X obj 382 420 *;
#X obj 331 283 - 1;
#X text 406 420 times global freq;
#X obj 252 463 *;
#X obj 91 329 *;
#X obj 121 329 *;
#X obj 75 375 list prepend 0;
#X obj 75 147 b;
#X obj 403 168 t f f;
#X obj 243 180 t f f;
#X obj 606 376 * 0.01;
#X obj 180 524 pack f f f f f f;
#X obj 75 283 unpack f f f f f;
#X obj 75 353 pack f f f f f;
#X msg 75 261 1 1 0.56 0 1;
#X obj 232 356 tabread \$0db;
#X obj 314 356 tabread \$0dur;
#X obj 406 356 tabread \$0freq;
#X obj 501 356 tabread \$0detune;
#X obj 606 354 tabread \$0feed;
#X obj 79 47 inlet;
#X obj 112 580 outlet;
#X obj 79 69 t b l;
#X obj 185 103 unpack;
#X obj 193 137 mtof;
#X connect 0 0 19 1;
#X connect 1 0 2 0;
#X connect 2 0 22 0;
#X connect 2 1 6 0;
#X connect 3 0 11 0;
#X connect 4 0 8 0;
#X connect 5 0 19 4;
#X connect 6 0 19 0;
#X connect 6 1 9 0;
#X connect 8 0 19 3;
#X connect 9 0 23 0;
#X connect 9 0 24 0;
#X connect 9 0 25 0;
#X connect 9 0 26 0;
#X connect 9 0 27 0;
#X connect 11 0 19 2;
#X connect 12 0 21 1;
#X connect 13 0 21 2;
#X connect 14 0 29 0;
#X connect 15 0 1 0;
#X connect 16 0 12 1;
#X connect 16 1 11 1;
#X connect 17 0 13 1;
#X connect 17 1 8 1;
#X connect 18 0 19 5;
#X connect 19 0 29 0;
#X connect 20 0 21 0;
#X connect 20 1 12 0;
#X connect 20 2 13 0;
#X connect 20 3 21 3;
#X connect 20 4 21 4;
#X connect 21 0 14 0;
#X connect 22 0 20 0;
#X connect 23 0 0 0;
#X connect 24 0 3 0;
#X connect 25 0 4 0;
#X connect 26 0 5 0;
#X connect 27 0 18 0;
#X connect 28 0 30 0;
#X connect 30 0 15 0;
#X connect 30 1 31 0;
#X connect 31 0 32 0;
#X connect 31 1 16 0;
#X connect 32 0 17 0;
#X restore 147 139 pd read-for-all-harmonics;
#X msg 388 204 bang;
#N canvas 247 46 531 816 read-preset 0;
#X obj 74 285 textfile;
#X msg 129 157 rewind;
#X msg 233 156 read partials.txt cr;
#X obj 74 233 t b f;
#X obj 74 804 list-iter;
#X obj 74 826 rmstodb;
#X obj 91 737 list-scalar-cold 100;
#X obj 74 869 list prepend 0;
#X obj 91 758 list prepend 0;
#X obj 108 692 list prepend 0;
#X obj 126 624 list prepend 0;
#X obj 108 671 list-scalar-cold 100;
#X obj 126 604 list-scalar-cold 100;
#X obj 74 48 inlet;
#X obj 74 847 list-group 10;
#X obj 74 118 t b b b b;
#X obj 91 779 s \$0dur;
#X obj 108 713 s \$0freq;
#X obj 126 644 s \$0detune;
#X obj 74 891 s \$0db;
#X obj 74 506 route 0 1 2 3 4;
#X obj 143 555 list prepend 0;
#X obj 143 535 list-scalar-cold 100;
#X obj 143 575 s \$0feed;
#X text 113 48 preset number;
#X obj 74 361 moses;
#X obj 429 156 * 5;
#X obj 233 135 once;
#X msg 192 157 0, f 2;
#X obj 74 198 f;
#X obj 103 198 + 1;
#X obj 74 157 until;
#X obj 74 393 moses;
#X obj 378 304 + 5;
#X obj 74 307 t b l;
#X obj 74 330 f;
#X obj 122 454 list;
#X msg 261 87 reload;
#X obj 74 70 t b f;
#X obj 74 415 mod 5;
#X obj 162 252 t b;
#X obj 261 53 inlet;
#X connect 0 0 34 0;
#X connect 0 1 40 0;
#X connect 1 0 0 0;
#X connect 2 0 0 0;
#X connect 3 0 0 0;
#X connect 3 1 35 1;
#X connect 4 0 5 0;
#X connect 5 0 14 0;
#X connect 6 0 8 0;
#X connect 7 0 19 0;
#X connect 8 0 16 0;
#X connect 9 0 17 0;
#X connect 10 0 18 0;
#X connect 11 0 9 0;
#X connect 12 0 10 0;
#X connect 13 0 38 0;
#X connect 14 0 7 0;
#X connect 15 0 31 0;
#X connect 15 1 1 0;
#X connect 15 2 28 0;
#X connect 15 3 27 0;
#X connect 20 0 4 0;
#X connect 20 1 6 0;
#X connect 20 2 11 0;
#X connect 20 3 12 0;
#X connect 20 4 22 0;
#X connect 21 0 23 0;
#X connect 22 0 21 0;
#X connect 25 1 32 0;
#X connect 26 0 25 1;
#X connect 26 0 33 0;
#X connect 27 0 2 0;
#X connect 28 0 29 1;
#X connect 29 0 30 0;
#X connect 29 0 3 0;
#X connect 30 0 29 1;
#X connect 31 0 29 0;
#X connect 32 0 39 0;
#X connect 33 0 32 1;
#X connect 34 0 35 0;
#X connect 34 1 36 1;
#X connect 35 0 25 0;
#X connect 36 0 20 0;
#X connect 37 0 27 0;
#X connect 38 0 15 0;
#X connect 38 1 26 0;
#X connect 39 0 36 0;
#X connect 40 0 31 1;
#X connect 41 0 37 0;
#X restore 387 158 pd read-preset;
#N canvas 0 22 1141 596 write-preset 0;
#X obj 822 267 array get \$0db;
#X obj 822 316 dbtorms;
#X obj 822 289 list-iter;
#X obj 822 338 list-group 10;
#X obj 662 277 array get \$0dur;
#X obj 662 298 list-scalar-cold 0.01;
#X obj 662 360 print dur;
#X obj 822 390 print db;
#X obj 499 302 list-scalar-cold 0.01;
#X obj 499 281 array get \$0freq;
#X obj 351 303 list-scalar-cold 0.01;
#X obj 351 282 array get \$0detune;
#X obj 202 315 list-scalar-cold 0.01;
#X obj 202 294 array get \$0feed;
#X obj 499 364 print freq;
#X obj 351 365 print detune;
#X obj 202 367 print feed;
#X obj 503 538 textfile;
#X msg 922 413 read partials.txt cr;
#X obj 448 445 list trim;
#X obj 269 180 t b b b b b b;
#X obj 969 249 b;
#X msg 131 404 write partials.txt cr;
#X obj 109 108 t b b;
#X msg 524 501 clear;
#X obj 448 423 list prepend add;
#X obj 97 31 inlet;
#X obj 855 114 tgl 15 0 empty empty empty 17 7 0 10 -262144 -1 -1 0
1;
#X text 873 114 debug;
#X obj 202 348 spigot;
#X obj 351 345 spigot;
#X obj 499 344 spigot;
#X obj 662 340 spigot;
#X obj 822 370 spigot;
#X connect 0 0 2 0;
#X connect 1 0 3 0;
#X connect 2 0 1 0;
#X connect 3 0 25 0;
#X connect 3 0 33 0;
#X connect 4 0 5 0;
#X connect 5 0 25 0;
#X connect 5 0 32 0;
#X connect 8 0 25 0;
#X connect 8 0 31 0;
#X connect 9 0 8 0;
#X connect 10 0 25 0;
#X connect 10 0 30 0;
#X connect 11 0 10 0;
#X connect 12 0 25 0;
#X connect 12 0 29 0;
#X connect 13 0 12 0;
#X connect 18 0 17 0;
#X connect 19 0 17 0;
#X connect 20 0 13 0;
#X connect 20 1 11 0;
#X connect 20 2 9 0;
#X connect 20 3 4 0;
#X connect 20 4 0 0;
#X connect 20 5 21 0;
#X connect 21 0 18 0;
#X connect 22 0 17 0;
#X connect 23 0 22 0;
#X connect 23 1 20 0;
#X connect 24 0 17 0;
#X connect 25 0 19 0;
#X connect 26 0 23 0;
#X connect 27 0 33 1;
#X connect 27 0 32 1;
#X connect 27 0 31 1;
#X connect 27 0 30 1;
#X connect 27 0 29 1;
#X connect 29 0 16 0;
#X connect 30 0 15 0;
#X connect 31 0 14 0;
#X connect 32 0 6 0;
#X connect 33 0 7 0;
#X restore 388 228 pd write-preset;
#X obj 77 88 t b l;
#X obj 396 111 loadbang;
#X msg 483 130 read from file next time;
#X text 385 49 preset id;
#X msg 396 135 0;
#X text 119 59 pitch \, duration;
#X connect 0 0 1 0;
#X connect 6 0 15 0;
#X connect 7 0 0 0;
#X connect 10 0 13 0;
#X connect 11 0 0 0;
#X connect 12 0 14 0;
#X connect 15 0 7 0;
#X connect 15 1 11 0;
#X connect 16 0 19 0;
#X connect 17 0 13 1;
#X connect 19 0 13 0;
