#N canvas 96 205 776 558 12;
#X floatatom 398 212 6 0 0 0 - hz -, f 6;
#X obj 258 354 +~;
#X obj 290 350 samphold~;
#X obj 291 302 samphold~;
#X obj 257 304 *~;
#X obj 258 381 tabread4~ \$0-buffer;
#X obj 383 438 *~;
#X text 404 193 Hz;
#X obj 398 235 phasor~;
#X floatatom 274 65 6 0 0 0 - grain -, f 6;
#X floatatom 125 174 6 0 0 0 - grain -, f 6;
#X obj 573 471 bng 20 250 50 0 empty empty empty 17 7 0 10 -241326
-1 -1;
#N canvas 790 22 508 393 sampler 0;
#X obj 253 332 table \$0-buffer;
#X obj 149 333 soundfiler;
#X obj 149 275 list append \$0-buffer;
#X obj 51 72 openpanel;
#X obj 51 95 list append \$0-buffer;
#X msg 51 119 read -resize \$1 \$2;
#X obj 113 152 loadbang;
#X msg 209 196 \; hz 1 \; grain 500 \; pd dsp 1;
#X obj 51 41 inlet;
#X msg 149 304 read -resize latent.wav \$1;
#X obj 149 358 outlet;
#X connect 1 0 10 0;
#X connect 2 0 9 0;
#X connect 3 0 4 0;
#X connect 4 0 5 0;
#X connect 5 0 1 0;
#X connect 6 0 7 0;
#X connect 6 0 2 0;
#X connect 8 0 3 0;
#X connect 9 0 1 0;
#X restore 573 497 pd sampler;
#X text 126 154 pos;
#X obj 472 305 /~ 2;
#X obj 472 348 cos~;
#X obj 472 326 -~ 0.25;
#X text 532 325 Hanning;
#X obj 383 463 output~;
#X obj 599 196 loadbang;
#X obj 599 221 samplerate~;
#X obj 599 246 / 1000;
#X obj 599 271 v sr_KHz;
#X msg 541 202 bang;
#X obj 125 201 expr~ $v1 * sr_KHz \; $v2 * sr_KHz;
#X floatatom 573 522 7 0 0 0 - - -, f 7;
#X text 274 44 grainlen \, ms;
#X obj 274 88 sig~;
#X obj 449 106 sig~ 1000;
#X obj 449 159 /~;
#X connect 0 0 8 0;
#X connect 1 0 5 0;
#X connect 2 0 1 1;
#X connect 3 0 4 1;
#X connect 4 0 1 0;
#X connect 5 0 6 0;
#X connect 6 0 18 0;
#X connect 6 0 18 1;
#X connect 8 0 2 1;
#X connect 8 0 3 1;
#X connect 8 0 4 0;
#X connect 8 0 14 0;
#X connect 9 0 27 0;
#X connect 10 0 24 0;
#X connect 11 0 12 0;
#X connect 12 0 25 0;
#X connect 14 0 16 0;
#X connect 15 0 6 1;
#X connect 16 0 15 0;
#X connect 19 0 20 0;
#X connect 20 0 21 0;
#X connect 21 0 22 0;
#X connect 23 0 20 0;
#X connect 24 0 2 0;
#X connect 24 1 3 0;
#X connect 27 0 29 1;
#X connect 27 0 24 1;
#X connect 28 0 29 0;
#X connect 29 0 8 0;
