#N canvas 1 23 1436 855 10;
#X obj 97 787 output~;
#X obj 1211 692 cnv 15 58 120 empty empty empty 20 12 0 20 -228856
-66577 0;
#X obj 1215 738 tgl 15 0 bass-play all-play bass 17 7 0 10 -262144
-1 -1 1 1;
#X obj 1215 717 tgl 15 0 drum-play all-play drum 17 7 0 10 -262144
-1 -1 1 1;
#X obj 1215 696 tgl 15 1 all-play empty all 17 7 0 10 -262144 -1 -1
1 1;
#N canvas 0 22 683 451 wesley 0;
#X obj 344 63 inlet~;
#X obj 347 367 outlet~;
#X obj 464 138 *~;
#X obj 375 155 == 0;
#X obj 336 202 *~ 1;
#X obj 158 103 tgl 15 1 empty empty empty 17 7 0 10 -262144 -1 -1 1
1;
#X obj 428 243 pdkm/dktanh~ 2;
#X obj 427 272 pdkm/dkwesley~ 16 2;
#X connect 0 0 2 0;
#X connect 0 0 4 0;
#X connect 2 0 6 0;
#X connect 3 0 4 1;
#X connect 4 0 1 0;
#X connect 5 0 3 0;
#X connect 5 0 2 1;
#X connect 6 0 7 0;
#X connect 7 0 1 0;
#X coords 0 -1 1 1 75 21 1 100 100;
#X restore 194 729 pd wesley;
#X msg 340 794 print;
#X msg 339 746 start;
#X msg 341 772 stop;
#X text 392 746 start streaming audio;
#X text 387 772 stop streaming audio;
#X obj 100 829 writesf~ 2;
#X msg 336 722 open -bytes 4 /tmp/baz.wav;
#X text 139 60 see Jacob Adler's 'Wheels within Wheels' and http://www.advancedrhythm.com
, f 74;
#X text 361 76 jathi - regular accents over the gati;
#N canvas 315 52 932 773 jathi 0;
#X obj 293 274 f;
#X obj 321 274 + 1;
#X obj 177 188 f;
#X obj 349 274 mod;
#X obj 311 562 outlet;
#X obj 102 127 nbx 2 14 -1e+37 1e+37 0 0 empty empty gati 30 8 0 10
-262144 -1 -1 7 256;
#X obj 102 144 nbx 2 14 -1e+37 1e+37 0 0 empty empty jathi 30 8 0 10
-262144 -1 -1 5 256;
#X obj 374 251 *;
#X obj 87 212 f;
#X floatatom 366 335 5 0 0 0 - - -, f 5;
#X text 354 563 jathi;
#X obj 140 564 outlet;
#X text 183 565 gati;
#X obj 109 21 inlet;
#X obj 212 67 unpack;
#X obj 29 135 sel;
#X obj 373 180 metro 1 64 samp;
#X obj 208 -34 tgl 15 1 empty empty empty 17 7 0 10 -262144 -1 -1 0
1;
#X text 399 251 common;
#X obj 107 395 div;
#X obj 107 418 change;
#X floatatom 111 459 3 0 0 0 - - -, f 3;
#X obj 320 394 div;
#X obj 320 416 change;
#X floatatom 348 456 3 0 0 0 - - -, f 3;
#X obj 373 395 mod;
#X obj 158 395 mod;
#X floatatom 134 459 3 0 0 0 - - -, f 3;
#X obj 373 417 * 2;
#X obj 622 224 * 64;
#X obj 622 249 con/samptoms;
#X floatatom 635 274 5 0 0 0 - - -, f 5;
#X obj 539 342 / 2;
#X obj 385 439 + 1;
#X obj 320 347 t f f;
#X obj 385 463 pipe;
#X floatatom 325 456 3 0 0 0 - - -, f 3;
#X obj 100 347 t f f;
#X obj 158 418 * 2;
#X obj 170 440 + 1;
#X obj 170 464 pipe;
#X text 437 448 32nd notes;
#X obj 54 644 t b b;
#X obj 54 666 timer;
#X floatatom 67 688 5 0 0 0 - - -, f 5;
#X obj 63 711 con/mstobpm;
#X floatatom 63 733 5 0 0 0 - - -, f 5;
#X obj 102 110 nbx 3 14 -1e+37 1e+37 0 0 empty empty bpm 38 8 0 10
-262144 -1 -1 48 256;
#X obj 650 132 expr (60 * $f2) / (64 * $f3 * $f1);
#X obj 729 77 samplerate~;
#X obj 643 42 t f b;
#X floatatom 662 154 5 0 0 0 - - -, f 5;
#X obj 643 64 f;
#X obj 643 88 moses 1;
#X obj 208 -14 t f f f f;
#X msg 187 16 0;
#X obj 555 71 t f f b;
#X obj 181 209 t f f;
#X obj 137 540 pack;
#X obj 310 524 pack;
#X obj 370 490 f;
#X obj 156 489 f;
#X obj 241 634 t b b;
#X obj 241 656 timer;
#X floatatom 254 678 5 0 0 0 - - -, f 5;
#X obj 250 701 con/mstobpm;
#X floatatom 250 723 5 0 0 0 - - -, f 5;
#X floatatom 563 372 5 0 0 0 - - -, f 5;
#X text 600 371 single tick aka 32nd;
#X obj 320 309 f;
#X msg 246 16 48;
#X msg 284 21 7 5;
#X connect 0 0 1 0;
#X connect 1 0 3 0;
#X connect 2 0 57 0;
#X connect 3 0 0 1;
#X connect 3 0 69 0;
#X connect 5 0 2 1;
#X connect 5 0 7 1;
#X connect 6 0 8 1;
#X connect 7 0 3 1;
#X connect 8 0 7 0;
#X connect 8 0 22 1;
#X connect 8 0 25 1;
#X connect 13 0 14 0;
#X connect 14 0 5 0;
#X connect 14 1 6 0;
#X connect 15 0 8 0;
#X connect 15 0 2 0;
#X connect 16 0 0 0;
#X connect 17 0 54 0;
#X connect 19 0 20 0;
#X connect 20 0 21 0;
#X connect 20 0 15 0;
#X connect 20 0 42 0;
#X connect 20 0 58 1;
#X connect 22 0 23 0;
#X connect 23 0 36 0;
#X connect 23 0 59 1;
#X connect 25 0 28 0;
#X connect 26 0 38 0;
#X connect 28 0 33 0;
#X connect 28 0 24 0;
#X connect 28 0 60 0;
#X connect 29 0 30 0;
#X connect 30 0 31 0;
#X connect 30 0 32 0;
#X connect 32 0 35 1;
#X connect 32 0 40 1;
#X connect 32 0 67 0;
#X connect 33 0 35 0;
#X connect 34 0 25 0;
#X connect 34 1 22 0;
#X connect 35 0 24 0;
#X connect 35 0 60 0;
#X connect 37 0 26 0;
#X connect 37 1 19 0;
#X connect 38 0 39 0;
#X connect 38 0 27 0;
#X connect 38 0 61 0;
#X connect 39 0 40 0;
#X connect 40 0 27 0;
#X connect 40 0 61 0;
#X connect 42 0 43 0;
#X connect 42 1 43 1;
#X connect 43 0 44 0;
#X connect 43 0 45 0;
#X connect 45 0 46 0;
#X connect 47 0 50 0;
#X connect 48 0 51 0;
#X connect 48 0 16 1;
#X connect 48 0 29 0;
#X connect 49 0 48 1;
#X connect 50 0 52 0;
#X connect 50 1 49 0;
#X connect 52 0 53 0;
#X connect 53 1 48 0;
#X connect 54 0 16 0;
#X connect 54 1 55 0;
#X connect 54 2 70 0;
#X connect 54 3 71 0;
#X connect 55 0 15 0;
#X connect 56 0 48 2;
#X connect 56 2 52 0;
#X connect 56 2 49 0;
#X connect 57 0 26 1;
#X connect 57 0 19 1;
#X connect 57 1 56 0;
#X connect 58 0 11 0;
#X connect 59 0 4 0;
#X connect 60 0 59 0;
#X connect 61 0 58 0;
#X connect 62 0 63 0;
#X connect 62 1 63 1;
#X connect 63 0 64 0;
#X connect 63 0 65 0;
#X connect 65 0 66 0;
#X connect 69 0 37 0;
#X connect 69 0 34 0;
#X connect 69 0 9 0;
#X connect 70 0 47 0;
#X connect 71 0 14 0;
#X coords 0 -1 1 1 62 60 2 100 100;
#X restore 34 524 pd jathi;
#X msg 50 495 7 5;
#X text 81 496 misra jathi 5;
#X obj 1226 544 *~ 0.2;
#X obj 1226 566 +~ 0.6;
#X obj 1226 522 osc~ 0.01;
#X floatatom 55 360 5 0 0 0 - - -, f 5;
#X obj 55 379 mtof;
#X floatatom 70 403 5 0 0 0 - - -, f 5;
#X msg 57 336 33;
#N canvas 0 22 748 592 pat.acc 0;
#X obj 221 402 list prepend 0;
#X obj 32 358 array get \$0pat 0 1;
#X obj 163 83 unpack;
#X obj 224 134 change;
#X obj 35 384 moses 1;
#X floatatom 238 157 5 0 0 0 - - -, f 5;
#X obj 215 186 t f f;
#X obj 241 228 f;
#X obj 267 228 + 1;
#X obj 242 208 sel;
#X obj 293 228 mod 2;
#X obj 241 250 * 7;
#X obj 199 281 +;
#X obj 556 160 list prepend 0;
#X obj 529 241 array get \$0acc 0 1;
#X obj 529 263 moses 1;
#X obj 137 144 t f f;
#X obj 575 299 route 1 2;
#X obj 603 358 f;
#X msg 602 326 1;
#X obj 221 425 array define \$0pat 10;
#X obj 556 182 array define \$0acc 10;
#X obj 205 317 rdr/reader pat75 1;
#X msg 253 378 4 0 0 0 4 0 0 0 2 0;
#X msg 546 135 2 1 1 1 1 1 1 1 1 1;
#X msg 564 328 0.9;
#X obj 170 55 inlet;
#X obj 614 403 outlet;
#X obj 59 447 outlet;
#X connect 0 0 20 0;
#X connect 1 0 4 0;
#X connect 2 0 16 0;
#X connect 2 1 3 0;
#X connect 3 0 5 0;
#X connect 3 0 6 0;
#X connect 4 1 28 0;
#X connect 6 0 12 0;
#X connect 6 1 9 0;
#X connect 7 0 8 0;
#X connect 7 0 11 0;
#X connect 8 0 10 0;
#X connect 9 0 7 0;
#X connect 10 0 7 1;
#X connect 11 0 12 1;
#X connect 12 0 22 0;
#X connect 13 0 21 0;
#X connect 14 0 15 0;
#X connect 15 1 17 0;
#X connect 16 0 1 0;
#X connect 16 1 14 0;
#X connect 17 0 25 0;
#X connect 17 1 19 0;
#X connect 18 0 27 0;
#X connect 19 0 18 0;
#X connect 22 0 0 0;
#X connect 23 0 0 0;
#X connect 24 0 13 0;
#X connect 25 0 18 0;
#X connect 26 0 2 0;
#X restore 128 615 pd pat.acc;
#X obj 56 422 s fund;
#N canvas 0 22 896 773 bas 0;
#X obj 213 310 line~;
#X obj 212 217 del 5;
#X obj 247 410 *~;
#X obj 213 332 *~;
#X obj 201 158 b;
#X obj 213 354 *~;
#X obj 290 268 + 1;
#X obj 286 335 lop~ 100;
#X floatatom 498 515 5 -1 1 0 - a -, f 5;
#X floatatom 538 515 5 -1 1 0 - b -, f 5;
#X floatatom 585 515 5 -1 1 0 - c -, f 5;
#X floatatom 475 492 5 0 0 0 - del -, f 5;
#X obj 196 125 t b f;
#X msg 228 271 0 \$1;
#X obj 290 172 * 89;
#X obj 228 248 f;
#X obj 344 412 *~;
#X obj 427 364 osc~;
#X obj 282 365 osc~;
#X obj 345 439 expr~ atan($v1);
#X text 510 492 var 0.2-1.5;
#X text 501 569 feedback and feedforward;
#X text 500 586 modulate up to - and + 0.91;
#X obj 423 569 hip~ 75;
#X obj 432 343 lop~ 25;
#X msg 166 227 \$1 5;
#X obj 290 246 random 1;
#X obj 165 201 f 1;
#X floatatom 299 197 5 0 0 0 - - -, f 5;
#X obj 475 459 pack 0.2 -4 -0.31 0.38;
#X obj 408 546 cyclone/comb~ 10 0.49 -1 -0.9 0.91;
#X obj 247 439 clip~ 0 1;
#X obj 286 313 * 110;
#X obj 432 321 * 55;
#X obj 376 219 * 2;
#X floatatom 385 243 5 0 0 0 - - -, f 5;
#X text 303 567 70;
#X text 471 604 82;
#X obj 451 179 r fund;
#X obj 507 63 inlet;
#X obj 182 86 inlet;
#X text 223 88 dur;
#X text 550 65 acc;
#X obj 326 654 outlet~;
#X obj 385 621 *~;
#X obj 229 563 *~;
#X obj 262 563 db~;
#X obj 429 601 db~;
#X connect 0 0 3 0;
#X connect 0 0 3 1;
#X connect 1 0 15 0;
#X connect 2 0 31 0;
#X connect 3 0 5 0;
#X connect 3 0 5 1;
#X connect 4 0 1 0;
#X connect 4 0 26 0;
#X connect 4 0 27 0;
#X connect 5 0 2 0;
#X connect 5 0 16 0;
#X connect 6 0 32 0;
#X connect 6 0 33 0;
#X connect 7 0 18 0;
#X connect 8 0 30 2;
#X connect 9 0 30 3;
#X connect 10 0 30 4;
#X connect 11 0 30 1;
#X connect 12 0 4 0;
#X connect 12 1 14 0;
#X connect 13 0 0 0;
#X connect 14 0 15 1;
#X connect 14 0 28 0;
#X connect 15 0 13 0;
#X connect 16 0 19 0;
#X connect 17 0 16 1;
#X connect 18 0 2 1;
#X connect 19 0 30 0;
#X connect 23 0 44 0;
#X connect 24 0 17 0;
#X connect 25 0 0 0;
#X connect 26 0 6 0;
#X connect 27 0 25 0;
#X connect 30 0 23 0;
#X connect 31 0 45 0;
#X connect 32 0 7 0;
#X connect 33 0 24 0;
#X connect 34 0 32 1;
#X connect 34 0 35 0;
#X connect 38 0 34 0;
#X connect 38 0 33 1;
#X connect 39 0 27 1;
#X connect 40 0 12 0;
#X connect 44 0 43 0;
#X connect 45 0 43 0;
#X connect 46 0 45 1;
#X connect 47 0 44 1;
#X restore 121 653 pd bas;
#N canvas 0 22 1121 797 metro 0;
#X msg 452 312 1 5;
#X obj 471 362 line~;
#X obj 486 301 del 5;
#X obj 468 447 *~;
#X obj 471 384 *~;
#X obj 432 299 bng 15 250 50 0 empty empty empty 17 7 0 10 -262144
-1 -1;
#X obj 459 273 b;
#X obj 471 406 *~;
#X obj 313 154 unpack;
#X obj 466 223 change;
#X floatatom 480 246 5 0 0 0 - - -, f 5;
#X obj 476 476 *~ 1.01;
#X floatatom 532 462 5 0 0 0 - - -, f 5;
#X obj 486 501 expr~ atan($v1);
#X msg 486 323 0 178;
#X obj 513 416 osc~ 660;
#X msg 200 348 1 5;
#X obj 209 382 line~;
#X obj 233 314 del 5;
#X obj 226 515 *~;
#X obj 209 404 *~;
#X obj 206 288 b;
#X obj 209 426 *~;
#X obj 234 544 *~ 1.01;
#X floatatom 290 530 5 0 0 0 - - -, f 5;
#X obj 244 569 expr~ atan($v1);
#X obj 243 495 osc~ 660;
#X obj 737 219 array define \$0pat2;
#X obj 741 193 list prepend 0;
#X obj 206 226 moses 1;
#X obj 202 203 array get \$0pat2 0 1;
#X obj 231 250 t b f;
#X obj 271 316 * 89;
#X msg 239 359 0 \$1;
#X obj 237 337 f;
#X obj 258 412 + 1;
#X obj 259 389 f;
#X obj 285 389 + 1;
#X obj 284 358 b;
#X obj 243 462 * 440;
#X floatatom 540 395 5 0 0 0 - - -, f 5;
#X floatatom 296 457 5 0 0 0 - - -, f 5;
#X obj 528 371 * 12;
#X obj 291 433 * 8;
#N canvas 206 78 673 456 (subpatch) 0;
#X obj 281 398 outlet~;
#X obj 236 255 lop~ 500;
#X obj 295 254 hip~ 500;
#X obj 156 254 lop~ 500;
#X obj 95 254 hip~ 500;
#X msg 317 193 \$1 20;
#X obj 316 213 line 0 2;
#X obj 297 132 + 30;
#X obj 296 107 * 60;
#X obj 325 294 delwrite~ \$0-del 50;
#X obj 464 252 + 1;
#X obj 464 209 expr pow($f1 \, 2);
#X obj 464 231 * 45;
#X obj 462 292 line~;
#X msg 465 273 \$1 20;
#X obj 463 335 vd~ \$0-del;
#X obj 95 140 inlet~;
#X obj 127 382 outlet~;
#X obj 173 138 inlet~;
#X obj 297 153 mtof;
#X floatatom 381 83 5 0 100 0 - - -, f 5;
#X obj 381 102 / 100;
#X floatatom 487 122 5 0 100 0 - - -, f 5;
#X obj 487 141 / 100;
#X floatatom 367 167 5 0 0 0 - - -, f 5;
#X msg 414 65 29;
#X msg 494 99 80;
#X obj 494 36 loadbang;
#X connect 1 0 0 0;
#X connect 2 0 9 0;
#X connect 3 0 17 0;
#X connect 4 0 17 0;
#X connect 5 0 6 0;
#X connect 6 0 4 1;
#X connect 6 0 3 1;
#X connect 6 0 1 1;
#X connect 6 0 2 1;
#X connect 7 0 19 0;
#X connect 8 0 7 0;
#X connect 10 0 14 0;
#X connect 11 0 12 0;
#X connect 12 0 10 0;
#X connect 13 0 15 0;
#X connect 14 0 13 0;
#X connect 15 0 0 0;
#X connect 16 0 3 0;
#X connect 16 0 4 0;
#X connect 18 0 1 0;
#X connect 18 0 2 0;
#X connect 19 0 5 0;
#X connect 19 0 24 0;
#X connect 20 0 21 0;
#X connect 21 0 8 0;
#X connect 22 0 23 0;
#X connect 23 0 11 0;
#X connect 25 0 20 0;
#X connect 26 0 22 0;
#X connect 27 0 25 0;
#X connect 27 0 26 0;
#X restore 250 654 pd;
#X obj 311 389 mod 1;
#X msg 733 128 4 0 0 0 2 0 4 0 0 0 2 0 2 0;
#X msg 748 169 4 0 0 0 4 0 0 0 4 0 0 0 2 0;
#X text 326 601 53;
#X obj 539 322 r fund;
#X obj 343 106 inlet;
#X obj 952 136 loadbang;
#X obj 255 624 *~;
#X obj 510 588 *~;
#X text 580 559 65;
#X obj 285 706 outlet~;
#X obj 375 706 outlet~;
#X obj 279 598 db~;
#X obj 533 556 db~;
#X connect 0 0 1 0;
#X connect 1 0 4 0;
#X connect 1 0 4 1;
#X connect 2 0 14 0;
#X connect 3 0 11 0;
#X connect 4 0 7 0;
#X connect 4 0 7 1;
#X connect 6 0 2 0;
#X connect 6 0 0 0;
#X connect 6 0 5 0;
#X connect 7 0 3 0;
#X connect 8 0 30 0;
#X connect 8 1 9 0;
#X connect 9 0 10 0;
#X connect 9 0 6 0;
#X connect 11 0 13 0;
#X connect 12 0 11 1;
#X connect 13 0 53 0;
#X connect 14 0 1 0;
#X connect 15 0 3 1;
#X connect 16 0 17 0;
#X connect 17 0 20 0;
#X connect 17 0 20 1;
#X connect 18 0 34 0;
#X connect 19 0 23 0;
#X connect 20 0 22 0;
#X connect 20 0 22 1;
#X connect 21 0 18 0;
#X connect 21 0 16 0;
#X connect 22 0 19 0;
#X connect 23 0 25 0;
#X connect 24 0 23 1;
#X connect 25 0 52 0;
#X connect 26 0 19 1;
#X connect 28 0 27 0;
#X connect 29 1 31 0;
#X connect 30 0 29 0;
#X connect 31 0 21 0;
#X connect 31 1 32 0;
#X connect 32 0 34 1;
#X connect 32 0 38 0;
#X connect 33 0 17 0;
#X connect 34 0 33 0;
#X connect 35 0 39 0;
#X connect 36 0 37 0;
#X connect 36 0 35 0;
#X connect 37 0 45 0;
#X connect 38 0 36 0;
#X connect 39 0 26 0;
#X connect 42 0 15 0;
#X connect 42 0 40 0;
#X connect 43 0 39 1;
#X connect 43 0 41 0;
#X connect 44 0 55 0;
#X connect 44 1 56 0;
#X connect 45 0 36 1;
#X connect 46 0 28 0;
#X connect 47 0 28 0;
#X connect 49 0 43 0;
#X connect 49 0 42 0;
#X connect 50 0 8 0;
#X connect 51 0 47 0;
#X connect 52 0 44 0;
#X connect 52 0 44 1;
#X connect 53 0 55 0;
#X connect 53 0 56 0;
#X connect 57 0 52 1;
#X connect 58 0 53 1;
#X restore 40 664 pd metro;
#X text 831 232 lydian mode;
#X obj 1155 293 * 89;
#X floatatom 1163 318 5 0 0 0 - - -, f 5;
#X obj 1184 270 r ms-in-tick;
#X obj 864 463 list prepend 0;
#X obj 396 156 tgl 15 0 empty empty empty 17 7 0 10 -262144 -1 -1 1
1;
#X text 956 347 major;
#X text 997 369 dorian;
#X obj 395 210 f;
#X obj 422 210 + 1;
#X floatatom 448 160 5 0 0 0 - - -, f 5;
#X obj 444 416 ../karnatic/output~;
#X msg 862 347 0 2 4 5 7 9 11;
#X msg 903 369 0 2 3 5 7 9 10;
#X obj 959 475 list prepend 7;
#X obj 961 453 lst/list-map;
#X obj 1043 454 + 12;
#X obj 888 517 array define lydian 14;
#X text 831 216 add ping pong;
#X obj 449 210 mod 48;
#N canvas 258 134 457 505 handleft 0;
#X obj 162 125 change;
#X floatatom 170 146 5 0 0 0 - - -, f 5;
#X msg 83 178 0;
#X obj 95 281 array get lydian 0 1;
#X msg 116 178 4;
#X obj 96 305 + 36;
#X msg 152 178 7;
#X obj 162 103 div 12;
#X obj 169 48 inlet;
#X obj 146 454 outlet~;
#X obj 146 432 clone 14 handleft;
#X obj 120 209 f;
#X obj 120 231 t f f;
#X obj 143 404 list prepend;
#X msg 99 328 \$1 100 2000;
#X connect 0 0 1 0;
#X connect 0 0 4 0;
#X connect 0 0 2 0;
#X connect 0 0 6 0;
#X connect 2 0 11 0;
#X connect 3 0 5 0;
#X connect 4 0 11 0;
#X connect 5 0 14 0;
#X connect 6 0 11 0;
#X connect 7 0 0 0;
#X connect 8 0 7 0;
#X connect 10 0 9 0;
#X connect 11 0 12 0;
#X connect 12 0 3 0;
#X connect 12 1 13 1;
#X connect 13 0 10 0;
#X connect 14 0 13 0;
#X restore 373 259 pd handleft;
#N canvas 0 22 982 726 handright 0;
#X obj 200 582 list prepend 0;
#X obj 80 447 array get lydian 0 1;
#X obj 273 164 change;
#X floatatom 188 368 5 0 0 0 - - -, f 5;
#X obj 624 222 ext/comprnd;
#X obj 624 244 list prepend 0;
#X obj 624 134 sel;
#X obj 159 268 moses 1;
#X obj 158 290 t b f;
#X obj 112 496 pack f 100 f;
#X obj 159 242 array get patton 0 1;
#X floatatom 349 172 5 0 0 0 - - -, f 5;
#X obj 273 142 div 3;
#X obj 277 184 mod 4;
#X msg 624 200 4;
#X obj 624 266 array define patton 4;
#X obj 276 203 t f f f;
#X obj 399 374 array get patton 0 1;
#X obj 400 397 moses 2;
#X msg 443 419 100;
#X obj 624 178 sel;
#X obj 272 72 inlet;
#X obj 227 677 outlet~;
#X obj 624 156 random 4;
#X obj 80 469 + 60;
#X msg 411 419 85;
#X obj 150 366 t f f;
#X obj 311 357 * 1000;
#X obj 150 346 cyclone/drunk;
#X obj 474 245 loadbang;
#X obj 201 605 clone 14 handright;
#X msg 475 266 0 13 4;
#X connect 0 0 30 0;
#X connect 1 0 24 0;
#X connect 2 0 13 0;
#X connect 4 0 5 0;
#X connect 5 0 15 0;
#X connect 6 0 23 0;
#X connect 7 1 8 0;
#X connect 8 0 28 0;
#X connect 8 1 27 0;
#X connect 9 0 0 0;
#X connect 10 0 7 0;
#X connect 12 0 2 0;
#X connect 13 0 11 0;
#X connect 13 0 16 0;
#X connect 14 0 4 0;
#X connect 16 0 10 0;
#X connect 16 1 17 0;
#X connect 16 2 6 0;
#X connect 17 0 18 0;
#X connect 18 0 25 0;
#X connect 18 1 19 0;
#X connect 19 0 9 1;
#X connect 20 0 14 0;
#X connect 21 0 12 0;
#X connect 23 0 20 0;
#X connect 24 0 9 0;
#X connect 25 0 9 1;
#X connect 26 0 1 0;
#X connect 26 1 3 0;
#X connect 26 1 0 1;
#X connect 27 0 9 2;
#X connect 28 0 26 0;
#X connect 29 0 31 0;
#X connect 30 0 22 0;
#X connect 31 0 28 0;
#X restore 482 259 pd handright;
#X obj 482 292 *~;
#N canvas 0 22 683 451 wesley 0;
#X obj 344 63 inlet~;
#X obj 347 367 outlet~;
#X obj 464 138 *~;
#X obj 375 155 == 0;
#X obj 336 202 *~ 1;
#X obj 158 103 tgl 15 1 empty empty empty 17 7 0 10 -262144 -1 -1 1
1;
#X floatatom 562 231 5 0 0 0 - - -, f 5;
#X floatatom 562 249 5 0 0 0 - - -, f 5;
#X obj 428 239 pdkm/dktanh~ 2;
#X obj 427 272 pdkm/dkwesley~ 10 1;
#X connect 0 0 2 0;
#X connect 0 0 4 0;
#X connect 2 0 8 0;
#X connect 3 0 4 1;
#X connect 4 0 1 0;
#X connect 5 0 3 0;
#X connect 5 0 2 1;
#X connect 6 0 9 1;
#X connect 7 0 9 2;
#X connect 8 0 9 0;
#X connect 9 0 1 0;
#X coords 0 -1 1 1 75 21 1 100 100;
#X restore 482 320 pd wesley;
#N canvas 0 22 683 451 wesley 0;
#X obj 344 63 inlet~;
#X obj 347 367 outlet~;
#X obj 464 138 *~;
#X obj 375 155 == 0;
#X obj 336 202 *~ 1;
#X obj 158 103 tgl 15 1 empty empty empty 17 7 0 10 -262144 -1 -1 1
1;
#X obj 428 243 pdkm/dktanh~ 7;
#X obj 427 272 pdkm/dkwesley~ 16 2;
#X connect 0 0 2 0;
#X connect 0 0 4 0;
#X connect 2 0 6 0;
#X connect 3 0 4 1;
#X connect 4 0 1 0;
#X connect 5 0 3 0;
#X connect 5 0 2 1;
#X connect 6 0 7 0;
#X connect 7 0 1 0;
#X coords 0 -1 1 1 75 21 1 100 100;
#X restore 373 320 pd wesley;
#X obj 373 293 *~;
#N canvas 278 457 450 300 db 0;
#X obj 109 181 pack f 50;
#X obj 109 155 dbtorms;
#X obj 109 203 line~;
#X obj 109 225 outlet~;
#X obj 102 114 nbx 3 14 0 110 0 1 \$0send-stub \$0receive-stub empty
0 -8 0 10 -262144 -1 -1 86 256;
#X obj 312 148 switch~;
#X obj 143 114 tgl 15 1 empty empty empty 17 7 0 10 -262144 -1 -1 1
1;
#X connect 0 0 2 0;
#X connect 1 0 0 0;
#X connect 2 0 3 0;
#X connect 4 0 1 0;
#X connect 6 0 5 0;
#X coords 0 -1 1 1 61 32 1 100 100;
#X restore 399 282 pd db;
#N canvas 206 78 673 456 stwid 0;
#X obj 281 398 outlet~;
#X obj 236 255 lop~ 500;
#X obj 295 254 hip~ 500;
#X obj 156 254 lop~ 500;
#X obj 95 254 hip~ 500;
#X msg 317 193 \$1 20;
#X obj 316 213 line 0 2;
#X obj 297 132 + 30;
#X obj 296 107 * 60;
#X obj 464 252 + 1;
#X obj 464 209 expr pow($f1 \, 2);
#X obj 464 231 * 45;
#X obj 462 292 line~;
#X msg 465 273 \$1 20;
#X obj 130 61 inlet~;
#X obj 127 382 outlet~;
#X obj 194 60 inlet~;
#X obj 297 153 mtof;
#X floatatom 381 83 5 0 100 0 - - -, f 5;
#X obj 381 102 / 100;
#X floatatom 487 122 5 0 100 0 - - -, f 5;
#X obj 487 141 / 100;
#X floatatom 367 167 5 0 0 0 - - -, f 5;
#X msg 414 65 29;
#X msg 494 99 80;
#X obj 494 36 loadbang;
#X obj 463 335 vd~ \$0-del2;
#X obj 325 294 delwrite~ \$0-del2 50;
#X obj 181 164 *~;
#X obj 32 124 == 0;
#X obj 153 102 tgl 15 1 empty empty empty 17 7 0 10 -262144 -1 -1 1
1;
#X obj 120 161 *~;
#X obj 14 254 *~;
#X obj 47 254 *~;
#X connect 1 0 0 0;
#X connect 2 0 27 0;
#X connect 3 0 15 0;
#X connect 4 0 15 0;
#X connect 5 0 6 0;
#X connect 6 0 4 1;
#X connect 6 0 3 1;
#X connect 6 0 1 1;
#X connect 6 0 2 1;
#X connect 7 0 17 0;
#X connect 8 0 7 0;
#X connect 9 0 13 0;
#X connect 10 0 11 0;
#X connect 11 0 9 0;
#X connect 12 0 26 0;
#X connect 13 0 12 0;
#X connect 14 0 31 0;
#X connect 14 0 32 0;
#X connect 16 0 28 0;
#X connect 16 0 33 0;
#X connect 17 0 5 0;
#X connect 17 0 22 0;
#X connect 18 0 19 0;
#X connect 19 0 8 0;
#X connect 20 0 21 0;
#X connect 21 0 10 0;
#X connect 23 0 18 0;
#X connect 24 0 20 0;
#X connect 25 0 23 0;
#X connect 25 0 24 0;
#X connect 26 0 0 0;
#X connect 28 0 1 0;
#X connect 28 0 2 0;
#X connect 29 0 32 1;
#X connect 29 0 33 1;
#X connect 30 0 29 0;
#X connect 30 0 28 1;
#X connect 30 0 31 1;
#X connect 31 0 4 0;
#X connect 31 0 3 0;
#X connect 32 0 15 0;
#X connect 33 0 0 0;
#X coords 0 -1 1 1 70 20 1 100 100;
#X restore 482 351 pd stwid;
#X text 829 192 connect to 74 polyrhythm;
#X msg 957 392 0 1 3 5 7 8 10;
#X text 1051 392 phrygian;
#X text 1072 415 lydian;
#X msg 977 415 0 2 4 6 7 9 11;
#N canvas 278 457 450 300 db 0;
#X obj 109 181 pack f 50;
#X obj 109 155 dbtorms;
#X obj 109 203 line~;
#X obj 109 225 outlet~;
#X obj 102 114 nbx 3 14 0 110 0 1 \$0send-stub \$0receive-stub empty
0 -8 0 10 -262144 -1 -1 67 256;
#X obj 312 148 switch~;
#X obj 143 114 tgl 15 1 empty empty empty 17 7 0 10 -262144 -1 -1 1
1;
#X connect 0 0 2 0;
#X connect 1 0 0 0;
#X connect 2 0 3 0;
#X connect 4 0 1 0;
#X connect 6 0 5 0;
#X coords 0 -1 1 1 61 32 1 100 100;
#X restore 508 282 pd db;
#X obj 395 184 metro 60;
#X obj 1044 311 loadbang;
#X connect 6 0 11 0;
#X connect 7 0 11 0;
#X connect 8 0 11 0;
#X connect 12 0 11 0;
#X connect 15 0 28 0;
#X connect 15 1 25 0;
#X connect 16 0 15 0;
#X connect 18 0 19 0;
#X connect 20 0 18 0;
#X connect 21 0 22 0;
#X connect 22 0 23 0;
#X connect 22 0 26 0;
#X connect 24 0 21 0;
#X connect 25 0 27 0;
#X connect 25 1 27 1;
#X connect 27 0 0 0;
#X connect 27 0 0 1;
#X connect 28 0 0 0;
#X connect 28 1 0 1;
#X connect 30 0 31 0;
#X connect 32 0 30 1;
#X connect 33 0 46 0;
#X connect 34 0 63 0;
#X connect 37 0 38 0;
#X connect 37 0 49 0;
#X connect 37 0 50 0;
#X connect 38 0 48 0;
#X connect 39 0 63 1;
#X connect 41 0 33 0;
#X connect 41 0 44 0;
#X connect 42 0 33 0;
#X connect 42 0 44 0;
#X connect 43 0 46 0;
#X connect 44 0 43 0;
#X connect 44 1 45 0;
#X connect 45 0 44 1;
#X connect 48 0 37 1;
#X connect 49 0 54 0;
#X connect 50 0 51 0;
#X connect 51 0 52 0;
#X connect 52 0 56 0;
#X connect 52 0 56 1;
#X connect 53 0 40 0;
#X connect 53 0 40 1;
#X connect 54 0 53 0;
#X connect 55 0 54 1;
#X connect 56 0 40 0;
#X connect 56 1 40 1;
#X connect 58 0 33 0;
#X connect 58 0 44 0;
#X connect 61 0 33 0;
#X connect 61 0 44 0;
#X connect 62 0 51 1;
#X connect 63 0 37 0;
#X connect 64 0 42 0;
#X coords 0 855 1 854 40 20 0;
