#N canvas 123 23 1436 855 10;
#N canvas 535 170 503 455 cl 0;
#X obj 187 159 max 1;
#X obj 100 170 tgl 15 1 empty empty empty 17 7 0 10 -262144 -1 -1 1
1;
#X obj 292 311 con/mstobpm;
#X obj 221 187 * 64;
#X obj 221 212 con/samptoms;
#X obj 292 332 int;
#X obj 100 269 spdctrl;
#X obj 292 289 * 105;
#X text 154 351 subdiv 1-9;
#X text 182 311 beat;
#X text 282 82 clock \, 1-9 divisions;
#X obj 102 116 nbx 3 14 -1e+37 1e+37 0 1 empty empty spd 38 8 0 10
-262144 -1 -1 8 256;
#X obj 100 351 s subdiv;
#X obj 139 311 s gati;
#X floatatom 292 353 3 0 0 1 bpm - -, f 3;
#X obj 100 189 metro 1 64 samp;
#X connect 0 0 3 0;
#X connect 0 0 15 1;
#X connect 1 0 15 0;
#X connect 2 0 5 0;
#X connect 3 0 4 0;
#X connect 4 0 6 1;
#X connect 4 0 7 0;
#X connect 5 0 14 0;
#X connect 6 0 12 0;
#X connect 6 1 13 0;
#X connect 7 0 2 0;
#X connect 11 0 0 0;
#X connect 15 0 6 0;
#X coords 0 -1 1 1 60 36 1 100 100;
#X restore 255 184 pd cl;
#N canvas 771 280 557 388 count 0;
#X text 300 251 div;
#X obj 264 291 f;
#X obj 290 291 + 1;
#X msg 349 251 0, f 2;
#X text 378 252 reset count every beat;
#X obj 264 251 route;
#X obj 160 272 f;
#X obj 201 195 f;
#X obj 264 313 mod;
#X obj 264 335 outlet;
#X obj 102 104 nbx 2 14 -1e+37 1e+37 0 1 empty empty div 30 8 0 10
-262144 -1 -1 3 256;
#X obj 102 121 nbx 2 14 -1e+37 1e+37 0 0 empty empty mod 30 8 0 10
-262144 -1 -1 3 256;
#X obj 372 152 r gati;
#X obj 264 92 r subdiv;
#X text 30 66 reset mod to div when div is changed;
#X connect 1 0 2 0;
#X connect 1 0 8 0;
#X connect 2 0 1 1;
#X connect 3 0 1 1;
#X connect 5 0 1 0;
#X connect 6 0 8 1;
#X connect 7 0 5 1;
#X connect 8 0 9 0;
#X connect 10 0 7 1;
#X connect 10 0 11 0;
#X connect 11 0 6 1;
#X connect 12 0 7 0;
#X connect 12 0 3 0;
#X connect 12 0 6 0;
#X connect 13 0 5 0;
#X coords 0 -1 1 1 51 39 2 100 100;
#X restore 264 239 pd count;
#X floatatom 264 278 2 0 0 0 - - -, f 2;
#X text 223 247 tisra;
#X floatatom 264 337 2 0 0 0 - - -, f 2;
#X text 207 310 chatusra;
#X floatatom 264 396 2 0 0 0 - - -, f 2;
#X text 218 369 khanda;
#X floatatom 264 456 2 0 0 0 - - -, f 2;
#X text 225 423 tisra;
#X text 201 435 2nd speed;
#N canvas 519 341 557 388 count 0;
#X text 300 251 div;
#X obj 264 291 f;
#X obj 290 291 + 1;
#X msg 349 251 0, f 2;
#X text 378 252 reset count every beat;
#X obj 264 251 route;
#X obj 160 272 f;
#X obj 201 195 f;
#X obj 264 313 mod;
#X obj 264 335 outlet;
#X obj 102 104 nbx 2 14 -1e+37 1e+37 0 1 empty empty div 30 8 0 10
-262144 -1 -1 4 256;
#X obj 102 121 nbx 2 14 -1e+37 1e+37 0 0 empty empty mod 30 8 0 10
-262144 -1 -1 4 256;
#X obj 372 152 r gati;
#X obj 264 92 r subdiv;
#X text 30 66 reset mod to div when div is changed;
#X connect 1 0 2 0;
#X connect 1 0 8 0;
#X connect 2 0 1 1;
#X connect 3 0 1 1;
#X connect 5 0 1 0;
#X connect 6 0 8 1;
#X connect 7 0 5 1;
#X connect 8 0 9 0;
#X connect 10 0 7 1;
#X connect 10 0 11 0;
#X connect 11 0 6 1;
#X connect 12 0 7 0;
#X connect 12 0 3 0;
#X connect 12 0 6 0;
#X connect 13 0 5 0;
#X coords 0 -1 1 1 51 39 2 100 100;
#X restore 264 298 pd count;
#N canvas 519 341 557 388 count 0;
#X text 300 251 div;
#X obj 264 291 f;
#X obj 290 291 + 1;
#X msg 349 251 0, f 2;
#X text 378 252 reset count every beat;
#X obj 264 251 route;
#X obj 160 272 f;
#X obj 201 195 f;
#X obj 264 313 mod;
#X obj 264 335 outlet;
#X obj 102 104 nbx 2 14 -1e+37 1e+37 0 1 empty empty div 30 8 0 10
-262144 -1 -1 5 256;
#X obj 102 121 nbx 2 14 -1e+37 1e+37 0 0 empty empty mod 30 8 0 10
-262144 -1 -1 5 256;
#X obj 372 152 r gati;
#X obj 264 92 r subdiv;
#X text 30 66 reset mod to div when div is changed;
#X connect 1 0 2 0;
#X connect 1 0 8 0;
#X connect 2 0 1 1;
#X connect 3 0 1 1;
#X connect 5 0 1 0;
#X connect 6 0 8 1;
#X connect 7 0 5 1;
#X connect 8 0 9 0;
#X connect 10 0 7 1;
#X connect 10 0 11 0;
#X connect 11 0 6 1;
#X connect 12 0 7 0;
#X connect 12 0 3 0;
#X connect 12 0 6 0;
#X connect 13 0 5 0;
#X coords 0 -1 1 1 51 39 2 100 100;
#X restore 264 357 pd count;
#N canvas 519 341 557 388 count 0;
#X text 300 251 div;
#X obj 264 291 f;
#X obj 290 291 + 1;
#X msg 349 251 0, f 2;
#X text 378 252 reset count every beat;
#X obj 264 251 route;
#X obj 160 272 f;
#X obj 201 195 f;
#X obj 264 313 mod;
#X obj 264 335 outlet;
#X obj 102 104 nbx 2 14 -1e+37 1e+37 0 1 empty empty div 30 8 0 10
-262144 -1 -1 6 256;
#X obj 102 121 nbx 2 14 -1e+37 1e+37 0 0 empty empty mod 30 8 0 10
-262144 -1 -1 6 256;
#X obj 372 152 r gati;
#X obj 264 92 r subdiv;
#X text 30 66 reset mod to div when div is changed;
#X connect 1 0 2 0;
#X connect 1 0 8 0;
#X connect 2 0 1 1;
#X connect 3 0 1 1;
#X connect 5 0 1 0;
#X connect 6 0 8 1;
#X connect 7 0 5 1;
#X connect 8 0 9 0;
#X connect 10 0 7 1;
#X connect 10 0 11 0;
#X connect 11 0 6 1;
#X connect 12 0 7 0;
#X connect 12 0 3 0;
#X connect 12 0 6 0;
#X connect 13 0 5 0;
#X coords 0 -1 1 1 51 39 2 100 100;
#X restore 264 416 pd count;
#X text 255 136 see Jacob Adler's 'Wheels within Wheels' and http://www.advancedrhythm.com
, f 74;
#X obj 908 164 route 0 1 2;
#X msg 898 189 ta;
#X symbolatom 928 236 5 0 0 0 - - -, f 5;
#X obj 928 214 symbol;
#X msg 928 189 ki;
#X msg 960 189 te;
#X msg 887 301 ta;
#X symbolatom 933 355 5 0 0 0 - - -, f 5;
#X obj 933 333 symbol;
#X obj 905 277 route 0 1 2 3;
#X msg 917 301 ke;
#X msg 949 301 di;
#X msg 982 301 mi;
#X msg 873 419 ta;
#X symbolatom 935 475 5 0 0 0 - - -, f 5;
#X obj 935 453 symbol;
#X msg 903 419 ke;
#X msg 935 419 ghi;
#X msg 968 419 na;
#X msg 1000 419 ton;
#X obj 905 393 route 0 1 2 3 4;
#X msg 863 538 ta;
#X symbolatom 937 598 5 0 0 0 - - -, f 5;
#X obj 937 576 symbol;
#X msg 893 538 ki;
#X msg 925 538 te;
#X msg 957 538 ta;
#X msg 987 538 ki;
#X msg 1019 538 te;
#X obj 896 511 route 0 1 2 3 4 5;
#X msg 861 681 ta;
#X symbolatom 954 740 5 0 0 0 - - -, f 5;
#X obj 954 718 symbol;
#X msg 891 681 ke;
#X msg 923 681 di;
#X msg 956 681 mi;
#X obj 898 648 route 0 1 2 3 4 5 6;
#X msg 988 681 ta;
#X msg 1018 681 ki;
#X msg 1050 681 te;
#N canvas 519 341 557 388 count 0;
#X text 300 251 div;
#X obj 264 291 f;
#X obj 290 291 + 1;
#X msg 349 251 0, f 2;
#X text 378 252 reset count every beat;
#X obj 264 251 route;
#X obj 160 272 f;
#X obj 201 195 f;
#X obj 264 313 mod;
#X obj 264 335 outlet;
#X obj 102 104 nbx 2 14 -1e+37 1e+37 0 1 empty empty div 30 8 0 10
-262144 -1 -1 7 256;
#X obj 102 121 nbx 2 14 -1e+37 1e+37 0 0 empty empty mod 30 8 0 10
-262144 -1 -1 7 256;
#X obj 372 152 r gati;
#X obj 264 92 r subdiv;
#X text 30 66 reset mod to div when div is changed;
#X connect 1 0 2 0;
#X connect 1 0 8 0;
#X connect 2 0 1 1;
#X connect 3 0 1 1;
#X connect 5 0 1 0;
#X connect 6 0 8 1;
#X connect 7 0 5 1;
#X connect 8 0 9 0;
#X connect 10 0 7 1;
#X connect 10 0 11 0;
#X connect 11 0 6 1;
#X connect 12 0 7 0;
#X connect 12 0 3 0;
#X connect 12 0 6 0;
#X connect 13 0 5 0;
#X coords 0 -1 1 1 51 39 2 100 100;
#X restore 264 477 pd count;
#X floatatom 264 516 2 0 0 0 - - -, f 2;
#X text 223 485 misra;
#X obj 319 588 r gati;
#X msg 315 621 1 5;
#X obj 334 671 line~;
#X obj 349 610 del 5;
#X msg 349 632 0 100;
#X obj 334 743 *~;
#X obj 334 765 output~;
#X obj 347 716 osc~ 1220;
#X obj 334 693 *~;
#X connect 1 0 2 0;
#X connect 1 0 15 0;
#X connect 11 0 4 0;
#X connect 11 0 24 0;
#X connect 12 0 6 0;
#X connect 12 0 35 0;
#X connect 13 0 8 0;
#X connect 13 0 44 0;
#X connect 15 0 16 0;
#X connect 15 1 19 0;
#X connect 15 2 20 0;
#X connect 16 0 18 0;
#X connect 18 0 17 0;
#X connect 19 0 18 0;
#X connect 20 0 18 0;
#X connect 21 0 23 0;
#X connect 23 0 22 0;
#X connect 24 0 21 0;
#X connect 24 1 25 0;
#X connect 24 2 26 0;
#X connect 24 3 27 0;
#X connect 25 0 23 0;
#X connect 26 0 23 0;
#X connect 27 0 23 0;
#X connect 28 0 30 0;
#X connect 30 0 29 0;
#X connect 31 0 30 0;
#X connect 32 0 30 0;
#X connect 33 0 30 0;
#X connect 34 0 30 0;
#X connect 35 0 28 0;
#X connect 35 1 31 0;
#X connect 35 2 32 0;
#X connect 35 3 33 0;
#X connect 35 4 34 0;
#X connect 36 0 38 0;
#X connect 38 0 37 0;
#X connect 39 0 38 0;
#X connect 40 0 38 0;
#X connect 41 0 38 0;
#X connect 42 0 38 0;
#X connect 43 0 38 0;
#X connect 44 0 36 0;
#X connect 44 1 39 0;
#X connect 44 2 40 0;
#X connect 44 3 41 0;
#X connect 44 4 42 0;
#X connect 44 5 43 0;
#X connect 45 0 47 0;
#X connect 47 0 46 0;
#X connect 48 0 47 0;
#X connect 49 0 47 0;
#X connect 50 0 47 0;
#X connect 51 0 45 0;
#X connect 51 1 48 0;
#X connect 51 2 49 0;
#X connect 51 3 50 0;
#X connect 51 4 52 0;
#X connect 51 5 53 0;
#X connect 51 6 54 0;
#X connect 52 0 47 0;
#X connect 53 0 47 0;
#X connect 54 0 47 0;
#X connect 55 0 56 0;
#X connect 55 0 51 0;
#X connect 58 0 59 0;
#X connect 58 0 61 0;
#X connect 59 0 60 0;
#X connect 60 0 66 0;
#X connect 60 0 66 1;
#X connect 61 0 62 0;
#X connect 62 0 60 0;
#X connect 63 0 64 0;
#X connect 63 0 64 1;
#X connect 65 0 63 1;
#X connect 66 0 63 0;
#X coords 0 855 1 854 40 20 0;
