#N canvas 269 93 928 705 10;
#N canvas 467 126 503 455 cl 0;
#X obj 100 189 metro 1 64 samp;
#X obj 187 159 max 1;
#X obj 100 170 tgl 15 1 empty empty empty 17 7 0 10 -262144 -1 -1 1
1;
#X obj 292 311 con/mstobpm;
#X obj 221 187 * 64;
#X obj 221 212 con/samptoms;
#X obj 292 332 int;
#X obj 100 269 spdctrl;
#X obj 292 289 * 105;
#X text 154 351 subdiv 1-9;
#X text 182 311 beat;
#X text 282 82 clock \, 1-9 divisions;
#X obj 102 116 nbx 3 14 -1e+37 1e+37 0 1 empty empty spd 38 8 0 10
-262144 -1 -1 4 256;
#X obj 100 351 s subdiv;
#X obj 139 311 s gati;
#X floatatom 292 353 3 0 0 1 bpm - -, f 3;
#X connect 0 0 7 0;
#X connect 1 0 0 1;
#X connect 1 0 4 0;
#X connect 2 0 0 0;
#X connect 3 0 6 0;
#X connect 4 0 5 0;
#X connect 5 0 7 1;
#X connect 5 0 8 0;
#X connect 6 0 15 0;
#X connect 7 0 13 0;
#X connect 7 1 14 0;
#X connect 8 0 3 0;
#X connect 12 0 1 0;
#X coords 0 -1 1 1 60 36 1 100 100;
#X restore 279 158 pd cl;
#X text 279 110 see Jacob Adler's 'Wheels within Wheels' and http://www.advancedrhythm.com
, f 74;
#X msg 270 381 1 5;
#X obj 289 431 line~;
#X obj 304 370 del 5;
#X msg 304 392 0 100;
#X obj 319 553 *~;
#X obj 319 575 output~;
#X obj 289 453 *~;
#X text 501 126 jathi - regular accents over the gati;
#X floatatom 286 274 2 0 0 0 - - -, f 2;
#X floatatom 344 274 2 0 0 0 - - -, f 2;
#X obj 238 368 bng 15 250 50 0 empty empty empty 17 7 0 10 -262144
-1 -1;
#X msg 450 167 3 4;
#X msg 450 187 5 3;
#N canvas 470 171 618 604 jathi 0;
#X text 300 251 div;
#X obj 264 296 f;
#X obj 292 296 + 1;
#X obj 264 251 route;
#X obj 223 207 f;
#X obj 320 296 mod;
#X obj 328 487 outlet;
#X obj 102 104 nbx 2 14 -1e+37 1e+37 0 1 empty empty gati 30 8 0 10
-262144 -1 -1 7 256;
#X obj 102 121 nbx 2 14 -1e+37 1e+37 0 1 empty empty jathi 30 8 0 10
-262144 -1 -1 3 256;
#X obj 264 92 r subdiv;
#X obj 173 240 *;
#X obj 87 212 f;
#X floatatom 330 323 5 0 0 0 - - -, f 5;
#X obj 320 417 change;
#X floatatom 334 438 5 0 0 0 - - -, f 5;
#X text 371 488 jathi;
#X obj 189 487 outlet;
#X text 232 488 gati;
#X obj 320 395 div;
#X obj 183 393 div;
#X obj 183 417 change;
#X floatatom 197 438 5 0 0 0 - - -, f 5;
#X obj 40 165 sel;
#X obj 168 41 inlet;
#X obj 168 63 unpack;
#X text 381 280 gati will be played jathi times;
#X text 380 299 then pattern is repeated;
#X connect 1 0 2 0;
#X connect 2 0 5 0;
#X connect 3 0 1 0;
#X connect 4 0 3 1;
#X connect 4 0 19 1;
#X connect 5 0 12 0;
#X connect 5 0 1 1;
#X connect 5 0 18 0;
#X connect 5 0 19 0;
#X connect 7 0 4 1;
#X connect 7 0 10 1;
#X connect 8 0 11 1;
#X connect 9 0 3 0;
#X connect 10 0 5 1;
#X connect 11 0 10 0;
#X connect 11 0 18 1;
#X connect 13 0 14 0;
#X connect 13 0 6 0;
#X connect 18 0 13 0;
#X connect 19 0 20 0;
#X connect 20 0 21 0;
#X connect 20 0 16 0;
#X connect 20 0 22 0;
#X connect 22 0 11 0;
#X connect 22 0 4 0;
#X connect 23 0 24 0;
#X connect 24 0 7 0;
#X connect 24 1 8 0;
#X coords 0 -1 1 1 62 39 2 100 100;
#X restore 280 228 pd jathi;
#X obj 277 342 b;
#X msg 395 379 1 5;
#X obj 414 429 line~;
#X obj 429 368 del 5;
#X msg 429 390 0 100;
#X obj 405 553 *~;
#X obj 414 451 *~;
#X obj 402 340 b;
#X obj 332 526 osc~ 1320;
#X obj 418 526 osc~ 880;
#X text 480 168 tisra jathi 4;
#X text 480 188 khanda jathi 3;
#X msg 450 207 7 3;
#X text 481 208 misra jathi 3;
#X obj 289 475 *~;
#X obj 414 473 *~;
#X connect 2 0 3 0;
#X connect 3 0 8 0;
#X connect 3 0 8 1;
#X connect 4 0 5 0;
#X connect 5 0 3 0;
#X connect 6 0 7 0;
#X connect 8 0 30 0;
#X connect 8 0 30 1;
#X connect 13 0 15 0;
#X connect 14 0 15 0;
#X connect 15 0 10 0;
#X connect 15 0 16 0;
#X connect 15 1 11 0;
#X connect 15 1 23 0;
#X connect 16 0 4 0;
#X connect 16 0 2 0;
#X connect 16 0 12 0;
#X connect 17 0 18 0;
#X connect 18 0 22 0;
#X connect 18 0 22 1;
#X connect 19 0 20 0;
#X connect 20 0 18 0;
#X connect 21 0 7 1;
#X connect 22 0 31 0;
#X connect 22 0 31 1;
#X connect 23 0 19 0;
#X connect 23 0 17 0;
#X connect 24 0 6 1;
#X connect 25 0 21 1;
#X connect 28 0 15 0;
#X connect 30 0 6 0;
#X connect 31 0 21 0;
#X coords 0 705 1 704 40 20 0;
