#N canvas 123 23 1436 855 10;
#X obj 97 787 output~;
#X obj 1211 692 cnv 15 58 120 empty empty empty 20 12 0 20 -228856
-66577 0;
#X obj 1215 738 tgl 15 0 bass-play all-play bass 17 7 0 10 -262144
-1 -1 1 1;
#X obj 1215 717 tgl 15 0 drum-play all-play drum 17 7 0 10 -262144
-1 -1 1 1;
#X obj 1215 696 tgl 15 1 all-play empty all 17 7 0 10 -262144 -1 -1
1 1;
#N canvas 0 22 683 451 wesley 0;
#X obj 344 63 inlet~;
#X obj 347 367 outlet~;
#X obj 464 138 *~;
#X obj 375 155 == 0;
#X obj 336 202 *~ 1;
#X obj 158 103 tgl 15 1 empty empty empty 17 7 0 10 -262144 -1 -1 1
1;
#X obj 428 243 pdkm/dktanh~ 2;
#X obj 427 272 pdkm/dkwesley~ 16 2;
#X connect 0 0 2 0;
#X connect 0 0 4 0;
#X connect 2 0 6 0;
#X connect 3 0 4 1;
#X connect 4 0 1 0;
#X connect 5 0 3 0;
#X connect 5 0 2 1;
#X connect 6 0 7 0;
#X connect 7 0 1 0;
#X coords 0 -1 1 1 75 21 1 100 100;
#X restore 115 758 pd wesley;
#X msg 340 794 print;
#X msg 339 746 start;
#X msg 341 772 stop;
#X text 392 746 start streaming audio;
#X text 387 772 stop streaming audio;
#X obj 100 829 writesf~ 2;
#X msg 330 717 open -bytes 4 /tmp/baz.wav;
#X text 139 60 see Jacob Adler's 'Wheels within Wheels' and http://www.advancedrhythm.com
, f 74;
#X msg 124 378 1 5;
#X obj 143 428 line~;
#X obj 158 367 del 5;
#X obj 175 503 *~;
#X obj 143 450 *~;
#X text 361 76 jathi - regular accents over the gati;
#X obj 104 365 bng 15 250 50 0 empty empty empty 17 7 0 10 -262144
-1 -1;
#X msg 260 99 3 4;
#X msg 260 119 5 3;
#X obj 131 339 b;
#X msg 1138 133 1 5;
#X obj 1157 246 line~;
#X obj 1175 122 del 5;
#X obj 1148 370 *~;
#X obj 1157 268 *~;
#X obj 1145 94 b;
#X text 290 100 tisra jathi 4;
#X text 290 120 khanda jathi 3;
#X msg 260 139 7 3;
#X text 291 140 misra jathi 3;
#X obj 143 472 *~;
#X obj 1157 290 *~;
#N canvas 315 52 932 773 jathi 0;
#X obj 293 274 f;
#X obj 321 274 + 1;
#X obj 177 188 f;
#X obj 349 274 mod;
#X obj 311 562 outlet;
#X obj 102 127 nbx 2 14 -1e+37 1e+37 0 0 empty empty gati 30 8 0 10
-262144 -1 -1 7 256;
#X obj 102 144 nbx 2 14 -1e+37 1e+37 0 0 empty empty jathi 30 8 0 10
-262144 -1 -1 3 256;
#X obj 374 251 *;
#X obj 87 212 f;
#X floatatom 366 335 5 0 0 0 - - -, f 5;
#X text 354 563 jathi;
#X obj 140 564 outlet;
#X text 183 565 gati;
#X obj 109 21 inlet;
#X obj 212 67 unpack;
#X obj 29 135 sel;
#X obj 373 180 metro 1 64 samp;
#X obj 208 -34 tgl 15 1 empty empty empty 17 7 0 10 -262144 -1 -1 1
1;
#X text 399 251 common;
#X msg 284 21 7 3;
#X obj 107 395 div;
#X obj 107 418 change;
#X floatatom 111 459 3 0 0 0 - - -, f 3;
#X obj 320 394 div;
#X obj 320 416 change;
#X floatatom 348 456 3 0 0 0 - - -, f 3;
#X obj 373 395 mod;
#X obj 158 395 mod;
#X floatatom 134 459 3 0 0 0 - - -, f 3;
#X obj 373 417 * 2;
#X obj 622 224 * 64;
#X obj 622 249 con/samptoms;
#X floatatom 635 274 5 0 0 0 - - -, f 5;
#X obj 539 342 / 2;
#X obj 385 439 + 1;
#X obj 320 347 t f f;
#X obj 385 463 pipe;
#X floatatom 325 456 3 0 0 0 - - -, f 3;
#X obj 100 347 t f f;
#X obj 158 418 * 2;
#X obj 170 440 + 1;
#X obj 170 464 pipe;
#X text 437 448 32nd notes;
#X obj 54 644 t b b;
#X obj 54 666 timer;
#X floatatom 67 688 5 0 0 0 - - -, f 5;
#X obj 63 711 con/mstobpm;
#X floatatom 63 733 5 0 0 0 - - -, f 5;
#X obj 102 110 nbx 3 14 -1e+37 1e+37 0 0 empty empty bpm 38 8 0 10
-262144 -1 -1 48 256;
#X obj 650 132 expr (60 * $f2) / (64 * $f3 * $f1);
#X obj 729 77 samplerate~;
#X obj 643 42 t f b;
#X floatatom 662 154 5 0 0 0 - - -, f 5;
#X obj 643 64 f;
#X obj 643 88 moses 1;
#X obj 208 -14 t f f f f;
#X msg 187 16 0;
#X obj 555 71 t f f b;
#X obj 181 209 t f f;
#X obj 137 540 pack;
#X obj 310 524 pack;
#X obj 370 490 f;
#X obj 156 489 f;
#X obj 241 634 t b b;
#X obj 241 656 timer;
#X floatatom 254 678 5 0 0 0 - - -, f 5;
#X obj 250 701 con/mstobpm;
#X floatatom 250 723 5 0 0 0 - - -, f 5;
#X floatatom 563 372 5 0 0 0 - - -, f 5;
#X text 600 371 single tick aka 32nd;
#X obj 320 309 f;
#X msg 246 16 48;
#X connect 0 0 1 0;
#X connect 1 0 3 0;
#X connect 2 0 58 0;
#X connect 3 0 0 1;
#X connect 3 0 70 0;
#X connect 5 0 2 1;
#X connect 5 0 7 1;
#X connect 6 0 8 1;
#X connect 7 0 3 1;
#X connect 8 0 7 0;
#X connect 8 0 23 1;
#X connect 8 0 26 1;
#X connect 13 0 14 0;
#X connect 14 0 5 0;
#X connect 14 1 6 0;
#X connect 15 0 8 0;
#X connect 15 0 2 0;
#X connect 16 0 0 0;
#X connect 17 0 55 0;
#X connect 19 0 14 0;
#X connect 20 0 21 0;
#X connect 21 0 22 0;
#X connect 21 0 15 0;
#X connect 21 0 43 0;
#X connect 21 0 59 1;
#X connect 23 0 24 0;
#X connect 24 0 37 0;
#X connect 24 0 60 1;
#X connect 26 0 29 0;
#X connect 27 0 39 0;
#X connect 29 0 34 0;
#X connect 29 0 25 0;
#X connect 29 0 61 0;
#X connect 30 0 31 0;
#X connect 31 0 32 0;
#X connect 31 0 33 0;
#X connect 33 0 36 1;
#X connect 33 0 41 1;
#X connect 33 0 68 0;
#X connect 34 0 36 0;
#X connect 35 0 26 0;
#X connect 35 1 23 0;
#X connect 36 0 25 0;
#X connect 36 0 61 0;
#X connect 38 0 27 0;
#X connect 38 1 20 0;
#X connect 39 0 40 0;
#X connect 39 0 28 0;
#X connect 39 0 62 0;
#X connect 40 0 41 0;
#X connect 41 0 28 0;
#X connect 41 0 62 0;
#X connect 43 0 44 0;
#X connect 43 1 44 1;
#X connect 44 0 45 0;
#X connect 44 0 46 0;
#X connect 46 0 47 0;
#X connect 48 0 51 0;
#X connect 49 0 52 0;
#X connect 49 0 16 1;
#X connect 49 0 30 0;
#X connect 50 0 49 1;
#X connect 51 0 53 0;
#X connect 51 1 50 0;
#X connect 53 0 54 0;
#X connect 54 1 49 0;
#X connect 55 0 16 0;
#X connect 55 1 56 0;
#X connect 55 2 71 0;
#X connect 55 3 19 0;
#X connect 56 0 15 0;
#X connect 57 0 49 2;
#X connect 57 2 53 0;
#X connect 57 2 50 0;
#X connect 58 0 27 1;
#X connect 58 0 20 1;
#X connect 58 1 57 0;
#X connect 59 0 11 0;
#X connect 60 0 4 0;
#X connect 61 0 60 0;
#X connect 62 0 59 0;
#X connect 63 0 64 0;
#X connect 63 1 64 1;
#X connect 64 0 65 0;
#X connect 64 0 66 0;
#X connect 66 0 67 0;
#X connect 70 0 38 0;
#X connect 70 0 35 0;
#X connect 70 0 9 0;
#X connect 71 0 48 0;
#X coords 0 -1 1 1 62 60 2 100 100;
#X restore 151 168 pd jathi;
#X obj 138 254 unpack;
#X obj 522 531 list prepend 0;
#X obj 393 369 array get \$0pat 0 1;
#X obj 475 269 unpack;
#X obj 514 295 change;
#X obj 396 395 moses 1;
#X obj 1162 491 output~;
#X obj 522 554 array define \$0pat 6;
#X floatatom 528 318 5 0 0 0 - - -, f 5;
#X obj 526 481 rdr/reader pat 1;
#X obj 518 347 t f f;
#X obj 544 389 f;
#X obj 570 389 + 1;
#X obj 545 369 sel;
#X obj 596 389 mod 2;
#X obj 544 411 * 7;
#X obj 528 440 +;
#X floatatom 537 461 5 0 0 0 - - -, f 5;
#X obj 173 279 change;
#X floatatom 187 302 5 0 0 0 - - -, f 5;
#X floatatom 450 339 5 0 0 0 - - -, f 5;
#X obj 1234 204 + 1;
#X obj 1234 248 lop~ 100;
#X floatatom 991 628 5 -1 1 0 - a -, f 5;
#X floatatom 1031 628 5 -1 1 0 - b -, f 5;
#X floatatom 1078 628 5 -1 1 0 - c -, f 5;
#X floatatom 968 605 5 0 0 0 - del -, f 5;
#X obj 900 688 output~;
#X obj 1140 61 t b f;
#X msg 1172 207 0 \$1;
#X obj 1234 108 * 89;
#X obj 1172 184 f;
#X obj 1148 392 *~ 1.01;
#X floatatom 1216 387 5 0 0 0 - - -, f 5;
#X obj 1234 226 * 660;
#X obj 894 400 output~;
#X obj 841 294 *~;
#X obj 873 268 osc~;
#X obj 1226 301 osc~;
#X obj 855 330 *~ 1.01;
#X floatatom 911 316 5 0 0 0 - - -, f 5;
#X obj 865 355 expr~ atan($v1);
#X obj 876 463 wrap~;
#X obj 859 515 -~;
#X floatatom 931 459 5 0 0 0 - - -, f 5;
#X obj 183 532 *~ 1.01;
#X floatatom 239 518 5 0 0 0 - - -, f 5;
#X obj 193 557 expr~ atan($v1);
#X obj 217 461 osc~ 27;
#X obj 1149 450 clip~ -0.5 1;
#X obj 878 247 lop~ 25;
#X obj 901 659 cyclone/comb~ 10 0.25 -1 -0.7 0.69;
#X text 1003 605 var 0.2-1.5;
#X obj 126 310 change;
#X obj 218 390 + 1;
#X obj 218 434 lop~ 100;
#X obj 218 412 * 330;
#X obj 218 368 random 2;
#X msg 158 389 0 178;
#X obj 126 288 div 4;
#X obj 208 593 output~;
#X obj 876 441 *~ 1024;
#X obj 876 485 /~ 1024;
#X obj 1234 182 random 2;
#X text 994 682 feedback and feedforward;
#X text 993 699 modulate up to - and + 0.91;
#X obj 878 225 * 27.5;
#X connect 0 0 11 0;
#X connect 0 1 11 1;
#X connect 5 0 0 0;
#X connect 5 0 0 1;
#X connect 6 0 11 0;
#X connect 7 0 11 0;
#X connect 8 0 11 0;
#X connect 12 0 11 0;
#X connect 14 0 15 0;
#X connect 15 0 18 0;
#X connect 15 0 18 1;
#X connect 16 0 95 0;
#X connect 17 0 82 0;
#X connect 18 0 34 0;
#X connect 18 0 34 1;
#X connect 21 0 36 0;
#X connect 22 0 36 0;
#X connect 23 0 16 0;
#X connect 23 0 14 0;
#X connect 23 0 20 0;
#X connect 23 0 94 0;
#X connect 24 0 25 0;
#X connect 25 0 28 0;
#X connect 25 0 28 1;
#X connect 26 0 68 0;
#X connect 27 0 69 0;
#X connect 28 0 35 0;
#X connect 28 0 35 1;
#X connect 29 0 26 0;
#X connect 29 0 24 0;
#X connect 29 0 100 0;
#X connect 32 0 36 0;
#X connect 34 0 17 0;
#X connect 35 0 27 0;
#X connect 35 0 73 0;
#X connect 36 0 37 0;
#X connect 36 1 40 0;
#X connect 37 0 96 0;
#X connect 37 1 55 0;
#X connect 38 0 44 0;
#X connect 39 0 42 0;
#X connect 40 0 39 0;
#X connect 40 0 57 0;
#X connect 40 1 41 0;
#X connect 41 0 45 0;
#X connect 41 0 47 0;
#X connect 42 1 65 0;
#X connect 46 0 38 0;
#X connect 47 0 53 0;
#X connect 47 1 50 0;
#X connect 48 0 49 0;
#X connect 48 0 52 0;
#X connect 49 0 51 0;
#X connect 50 0 48 0;
#X connect 51 0 48 1;
#X connect 52 0 53 1;
#X connect 53 0 54 0;
#X connect 53 0 46 0;
#X connect 55 0 56 0;
#X connect 58 0 71 0;
#X connect 58 0 103 0;
#X connect 59 0 75 0;
#X connect 60 0 88 2;
#X connect 61 0 88 3;
#X connect 62 0 88 4;
#X connect 63 0 88 1;
#X connect 65 0 29 0;
#X connect 65 1 67 0;
#X connect 66 0 25 0;
#X connect 67 0 68 1;
#X connect 68 0 66 0;
#X connect 69 0 86 0;
#X connect 70 0 69 1;
#X connect 71 0 59 0;
#X connect 73 0 76 0;
#X connect 74 0 73 1;
#X connect 75 0 27 1;
#X connect 76 0 78 0;
#X connect 77 0 76 1;
#X connect 78 0 72 0;
#X connect 78 0 72 1;
#X connect 78 0 80 0;
#X connect 78 0 98 0;
#X connect 79 0 99 0;
#X connect 80 0 88 0;
#X connect 81 0 98 1;
#X connect 81 0 99 1;
#X connect 82 0 84 0;
#X connect 83 0 82 1;
#X connect 84 0 97 0;
#X connect 84 0 97 1;
#X connect 85 0 17 1;
#X connect 86 0 43 0;
#X connect 86 0 43 1;
#X connect 87 0 74 0;
#X connect 88 0 64 0;
#X connect 88 0 64 1;
#X connect 90 0 23 0;
#X connect 91 0 93 0;
#X connect 92 0 85 0;
#X connect 93 0 92 0;
#X connect 94 0 91 0;
#X connect 95 0 15 0;
#X connect 96 0 90 0;
#X connect 98 0 79 0;
#X connect 99 0 80 1;
#X connect 100 0 58 0;
#X connect 103 0 87 0;
#X coords 0 855 1 854 40 20 0;
