#N canvas 402 93 807 679 10;
#X obj 154 349 tri_trevor~;
#X obj 414 294 line~;
#X obj 431 566 *~;
#X obj 358 294 *~;
#X obj 223 134 b;
#X msg 429 255 0 \$1;
#X obj 429 232 f;
#X obj 330 213 f 1;
#X obj 220 58 inlet;
#X obj 288 112 unpack f f f;
#X obj 220 245 mtof;
#X obj 464 651 outlet~;
#X text 288 88 pitch vel dur;
#X obj 347 153 / 127;
#X obj 220 80 t b l;
#X obj 225 271 lop~ 100;
#X obj 686 168 / 127;
#X floatatom 695 233 5 0 0 0 - - -, f 5;
#X obj 686 190 swap 1;
#X obj 686 212 -;
#X text 697 149 key following;
#X obj 434 593 *~;
#X obj 171 320 +~;
#X obj 218 326 sig~ 0.09;
#X msg 331 239 \$1 10;
#X obj 464 187 - 10;
#X obj 404 194 del 10;
#X obj 125 446 hip~;
#X obj 125 468 hip~;
#X obj 145 496 *~;
#X obj 345 318 *~;
#X obj 477 374 *~;
#X obj 478 398 *~;
#X obj 332 342 *~;
#X obj 152 521 *~ 0.1;
#X obj 348 465 lop~;
#X obj 348 487 lop~;
#X obj 382 526 *~ 3;
#X connect 0 0 27 0;
#X connect 0 0 35 0;
#X connect 1 0 3 0;
#X connect 1 0 3 1;
#X connect 1 0 31 0;
#X connect 1 0 31 1;
#X connect 2 0 21 0;
#X connect 3 0 30 0;
#X connect 3 0 30 1;
#X connect 4 0 7 0;
#X connect 4 0 26 0;
#X connect 5 0 1 0;
#X connect 6 0 5 0;
#X connect 7 0 24 0;
#X connect 8 0 14 0;
#X connect 9 0 16 0;
#X connect 9 0 10 0;
#X connect 9 1 13 0;
#X connect 9 2 25 0;
#X connect 10 0 15 0;
#X connect 10 0 27 1;
#X connect 10 0 28 1;
#X connect 10 0 35 1;
#X connect 10 0 36 1;
#X connect 13 0 7 1;
#X connect 14 0 4 0;
#X connect 14 1 9 0;
#X connect 15 0 22 0;
#X connect 16 0 18 0;
#X connect 18 0 19 0;
#X connect 18 1 19 1;
#X connect 19 0 17 0;
#X connect 19 0 21 1;
#X connect 21 0 11 0;
#X connect 22 0 0 0;
#X connect 23 0 0 1;
#X connect 24 0 1 0;
#X connect 25 0 6 1;
#X connect 26 0 6 0;
#X connect 27 0 28 0;
#X connect 28 0 29 0;
#X connect 29 0 34 0;
#X connect 30 0 33 0;
#X connect 30 0 33 1;
#X connect 31 0 32 0;
#X connect 31 0 32 1;
#X connect 32 0 2 1;
#X connect 33 0 29 1;
#X connect 34 0 2 0;
#X connect 35 0 36 0;
#X connect 36 0 37 0;
#X connect 37 0 2 0;
#X coords 0 679 1 678 40 20 0;
