#N canvas 553 48 812 784 10;
#X obj 154 354 tri_trevor~;
#X obj 219 411 wrap~;
#X obj 200 473 -~;
#X obj 414 299 line~;
#X obj 434 632 *~;
#X obj 416 326 *~;
#X obj 223 139 b;
#X msg 432 271 0 \$1;
#X obj 429 237 f;
#X obj 330 218 f 1;
#X obj 220 63 inlet;
#X obj 288 117 unpack f f f;
#X obj 220 250 mtof;
#X obj 453 687 outlet~;
#X text 288 93 pitch vel dur;
#X obj 347 158 / 127;
#X obj 220 85 t b l;
#X obj 218 331 sig~ 0.05;
#X msg 331 244 \$1 10;
#X obj 225 276 lop~ 100;
#X obj 675 216 / 127;
#X floatatom 684 281 5 0 0 0 - - -, f 5;
#X obj 675 238 swap 1;
#X obj 675 260 -;
#X text 686 197 key following;
#X obj 437 659 *~;
#X obj 171 325 +~;
#X obj 80 232 osc~;
#X obj 404 199 del 30;
#X obj 464 192 - 30;
#X obj 80 254 *~ 3;
#X obj 95 144 *~ 3;
#X obj 304 530 hip~;
#X obj 219 389 *~ 64;
#X obj 219 433 /~ 64;
#X obj 329 578 bp~ 100 3;
#X obj 417 353 *~;
#X obj 300 506 hip~;
#X obj 325 635 lop~ 10000;
#X obj 444 392 *~;
#X obj 325 657 *~;
#X obj 322 557 *~ 5;
#X obj 350 676 *~ 0.5;
#X connect 0 0 2 0;
#X connect 0 0 33 0;
#X connect 1 0 34 0;
#X connect 2 0 37 0;
#X connect 3 0 5 0;
#X connect 3 0 5 1;
#X connect 4 0 25 0;
#X connect 5 0 36 0;
#X connect 5 0 36 1;
#X connect 6 0 9 0;
#X connect 6 0 28 0;
#X connect 7 0 3 0;
#X connect 8 0 7 0;
#X connect 9 0 18 0;
#X connect 10 0 16 0;
#X connect 11 0 12 0;
#X connect 11 0 20 0;
#X connect 11 1 15 0;
#X connect 11 2 29 0;
#X connect 12 0 19 0;
#X connect 12 0 32 1;
#X connect 12 0 35 1;
#X connect 12 0 37 1;
#X connect 15 0 9 1;
#X connect 16 0 6 0;
#X connect 16 1 11 0;
#X connect 17 0 0 1;
#X connect 18 0 3 0;
#X connect 19 0 26 0;
#X connect 20 0 22 0;
#X connect 22 0 23 0;
#X connect 22 1 23 1;
#X connect 23 0 21 0;
#X connect 23 0 25 1;
#X connect 25 0 13 0;
#X connect 26 0 0 0;
#X connect 27 0 30 0;
#X connect 28 0 8 0;
#X connect 29 0 8 1;
#X connect 30 0 26 1;
#X connect 31 0 27 0;
#X connect 32 0 38 0;
#X connect 32 0 41 0;
#X connect 33 0 1 0;
#X connect 34 0 2 1;
#X connect 35 0 4 0;
#X connect 36 0 31 0;
#X connect 36 0 4 1;
#X connect 36 0 39 0;
#X connect 36 0 39 1;
#X connect 37 0 32 0;
#X connect 38 0 40 0;
#X connect 39 0 40 1;
#X connect 40 0 42 0;
#X connect 41 0 35 0;
#X connect 42 0 4 0;
#X coords 0 784 1 783 40 20 0;
