#N canvas 491 334 327 311 10;
#X obj 66 44 inlet~;
#X obj 161 46 inlet~;
#X obj 107 89 sig~ 1;
#X obj 66 184 *~;
#X obj 161 183 *~;
#X obj 107 128 -~;
#X obj 116 223 +~;
#X obj 116 245 outlet~;
#X obj 242 166 line~;
#X obj 242 146 pack 0 5;
#X obj 188 111 line~;
#X obj 188 91 pack 0 5;
#X obj 242 46 inlet;
#X connect 0 0 3 0;
#X connect 1 0 4 0;
#X connect 2 0 5 0;
#X connect 3 0 6 0;
#X connect 4 0 6 1;
#X connect 5 0 3 1;
#X connect 6 0 7 0;
#X connect 8 0 4 1;
#X connect 9 0 8 0;
#X connect 10 0 5 1;
#X connect 11 0 10 0;
#X connect 12 0 11 0;
#X connect 12 0 9 0;
