#N canvas 561 23 902 855 10;
#X floatatom 290 399 5 0 0 0 - - -, f 5;
#X obj 160 626 outlet~;
#X obj 465 270 t b f;
#N canvas 0 22 315 490 res 0;
#X obj 66 30 inlet;
#X msg 66 281 2, f 1;
#X msg 80 259 1.5;
#X msg 95 237 1, f 1;
#X msg 110 215 0.75;
#X msg 124 192 0.5;
#X msg 139 169 0.375;
#X msg 154 146 0.25;
#X msg 183 103 0.125;
#X obj 232 386 f;
#X obj 232 438 outlet;
#X obj 66 59 route 0 1 2 3 4 5 6 7 8 9;
#X msg 168 124 0.1875;
#X msg 198 81 0.0625;
#X connect 0 0 11 0;
#X connect 1 0 9 0;
#X connect 2 0 9 0;
#X connect 3 0 9 0;
#X connect 4 0 9 0;
#X connect 5 0 9 0;
#X connect 6 0 9 0;
#X connect 7 0 9 0;
#X connect 8 0 9 0;
#X connect 9 0 10 0;
#X connect 11 0 1 0;
#X connect 11 1 2 0;
#X connect 11 2 3 0;
#X connect 11 3 4 0;
#X connect 11 4 5 0;
#X connect 11 5 6 0;
#X connect 11 6 7 0;
#X connect 11 7 12 0;
#X connect 11 8 8 0;
#X connect 11 9 13 0;
#X connect 12 0 9 0;
#X connect 13 0 9 0;
#X restore 465 236 pd res;
#X obj 170 588 delwrite~ \$0dl1 5000;
#X obj 143 524 inlet~;
#X obj 282 261 inlet;
#X obj 282 377 * 1;
#X obj 465 173 inlet;
#X obj 150 337 inlet;
#X obj 150 359 tgl 15 0 empty empty empty 17 7 0 10 -262144 -1 -1 0
1;
#X obj 150 379 moses 1;
#X text 147 320 trigger;
#X obj 199 406 del;
#X obj 160 562 mix2~ -;
#X obj 473 194 loadbang;
#X obj 282 287 f \$1;
#X text 76 261 1 beat time or 1/4 of a cycle \, ms;
#X text 503 174 stut mult 0-9;
#X obj 465 215 f \$2;
#X obj 199 430 f \$3;
#X obj 199 463 t f;
#X obj 581 413 inlet;
#X text 622 413 stut amount in the mix \, 0-1;
#X text 472 499 args:;
#X text 473 520 \$1 beat duration \, ms;
#X text 473 538 \$2 stut multiplier id \, 0-9;
#X text 473 555 \$3 stut amount in the mix \, 0-1;
#X obj 282 463 delread4~ \$0dl1;
#X connect 2 0 16 0;
#X connect 2 1 7 1;
#X connect 3 0 2 0;
#X connect 5 0 14 0;
#X connect 6 0 16 0;
#X connect 7 0 0 0;
#X connect 7 0 13 1;
#X connect 7 0 28 0;
#X connect 8 0 19 0;
#X connect 9 0 10 0;
#X connect 10 0 11 0;
#X connect 11 0 21 0;
#X connect 11 1 13 0;
#X connect 13 0 20 0;
#X connect 14 0 1 0;
#X connect 14 0 4 0;
#X connect 15 0 19 0;
#X connect 16 0 7 0;
#X connect 19 0 3 0;
#X connect 20 0 21 0;
#X connect 21 0 14 2;
#X connect 22 0 20 1;
#X connect 28 0 14 1;
