#N canvas 514 108 401 358 12;
#X obj 72 171 metro 1 64 samp;
#X obj 189 114 inlet;
#X obj 72 197 outlet;
#X obj 223 181 * 64;
#X obj 189 139 max 1;
#X obj 223 231 outlet;
#X obj 223 206 samptoms;
#X text 281 232 ms in tick;
#X obj 72 129 inlet;
#X connect 0 0 2 0;
#X connect 1 0 4 0;
#X connect 3 0 6 0;
#X connect 4 0 0 1;
#X connect 4 0 3 0;
#X connect 6 0 5 0;
#X connect 8 0 0 0;
