{
	"patcher" : 	{
		"fileversion" : 1,
		"appversion" : 		{
			"major" : 7,
			"minor" : 0,
			"revision" : 0,
			"architecture" : "x64",
			"modernui" : 1
		}
,
		"rect" : [ 120.0, 79.0, 741.0, 651.0 ],
		"bglocked" : 0,
		"openinpresentation" : 0,
		"default_fontsize" : 12.0,
		"default_fontface" : 0,
		"default_fontname" : "Arial",
		"gridonopen" : 1,
		"gridsize" : [ 15.0, 15.0 ],
		"gridsnaponopen" : 1,
		"objectsnaponopen" : 1,
		"statusbarvisible" : 2,
		"toolbarvisible" : 1,
		"lefttoolbarpinned" : 0,
		"toptoolbarpinned" : 0,
		"righttoolbarpinned" : 0,
		"bottomtoolbarpinned" : 0,
		"toolbars_unpinned_last_save" : 0,
		"tallnewobj" : 1,
		"boxanimatetime" : 200,
		"enablehscroll" : 1,
		"enablevscroll" : 1,
		"devicewidth" : 0.0,
		"description" : "",
		"digest" : "",
		"tags" : "",
		"style" : "",
		"subpatcher_template" : "",
		"boxes" : [ 			{
				"box" : 				{
					"fontname" : "Arial",
					"fontsize" : 13.0,
					"id" : "obj-9",
					"maxclass" : "newobj",
					"numinlets" : 0,
					"numoutlets" : 2,
					"outlettype" : [ "", "" ],
					"patcher" : 					{
						"fileversion" : 1,
						"appversion" : 						{
							"major" : 7,
							"minor" : 0,
							"revision" : 0,
							"architecture" : "x64",
							"modernui" : 1
						}
,
						"rect" : [ 34.0, 79.0, 368.0, 159.0 ],
						"bglocked" : 0,
						"openinpresentation" : 0,
						"default_fontsize" : 12.0,
						"default_fontface" : 0,
						"default_fontname" : "Arial",
						"gridonopen" : 1,
						"gridsize" : [ 5.0, 5.0 ],
						"gridsnaponopen" : 1,
						"objectsnaponopen" : 1,
						"statusbarvisible" : 2,
						"toolbarvisible" : 1,
						"lefttoolbarpinned" : 0,
						"toptoolbarpinned" : 0,
						"righttoolbarpinned" : 0,
						"bottomtoolbarpinned" : 0,
						"toolbars_unpinned_last_save" : 0,
						"tallnewobj" : 0,
						"boxanimatetime" : 200,
						"enablehscroll" : 1,
						"enablevscroll" : 1,
						"devicewidth" : 0.0,
						"description" : "",
						"digest" : "",
						"tags" : "",
						"style" : "",
						"subpatcher_template" : "",
						"boxes" : [ 							{
								"box" : 								{
									"fontname" : "Arial",
									"fontsize" : 13.0,
									"id" : "obj-3",
									"maxclass" : "newobj",
									"numinlets" : 1,
									"numoutlets" : 1,
									"outlettype" : [ "" ],
									"patching_rect" : [ 163.0, 81.0, 91.0, 23.0 ],
									"style" : "",
									"text" : "loadmess 440"
								}

							}
, 							{
								"box" : 								{
									"comment" : "",
									"id" : "obj-2",
									"maxclass" : "outlet",
									"numinlets" : 1,
									"numoutlets" : 0,
									"patching_rect" : [ 163.0, 121.0, 25.0, 25.0 ],
									"style" : ""
								}

							}
, 							{
								"box" : 								{
									"comment" : "",
									"id" : "obj-1",
									"maxclass" : "outlet",
									"numinlets" : 1,
									"numoutlets" : 0,
									"patching_rect" : [ 13.0, 121.0, 25.0, 25.0 ],
									"style" : ""
								}

							}
, 							{
								"box" : 								{
									"fontname" : "Arial",
									"fontsize" : 13.0,
									"id" : "obj-48",
									"linecount" : 4,
									"maxclass" : "message",
									"numinlets" : 2,
									"numoutlets" : 1,
									"outlettype" : [ "" ],
									"patching_rect" : [ 13.0, 39.0, 130.0, 67.0 ],
									"style" : "",
									"text" : "definepoint none, definethickness 1.2, definerange -1 1, defineline lines"
								}

							}
, 							{
								"box" : 								{
									"fontname" : "Arial",
									"fontsize" : 13.0,
									"id" : "obj-47",
									"maxclass" : "newobj",
									"numinlets" : 1,
									"numoutlets" : 1,
									"outlettype" : [ "bang" ],
									"patching_rect" : [ 13.0, 10.0, 66.0, 23.0 ],
									"style" : "",
									"text" : "loadbang"
								}

							}
 ],
						"lines" : [ 							{
								"patchline" : 								{
									"destination" : [ "obj-2", 0 ],
									"disabled" : 0,
									"hidden" : 0,
									"source" : [ "obj-3", 0 ]
								}

							}
, 							{
								"patchline" : 								{
									"destination" : [ "obj-48", 0 ],
									"disabled" : 0,
									"hidden" : 0,
									"source" : [ "obj-47", 0 ]
								}

							}
, 							{
								"patchline" : 								{
									"destination" : [ "obj-1", 0 ],
									"disabled" : 0,
									"hidden" : 0,
									"source" : [ "obj-48", 0 ]
								}

							}
 ]
					}
,
					"patching_rect" : [ 178.39238, 437.415833, 55.0, 27.0 ],
					"saved_object_attributes" : 					{
						"description" : "",
						"digest" : "",
						"globalpatchername" : "",
						"style" : "",
						"tags" : ""
					}
,
					"style" : "",
					"text" : "p setup"
				}

			}
, 			{
				"box" : 				{
					"bgcolor" : [ 1.0, 1.0, 1.0, 1.0 ],
					"fgcolor" : [ 0.878431, 0.878431, 0.878431, 1.0 ],
					"id" : "obj-6",
					"markercolor" : [ 0.721569, 0.721569, 0.721569, 1.0 ],
					"maxclass" : "spectroscope~",
					"numinlets" : 2,
					"numoutlets" : 1,
					"outlettype" : [ "" ],
					"patching_rect" : [ 399.977814, 539.415833, 220.0, 76.0 ],
					"sonomedcolor" : [ 0.0, 0.74902, 0.498039, 1.0 ],
					"sonomedhicolor" : [ 1.0, 0.74902, 0.0, 1.0 ],
					"sonomedlocolor" : [ 0.498039, 0.0, 0.498039, 1.0 ],
					"style" : ""
				}

			}
, 			{
				"box" : 				{
					"fontname" : "Arial",
					"fontsize" : 13.0,
					"id" : "obj-61",
					"maxclass" : "number",
					"numinlets" : 1,
					"numoutlets" : 2,
					"outlettype" : [ "", "bang" ],
					"parameter_enable" : 0,
					"patching_rect" : [ 178.39238, 473.955444, 50.0, 23.0 ],
					"style" : ""
				}

			}
, 			{
				"box" : 				{
					"fontname" : "Arial",
					"fontsize" : 13.0,
					"id" : "obj-62",
					"maxclass" : "message",
					"numinlets" : 2,
					"numoutlets" : 1,
					"outlettype" : [ "" ],
					"patching_rect" : [ 178.39238, 498.955444, 92.0, 23.0 ],
					"style" : "",
					"text" : "numpoints $1"
				}

			}
, 			{
				"box" : 				{
					"fontname" : "Arial",
					"fontsize" : 13.0,
					"id" : "obj-63",
					"margins" : [ 1.0, 0.0, 1.0, 0.0 ],
					"maxclass" : "plot~",
					"numinlets" : 1,
					"numoutlets" : 1,
					"numpoints" : 440,
					"outlettype" : [ "" ],
					"patching_rect" : [ 178.39238, 539.415833, 219.133331, 76.0 ],
					"subplots" : [ 						{
							"color" : [ 0.4, 0.4, 0.75, 1.0 ],
							"thickness" : 1.2,
							"point_style" : "none",
							"line_style" : "lines",
							"number_style" : "none",
							"filter" : "none",
							"domain_start" : 0.0,
							"domain_end" : 1.0,
							"domain_style" : "linear",
							"domain_markers" : [ 0.0, 0.125, 0.25, 0.375, 0.5, 0.625, 0.75, 0.875, 1.0 ],
							"domain_labels" : [  ],
							"range_start" : -1.0,
							"range_end" : 1.0,
							"range_style" : "linear",
							"range_markers" : [ -0.5, 0.0, 0.5 ],
							"range_labels" : [  ],
							"origin_x" : 0.0,
							"origin_y" : 0.0
						}
 ]
				}

			}
, 			{
				"box" : 				{
					"id" : "obj-54",
					"maxclass" : "newobj",
					"numinlets" : 4,
					"numoutlets" : 4,
					"outlettype" : [ "bang", "bang", "bang", "" ],
					"patching_rect" : [ 115.0, 213.846542, 56.0, 26.0 ],
					"style" : "",
					"text" : "sel 4 5 6"
				}

			}
, 			{
				"box" : 				{
					"id" : "obj-25",
					"maxclass" : "newobj",
					"numinlets" : 5,
					"numoutlets" : 4,
					"outlettype" : [ "int", "", "", "int" ],
					"patching_rect" : [ 115.0, 175.846542, 81.0, 26.0 ],
					"style" : "",
					"text" : "counter 2 3 7"
				}

			}
, 			{
				"box" : 				{
					"id" : "obj-19",
					"maxclass" : "newobj",
					"numinlets" : 1,
					"numoutlets" : 0,
					"patching_rect" : [ 478.977814, 473.955444, 39.0, 26.0 ],
					"style" : "",
					"text" : "s env"
				}

			}
, 			{
				"box" : 				{
					"id" : "obj-53",
					"maxclass" : "number",
					"numinlets" : 1,
					"numoutlets" : 2,
					"outlettype" : [ "", "bang" ],
					"parameter_enable" : 0,
					"patching_rect" : [ 161.0, 37.0, 50.0, 22.0 ],
					"style" : ""
				}

			}
, 			{
				"box" : 				{
					"id" : "obj-51",
					"maxclass" : "newobj",
					"numinlets" : 2,
					"numoutlets" : 1,
					"outlettype" : [ "int" ],
					"patching_rect" : [ 43.757675, 204.846527, 39.0, 26.0 ],
					"style" : "",
					"text" : "+"
				}

			}
, 			{
				"box" : 				{
					"id" : "obj-50",
					"maxclass" : "newobj",
					"numinlets" : 1,
					"numoutlets" : 2,
					"outlettype" : [ "int", "bang" ],
					"patching_rect" : [ 43.757675, 136.0, 39.0, 26.0 ],
					"style" : "",
					"text" : "t i b"
				}

			}
, 			{
				"box" : 				{
					"id" : "obj-41",
					"maxclass" : "toggle",
					"numinlets" : 1,
					"numoutlets" : 1,
					"outlettype" : [ "int" ],
					"parameter_enable" : 0,
					"patching_rect" : [ 115.0, 12.0, 24.0, 24.0 ],
					"style" : ""
				}

			}
, 			{
				"box" : 				{
					"id" : "obj-39",
					"maxclass" : "newobj",
					"numinlets" : 2,
					"numoutlets" : 1,
					"outlettype" : [ "bang" ],
					"patching_rect" : [ 115.0, 65.524765, 65.0, 26.0 ],
					"style" : "",
					"text" : "metro 500"
				}

			}
, 			{
				"box" : 				{
					"id" : "obj-4",
					"maxclass" : "newobj",
					"numinlets" : 1,
					"numoutlets" : 1,
					"outlettype" : [ "" ],
					"patching_rect" : [ 43.757675, 239.846527, 34.0, 26.0 ],
					"style" : "",
					"text" : "mtof"
				}

			}
, 			{
				"box" : 				{
					"format" : 5,
					"id" : "obj-47",
					"maxclass" : "number",
					"numinlets" : 1,
					"numoutlets" : 2,
					"outlettype" : [ "", "bang" ],
					"parameter_enable" : 0,
					"patching_rect" : [ 43.757675, 109.846535, 50.0, 22.0 ],
					"style" : ""
				}

			}
, 			{
				"box" : 				{
					"id" : "obj-42",
					"maxclass" : "preset",
					"numinlets" : 1,
					"numoutlets" : 4,
					"outlettype" : [ "preset", "int", "preset", "int" ],
					"patching_rect" : [ 491.996582, 65.524765, 89.0, 17.0 ],
					"preset_data" : [ 						{
							"number" : 1,
							"data" : [ 5, "obj-24", "flonum", "float", 0.0, 5, "obj-21", "flonum", "float", 60.0, 5, "obj-20", "flonum", "float", 0.2, 4, "obj-14", "function", "clear", 7, "obj-14", "function", "add", 0.0, 3.037368, 0, 7, "obj-14", "function", "add", 1034.560832, 1.876078, 0, 7, "obj-14", "function", "add", 2449.541199, 0.75, 0, 7, "obj-14", "function", "add", 2999.999817, 0.0, 0, 5, "obj-14", "function", "domain", 3000.0, 6, "obj-14", "function", "range", 0.0, 24.0, 5, "obj-14", "function", "mode", 0, 4, "obj-13", "function", "clear", 7, "obj-13", "function", "add", 0.0, 0.0, 0, 7, "obj-13", "function", "add", 71.187553, 0.973651, 0, 7, "obj-13", "function", "add", 608.029658, 0.57817, 0, 7, "obj-13", "function", "add", 1239.608605, 0.320105, 0, 7, "obj-13", "function", "add", 2999.999817, 0.0, 0, 5, "obj-13", "function", "domain", 3000.0, 6, "obj-13", "function", "range", 0.0, 1.0, 5, "obj-13", "function", "mode", 0, 6, "obj-2", "gain~", "list", 96, 10.0, 5, "obj-27", "flonum", "float", 0.2, 5, "obj-30", "flonum", "float", 0.1, 4, "obj-33", "function", "clear", 7, "obj-33", "function", "add", 0.0, 3.037368, 0, 7, "obj-33", "function", "add", 1034.560832, 1.876078, 0, 7, "obj-33", "function", "add", 2449.541199, 0.75, 0, 7, "obj-33", "function", "add", 2999.999817, 0.0, 0, 5, "obj-33", "function", "domain", 3000.0, 6, "obj-33", "function", "range", 0.0, 24.0, 5, "obj-33", "function", "mode", 0, 5, "obj-37", "flonum", "float", 0.1, 5, "obj-47", "number", "int", 60 ]
						}
, 						{
							"number" : 2,
							"data" : [ 5, "obj-24", "flonum", "float", 0.0, 5, "obj-21", "flonum", "float", 123.470825, 5, "obj-20", "flonum", "float", 1.0, 4, "obj-14", "function", "clear", 7, "obj-14", "function", "add", 0.0, 3.037368, 0, 7, "obj-14", "function", "add", 1034.560832, 1.876078, 0, 7, "obj-14", "function", "add", 2449.541199, 0.75, 0, 7, "obj-14", "function", "add", 2999.999817, 0.0, 0, 5, "obj-14", "function", "domain", 3000.0, 6, "obj-14", "function", "range", 0.0, 24.0, 5, "obj-14", "function", "mode", 0, 4, "obj-13", "function", "clear", 7, "obj-13", "function", "add", 0.0, 0.0, 0, 7, "obj-13", "function", "add", 71.187553, 0.973651, 0, 7, "obj-13", "function", "add", 608.029658, 0.57817, 0, 7, "obj-13", "function", "add", 1239.608605, 0.320105, 0, 7, "obj-13", "function", "add", 2999.999817, 0.0, 0, 5, "obj-13", "function", "domain", 3000.0, 6, "obj-13", "function", "range", 0.0, 1.0, 5, "obj-13", "function", "mode", 0, 6, "obj-2", "gain~", "list", 96, 10.0, 5, "obj-27", "flonum", "float", 2.5, 5, "obj-30", "flonum", "float", 0.972, 4, "obj-33", "function", "clear", 7, "obj-33", "function", "add", 0.0, 3.037368, 0, 7, "obj-33", "function", "add", 1034.560832, 1.876078, 0, 7, "obj-33", "function", "add", 2449.541199, 0.75, 0, 7, "obj-33", "function", "add", 2999.999817, 0.0, 0, 5, "obj-33", "function", "domain", 3000.0, 6, "obj-33", "function", "range", 0.0, 24.0, 5, "obj-33", "function", "mode", 0, 5, "obj-37", "flonum", "float", 1.0, 5, "obj-47", "number", "int", 47 ]
						}
, 						{
							"number" : 3,
							"data" : [ 5, "obj-24", "flonum", "float", 300.0, 5, "obj-21", "flonum", "float", 6271.926758, 5, "obj-20", "flonum", "float", 0.75, 4, "obj-14", "function", "clear", 7, "obj-14", "function", "add", 0.0, 3.037368, 0, 7, "obj-14", "function", "add", 103.456083, 1.876078, 0, 7, "obj-14", "function", "add", 244.95412, 0.75, 0, 7, "obj-14", "function", "add", 299.999982, 0.0, 0, 5, "obj-14", "function", "domain", 300.0, 6, "obj-14", "function", "range", 0.0, 24.0, 5, "obj-14", "function", "mode", 0, 4, "obj-13", "function", "clear", 7, "obj-13", "function", "add", 0.0, 0.0, 0, 7, "obj-13", "function", "add", 4.771873, 0.998004, 0, 7, "obj-13", "function", "add", 26.877136, 0.06252, 0, 7, "obj-13", "function", "add", 36.35082, 0.804455, 0, 7, "obj-13", "function", "add", 53.719241, 0.22381, 0, 7, "obj-13", "function", "add", 64.771873, 0.675423, 0, 7, "obj-13", "function", "add", 86.877136, 0.304455, 0, 7, "obj-13", "function", "add", 299.999982, 0.0, 0, 5, "obj-13", "function", "domain", 300.0, 6, "obj-13", "function", "range", 0.0, 1.0, 5, "obj-13", "function", "mode", 0, 6, "obj-2", "gain~", "list", 95, 10.0, 5, "obj-27", "flonum", "float", 1.0, 5, "obj-30", "flonum", "float", 0.972, 4, "obj-33", "function", "clear", 7, "obj-33", "function", "add", 0.0, 3.037368, 0, 7, "obj-33", "function", "add", 103.456083, 1.876078, 0, 7, "obj-33", "function", "add", 244.95412, 0.75, 0, 7, "obj-33", "function", "add", 299.999982, 0.0, 0, 5, "obj-33", "function", "domain", 300.0, 6, "obj-33", "function", "range", 0.0, 24.0, 5, "obj-33", "function", "mode", 0, 5, "obj-37", "flonum", "float", 1.0, 5, "obj-47", "number", "int", 96, 5, "obj-41", "toggle", "int", 1, 5, "obj-53", "number", "int", 150 ]
						}
, 						{
							"number" : 4,
							"data" : [ 5, "obj-24", "flonum", "float", 1500.0, 5, "obj-21", "flonum", "float", 2959.955322, 5, "obj-20", "flonum", "float", 0.247, 4, "obj-14", "function", "clear", 7, "obj-14", "function", "add", 0.0, 3.037368, 0, 7, "obj-14", "function", "add", 517.280416, 1.876078, 0, 7, "obj-14", "function", "add", 1224.770599, 0.75, 0, 7, "obj-14", "function", "add", 1499.999908, 0.0, 0, 5, "obj-14", "function", "domain", 1500.0, 6, "obj-14", "function", "range", 0.0, 24.0, 5, "obj-14", "function", "mode", 0, 4, "obj-13", "function", "clear", 7, "obj-13", "function", "add", 0.0, 0.0, 0, 7, "obj-13", "function", "add", 23.859363, 0.998004, 0, 7, "obj-13", "function", "add", 134.385679, 0.06252, 0, 7, "obj-13", "function", "add", 181.7541, 0.804455, 0, 7, "obj-13", "function", "add", 268.596205, 0.22381, 0, 7, "obj-13", "function", "add", 323.859363, 0.675423, 0, 7, "obj-13", "function", "add", 434.385679, 0.304455, 0, 7, "obj-13", "function", "add", 1499.999908, 0.0, 0, 5, "obj-13", "function", "domain", 1500.0, 6, "obj-13", "function", "range", 0.0, 1.0, 5, "obj-13", "function", "mode", 0, 6, "obj-2", "gain~", "list", 89, 10.0, 5, "obj-27", "flonum", "float", 0.5, 5, "obj-30", "flonum", "float", 0.247, 4, "obj-33", "function", "clear", 7, "obj-33", "function", "add", 0.0, 3.037368, 0, 7, "obj-33", "function", "add", 517.280416, 1.876078, 0, 7, "obj-33", "function", "add", 1224.770599, 0.75, 0, 7, "obj-33", "function", "add", 1499.999908, 0.0, 0, 5, "obj-33", "function", "domain", 1500.0, 6, "obj-33", "function", "range", 0.0, 24.0, 5, "obj-33", "function", "mode", 0, 5, "obj-37", "flonum", "float", 1.0, 5, "obj-47", "number", "int", 96, 5, "obj-41", "toggle", "int", 1, 5, "obj-53", "number", "int", 500 ]
						}
, 						{
							"number" : 5,
							"data" : [ 5, "obj-24", "flonum", "float", 1500.0, 5, "obj-21", "flonum", "float", 391.995422, 5, "obj-20", "flonum", "float", 0.247, 4, "obj-14", "function", "clear", 7, "obj-14", "function", "add", 0.0, 3.037368, 0, 7, "obj-14", "function", "add", 517.280416, 1.876078, 0, 7, "obj-14", "function", "add", 1224.770599, 0.75, 0, 7, "obj-14", "function", "add", 1499.999908, 0.0, 0, 5, "obj-14", "function", "domain", 1500.0, 6, "obj-14", "function", "range", 0.0, 24.0, 5, "obj-14", "function", "mode", 0, 4, "obj-13", "function", "clear", 7, "obj-13", "function", "add", 0.0, 0.0, 0, 7, "obj-13", "function", "add", 23.859363, 0.998004, 0, 7, "obj-13", "function", "add", 134.385679, 0.06252, 0, 7, "obj-13", "function", "add", 181.7541, 0.804455, 0, 7, "obj-13", "function", "add", 268.596205, 0.22381, 0, 7, "obj-13", "function", "add", 323.859363, 0.675423, 0, 7, "obj-13", "function", "add", 434.385679, 0.304455, 0, 7, "obj-13", "function", "add", 1500.0, 0.0, 0, 5, "obj-13", "function", "domain", 1500.0, 6, "obj-13", "function", "range", 0.0, 1.0, 5, "obj-13", "function", "mode", 0, 6, "obj-2", "gain~", "list", 76, 10.0, 5, "obj-27", "flonum", "float", 0.5, 5, "obj-30", "flonum", "float", 0.247, 4, "obj-33", "function", "clear", 7, "obj-33", "function", "add", 0.0, 3.037368, 0, 7, "obj-33", "function", "add", 517.280416, 1.876078, 0, 7, "obj-33", "function", "add", 1224.770599, 0.75, 0, 7, "obj-33", "function", "add", 1499.999908, 0.0, 0, 5, "obj-33", "function", "domain", 1500.0, 6, "obj-33", "function", "range", 0.0, 24.0, 5, "obj-33", "function", "mode", 0, 5, "obj-37", "flonum", "float", 1.0, 5, "obj-47", "number", "int", 60, 5, "obj-41", "toggle", "int", 1, 5, "obj-53", "number", "int", 250 ]
						}
, 						{
							"number" : 6,
							"data" : [ 5, "obj-24", "flonum", "float", 200.0, 5, "<invalid>", "flonum", "float", 1046.599976, 5, "obj-20", "flonum", "float", 1.0, 4, "obj-14", "function", "clear", 6, "obj-14", "function", "add", 0.0, 1.875, 6, "obj-14", "function", "add", 51.376144, 0.375, 6, "obj-14", "function", "add", 199.999985, 0.0, 4, "obj-13", "function", "clear", 6, "obj-13", "function", "add", 0.0, 1.0, 6, "obj-13", "function", "add", 49.541283, 0.125, 6, "obj-13", "function", "add", 135.779816, 0.015625, 6, "obj-13", "function", "add", 199.999985, 0.0 ]
						}
, 						{
							"number" : 7,
							"data" : [ 5, "obj-24", "flonum", "float", 2000.0, 5, "obj-21", "flonum", "float", 311.126984, 5, "obj-20", "flonum", "float", 0.247, 4, "obj-14", "function", "clear", 7, "obj-14", "function", "add", 0.0, 3.037368, 0, 7, "obj-14", "function", "add", 689.707221, 1.876078, 0, 7, "obj-14", "function", "add", 1633.027466, 0.75, 0, 7, "obj-14", "function", "add", 1999.999878, 0.0, 0, 5, "obj-14", "function", "domain", 2000.0, 6, "obj-14", "function", "range", 0.0, 24.0, 5, "obj-14", "function", "mode", 0, 4, "obj-13", "function", "clear", 7, "obj-13", "function", "add", 0.0, 0.0, 0, 7, "obj-13", "function", "add", 31.812484, 0.998004, 0, 7, "obj-13", "function", "add", 179.180905, 0.06252, 0, 7, "obj-13", "function", "add", 242.3388, 0.804455, 0, 7, "obj-13", "function", "add", 358.128274, 0.22381, 0, 7, "obj-13", "function", "add", 431.812484, 0.675423, 0, 7, "obj-13", "function", "add", 579.180905, 0.304455, 0, 7, "obj-13", "function", "add", 2000.0, 0.0, 0, 5, "obj-13", "function", "domain", 2000.0, 6, "obj-13", "function", "range", 0.0, 1.0, 5, "obj-13", "function", "mode", 0, 6, "obj-2", "gain~", "list", 72, 10.0, 5, "obj-27", "flonum", "float", 0.9, 5, "obj-30", "flonum", "float", 2.06, 4, "obj-33", "function", "clear", 7, "obj-33", "function", "add", 0.0, 3.037368, 0, 7, "obj-33", "function", "add", 689.707221, 1.876078, 0, 7, "obj-33", "function", "add", 1633.027466, 0.75, 0, 7, "obj-33", "function", "add", 1999.999878, 0.0, 0, 5, "obj-33", "function", "domain", 2000.0, 6, "obj-33", "function", "range", 0.0, 24.0, 5, "obj-33", "function", "mode", 0, 5, "obj-37", "flonum", "float", 0.15, 5, "obj-47", "number", "int", 60, 5, "obj-41", "toggle", "int", 1, 5, "obj-53", "number", "int", 250 ]
						}
, 						{
							"number" : 8,
							"data" : [ 5, "obj-24", "flonum", "float", 2000.0, 5, "<invalid>", "flonum", "float", 61.400002, 5, "obj-20", "flonum", "float", 2.5, 4, "obj-14", "function", "clear", 6, "obj-14", "function", "add", 0.0, 8.25, 6, "obj-14", "function", "add", 660.550415, 23.25, 6, "obj-14", "function", "add", 1045.87146, 7.875, 6, "obj-14", "function", "add", 1357.798096, 10.875, 6, "obj-14", "function", "add", 1541.284302, 1.875, 6, "obj-14", "function", "add", 1743.119141, 3.0, 6, "obj-14", "function", "add", 1999.999756, 0.0, 4, "obj-13", "function", "clear", 6, "obj-13", "function", "add", 0.0, 0.0, 6, "obj-13", "function", "add", 36.697247, 1.0, 6, "obj-13", "function", "add", 348.62384, 0.703125, 6, "obj-13", "function", "add", 1357.798096, 0.671875, 6, "obj-13", "function", "add", 1761.467773, 0.078125, 6, "obj-13", "function", "add", 1999.999756, 0.0 ]
						}
 ],
					"style" : ""
				}

			}
, 			{
				"box" : 				{
					"id" : "obj-43",
					"maxclass" : "comment",
					"numinlets" : 1,
					"numoutlets" : 0,
					"patching_rect" : [ 491.996582, 42.668316, 100.0, 20.0 ],
					"style" : "",
					"text" : "FM tone settings"
				}

			}
, 			{
				"box" : 				{
					"id" : "obj-38",
					"maxclass" : "message",
					"numinlets" : 2,
					"numoutlets" : 1,
					"outlettype" : [ "" ],
					"patching_rect" : [ 43.757675, 309.143585, 51.0, 22.0 ],
					"style" : "",
					"text" : "note $1"
				}

			}
, 			{
				"box" : 				{
					"id" : "obj-22",
					"maxclass" : "newobj",
					"numinlets" : 5,
					"numoutlets" : 1,
					"outlettype" : [ "signal" ],
					"patching_rect" : [ 43.757675, 344.004944, 410.945435, 26.0 ],
					"style" : "",
					"text" : "poly~ 2opFMvoice 8"
				}

			}
, 			{
				"box" : 				{
					"id" : "obj-36",
					"maxclass" : "newobj",
					"numinlets" : 1,
					"numoutlets" : 1,
					"outlettype" : [ "signal" ],
					"patching_rect" : [ 435.703125, 305.143585, 34.0, 26.0 ],
					"style" : "",
					"text" : "sig~"
				}

			}
, 			{
				"box" : 				{
					"format" : 6,
					"id" : "obj-37",
					"maxclass" : "flonum",
					"numinlets" : 1,
					"numoutlets" : 2,
					"outlettype" : [ "", "bang" ],
					"parameter_enable" : 0,
					"patching_rect" : [ 435.703125, 275.242584, 50.0, 22.0 ],
					"style" : ""
				}

			}
, 			{
				"box" : 				{
					"id" : "obj-34",
					"maxclass" : "comment",
					"numinlets" : 1,
					"numoutlets" : 0,
					"patching_rect" : [ 433.450562, 253.242584, 78.0, 20.0 ],
					"style" : "",
					"text" : "Mod Index 2"
				}

			}
, 			{
				"box" : 				{
					"id" : "obj-35",
					"maxclass" : "newobj",
					"numinlets" : 2,
					"numoutlets" : 2,
					"outlettype" : [ "signal", "bang" ],
					"patching_rect" : [ 491.996582, 305.143585, 37.0, 26.0 ],
					"style" : "",
					"text" : "line~"
				}

			}
, 			{
				"box" : 				{
					"addpoints" : [ 0.0, 3.037368, 0, 689.707221, 1.876078, 0, 1633.027466, 0.75, 0, 1999.999878, 0.0, 0 ],
					"domain" : 2000.0,
					"id" : "obj-33",
					"maxclass" : "function",
					"numinlets" : 1,
					"numoutlets" : 4,
					"outlettype" : [ "float", "", "", "bang" ],
					"parameter_enable" : 0,
					"patching_rect" : [ 430.996582, 114.846535, 202.0, 87.0 ],
					"range" : [ 0.0, 24.0 ],
					"style" : ""
				}

			}
, 			{
				"box" : 				{
					"id" : "obj-26",
					"maxclass" : "newobj",
					"numinlets" : 1,
					"numoutlets" : 1,
					"outlettype" : [ "signal" ],
					"patching_rect" : [ 337.716736, 305.143585, 34.0, 26.0 ],
					"style" : "",
					"text" : "sig~"
				}

			}
, 			{
				"box" : 				{
					"id" : "obj-29",
					"maxclass" : "comment",
					"numinlets" : 1,
					"numoutlets" : 0,
					"patching_rect" : [ 336.590454, 253.242584, 79.0, 20.0 ],
					"style" : "",
					"text" : "Harm Ratio 2"
				}

			}
, 			{
				"box" : 				{
					"format" : 6,
					"id" : "obj-30",
					"maxclass" : "flonum",
					"minimum" : 0.0,
					"numinlets" : 1,
					"numoutlets" : 2,
					"outlettype" : [ "", "bang" ],
					"parameter_enable" : 0,
					"patching_rect" : [ 337.716736, 275.242584, 62.0, 22.0 ],
					"style" : "numberGold-1",
					"triscale" : 0.9
				}

			}
, 			{
				"box" : 				{
					"id" : "obj-28",
					"maxclass" : "newobj",
					"numinlets" : 1,
					"numoutlets" : 1,
					"outlettype" : [ "signal" ],
					"patching_rect" : [ 239.730392, 305.143585, 34.0, 26.0 ],
					"style" : "",
					"text" : "sig~"
				}

			}
, 			{
				"box" : 				{
					"format" : 6,
					"id" : "obj-27",
					"maxclass" : "flonum",
					"numinlets" : 1,
					"numoutlets" : 2,
					"outlettype" : [ "", "bang" ],
					"parameter_enable" : 0,
					"patching_rect" : [ 239.730392, 275.242584, 50.0, 22.0 ],
					"style" : ""
				}

			}
, 			{
				"box" : 				{
					"id" : "obj-2",
					"interpinlet" : 1,
					"maxclass" : "gain~",
					"numinlets" : 2,
					"numoutlets" : 2,
					"orientation" : 2,
					"outlettype" : [ "signal", "int" ],
					"parameter_enable" : 0,
					"patching_rect" : [ 43.757675, 382.415833, 28.0, 77.0 ],
					"style" : ""
				}

			}
, 			{
				"box" : 				{
					"id" : "obj-3",
					"maxclass" : "newobj",
					"numinlets" : 1,
					"numoutlets" : 1,
					"outlettype" : [ "signal" ],
					"patching_rect" : [ 141.744034, 305.143585, 34.0, 26.0 ],
					"style" : "",
					"text" : "sig~"
				}

			}
, 			{
				"box" : 				{
					"id" : "obj-7",
					"maxclass" : "button",
					"numinlets" : 1,
					"numoutlets" : 1,
					"outlettype" : [ "bang" ],
					"patching_rect" : [ 43.757675, 42.668316, 24.0, 24.0 ],
					"style" : "buttonGold"
				}

			}
, 			{
				"box" : 				{
					"id" : "obj-8",
					"maxclass" : "comment",
					"numinlets" : 1,
					"numoutlets" : 0,
					"patching_rect" : [ 71.0, 42.668316, 72.0, 20.0 ],
					"style" : "",
					"text" : "Play a note"
				}

			}
, 			{
				"box" : 				{
					"id" : "obj-10",
					"maxclass" : "comment",
					"numinlets" : 1,
					"numoutlets" : 0,
					"patching_rect" : [ 237.477829, 253.242584, 76.0, 20.0 ],
					"style" : "",
					"text" : "Mod Index 1"
				}

			}
, 			{
				"box" : 				{
					"id" : "obj-11",
					"maxclass" : "comment",
					"numinlets" : 1,
					"numoutlets" : 0,
					"patching_rect" : [ 282.477814, 37.0, 57.0, 20.0 ],
					"style" : "",
					"text" : "Duration"
				}

			}
, 			{
				"box" : 				{
					"bgfillcolor_angle" : 270.0,
					"bgfillcolor_autogradient" : 0.0,
					"bgfillcolor_color" : [ 0.290196, 0.309804, 0.301961, 1.0 ],
					"bgfillcolor_color1" : [ 0.454902, 0.462745, 0.482353, 1.0 ],
					"bgfillcolor_color2" : [ 0.290196, 0.309804, 0.301961, 1.0 ],
					"bgfillcolor_proportion" : 0.39,
					"bgfillcolor_type" : "gradient",
					"id" : "obj-12",
					"maxclass" : "message",
					"numinlets" : 2,
					"numoutlets" : 1,
					"outlettype" : [ "" ],
					"patching_rect" : [ 221.477814, 72.742577, 84.0, 22.0 ],
					"style" : "",
					"text" : "setdomain $1"
				}

			}
, 			{
				"box" : 				{
					"addpoints" : [ 0.0, 0.0, 0, 31.812484, 0.998004, 0, 179.180905, 0.06252, 0, 242.3388, 0.804455, 0, 358.128274, 0.22381, 0, 431.812484, 0.675423, 0, 579.180905, 0.304455, 0, 2000.0, 0.0, 0 ],
					"domain" : 2000.0,
					"id" : "obj-13",
					"maxclass" : "function",
					"numinlets" : 1,
					"numoutlets" : 4,
					"outlettype" : [ "float", "", "", "bang" ],
					"parameter_enable" : 0,
					"patching_rect" : [ 417.977814, 377.415833, 202.0, 87.0 ],
					"style" : ""
				}

			}
, 			{
				"box" : 				{
					"addpoints" : [ 0.0, 3.037368, 0, 689.707221, 1.876078, 0, 1633.027466, 0.75, 0, 1999.999878, 0.0, 0 ],
					"domain" : 2000.0,
					"id" : "obj-14",
					"maxclass" : "function",
					"numinlets" : 1,
					"numoutlets" : 4,
					"outlettype" : [ "float", "", "", "bang" ],
					"parameter_enable" : 0,
					"patching_rect" : [ 221.477814, 114.846535, 202.0, 87.0 ],
					"range" : [ 0.0, 24.0 ],
					"style" : ""
				}

			}
, 			{
				"box" : 				{
					"id" : "obj-15",
					"maxclass" : "comment",
					"numinlets" : 1,
					"numoutlets" : 0,
					"patching_rect" : [ 141.744019, 253.242584, 80.0, 20.0 ],
					"style" : "",
					"text" : "Harm Ratio 1"
				}

			}
, 			{
				"box" : 				{
					"id" : "obj-16",
					"local" : 1,
					"maxclass" : "ezdac~",
					"numinlets" : 2,
					"numoutlets" : 0,
					"patching_rect" : [ 43.757675, 537.955444, 44.0, 44.0 ],
					"prototypename" : "helpfile",
					"style" : ""
				}

			}
, 			{
				"box" : 				{
					"id" : "obj-17",
					"maxclass" : "newobj",
					"numinlets" : 2,
					"numoutlets" : 2,
					"outlettype" : [ "signal", "bang" ],
					"patching_rect" : [ 282.477814, 305.143585, 37.0, 26.0 ],
					"style" : "",
					"text" : "line~"
				}

			}
, 			{
				"box" : 				{
					"format" : 6,
					"id" : "obj-20",
					"maxclass" : "flonum",
					"minimum" : 0.0,
					"numinlets" : 1,
					"numoutlets" : 2,
					"outlettype" : [ "", "bang" ],
					"parameter_enable" : 0,
					"patching_rect" : [ 141.744034, 275.242584, 62.0, 22.0 ],
					"style" : "numberGold-1",
					"triscale" : 0.9
				}

			}
, 			{
				"box" : 				{
					"format" : 6,
					"id" : "obj-21",
					"maxclass" : "flonum",
					"numinlets" : 1,
					"numoutlets" : 2,
					"outlettype" : [ "", "bang" ],
					"parameter_enable" : 0,
					"patching_rect" : [ 43.757675, 275.242584, 63.0, 22.0 ],
					"style" : ""
				}

			}
, 			{
				"box" : 				{
					"id" : "obj-23",
					"maxclass" : "comment",
					"numinlets" : 1,
					"numoutlets" : 0,
					"patching_rect" : [ 84.757675, 253.242584, 22.0, 20.0 ],
					"style" : "",
					"text" : "Fc"
				}

			}
, 			{
				"box" : 				{
					"format" : 6,
					"id" : "obj-24",
					"maxclass" : "flonum",
					"minimum" : 0.0,
					"numinlets" : 1,
					"numoutlets" : 2,
					"outlettype" : [ "", "bang" ],
					"parameter_enable" : 0,
					"patching_rect" : [ 221.477814, 37.0, 62.0, 22.0 ],
					"style" : "numberGold-1",
					"triscale" : 0.9
				}

			}
 ],
		"lines" : [ 			{
				"patchline" : 				{
					"destination" : [ "obj-13", 0 ],
					"disabled" : 0,
					"hidden" : 0,
					"midpoints" : [ 230.977814, 103.410889, 427.477814, 103.410889 ],
					"source" : [ "obj-12", 0 ]
				}

			}
, 			{
				"patchline" : 				{
					"destination" : [ "obj-14", 0 ],
					"disabled" : 0,
					"hidden" : 0,
					"source" : [ "obj-12", 0 ]
				}

			}
, 			{
				"patchline" : 				{
					"destination" : [ "obj-33", 0 ],
					"disabled" : 0,
					"hidden" : 0,
					"midpoints" : [ 230.977814, 103.294556, 440.496582, 103.294556 ],
					"source" : [ "obj-12", 0 ]
				}

			}
, 			{
				"patchline" : 				{
					"destination" : [ "obj-19", 0 ],
					"disabled" : 0,
					"hidden" : 0,
					"source" : [ "obj-13", 1 ]
				}

			}
, 			{
				"patchline" : 				{
					"destination" : [ "obj-17", 0 ],
					"disabled" : 0,
					"hidden" : 0,
					"source" : [ "obj-14", 1 ]
				}

			}
, 			{
				"patchline" : 				{
					"destination" : [ "obj-16", 1 ],
					"disabled" : 0,
					"hidden" : 0,
					"source" : [ "obj-2", 0 ]
				}

			}
, 			{
				"patchline" : 				{
					"destination" : [ "obj-16", 0 ],
					"disabled" : 0,
					"hidden" : 0,
					"source" : [ "obj-2", 0 ]
				}

			}
, 			{
				"patchline" : 				{
					"destination" : [ "obj-6", 0 ],
					"disabled" : 0,
					"hidden" : 0,
					"midpoints" : [ 53.257675, 529.915833, 409.477814, 529.915833 ],
					"source" : [ "obj-2", 0 ]
				}

			}
, 			{
				"patchline" : 				{
					"destination" : [ "obj-63", 0 ],
					"disabled" : 0,
					"hidden" : 0,
					"midpoints" : [ 53.257675, 528.915833, 187.89238, 528.915833 ],
					"source" : [ "obj-2", 0 ]
				}

			}
, 			{
				"patchline" : 				{
					"destination" : [ "obj-3", 0 ],
					"disabled" : 0,
					"hidden" : 0,
					"source" : [ "obj-20", 0 ]
				}

			}
, 			{
				"patchline" : 				{
					"destination" : [ "obj-38", 0 ],
					"disabled" : 0,
					"hidden" : 0,
					"source" : [ "obj-21", 0 ]
				}

			}
, 			{
				"patchline" : 				{
					"destination" : [ "obj-2", 0 ],
					"disabled" : 0,
					"hidden" : 0,
					"source" : [ "obj-22", 0 ]
				}

			}
, 			{
				"patchline" : 				{
					"destination" : [ "obj-12", 0 ],
					"disabled" : 0,
					"hidden" : 0,
					"source" : [ "obj-24", 0 ]
				}

			}
, 			{
				"patchline" : 				{
					"destination" : [ "obj-54", 0 ],
					"disabled" : 0,
					"hidden" : 0,
					"source" : [ "obj-25", 0 ]
				}

			}
, 			{
				"patchline" : 				{
					"destination" : [ "obj-22", 3 ],
					"disabled" : 0,
					"hidden" : 0,
					"source" : [ "obj-26", 0 ]
				}

			}
, 			{
				"patchline" : 				{
					"destination" : [ "obj-28", 0 ],
					"disabled" : 0,
					"hidden" : 0,
					"source" : [ "obj-27", 0 ]
				}

			}
, 			{
				"patchline" : 				{
					"destination" : [ "obj-22", 2 ],
					"disabled" : 0,
					"hidden" : 0,
					"source" : [ "obj-28", 0 ]
				}

			}
, 			{
				"patchline" : 				{
					"destination" : [ "obj-22", 1 ],
					"disabled" : 0,
					"hidden" : 0,
					"source" : [ "obj-3", 0 ]
				}

			}
, 			{
				"patchline" : 				{
					"destination" : [ "obj-26", 0 ],
					"disabled" : 0,
					"hidden" : 0,
					"source" : [ "obj-30", 0 ]
				}

			}
, 			{
				"patchline" : 				{
					"destination" : [ "obj-35", 0 ],
					"disabled" : 0,
					"hidden" : 0,
					"source" : [ "obj-33", 1 ]
				}

			}
, 			{
				"patchline" : 				{
					"destination" : [ "obj-22", 4 ],
					"disabled" : 0,
					"hidden" : 0,
					"source" : [ "obj-36", 0 ]
				}

			}
, 			{
				"patchline" : 				{
					"destination" : [ "obj-36", 0 ],
					"disabled" : 0,
					"hidden" : 0,
					"source" : [ "obj-37", 0 ]
				}

			}
, 			{
				"patchline" : 				{
					"destination" : [ "obj-22", 0 ],
					"disabled" : 0,
					"hidden" : 0,
					"source" : [ "obj-38", 0 ]
				}

			}
, 			{
				"patchline" : 				{
					"destination" : [ "obj-7", 0 ],
					"disabled" : 0,
					"hidden" : 0,
					"source" : [ "obj-39", 0 ]
				}

			}
, 			{
				"patchline" : 				{
					"destination" : [ "obj-21", 0 ],
					"disabled" : 0,
					"hidden" : 0,
					"source" : [ "obj-4", 0 ]
				}

			}
, 			{
				"patchline" : 				{
					"destination" : [ "obj-39", 0 ],
					"disabled" : 0,
					"hidden" : 0,
					"source" : [ "obj-41", 0 ]
				}

			}
, 			{
				"patchline" : 				{
					"destination" : [ "obj-50", 0 ],
					"disabled" : 0,
					"hidden" : 0,
					"source" : [ "obj-47", 0 ]
				}

			}
, 			{
				"patchline" : 				{
					"destination" : [ "obj-25", 0 ],
					"disabled" : 0,
					"hidden" : 0,
					"source" : [ "obj-50", 1 ]
				}

			}
, 			{
				"patchline" : 				{
					"destination" : [ "obj-51", 0 ],
					"disabled" : 0,
					"hidden" : 0,
					"source" : [ "obj-50", 0 ]
				}

			}
, 			{
				"patchline" : 				{
					"destination" : [ "obj-4", 0 ],
					"disabled" : 0,
					"hidden" : 0,
					"source" : [ "obj-51", 0 ]
				}

			}
, 			{
				"patchline" : 				{
					"destination" : [ "obj-39", 1 ],
					"disabled" : 0,
					"hidden" : 0,
					"source" : [ "obj-53", 0 ]
				}

			}
, 			{
				"patchline" : 				{
					"destination" : [ "obj-51", 1 ],
					"disabled" : 0,
					"hidden" : 0,
					"source" : [ "obj-54", 3 ]
				}

			}
, 			{
				"patchline" : 				{
					"destination" : [ "obj-62", 0 ],
					"disabled" : 0,
					"hidden" : 1,
					"source" : [ "obj-61", 0 ]
				}

			}
, 			{
				"patchline" : 				{
					"destination" : [ "obj-63", 0 ],
					"disabled" : 0,
					"hidden" : 0,
					"midpoints" : [ 187.89238, 534.415833, 187.89238, 534.415833 ],
					"source" : [ "obj-62", 0 ]
				}

			}
, 			{
				"patchline" : 				{
					"destination" : [ "obj-13", 0 ],
					"disabled" : 0,
					"hidden" : 0,
					"midpoints" : [ 53.257675, 103.410889, 427.477814, 103.410889 ],
					"source" : [ "obj-7", 0 ]
				}

			}
, 			{
				"patchline" : 				{
					"destination" : [ "obj-14", 0 ],
					"disabled" : 0,
					"hidden" : 0,
					"midpoints" : [ 53.257675, 103.410889, 230.977814, 103.410889 ],
					"source" : [ "obj-7", 0 ]
				}

			}
, 			{
				"patchline" : 				{
					"destination" : [ "obj-33", 0 ],
					"disabled" : 0,
					"hidden" : 0,
					"midpoints" : [ 53.257675, 102.257425, 440.496582, 102.257425 ],
					"source" : [ "obj-7", 0 ]
				}

			}
, 			{
				"patchline" : 				{
					"destination" : [ "obj-47", 0 ],
					"disabled" : 0,
					"hidden" : 0,
					"source" : [ "obj-7", 0 ]
				}

			}
, 			{
				"patchline" : 				{
					"destination" : [ "obj-61", 0 ],
					"disabled" : 0,
					"hidden" : 0,
					"source" : [ "obj-9", 1 ]
				}

			}
, 			{
				"patchline" : 				{
					"destination" : [ "obj-63", 0 ],
					"disabled" : 0,
					"hidden" : 0,
					"source" : [ "obj-9", 0 ]
				}

			}
 ],
		"dependency_cache" : [ 			{
				"name" : "2opFMvoice.maxpat",
				"bootpath" : "~/Desktop/expl_FM/2opFM_poly",
				"patcherrelativepath" : ".",
				"type" : "JSON",
				"implicit" : 1
			}
 ],
		"embedsnapshot" : 0,
		"styles" : [ 			{
				"name" : "AudioStatus_Menu",
				"default" : 				{
					"bgfillcolor" : 					{
						"type" : "color",
						"color" : [ 0.294118, 0.313726, 0.337255, 1 ],
						"color1" : [ 0.454902, 0.462745, 0.482353, 0.0 ],
						"color2" : [ 0.290196, 0.309804, 0.301961, 1.0 ],
						"angle" : 270.0,
						"proportion" : 0.39,
						"autogradient" : 0
					}

				}
,
				"parentstyle" : "",
				"multi" : 0
			}
, 			{
				"name" : "newobjBlue-1",
				"default" : 				{
					"accentcolor" : [ 0.317647, 0.654902, 0.976471, 1.0 ]
				}
,
				"parentstyle" : "",
				"multi" : 0
			}
, 			{
				"name" : "newobjGreen-1",
				"default" : 				{
					"accentcolor" : [ 0.0, 0.533333, 0.168627, 1.0 ]
				}
,
				"parentstyle" : "",
				"multi" : 0
			}
, 			{
				"name" : "newobjYellow-1",
				"default" : 				{
					"accentcolor" : [ 0.82517, 0.78181, 0.059545, 1.0 ],
					"fontsize" : [ 12.059008 ]
				}
,
				"parentstyle" : "",
				"multi" : 0
			}
, 			{
				"name" : "numberGold-1",
				"default" : 				{
					"accentcolor" : [ 0.764706, 0.592157, 0.101961, 1.0 ]
				}
,
				"parentstyle" : "",
				"multi" : 0
			}
 ]
	}

}
