#N canvas 0 0 814 565 12;
#X msg 448 -48 bang;
#X obj 448 102 t f f;
#X msg 532 8 1;
#X obj 624 -22 t b f;
#X obj 117 51 dbtorms;
#X obj 624 -52 / 2;
#X obj 448 141 expr ($f3/$f1)*($f2 + $f1 -1);
#X obj 604 178 + 1;
#X obj 448 214 tabwrite hfa;
#X obj 29 56 *~;
#X obj 28 13 noise~;
#X floatatom 604 215 5 0 0 0 - - -;
#X obj 448 -20 t b b;
#N canvas 0 0 470 320 iterate 0;
#X obj 60 70 f;
#X obj 98 69 + 1;
#X obj 60 30 until;
#X obj 131 -7 inlet;
#X obj 97 156 outlet;
#X obj 60 -8 inlet;
#X obj 60 105 sel 4096;
#X connect 0 0 1 0;
#X connect 0 0 6 0;
#X connect 1 0 0 1;
#X connect 2 0 0 0;
#X connect 3 0 0 1;
#X connect 5 0 2 0;
#X connect 6 0 2 1;
#X connect 6 1 4 0;
#X restore 448 69 pd iterate;
#X obj 448 179 t f f;
#X obj 29 154 outlet~;
#X floatatom 212 -49 5 0 0 0 - - -;
#X floatatom 287 -48 5 0 0 0 - - -;
#X obj 191 -94 vsl 8 60 0 4 0 0 empty empty empty 0 -8 0 8 -241291
-1 -1 0 1;
#X obj 269 -95 vsl 8 60 0 100 0 0 empty empty empty 0 -8 0 8 -258699
-1 -1 0 1;
#X text 210 -67 alpha;
#X text 285 -67 level;
#X text 26 203 Colored Noise Generator;
#X text 27 242 Input: alpha [0-4] Level [dB] [0-100] for the input
noise;
#X obj 29 102 fft_convolution 8192 hfa;
#X obj 532 35 t f f f f;
#X obj 24 -93 r cn_alpha;
#X obj 111 -93 r cn_lvl;
#N canvas 0 0 454 304 guts 0;
#N canvas 0 0 450 300 graph1 0;
#X array hfa 8192 float 2;
#X coords 0 600 8192 -600 200 140 1;
#X restore 447 267 graph;
#X restore 283 290 pd guts;
#X connect 0 0 12 0;
#X connect 1 0 6 0;
#X connect 1 1 7 0;
#X connect 2 0 25 0;
#X connect 3 0 0 0;
#X connect 3 1 6 1;
#X connect 4 0 9 1;
#X connect 5 0 3 0;
#X connect 6 0 14 0;
#X connect 7 0 8 1;
#X connect 7 0 11 0;
#X connect 9 0 24 0;
#X connect 10 0 9 0;
#X connect 12 0 13 0;
#X connect 12 1 2 0;
#X connect 13 0 1 0;
#X connect 14 0 8 0;
#X connect 14 1 6 2;
#X connect 18 0 16 0;
#X connect 18 0 5 0;
#X connect 19 0 17 0;
#X connect 19 0 4 0;
#X connect 24 0 15 0;
#X connect 25 0 13 1;
#X connect 25 1 8 0;
#X connect 25 2 8 1;
#X connect 25 3 6 2;
#X connect 26 0 18 0;
#X connect 27 0 19 0;
#X coords 0 -1 1 1 175 90 1 180 -115;
