#N canvas 160 58 1007 820 12;
#X obj 262 43 inlet;
#X obj 161 750 outlet;
#X obj 646 129 loadbang;
#X obj 270 665 list;
#X obj 353 577 t l l;
#X obj 161 716 list;
#X msg 562 256 0 2 4 5 7 9 11;
#X text 729 257 major;
#X msg 573 279 0 1 4 5 7 8 11;
#X msg 585 302 0 2 4 6 7 9 10;
#X msg 596 324 0 2 3 5 7 8 11;
#X msg 619 369 0 2 4 6 8 10;
#X msg 629 391 0 2 3 5 6 8 9 11;
#X text 741 279 middle-east-like minor;
#X text 752 303 lydian-dominant (jazzy);
#X text 764 326 harmonic minor;
#X msg 607 347 0 2 3 4 5 6 7 9 10 11;
#X text 815 347 chromatic blues;
#X text 775 371 whole-tones scale;
#X text 807 392 diminished scale;
#X msg 637 413 0 2 4 7 9;
#X text 775 414 pentatonic;
#X text 793 460 pentatonic blues;
#X msg 651 459 0 2 3 4 7 8 9;
#X text 754 627 args:;
#X obj 646 185 route 0 1 2 3 4 5 6 7 8 9;
#X msg 641 437 0 3 5 7 10;
#X text 781 436 minor pentatonic;
#X obj 262 73 route bang float;
#X text 754 667 \$2 key?;
#X text 754 649 \$1 scale idx;
#X obj 494 552 + \$2;
#X obj 500 624 + 12;
#X obj 646 156 f \$1;
#X obj 527 506 list;
#X obj 423 110 t b f;
#X obj 353 552 ../lst/list-map;
#X obj 365 624 ../lst/list-map;
#X connect 0 0 28 0;
#X connect 2 0 33 0;
#X connect 3 0 5 1;
#X connect 4 0 3 0;
#X connect 4 1 37 0;
#X connect 5 0 1 0;
#X connect 6 0 34 0;
#X connect 8 0 34 0;
#X connect 9 0 34 0;
#X connect 10 0 34 0;
#X connect 11 0 34 0;
#X connect 12 0 34 0;
#X connect 16 0 34 0;
#X connect 23 0 34 0;
#X connect 25 0 6 0;
#X connect 25 1 8 0;
#X connect 25 2 9 0;
#X connect 25 3 10 0;
#X connect 25 4 16 0;
#X connect 25 5 11 0;
#X connect 25 6 12 0;
#X connect 25 7 20 0;
#X connect 25 8 26 0;
#X connect 25 9 23 0;
#X connect 26 0 34 0;
#X connect 28 0 5 0;
#X connect 28 1 35 0;
#X connect 31 0 36 1;
#X connect 32 0 37 1;
#X connect 33 0 25 0;
#X connect 34 0 36 0;
#X connect 35 0 5 0;
#X connect 35 1 33 0;
#X connect 36 0 4 0;
#X connect 36 1 31 0;
#X connect 37 0 3 1;
#X connect 37 1 32 0;
