#N canvas 102 79 1256 779 12;
#X obj 193 248 loop~;
#X floatatom 230 152 0 0 0 0 - - -;
#X floatatom 237 203 0 0 0 0 - - -;
#X obj 622 63 sig~ 1;
#X msg 594 24 bang;
#X msg 49 281 all \$1;
#X floatatom 50 257 5 0 100 0 - - -, f 5;
#X obj 230 179 mstosamp;
#X msg 136 58 bang;
#X text 96 257 level;
#X msg 171 99 1500;
#X obj 1116 432 snapshot~;
#X obj 1134 386 tgl 15 0 empty empty empty 17 7 0 10 -262144 -1 -1
0 1;
#X floatatom 1116 457 5 0 0 0 - - -, f 5;
#X obj 1116 306 -~ 0.5;
#X obj 1116 331 abs~;
#X obj 344 596 bng 15 250 50 0 empty empty empty 17 7 0 10 -262144
-1 -1;
#X obj 1116 356 *~ 2;
#X obj 146 596 bng 15 250 50 0 empty empty empty 17 7 0 10 -262144
-1 -1;
#X obj 132 576 threshold~ 0.9999 50 1e-05 50;
#X obj 135 30 loadbang;
#X msg 139 615 all bang;
#X msg 363 615 all bang;
#X obj 1125 406 metro 250;
#X obj 373 246 loop~;
#X floatatom 410 150 0 0 0 0 - - -;
#X floatatom 417 201 0 0 0 0 - - -;
#X obj 410 177 mstosamp;
#X obj 350 658 random 1000;
#X obj 133 653 random 1000;
#X text 268 152 winsize in ms;
#X text 446 150 winsize in ms;
#X obj 558 243 loop~;
#X floatatom 595 155 0 0 0 0 - - -;
#X floatatom 602 206 0 0 0 0 - - -;
#X obj 595 182 mstosamp;
#X text 645 156 winsize in ms;
#X msg 27 223 100;
#X obj 342 425 tof/crossfade~ 1;
#X obj 738 243 loop~;
#X floatatom 775 155 0 0 0 0 - - -;
#X floatatom 782 206 0 0 0 0 - - -;
#X obj 775 182 mstosamp;
#X text 825 156 winsize in ms;
#X obj 555 426 tof/crossfade~ 1;
#X obj 350 683 + 1000;
#X obj 133 678 + 1000;
#X obj 557 461 output~;
#X obj 342 460 output~;
#X obj 1116 279 phasor~ -0.025;
#X obj 371 335 clone 3 c_loup note2;
#X obj 552 335 clone 3 c_loup note3;
#X obj 739 334 clone 3 c_loup note4;
#X obj 946 617 mix~;
#X obj 949 642 output~;
#X obj 726 571 tabwrite~ lev;
#N canvas 0 22 450 278 (subpatch) 0;
#X array lev 10000 float 2;
#X coords 0 1 10000 -1 200 140 1;
#X restore 1031 622 graph;
#X msg 744 527 bang;
#N canvas 644 338 664 504 note1 0;
#X obj 106 221 loop~;
#X floatatom 175 153 0 0 0 0 - - -;
#X obj 163 181 mstosamp;
#X obj 102 308 clone 4 c_loup note1;
#X obj 120 381 outlet~;
#X obj 53 57 inlet;
#X obj 100 98 sig~ 1;
#X text 104 57 bang to reset phase;
#X obj 164 125 inlet;
#X text 214 122 winsize \, ms;
#X obj 360 91 inlet;
#X text 409 91 bang to set random position;
#X msg 354 228 all \$1;
#X text 403 201 level;
#X obj 353 200 inlet;
#X connect 0 0 3 0;
#X connect 0 1 3 1;
#X connect 2 0 0 1;
#X connect 3 0 4 0;
#X connect 5 0 0 0;
#X connect 6 0 0 0;
#X connect 8 0 1 0;
#X connect 8 0 2 0;
#X connect 10 0 3 2;
#X connect 12 0 3 3;
#X connect 14 0 12 0;
#X restore 42 382 pd note1;
#N canvas 644 338 664 504 note2 0;
#X obj 106 221 loop~;
#X floatatom 175 153 0 0 0 0 - - -;
#X obj 163 181 mstosamp;
#X obj 120 381 outlet~;
#X obj 53 57 inlet;
#X obj 100 98 sig~ 1;
#X text 104 57 bang to reset phase;
#X obj 164 125 inlet;
#X text 214 122 winsize \, ms;
#X obj 360 91 inlet;
#X text 409 91 bang to set random position;
#X msg 354 228 all \$1;
#X text 403 201 level;
#X obj 353 200 inlet;
#X obj 102 308 clone 3 c_loup note2;
#X connect 0 0 14 0;
#X connect 0 1 14 1;
#X connect 2 0 0 1;
#X connect 4 0 0 0;
#X connect 5 0 0 0;
#X connect 7 0 1 0;
#X connect 7 0 2 0;
#X connect 9 0 14 2;
#X connect 11 0 14 3;
#X connect 13 0 11 0;
#X connect 14 0 3 0;
#X restore 42 409 pd note2;
#N canvas 588 375 664 504 note3 0;
#X obj 106 221 loop~;
#X floatatom 175 153 0 0 0 0 - - -;
#X obj 163 181 mstosamp;
#X obj 120 381 outlet~;
#X obj 53 57 inlet;
#X obj 100 98 sig~ 1;
#X text 104 57 bang to reset phase;
#X obj 164 125 inlet;
#X text 214 122 winsize \, ms;
#X obj 360 91 inlet;
#X text 409 91 bang to set random position;
#X msg 354 228 all \$1;
#X text 403 201 level;
#X obj 353 200 inlet;
#X obj 102 308 clone 3 c_loup note3;
#X connect 0 0 14 0;
#X connect 0 1 14 1;
#X connect 2 0 0 1;
#X connect 4 0 0 0;
#X connect 5 0 0 0;
#X connect 7 0 1 0;
#X connect 7 0 2 0;
#X connect 9 0 14 2;
#X connect 11 0 14 3;
#X connect 13 0 11 0;
#X connect 14 0 3 0;
#X restore 42 436 pd note3;
#N canvas 601 453 664 504 note4 0;
#X obj 106 221 loop~;
#X floatatom 175 153 0 0 0 0 - - -;
#X obj 163 181 mstosamp;
#X obj 120 381 outlet~;
#X obj 53 57 inlet;
#X obj 100 98 sig~ 1;
#X text 104 57 bang to reset phase;
#X obj 164 125 inlet;
#X text 214 122 winsize \, ms;
#X obj 360 91 inlet;
#X text 409 91 bang to set random position;
#X msg 354 228 all \$1;
#X text 403 201 level;
#X obj 353 200 inlet;
#X obj 102 308 clone 3 c_loup note4;
#X connect 0 0 14 0;
#X connect 0 1 14 1;
#X connect 2 0 0 1;
#X connect 4 0 0 0;
#X connect 5 0 0 0;
#X connect 7 0 1 0;
#X connect 7 0 2 0;
#X connect 9 0 14 2;
#X connect 11 0 14 3;
#X connect 13 0 11 0;
#X connect 14 0 3 0;
#X restore 42 464 pd note4;
#N canvas 644 338 664 504 note5 0;
#X obj 106 221 loop~;
#X floatatom 175 153 0 0 0 0 - - -;
#X obj 163 181 mstosamp;
#X obj 120 381 outlet~;
#X obj 53 57 inlet;
#X obj 100 98 sig~ 1;
#X text 104 57 bang to reset phase;
#X obj 164 125 inlet;
#X text 214 122 winsize \, ms;
#X obj 360 91 inlet;
#X text 409 91 bang to set random position;
#X msg 354 228 all \$1;
#X text 403 201 level;
#X obj 353 200 inlet;
#X obj 102 308 clone 3 c_loup note5;
#X connect 0 0 14 0;
#X connect 0 1 14 1;
#X connect 2 0 0 1;
#X connect 4 0 0 0;
#X connect 5 0 0 0;
#X connect 7 0 1 0;
#X connect 7 0 2 0;
#X connect 9 0 14 2;
#X connect 11 0 14 3;
#X connect 13 0 11 0;
#X connect 14 0 3 0;
#X restore 42 492 pd note5;
#N canvas 644 338 664 504 note6 0;
#X obj 106 221 loop~;
#X floatatom 175 153 0 0 0 0 - - -;
#X obj 163 181 mstosamp;
#X obj 120 381 outlet~;
#X obj 53 57 inlet;
#X obj 100 98 sig~ 1;
#X text 104 57 bang to reset phase;
#X obj 164 125 inlet;
#X text 214 122 winsize \, ms;
#X obj 360 91 inlet;
#X text 409 91 bang to set random position;
#X msg 354 228 all \$1;
#X text 403 201 level;
#X obj 353 200 inlet;
#X obj 102 308 clone 3 c_loup note6;
#X connect 0 0 14 0;
#X connect 0 1 14 1;
#X connect 2 0 0 1;
#X connect 4 0 0 0;
#X connect 5 0 0 0;
#X connect 7 0 1 0;
#X connect 7 0 2 0;
#X connect 9 0 14 2;
#X connect 11 0 14 3;
#X connect 13 0 11 0;
#X connect 14 0 3 0;
#X restore 42 519 pd note6;
#N canvas 588 375 664 504 note7 0;
#X obj 106 221 loop~;
#X floatatom 175 153 0 0 0 0 - - -;
#X obj 163 181 mstosamp;
#X obj 120 381 outlet~;
#X obj 53 57 inlet;
#X obj 100 98 sig~ 1;
#X text 104 57 bang to reset phase;
#X obj 164 125 inlet;
#X text 214 122 winsize \, ms;
#X obj 360 91 inlet;
#X text 409 91 bang to set random position;
#X msg 354 228 all \$1;
#X text 403 201 level;
#X obj 353 200 inlet;
#X obj 102 308 clone 3 c_loup note7;
#X connect 0 0 14 0;
#X connect 0 1 14 1;
#X connect 2 0 0 1;
#X connect 4 0 0 0;
#X connect 5 0 0 0;
#X connect 7 0 1 0;
#X connect 7 0 2 0;
#X connect 9 0 14 2;
#X connect 11 0 14 3;
#X connect 13 0 11 0;
#X connect 14 0 3 0;
#X restore 42 546 pd note7;
#N canvas 582 313 664 504 note8 0;
#X obj 106 221 loop~;
#X floatatom 175 153 0 0 0 0 - - -;
#X obj 163 181 mstosamp;
#X obj 120 381 outlet~;
#X obj 53 57 inlet;
#X obj 100 98 sig~ 1;
#X text 104 57 bang to reset phase;
#X obj 164 125 inlet;
#X text 214 122 winsize \, ms;
#X obj 360 91 inlet;
#X text 409 91 bang to set random position;
#X msg 354 228 all \$1;
#X text 403 201 level;
#X obj 353 200 inlet;
#X obj 102 308 clone 3 c_loup note8;
#X connect 0 0 14 0;
#X connect 0 1 14 1;
#X connect 2 0 0 1;
#X connect 4 0 0 0;
#X connect 5 0 0 0;
#X connect 7 0 1 0;
#X connect 7 0 2 0;
#X connect 9 0 14 2;
#X connect 11 0 14 3;
#X connect 13 0 11 0;
#X connect 14 0 3 0;
#X restore 42 574 pd note8;
#X text 914 44 TODO:try with different winsize;
#X text 915 62 then loop~ will go to clone abstr;
#X obj 189 335 clone 3 c_loup note1;
#X connect 0 0 68 0;
#X connect 0 1 68 1;
#X connect 1 0 7 0;
#X connect 3 0 0 0;
#X connect 3 0 24 0;
#X connect 3 0 32 0;
#X connect 3 0 39 0;
#X connect 4 0 24 0;
#X connect 4 0 0 0;
#X connect 4 0 32 0;
#X connect 4 0 39 0;
#X connect 5 0 50 3;
#X connect 5 0 51 3;
#X connect 5 0 52 3;
#X connect 5 0 68 3;
#X connect 6 0 5 0;
#X connect 7 0 2 0;
#X connect 7 0 0 1;
#X connect 8 0 10 0;
#X connect 8 0 37 0;
#X connect 8 0 4 0;
#X connect 10 0 1 0;
#X connect 10 0 25 0;
#X connect 10 0 33 0;
#X connect 10 0 40 0;
#X connect 11 0 13 0;
#X connect 12 0 23 0;
#X connect 14 0 15 0;
#X connect 15 0 17 0;
#X connect 17 0 11 0;
#X connect 17 0 19 0;
#X connect 17 0 38 2;
#X connect 17 0 44 2;
#X connect 19 0 18 0;
#X connect 19 0 21 0;
#X connect 19 0 29 0;
#X connect 19 1 16 0;
#X connect 19 1 22 0;
#X connect 19 1 28 0;
#X connect 20 0 8 0;
#X connect 21 0 51 2;
#X connect 21 0 68 2;
#X connect 22 0 50 2;
#X connect 22 0 52 2;
#X connect 23 0 11 0;
#X connect 24 0 50 0;
#X connect 24 1 50 1;
#X connect 25 0 27 0;
#X connect 27 0 26 0;
#X connect 27 0 24 1;
#X connect 28 0 45 0;
#X connect 29 0 46 0;
#X connect 32 0 51 0;
#X connect 32 1 51 1;
#X connect 33 0 35 0;
#X connect 35 0 34 0;
#X connect 35 0 32 1;
#X connect 37 0 6 0;
#X connect 38 0 48 0;
#X connect 38 0 48 1;
#X connect 39 0 52 0;
#X connect 39 1 52 1;
#X connect 40 0 42 0;
#X connect 42 0 41 0;
#X connect 42 0 39 1;
#X connect 44 0 47 0;
#X connect 44 0 47 1;
#X connect 44 0 55 0;
#X connect 45 0 25 0;
#X connect 45 0 40 0;
#X connect 46 0 1 0;
#X connect 46 0 33 0;
#X connect 49 0 14 0;
#X connect 50 0 38 1;
#X connect 51 0 44 0;
#X connect 52 0 44 1;
#X connect 53 0 54 0;
#X connect 53 0 54 1;
#X connect 57 0 55 0;
#X connect 68 0 38 0;
#X coords 0 779 1 778 65 55 0;
