#N canvas 139 133 1256 779 12;
#X obj 997 526 snapshot~;
#X obj 1030 435 tgl 15 0 empty empty empty 17 7 0 10 -262144 -1 -1
0 1;
#X floatatom 997 551 5 0 0 0 - - -, f 5;
#X obj 838 608 bng 15 250 50 0 empty empty empty 17 7 0 10 -262144
-1 -1;
#X obj 899 407 *~ 2;
#X obj 640 608 bng 15 250 50 0 empty empty empty 17 7 0 10 -262144
-1 -1;
#X obj 626 588 threshold~ 0.9999 50 1e-05 50;
#X obj 641 421 tof/crossfade~ 1;
#X obj 637 468 output~;
#X obj 858 522 tabwrite~ lev;
#N canvas 0 22 450 278 (subpatch) 0;
#X array lev 10000 float 0;
#X coords 0 1 9999 -1 200 140 1;
#X restore 1031 622 graph;
#X text 914 44 TODO:try with different winsize;
#X text 915 62 then loop~ will go to clone abstr;
#X text 949 88 randomize levels for every clone;
#X text 649 632 bang winsize and position;
#N canvas 195 30 1192 835 (subpatch) 0;
#X obj 969 71 loadbang;
#X obj 224 207 r \$0left;
#X obj 107 339 outlet~;
#X obj 439 345 outlet~;
#X obj 220 506 r leftbang;
#X obj 492 512 r rightbang;
#X obj 285 562 f;
#X obj 220 531 t b b;
#X obj 968 212 s reset_phase;
#X text 595 308 switch \, winsize \, offset \, level;
#X obj 89 155 iter 8;
#X msg 90 129 bang;
#X obj 89 210 t f f;
#X obj 89 268 pack f f;
#X obj 197 698 print leftbang;
#X obj 457 697 print rightbang;
#X obj 969 96 f \$0;
#X msg 968 187 bang;
#X obj 89 308 clone -s 1 8 c_note;
#X obj 429 307 clone -s 1 8 c_note;
#X obj 557 209 r \$0right;
#X obj 429 156 iter 8;
#X msg 430 130 bang;
#X obj 429 211 t f f;
#X obj 429 269 pack f f;
#X obj 152 231 expr ($f1 == $f2);
#X obj 492 232 expr ($f1 == $f2);
#X msg 969 121 \; \$1left 1 \; rightbang bang \;;
#X obj 601 537 r \$0left;
#X obj 492 537 t b b;
#X obj 572 565 f;
#X obj 572 590 + 1;
#X obj 572 615 s \$0right;
#X obj 430 102 r switch_right_note;
#X obj 492 641 s switch_right_note;
#X obj 429 181 + 1;
#X obj 89 180 + 1;
#X obj 90 103 r switch_left_note;
#X msg 185 269 all bang;
#X msg 511 268 all bang;
#X obj 315 535 r \$0right;
#X obj 220 639 s switch_left_note;
#X obj 285 587 + 1;
#X obj 285 612 s \$0left;
#X floatatom 676 615 5 0 0 0 - - -, f 5;
#X floatatom 378 612 5 0 0 0 - - -, f 5;
#X connect 0 0 16 0;
#X connect 1 0 25 1;
#X connect 4 0 7 0;
#X connect 5 0 29 0;
#X connect 6 0 42 0;
#X connect 7 0 14 0;
#X connect 7 0 41 0;
#X connect 7 1 6 0;
#X connect 10 0 36 0;
#X connect 11 0 10 0;
#X connect 12 0 13 0;
#X connect 12 1 25 0;
#X connect 13 0 18 0;
#X connect 16 0 27 0;
#X connect 17 0 8 0;
#X connect 18 0 2 0;
#X connect 19 0 3 0;
#X connect 20 0 26 1;
#X connect 21 0 35 0;
#X connect 22 0 21 0;
#X connect 23 0 24 0;
#X connect 23 1 26 0;
#X connect 24 0 19 0;
#X connect 25 0 13 1;
#X connect 25 0 38 0;
#X connect 26 0 24 1;
#X connect 26 0 39 0;
#X connect 28 0 30 1;
#X connect 29 0 34 0;
#X connect 29 0 15 0;
#X connect 29 1 30 0;
#X connect 30 0 31 0;
#X connect 31 0 32 0;
#X connect 31 0 44 0;
#X connect 33 0 22 0;
#X connect 35 0 23 0;
#X connect 36 0 12 0;
#X connect 37 0 11 0;
#X connect 38 0 18 1;
#X connect 38 0 18 2;
#X connect 39 0 19 1;
#X connect 39 0 19 2;
#X connect 40 0 6 1;
#X connect 42 0 43 0;
#X connect 42 0 45 0;
#X restore 617 303 pd;
#X obj 875 677 send rightbang;
#X obj 629 678 send leftbang;
#X obj 995 248 r reset_phase;
#X msg 995 273 0;
#X obj 1021 455 metro 1 10000 samp;
#X obj 899 380 min~;
#X obj 938 349 expr~ 1-$v1;
#X obj 802 339 env~;
#X floatatom 805 362 5 0 0 0 - - -, f 5;
#X obj 889 316 phasor~ 0.025;
#X connect 0 0 2 0;
#X connect 1 0 20 0;
#X connect 4 0 0 0;
#X connect 4 0 6 0;
#X connect 4 0 7 2;
#X connect 6 0 5 0;
#X connect 6 0 17 0;
#X connect 6 1 3 0;
#X connect 6 1 16 0;
#X connect 7 0 8 0;
#X connect 7 0 8 1;
#X connect 7 0 9 0;
#X connect 15 0 7 0;
#X connect 15 1 7 1;
#X connect 18 0 19 0;
#X connect 19 0 25 1;
#X connect 20 0 0 0;
#X connect 20 0 9 0;
#X connect 21 0 4 0;
#X connect 22 0 21 1;
#X connect 23 0 24 0;
#X connect 25 0 22 0;
#X connect 25 0 21 0;
#X coords 0 779 1 778 65 55 0;
