#N canvas -184 151 1329 829 12;
#X obj 208 328 *~;
#X obj 340 769 hip~ 5;
#X obj 254 332 samphold~;
#X obj 340 746 *~;
#X obj 208 74 inlet~;
#X obj 340 794 outlet~;
#X obj 769 732 array define \$0array;
#X obj 208 500 tabread4~ \$0array;
#X floatatom 1109 599 0 0 0 0 - - -;
#X obj 1088 671 line~;
#X obj 1088 625 dbtorms;
#X text 1140 573 output level 0-100;
#X obj 1093 574 inlet;
#X obj 321 142 inlet~;
#X text 378 142 window size;
#X text 263 73 phase;
#X obj 309 448 mstosamp;
#X obj 82 406 cos~;
#X text 80 336 Hanning;
#X obj 187 528 *~;
#X obj 679 174 +~ 0.5;
#X obj 679 199 wrap~;
#X obj 542 405 cos~;
#N canvas 0 22 736 661 load 0;
#X obj 264 129 f \$1;
#X obj 300 78 loadbang;
#X obj 254 290 pack s s;
#X msg 254 318 read -resize \$1 \$2;
#X obj 254 340 soundfiler;
#X obj 281 385 samplerate~;
#X obj 281 407 / 1000;
#X obj 254 362 t f b;
#X obj 254 429 /;
#X obj 264 151 + 1;
#X obj 462 258 symbol \$0array;
#X obj 228 205 symbol \$2;
#X obj 264 176 t b f;
#X obj 254 230 pack s f;
#X obj 264 467 outlet;
#X obj 300 100 t b b b;
#X msg 254 256 ../../snd/\$1/\$2.wav;
#X connect 0 0 9 0;
#X connect 1 0 15 0;
#X connect 2 0 3 0;
#X connect 3 0 4 0;
#X connect 4 0 7 0;
#X connect 5 0 6 0;
#X connect 6 0 8 1;
#X connect 7 0 8 0;
#X connect 7 1 5 0;
#X connect 8 0 14 0;
#X connect 9 0 12 0;
#X connect 10 0 2 1;
#X connect 11 0 13 0;
#X connect 12 0 11 0;
#X connect 12 1 13 1;
#X connect 13 0 16 0;
#X connect 15 0 0 0;
#X connect 15 1 10 0;
#X connect 16 0 2 0;
#X restore 389 389 pd load;
#X floatatom 404 440 7 0 0 0 - - -, f 7;
#X text 400 459 duration in ms;
#X obj 679 325 *~;
#X obj 725 329 samphold~;
#X obj 679 497 tabread4~ \$0array;
#X obj 779 447 mstosamp;
#X obj 658 525 *~;
#X obj 393 615 +~;
#X text 683 155 overlap;
#X text 541 336 Hanning;
#X obj 209 608 env~ 8192;
#X floatatom 209 633 5 0 0 0 - - -, f 5;
#X obj 1088 648 pack 0 30;
#X obj 208 474 expr~ $v1%$f2;
#X obj 679 472 expr~ $v1%$f2;
#X obj 230 293 *~ 1;
#X obj 701 290 *~ 1;
#X obj 208 360 +~;
#X obj 679 357 +~;
#X obj 833 58 inlet;
#X text 882 58 offset;
#X msg 836 97 bang;
#X obj 836 172 mstosamp;
#X obj 836 147 + 50;
#X floatatom 846 198 7 0 0 0 - - -, f 7;
#X obj 836 122 random 1000;
#X obj 1084 226 outlet;
#X msg 1066 194 offset \$1;
#X obj 82 363 -~ 0.5;
#X obj 82 384 *~ 0.5;
#X obj 542 362 -~ 0.5;
#X obj 542 383 *~ 0.5;
#X connect 0 0 41 0;
#X connect 1 0 5 0;
#X connect 2 0 41 1;
#X connect 3 0 1 0;
#X connect 4 0 0 0;
#X connect 4 0 20 0;
#X connect 4 0 2 1;
#X connect 4 0 52 0;
#X connect 7 0 19 1;
#X connect 9 0 3 1;
#X connect 10 0 36 0;
#X connect 12 0 8 0;
#X connect 12 0 10 0;
#X connect 13 0 39 0;
#X connect 13 0 40 0;
#X connect 16 0 37 1;
#X connect 17 0 19 0;
#X connect 19 0 31 0;
#X connect 19 0 34 0;
#X connect 20 0 21 0;
#X connect 21 0 26 0;
#X connect 21 0 27 1;
#X connect 21 0 54 0;
#X connect 22 0 30 0;
#X connect 23 0 24 0;
#X connect 23 0 16 0;
#X connect 23 0 29 0;
#X connect 26 0 42 0;
#X connect 27 0 42 1;
#X connect 28 0 30 1;
#X connect 29 0 38 1;
#X connect 30 0 31 1;
#X connect 31 0 3 0;
#X connect 34 0 35 0;
#X connect 36 0 9 0;
#X connect 37 0 7 0;
#X connect 38 0 28 0;
#X connect 39 0 0 1;
#X connect 40 0 26 1;
#X connect 41 0 37 0;
#X connect 42 0 38 0;
#X connect 43 0 45 0;
#X connect 45 0 49 0;
#X connect 46 0 48 0;
#X connect 46 0 27 0;
#X connect 46 0 2 0;
#X connect 47 0 46 0;
#X connect 47 0 51 0;
#X connect 49 0 47 0;
#X connect 51 0 50 0;
#X connect 52 0 53 0;
#X connect 53 0 17 0;
#X connect 54 0 55 0;
#X connect 55 0 22 0;
#X coords 0 829 1 828 65 55 0;
