#N canvas 27 23 1109 727 12;
#X obj 293 477 loop~;
#X obj 330 447 mstosamp;
#X obj 307 587 outlet~;
#X obj 194 165 inlet;
#X obj 261 378 sig~ 1;
#X obj 350 270 inlet;
#X obj 427 369 inlet;
#X text 476 369 bang to set random position;
#X msg 454 481 all \$1;
#X text 503 454 level;
#X obj 453 453 inlet;
#X text 399 270 bang to set random winsize;
#X obj 350 304 random 1000;
#X obj 350 329 + 1000;
#X msg 427 394 all bang;
#X obj 763 166 loadbang;
#X msg 865 332 100;
#X obj 194 191 switch~;
#X obj 289 514 clone 3 c_loup note\$1;
#X obj 199 350 r reset_phase;
#X connect 0 0 18 0;
#X connect 0 1 18 1;
#X connect 1 0 0 1;
#X connect 3 0 17 0;
#X connect 4 0 0 0;
#X connect 5 0 12 0;
#X connect 6 0 14 0;
#X connect 8 0 18 3;
#X connect 10 0 8 0;
#X connect 12 0 13 0;
#X connect 13 0 1 0;
#X connect 14 0 18 2;
#X connect 15 0 16 0;
#X connect 15 0 14 0;
#X connect 15 0 12 0;
#X connect 16 0 8 0;
#X connect 18 0 2 0;
#X connect 19 0 0 0;
#X coords 0 727 1 726 65 55 0;
