#N canvas -291 538 1109 727 12;
#X obj 293 477 loop~;
#X obj 330 447 mstosamp;
#X obj 307 587 outlet~;
#X obj 194 165 inlet;
#X obj 261 378 sig~ 1;
#X obj 350 270 inlet;
#X obj 427 369 inlet;
#X text 476 369 bang to set random position;
#X msg 454 481 all \$1;
#X text 503 454 level;
#X obj 453 453 inlet;
#X text 399 270 bang to set random winsize;
#X msg 427 394 all bang;
#X obj 763 166 loadbang;
#X obj 194 211 switch~;
#X obj 199 350 r reset_phase;
#X obj 223 185 tgl 15 0 empty empty empty 17 7 0 10 -262144 -1 -1 0
1;
#X obj 350 329 + 750;
#X obj 350 304 random 1250;
#X obj 630 587 outlet;
#X obj 815 586 outlet;
#X msg 801 548 winsize \$1;
#X msg 865 332 105;
#X obj 289 514 clone 3 c_loup note\$1;
#X connect 0 0 23 0;
#X connect 0 1 23 1;
#X connect 1 0 0 1;
#X connect 3 0 14 0;
#X connect 3 0 16 0;
#X connect 4 0 0 0;
#X connect 5 0 18 0;
#X connect 6 0 12 0;
#X connect 8 0 23 3;
#X connect 10 0 8 0;
#X connect 12 0 23 2;
#X connect 13 0 22 0;
#X connect 13 0 12 0;
#X connect 13 0 18 0;
#X connect 15 0 0 0;
#X connect 17 0 1 0;
#X connect 17 0 21 0;
#X connect 18 0 17 0;
#X connect 21 0 20 0;
#X connect 22 0 8 0;
#X connect 23 0 2 0;
#X connect 23 1 19 0;
#X coords 0 727 1 726 65 55 0;
