#N canvas 27 23 1109 727 12;
#X obj 307 587 outlet~;
#X obj 194 165 inlet;
#X obj 266 316 inlet;
#X obj 467 369 inlet;
#X text 516 369 bang to set random position;
#X text 519 435 level;
#X obj 474 434 inlet;
#X text 315 316 bang to set random winsize;
#X msg 467 394 all bang;
#X obj 763 166 loadbang;
#X obj 194 211 switch~;
#X obj 223 185 tgl 15 0 empty empty empty 17 7 0 10 -262144 -1 -1 1
1;
#X obj 445 580 outlet;
#X msg 266 341 all bang;
#X obj 531 587 outlet;
#X msg 470 469 all bang;
#X obj 865 357 t b b;
#X msg 865 401 3 75;
#X obj 289 514 clone 3 c_loup2 note\$1;
#X connect 1 0 10 0;
#X connect 1 0 11 0;
#X connect 2 0 13 0;
#X connect 3 0 8 0;
#X connect 6 0 15 0;
#X connect 8 0 18 1;
#X connect 9 0 8 0;
#X connect 9 0 16 0;
#X connect 13 0 18 0;
#X connect 15 0 18 2;
#X connect 16 1 15 0;
#X connect 17 0 18 2;
#X connect 18 0 0 0;
#X connect 18 1 12 0;
#X connect 18 2 14 0;
#X coords 0 727 1 726 65 55 0;
