#N canvas 0 23 780 682 12;
#X obj 228 566 outlet~;
#X obj 395 543 array define \$0array;
#X obj 229 449 *~;
#N canvas 529 299 736 661 load 0;
#X obj 300 78 loadbang;
#X obj 254 290 pack s s;
#X msg 254 318 read -resize \$1 \$2;
#X obj 254 340 soundfiler;
#X obj 281 385 samplerate~;
#X obj 281 407 / 1000;
#X obj 254 362 t f b;
#X obj 254 429 /;
#X obj 462 258 symbol \$0array;
#X obj 264 467 outlet;
#X obj 300 100 t b b;
#X obj 255 171 f \$1;
#X msg 254 256 ../../snd/note\$1/4.wav;
#X obj 255 196 + 1;
#X connect 0 0 10 0;
#X connect 1 0 2 0;
#X connect 2 0 3 0;
#X connect 3 0 6 0;
#X connect 4 0 5 0;
#X connect 5 0 7 1;
#X connect 6 0 7 0;
#X connect 6 1 4 0;
#X connect 7 0 9 0;
#X connect 8 0 1 1;
#X connect 10 0 11 0;
#X connect 10 1 8 0;
#X connect 11 0 13 0;
#X connect 12 0 1 0;
#X connect 13 0 12 0;
#X restore 353 201 pd load;
#X floatatom 370 228 7 0 0 0 - - -, f 7;
#X text 427 328 duration in ms;
#X obj 247 478 env~ 8192;
#X floatatom 247 503 5 0 0 0 - - -, f 5;
#X obj 250 391 tabplay~ \$0array;
#X obj 250 113 inlet;
#X msg 168 230 1 \, 0 \$1;
#X obj 168 255 line~;
#X text 304 113 bang;
#X obj 352 327 mstosamp;
#X obj 250 365 pack 0 f;
#X obj 167 203 f;
#X obj 250 138 b;
#X obj 353 285 * 0.2;
#X obj 353 254 f;
#X obj 536 121 inlet;
#X floatatom 628 247 5 0 0 0 - - -, f 5;
#X obj 536 180 * 0.001;
#X obj 536 146 random 90;
#X obj 536 230 t b f;
#X obj 536 205 + 0.1;
#X connect 2 0 6 0;
#X connect 2 0 0 0;
#X connect 3 0 4 0;
#X connect 3 0 18 0;
#X connect 6 0 7 0;
#X connect 8 0 2 1;
#X connect 9 0 16 0;
#X connect 10 0 11 0;
#X connect 11 0 2 0;
#X connect 13 0 14 1;
#X connect 14 0 8 0;
#X connect 15 0 10 0;
#X connect 16 0 15 0;
#X connect 16 0 14 0;
#X connect 17 0 13 0;
#X connect 17 0 15 1;
#X connect 18 0 17 0;
#X connect 19 0 22 0;
#X connect 21 0 24 0;
#X connect 22 0 21 0;
#X connect 23 0 18 0;
#X connect 23 1 17 1;
#X connect 24 0 20 0;
#X connect 24 0 23 0;
#X coords 0 682 1 681 65 55 0;
