#N canvas 491 334 327 311 10;
#X obj 66 44 inlet~;
#X obj 161 46 inlet~;
#X obj 242 46 inlet~;
#X obj 107 89 sig~ 1;
#X obj 66 164 *~;
#X obj 161 163 *~;
#X obj 107 128 -~;
#X obj 116 223 +~;
#X obj 116 245 outlet~;
#X connect 0 0 4 0;
#X connect 1 0 5 0;
#X connect 2 0 5 1;
#X connect 2 0 6 1;
#X connect 3 0 6 0;
#X connect 4 0 7 0;
#X connect 5 0 7 1;
#X connect 6 0 4 1;
#X connect 7 0 8 0;
