#N canvas 697 320 306 461 12;
#X obj 59 56 inlet;
#X obj 59 133 list-iter;
#X obj 59 163 swap;
#X obj 59 188 pack;
#X obj 59 213 route 0;
#X obj 74 329 -;
#X obj 112 240 unpack;
#X obj 109 280 t f f;
#X obj 59 81 t l l;
#X obj 175 152 list length;
#X msg 154 54 1 3 6;
#X obj 175 177 - 1;
#X obj 83 365 list-group;
#X obj 83 390 outlet;
#X connect 0 0 8 0;
#X connect 1 0 2 0;
#X connect 1 1 2 1;
#X connect 2 0 3 0;
#X connect 2 1 3 1;
#X connect 3 0 4 0;
#X connect 4 0 5 1;
#X connect 4 1 6 0;
#X connect 5 0 12 0;
#X connect 6 1 7 0;
#X connect 7 0 5 1;
#X connect 7 1 5 0;
#X connect 8 0 1 0;
#X connect 8 1 9 0;
#X connect 9 0 11 0;
#X connect 10 0 8 0;
#X connect 11 0 12 1;
#X connect 12 0 13 0;
