#N canvas 321 385 458 423 10;
#X obj 250 89 list;
#X obj 287 40 inlet;
#X obj 99 37 inlet;
#X obj 207 142 list length;
#X obj 165 165 min;
#X obj 99 63 t l l l b;
#X obj 57 125 list length;
#X obj 250 111 t l l;
#X obj 101 282 list-obix;
#X obj 169 220 iter;
#X obj 169 242 t f f;
#X obj 181 323 +;
#X obj 181 383 outlet;
#X obj 165 187 t f f;
#X obj 261 282 list-obix;
#X obj 181 361 list-group;
#X connect 0 0 7 0;
#X connect 1 0 0 1;
#X connect 2 0 5 0;
#X connect 3 0 4 1;
#X connect 4 0 13 0;
#X connect 5 1 6 0;
#X connect 5 2 8 1;
#X connect 5 3 0 0;
#X connect 6 0 4 0;
#X connect 7 0 3 0;
#X connect 7 1 14 1;
#X connect 8 0 11 0;
#X connect 9 0 10 0;
#X connect 10 0 8 0;
#X connect 10 1 14 0;
#X connect 11 0 15 0;
#X connect 13 0 9 0;
#X connect 13 1 15 1;
#X connect 14 0 11 1;
#X connect 15 0 12 0;
