#N canvas 4 23 1436 855 10;
#N canvas 467 126 764 570 cl 0;
#X obj 100 189 metro 1 64 samp;
#X obj 100 413 outlet;
#X obj 187 159 max 1;
#X obj 100 388 f;
#X obj 134 388 + 1;
#X floatatom 103 119 3 0 0 1 spd - -, f 3;
#X text 483 95 clock with speed control;
#X obj 143 102 bng 15 250 50 0 empty \$0reset empty 17 7 0 10 -262144
-1 -1;
#X text 163 101 reset;
#X msg 344 173 0, f 2;
#X text 157 414 to sequencer;
#X obj 168 388 mod 1e+38;
#X obj 100 170 tgl 15 1 empty empty empty 17 7 0 10 -262144 -1 -1 1
1;
#X obj 100 229 seq/spdctrl2;
#X obj 100 255 route 1;
#X obj 453 389 con/mstobpm;
#X obj 453 431 outlet;
#X obj 453 243 * 64;
#X obj 453 268 con/samptoms;
#X floatatom 460 312 7 0 0 0 - - -, f 7;
#X obj 453 291 * 16;
#X text 485 291 speed reduction rate;
#X obj 453 410 int;
#X obj 103 42 loadbang;
#X text 483 354 beat is a quarter-bar;
#X obj 453 354 * 4;
#X obj 103 69 9;
#X connect 0 0 13 0;
#X connect 2 0 0 1;
#X connect 2 0 17 0;
#X connect 3 0 4 0;
#X connect 3 0 1 0;
#X connect 4 0 11 0;
#X connect 5 0 2 0;
#X connect 7 0 9 0;
#X connect 9 0 3 1;
#X connect 11 0 3 1;
#X connect 12 0 0 0;
#X connect 13 0 14 0;
#X connect 14 0 3 0;
#X connect 15 0 22 0;
#X connect 17 0 18 0;
#X connect 18 0 20 0;
#X connect 20 0 19 0;
#X connect 20 0 25 0;
#X connect 22 0 16 0;
#X connect 23 0 26 0;
#X connect 25 0 15 0;
#X connect 26 0 5 0;
#X coords 0 -1 1 1 60 36 1 100 100;
#X restore 80 46 pd cl;
#X floatatom 131 227 3 0 0 1 - - -, f 3;
#X obj 80 102 seq;
#X floatatom 133 81 3 0 0 1 bpm - -, f 3;
#N canvas 222 47 1191 769 ptrn 0;
#X obj 1043 554 array get \$0ptrn;
#X msg 1043 530 bang;
#X obj 1043 576 print;
#X obj 101 308 loadbang;
#X obj 565 183 inlet;
#X obj 670 298 array get \$0ptrn 0 1;
#X text 1041 503 debug;
#X obj 565 413 outlet;
#X obj 636 216 div 8;
#X msg 1043 601 bang;
#X obj 1043 647 print;
#X obj 1043 625 array get \$0map;
#X floatatom 103 130 8 0 0 2 b1 #0r-ptrn1 #0s-ptrn1, f 8;
#X floatatom 103 148 8 0 0 0 - #0r-map1 #0s-map1, f 8;
#X obj 670 321 array get \$0map 0 1;
#X obj 565 216 mod 16;
#X floatatom 157 130 8 0 0 2 b2 #0r-ptrn2 #0s-ptrn2, f 8;
#X floatatom 157 148 8 0 0 1 map #0r-map2 #0s-map2, f 8;
#X msg 140 353 431;
#X floatatom 103 166 8 0 0 0 - #0r-acc1 #0s-acc1, f 8;
#X floatatom 157 166 8 0 0 1 acc #0r-acc2 #0s-acc2, f 8;
#X obj 101 330 t b b b;
#X msg 120 426 122;
#X msg 101 498 331;
#X text 933 107 TODO: add gate;
#X msg 1044 677 bang;
#X obj 1044 721 print;
#X obj 1044 699 array get \$0acc;
#X obj 670 344 array get \$0acc 0 1;
#X obj 565 255 t f f f f;
#X obj 565 391 pack f f f f;
#X text 206 130 ptrn;
#X obj 140 373 s \$0r-ptrn1;
#X obj 140 392 s \$0r-ptrn2;
#X obj 120 446 s \$0r-map1;
#X obj 120 466 s \$0r-map2;
#X obj 101 518 s \$0r-acc1;
#X obj 101 538 s \$0r-acc2;
#N canvas 0 22 492 419 set-ptrn 0;
#X obj 112 228 lst/list-map;
#X obj 196 228 - 48;
#X obj 112 83 moocow/any2bytes 0 -1;
#X obj 112 271 list prepend 0;
#X obj 112 250 con/dec2bin;
#X obj 112 294 array define \$0ptrn 16;
#X obj 112 205 list;
#X obj 158 152 t b l;
#X obj 112 181 list;
#X obj 112 131 t b l;
#X obj 158 130 moocow/any2bytes 0 -1;
#X obj 112 58 r \$0s-ptrn1;
#X obj 158 105 r \$0s-ptrn2;
#X connect 0 0 4 0;
#X connect 0 1 1 0;
#X connect 1 0 0 1;
#X connect 2 0 9 0;
#X connect 3 0 5 0;
#X connect 4 0 3 0;
#X connect 6 0 0 0;
#X connect 7 0 8 0;
#X connect 7 1 6 1;
#X connect 8 0 6 0;
#X connect 9 0 8 0;
#X connect 9 1 8 1;
#X connect 10 0 7 0;
#X connect 11 0 2 0;
#X connect 12 0 10 0;
#X restore 101 222 pd set-ptrn;
#N canvas 0 22 860 645 set-map 0;
#X obj 260 410 lst/list-distrib;
#X obj 260 358 array get \$0ptrn;
#X obj 260 433 list prepend 0;
#X obj 376 164 moocow/any2bytes 0 -1;
#X obj 260 140 t b f;
#X obj 260 456 array define \$0map 16;
#X obj 260 118 r \$0s-map1;
#X obj 376 357 lst/list-map;
#X obj 460 357 - 48;
#X obj 376 334 list;
#X obj 376 306 list;
#X obj 376 186 t b l;
#X obj 421 186 r \$0s-map2;
#X obj 421 209 moocow/any2bytes 0 -1;
#X obj 421 232 t b b l;
#X connect 0 0 2 0;
#X connect 1 0 0 0;
#X connect 2 0 5 0;
#X connect 3 0 11 0;
#X connect 4 0 1 0;
#X connect 4 1 3 0;
#X connect 6 0 4 0;
#X connect 7 0 0 1;
#X connect 7 1 8 0;
#X connect 8 0 7 1;
#X connect 9 0 7 0;
#X connect 10 0 9 0;
#X connect 11 0 10 0;
#X connect 11 1 10 1;
#X connect 12 0 13 0;
#X connect 13 0 14 0;
#X connect 14 0 1 0;
#X connect 14 1 10 0;
#X connect 14 2 9 1;
#X restore 101 246 pd set-map;
#N canvas 0 22 860 645 set-acc 0;
#X obj 260 410 lst/list-distrib;
#X obj 260 358 array get \$0ptrn;
#X obj 260 433 list prepend 0;
#X obj 376 164 moocow/any2bytes 0 -1;
#X obj 260 140 t b f;
#X obj 376 357 lst/list-map;
#X obj 460 357 - 48;
#X obj 376 334 list;
#X obj 376 306 list;
#X obj 376 186 t b l;
#X obj 421 209 moocow/any2bytes 0 -1;
#X obj 421 232 t b b l;
#X obj 260 457 array define \$0acc 16;
#X obj 260 118 r \$0s-acc1;
#X obj 421 186 r \$0s-acc2;
#X connect 0 0 2 0;
#X connect 1 0 0 0;
#X connect 2 0 12 0;
#X connect 3 0 9 0;
#X connect 4 0 1 0;
#X connect 4 1 3 0;
#X connect 5 0 0 1;
#X connect 5 1 6 0;
#X connect 6 0 5 1;
#X connect 7 0 5 0;
#X connect 8 0 7 0;
#X connect 9 0 8 0;
#X connect 9 1 8 1;
#X connect 10 0 11 0;
#X connect 11 0 1 0;
#X connect 11 1 8 0;
#X connect 11 2 7 1;
#X connect 13 0 4 0;
#X connect 14 0 10 0;
#X restore 101 270 pd set-acc;
#X connect 0 0 2 0;
#X connect 1 0 0 0;
#X connect 3 0 21 0;
#X connect 4 0 15 0;
#X connect 5 0 30 1;
#X connect 9 0 11 0;
#X connect 11 0 10 0;
#X connect 14 0 30 2;
#X connect 15 0 29 0;
#X connect 18 0 32 0;
#X connect 18 0 33 0;
#X connect 21 0 23 0;
#X connect 21 1 22 0;
#X connect 21 2 18 0;
#X connect 22 0 34 0;
#X connect 22 0 35 0;
#X connect 23 0 36 0;
#X connect 23 0 37 0;
#X connect 25 0 27 0;
#X connect 27 0 26 0;
#X connect 28 0 30 3;
#X connect 29 0 30 0;
#X connect 29 1 5 0;
#X connect 29 2 14 0;
#X connect 29 3 28 0;
#X connect 30 0 7 0;
#X coords 0 -1 1 1 135 84 1 100 100;
#X restore 80 248 pd ptrn;
#N canvas 378 67 905 779 trig 0;
#X obj 121 200 inlet;
#X obj 121 255 list split 1;
#X floatatom 121 371 5 0 0 0 - - -, f 5;
#X obj 287 323 route 1;
#X text 327 118 1 bd;
#X text 327 135 2 sd;
#X obj 287 508 route 1 2;
#X text 336 323 filter offsets;
#X obj 297 602 s tr808-bd;
#X obj 318 555 s tr808-sd;
#X obj 62 555 b;
#X obj 62 576 s tr808-oh;
#X text 160 201 iter \, onset \, map \, acc;
#X text 522 539 map instr;
#X obj 493 562 s tr808-SD-vol;
#X obj 500 423 route 1 2 3;
#X text 576 423 accents;
#X msg 556 456 127;
#X msg 521 456 80;
#X obj 295 580 b;
#X obj 516 489 f;
#X obj 287 345 t l l;
#X obj 457 399 unpack;
#X obj 457 515 pack;
#X text 503 400 manage accents;
#X obj 458 538 route 1 2;
#X obj 467 584 s tr808-BD-vol;
#X text 350 509 map instr;
#X obj 316 532 b;
#X msg 487 456 25;
#X obj 139 581 s tr808-OH-vol;
#X obj 121 401 div 2;
#X obj 121 423 change;
#X floatatom 62 500 5 0 0 0 - - -, f 5;
#N canvas 0 22 450 278 (subpatch) 0;
#X array \$0acc-OH 8 float 3;
#A 0 0.300001 0.625002 0.375 0.550002 0.375 0.625001 0.350001 0.55
;
#X coords 0 1 8 0 100 40 1 0 0;
#X restore 151 649 graph;
#X obj 121 445 t f f;
#X obj 128 490 array get \$0acc-OH 0 1;
#X obj 128 512 min 1;
#X obj 503 161 output~;
#X obj 139 537 * 127;
#X floatatom 186 560 5 0 0 0 - - -, f 5;
#N canvas 714 100 497 634 bass 0;
#X obj 201 352 osc~;
#X obj 135 116 change;
#X obj 129 328 line~;
#X obj 129 350 *~;
#X obj 129 386 *~;
#X obj 129 430 expr~ atan($v1);
#X obj 173 261 del 5;
#X obj 256 184 f;
#X obj 256 226 + 1;
#X obj 256 205 mod 3;
#X obj 135 138 t b b;
#X obj 136 40 inlet;
#X obj 232 528 outlet~;
#X msg 173 283 0 500;
#X obj 280 410 swap 1;
#X obj 280 432 -;
#X obj 280 365 ftom;
#X obj 207 491 *~;
#X floatatom 283 455 5 0 0 0 - - -, f 5;
#X obj 280 388 / 100;
#X obj 129 408 *~ 1.9;
#X obj 280 293 * 45;
#X obj 340 113 sel;
#X obj 136 62 t f f;
#X obj 340 135 f;
#X obj 367 135 + 1;
#X obj 394 135 mod 2;
#X obj 340 157 route 0 1;
#X msg 330 182 43;
#X msg 364 182 45;
#X obj 135 94 div 3;
#X msg 115 271 1 5;
#X obj 49 195 print;
#X connect 0 0 4 1;
#X connect 1 0 10 0;
#X connect 2 0 3 0;
#X connect 2 0 3 1;
#X connect 3 0 4 0;
#X connect 4 0 20 0;
#X connect 5 0 17 0;
#X connect 6 0 13 0;
#X connect 7 0 9 0;
#X connect 8 0 7 1;
#X connect 8 0 21 0;
#X connect 9 0 8 0;
#X connect 10 0 6 0;
#X connect 10 0 31 0;
#X connect 10 0 32 0;
#X connect 10 1 7 0;
#X connect 11 0 23 0;
#X connect 13 0 2 0;
#X connect 14 0 15 0;
#X connect 14 1 15 1;
#X connect 15 0 17 1;
#X connect 15 0 18 0;
#X connect 16 0 19 0;
#X connect 17 0 12 0;
#X connect 19 0 14 0;
#X connect 20 0 5 0;
#X connect 21 0 0 0;
#X connect 21 0 16 0;
#X connect 22 0 24 0;
#X connect 23 0 30 0;
#X connect 23 1 22 0;
#X connect 24 0 25 0;
#X connect 24 0 27 0;
#X connect 25 0 26 0;
#X connect 26 0 24 1;
#X connect 27 0 28 0;
#X connect 27 1 29 0;
#X connect 28 0 21 1;
#X connect 29 0 21 1;
#X connect 30 0 1 0;
#X connect 31 0 2 0;
#X restore 498 133 pd bass;
#N canvas 487 42 803 743 arp 0;
#X obj 137 428 osc~;
#X obj 137 122 change;
#X obj 122 266 line~;
#X obj 122 288 *~;
#X obj 122 457 *~;
#X obj 122 482 expr~ atan($v1);
#X obj 148 203 del 5;
#X obj 137 144 t b b;
#X msg 87 228 \$1 5;
#X obj 137 27 inlet;
#X obj 122 564 outlet~;
#X obj 137 406 line~;
#X obj 137 384 pack 0 5;
#X obj 414 100 f;
#X obj 452 100 + 1;
#X obj 87 203 f 0.9;
#X obj 275 426 / 127;
#X floatatom 298 534 5 0 0 0 - - -, f 5;
#X obj 275 448 swap 1;
#X obj 275 470 -;
#X msg 148 227 0 150;
#X obj 137 359 mtof;
#X obj 487 100 mod 8;
#X obj 122 534 *~;
#X msg 543 520 bang;
#X obj 543 588 array define scale 10;
#X obj 543 566 list prepend 0;
#X obj 236 264 array get scale 0 1;
#X floatatom 249 314 5 0 0 0 - - -, f 5;
#X obj 543 544 black_keys;
#X obj 236 240 fetch 2 6;
#X text 318 400 key following;
#X obj 137 52 t f f;
#X obj 261 82 sel;
#X obj 261 132 + 1;
#X obj 261 107 random 4;
#X floatatom 297 213 5 0 0 0 - - -, f 5;
#X floatatom 287 156 5 0 0 0 - - -, f 5;
#X obj 543 494 loadbang;
#X obj 287 188 + 3;
#X obj 236 288 + 72;
#X text 175 101 var;
#X obj 137 100 div 2;
#X connect 0 0 4 1;
#X connect 1 0 7 0;
#X connect 2 0 3 0;
#X connect 2 0 3 1;
#X connect 3 0 4 0;
#X connect 4 0 5 0;
#X connect 5 0 23 0;
#X connect 6 0 20 0;
#X connect 7 0 6 0;
#X connect 7 0 15 0;
#X connect 7 1 30 0;
#X connect 8 0 2 0;
#X connect 9 0 32 0;
#X connect 11 0 0 0;
#X connect 12 0 11 0;
#X connect 13 0 14 0;
#X connect 14 0 22 0;
#X connect 15 0 8 0;
#X connect 16 0 18 0;
#X connect 18 0 19 0;
#X connect 18 1 19 1;
#X connect 19 0 17 0;
#X connect 19 0 23 1;
#X connect 20 0 2 0;
#X connect 21 0 12 0;
#X connect 22 0 13 1;
#X connect 23 0 10 0;
#X connect 24 0 29 0;
#X connect 26 0 25 0;
#X connect 27 0 40 0;
#X connect 29 0 26 0;
#X connect 30 0 27 0;
#X connect 32 0 42 0;
#X connect 32 1 33 0;
#X connect 33 0 35 0;
#X connect 34 0 30 1;
#X connect 34 0 37 0;
#X connect 34 0 39 0;
#X connect 35 0 34 0;
#X connect 38 0 24 0;
#X connect 39 0 30 2;
#X connect 39 0 36 0;
#X connect 40 0 28 0;
#X connect 40 0 21 0;
#X connect 40 0 16 0;
#X connect 42 0 1 0;
#X restore 611 125 pd arp;
#X obj 490 92 f;
#X obj 599 193 output~;
#X obj 645 156 cyclone/delay~ 64 64;
#X text 643 198 66;
#X text 545 166 85;
#X obj 139 559 * 0.12;
#X connect 0 0 1 0;
#X connect 1 0 2 0;
#X connect 1 1 3 0;
#X connect 2 0 31 0;
#X connect 2 0 43 0;
#X connect 3 0 21 0;
#X connect 6 0 19 0;
#X connect 6 1 28 0;
#X connect 10 0 11 0;
#X connect 15 0 29 0;
#X connect 15 1 18 0;
#X connect 15 2 17 0;
#X connect 17 0 20 0;
#X connect 18 0 20 0;
#X connect 19 0 8 0;
#X connect 20 0 23 1;
#X connect 21 0 6 0;
#X connect 21 1 22 0;
#X connect 22 0 23 0;
#X connect 22 1 15 0;
#X connect 23 0 25 0;
#X connect 25 0 26 0;
#X connect 25 1 14 0;
#X connect 28 0 9 0;
#X connect 29 0 20 0;
#X connect 31 0 32 0;
#X connect 32 0 35 0;
#X connect 33 0 10 0;
#X connect 35 0 33 0;
#X connect 35 1 36 0;
#X connect 36 0 37 0;
#X connect 37 0 39 0;
#X connect 39 0 48 0;
#X connect 40 0 48 1;
#X connect 41 0 38 0;
#X connect 41 0 38 1;
#X connect 42 0 44 0;
#X connect 42 0 45 0;
#X connect 43 0 41 0;
#X connect 43 0 42 0;
#X connect 45 0 44 1;
#X connect 48 0 30 0;
#X restore 80 338 pd trig;
#X obj 84 508 output~;
#X obj 79 377 tr808;
#X connect 0 0 2 0;
#X connect 0 1 3 0;
#X connect 2 0 1 0;
#X connect 2 0 4 0;
#X connect 4 0 5 0;
#X connect 7 0 6 0;
#X connect 7 0 6 1;
#X coords 0 855 1 854 40 20 0;
