#N canvas 2 23 1436 855 10;
#X declare -path lst;
#N canvas 467 126 764 570 cl 0;
#X obj 100 189 metro 1 64 samp;
#X obj 100 413 outlet;
#X obj 187 159 max 1;
#X obj 100 388 f;
#X obj 134 388 + 1;
#X floatatom 103 119 3 0 0 1 spd - -, f 3;
#X text 483 95 clock with speed control;
#X obj 143 102 bng 15 250 50 0 empty \$0reset empty 17 7 0 10 -262144
-1 -1;
#X text 163 101 reset;
#X msg 344 173 0, f 2;
#X text 157 414 to sequencer;
#X obj 168 388 mod 1e+38;
#X obj 100 170 tgl 15 1 empty empty empty 17 7 0 10 -262144 -1 -1 0
1;
#X obj 100 229 seq/spdctrl2;
#X obj 453 389 con/mstobpm;
#X obj 453 431 outlet;
#X obj 453 243 * 64;
#X obj 453 268 con/samptoms;
#X floatatom 460 312 7 0 0 0 - - -, f 7;
#X text 485 291 speed reduction rate;
#X obj 453 410 int;
#X obj 103 42 loadbang;
#X text 483 354 beat is a quarter-bar;
#X obj 453 354 * 4;
#X obj 100 255 route 16;
#X obj 453 291 * 1;
#X obj 103 69 60;
#X connect 0 0 13 0;
#X connect 2 0 0 1;
#X connect 2 0 16 0;
#X connect 3 0 4 0;
#X connect 3 0 1 0;
#X connect 4 0 11 0;
#X connect 5 0 2 0;
#X connect 7 0 9 0;
#X connect 9 0 3 1;
#X connect 11 0 3 1;
#X connect 12 0 0 0;
#X connect 13 0 24 0;
#X connect 14 0 20 0;
#X connect 16 0 17 0;
#X connect 17 0 25 0;
#X connect 20 0 15 0;
#X connect 21 0 26 0;
#X connect 23 0 14 0;
#X connect 24 0 3 0;
#X connect 25 0 18 0;
#X connect 25 0 23 0;
#X connect 26 0 5 0;
#X coords 0 -1 1 1 60 36 1 100 100;
#X restore 80 46 pd cl;
#X floatatom 131 227 3 0 0 1 - - -, f 3;
#X obj 80 102 seq;
#X floatatom 133 81 3 0 0 1 bpm - -, f 3;
#N canvas 175 51 1191 769 ptrn 0;
#X obj 1043 554 array get \$0ptrn;
#X msg 1043 530 bang;
#X obj 101 387 loadbang;
#X obj 837 185 inlet;
#X obj 942 300 array get \$0ptrn 0 1;
#X text 1041 503 debug;
#X obj 837 415 outlet;
#X msg 1043 601 bang;
#X obj 1043 625 array get \$0map;
#X floatatom 103 132 8 0 0 2 b1 #0r-ptrn1 #0s-ptrn1, f 8;
#X floatatom 103 150 8 0 0 0 - #0r-map1 #0s-map1, f 8;
#X obj 942 323 array get \$0map 0 1;
#X obj 837 218 mod 16;
#X floatatom 157 132 8 0 0 2 b2 #0r-ptrn2 #0s-ptrn2, f 8;
#X floatatom 157 150 8 0 0 1 map #0r-map2 #0s-map2, f 8;
#X floatatom 103 168 8 0 0 0 - #0r-acc1 #0s-acc1, f 8;
#X floatatom 157 168 8 0 0 1 acc #0r-acc2 #0s-acc2, f 8;
#X text 933 107 TODO: add gate;
#X msg 1044 677 bang;
#X obj 1044 699 array get \$0acc;
#X obj 942 346 array get \$0acc 0 1;
#X obj 837 257 t f f f f;
#X obj 837 393 pack f f f f;
#X text 206 132 ptrn;
#N canvas 0 22 492 419 set-ptrn 0;
#X obj 112 228 lst/list-map;
#X obj 196 228 - 48;
#X obj 112 83 moocow/any2bytes 0 -1;
#X obj 112 271 list prepend 0;
#X obj 112 250 con/dec2bin;
#X obj 112 294 array define \$0ptrn 16;
#X obj 112 205 list;
#X obj 158 152 t b l;
#X obj 112 181 list;
#X obj 112 131 t b l;
#X obj 158 130 moocow/any2bytes 0 -1;
#X obj 112 58 r \$0s-ptrn1;
#X obj 158 105 r \$0s-ptrn2;
#X connect 0 0 4 0;
#X connect 0 1 1 0;
#X connect 1 0 0 1;
#X connect 2 0 9 0;
#X connect 3 0 5 0;
#X connect 4 0 3 0;
#X connect 6 0 0 0;
#X connect 7 0 8 0;
#X connect 7 1 6 1;
#X connect 8 0 6 0;
#X connect 9 0 8 0;
#X connect 9 1 8 1;
#X connect 10 0 7 0;
#X connect 11 0 2 0;
#X connect 12 0 10 0;
#X restore 101 222 pd set-ptrn;
#N canvas 0 22 860 645 set-map 0;
#X obj 260 410 lst/list-distrib;
#X obj 260 358 array get \$0ptrn;
#X obj 260 433 list prepend 0;
#X obj 376 164 moocow/any2bytes 0 -1;
#X obj 260 140 t b f;
#X obj 260 456 array define \$0map 16;
#X obj 260 118 r \$0s-map1;
#X obj 376 357 lst/list-map;
#X obj 460 357 - 48;
#X obj 376 334 list;
#X obj 376 306 list;
#X obj 376 186 t b l;
#X obj 421 186 r \$0s-map2;
#X obj 421 209 moocow/any2bytes 0 -1;
#X obj 421 232 t b b l;
#X connect 0 0 2 0;
#X connect 1 0 0 0;
#X connect 2 0 5 0;
#X connect 3 0 11 0;
#X connect 4 0 1 0;
#X connect 4 1 3 0;
#X connect 6 0 4 0;
#X connect 7 0 0 1;
#X connect 7 1 8 0;
#X connect 8 0 7 1;
#X connect 9 0 7 0;
#X connect 10 0 9 0;
#X connect 11 0 10 0;
#X connect 11 1 10 1;
#X connect 12 0 13 0;
#X connect 13 0 14 0;
#X connect 14 0 1 0;
#X connect 14 1 10 0;
#X connect 14 2 9 1;
#X restore 101 246 pd set-map;
#N canvas 0 22 860 645 set-acc 0;
#X obj 260 410 lst/list-distrib;
#X obj 260 358 array get \$0ptrn;
#X obj 260 433 list prepend 0;
#X obj 376 164 moocow/any2bytes 0 -1;
#X obj 260 140 t b f;
#X obj 376 357 lst/list-map;
#X obj 460 357 - 48;
#X obj 376 334 list;
#X obj 376 306 list;
#X obj 376 186 t b l;
#X obj 421 209 moocow/any2bytes 0 -1;
#X obj 421 232 t b b l;
#X obj 260 457 array define \$0acc 16;
#X obj 260 118 r \$0s-acc1;
#X obj 421 186 r \$0s-acc2;
#X connect 0 0 2 0;
#X connect 1 0 0 0;
#X connect 2 0 12 0;
#X connect 3 0 9 0;
#X connect 4 0 1 0;
#X connect 4 1 3 0;
#X connect 5 0 0 1;
#X connect 5 1 6 0;
#X connect 6 0 5 1;
#X connect 7 0 5 0;
#X connect 8 0 7 0;
#X connect 9 0 8 0;
#X connect 9 1 8 1;
#X connect 10 0 11 0;
#X connect 11 0 1 0;
#X connect 11 1 8 0;
#X connect 11 2 7 1;
#X connect 13 0 4 0;
#X connect 14 0 10 0;
#X restore 101 270 pd set-acc;
#X obj 116 119 bng 10 250 50 0 \$0s-wr1 \$0r-wr1 w 13 5 0 10 -262144
-1 -1;
#X obj 170 119 bng 10 250 50 0 \$0s-wr2 \$0r-wr2 w 13 5 0 10 -262144
-1 -1;
#N canvas 0 22 548 420 write-to-textfile 0;
#X obj 133 89 r \$0s-wr1;
#X obj 179 208 r \$0s-acc1;
#X obj 164 186 r \$0s-map1;
#X obj 150 164 r \$0s-ptrn1;
#X obj 244 330 list trim;
#X obj 292 91 r \$0s-wr2;
#X obj 380 207 r \$0s-acc2;
#X obj 366 186 r \$0s-map2;
#X obj 349 165 r \$0s-ptrn2;
#X obj 244 352 s \$0reader;
#X obj 244 308 list prepend write;
#X obj 302 238 pack 2 f f f;
#X obj 103 236 pack 1 f f f;
#X obj 227 281 route 1 2;
#X connect 0 0 12 0;
#X connect 1 0 12 3;
#X connect 2 0 12 2;
#X connect 3 0 12 1;
#X connect 4 0 9 0;
#X connect 5 0 11 0;
#X connect 6 0 11 3;
#X connect 7 0 11 2;
#X connect 8 0 11 1;
#X connect 10 0 4 0;
#X connect 11 0 13 0;
#X connect 12 0 13 0;
#X connect 13 0 10 0;
#X connect 13 1 10 0;
#X restore 101 294 pd write-to-textfile;
#X obj 101 459 s \$0reader;
#X msg 101 420 0 1;
#X text 169 420 preset \, bar#;
#X msg 135 420 2 2;
#X obj 1044 721 print acc;
#X obj 1043 647 print map;
#X obj 1043 576 print ptrn;
#X obj 532 304 sel;
#X obj 532 326 t b b;
#X obj 532 348 timer;
#X floatatom 532 370 7 0 0 0 - - -, f 7;
#X floatatom 532 411 8 0 0 0 - - -, f 8;
#X obj 532 389 * 4;
#X connect 0 0 36 0;
#X connect 1 0 0 0;
#X connect 2 0 31 0;
#X connect 2 0 33 0;
#X connect 3 0 12 0;
#X connect 3 0 37 0;
#X connect 4 0 22 1;
#X connect 7 0 8 0;
#X connect 8 0 35 0;
#X connect 11 0 22 2;
#X connect 12 0 21 0;
#X connect 18 0 19 0;
#X connect 19 0 34 0;
#X connect 20 0 22 3;
#X connect 21 0 22 0;
#X connect 21 1 4 0;
#X connect 21 2 11 0;
#X connect 21 3 20 0;
#X connect 22 0 6 0;
#X connect 31 0 30 0;
#X connect 33 0 30 0;
#X connect 37 0 38 0;
#X connect 38 0 39 0;
#X connect 38 1 39 1;
#X connect 39 0 40 0;
#X connect 40 0 42 0;
#X connect 42 0 41 0;
#X coords 0 -1 1 1 135 84 1 100 100;
#X restore 80 248 pd ptrn;
#N canvas 274 31 1143 822 trig 0;
#X obj 121 45 inlet;
#X obj 121 255 list split 1;
#X floatatom 121 371 5 0 0 0 - - -, f 5;
#X obj 287 323 route 1;
#X text 317 471 1 bd;
#X text 317 488 2 sd;
#X obj 287 508 route 1 2;
#X text 336 323 filter offsets;
#X obj 289 581 s tr808-bd;
#X obj 318 555 s tr808-sd;
#X text 160 46 iter \, onset \, map \, acc;
#X text 542 567 map instr;
#X obj 547 687 s tr808-SD-vol;
#X obj 520 451 route 1 2 3;
#X text 596 451 accents;
#X msg 576 484 127;
#X msg 541 484 80;
#X obj 287 559 b;
#X obj 536 517 f;
#X obj 287 345 t l l;
#X obj 477 427 unpack;
#X obj 477 543 pack;
#X text 523 428 manage accents;
#X obj 478 566 route 1 2;
#X obj 435 721 s tr808-BD-vol;
#X text 350 509 map instr;
#X obj 316 532 b;
#X msg 507 484 25;
#X obj 121 523 change;
#N canvas 487 42 803 743 arp 0;
#X obj 221 410 osc~;
#X obj 317 180 change;
#X obj 357 316 line~;
#X obj 357 338 *~;
#X obj 203 472 *~;
#X obj 203 494 expr~ atan($v1);
#X obj 374 264 del 5;
#X obj 317 202 t b b;
#X msg 330 288 \$1 5;
#X obj 207 18 inlet;
#X obj 203 589 outlet~;
#X obj 120 393 line~;
#X obj 120 371 pack 0 5;
#X obj 330 264 f 0.9;
#X obj 372 419 / 127;
#X floatatom 381 484 5 0 0 0 - - -, f 5;
#X obj 372 441 swap 1;
#X obj 372 463 -;
#X msg 374 288 0 150;
#X obj 120 346 mtof;
#X obj 203 559 *~;
#X obj 120 270 array get scale 0 1;
#X floatatom 170 311 5 0 0 0 - - -, f 5;
#X obj 120 246 fetch 2 6;
#X text 383 400 key following;
#X obj 207 43 t f f;
#X obj 130 181 + 1;
#X floatatom 225 201 5 0 0 0 - - -, f 5;
#X floatatom 156 182 5 0 0 0 - - -, f 5;
#X obj 198 200 + 3;
#X obj 144 81 + 1;
#X obj 144 103 div 16;
#X obj 144 125 sel 1;
#X obj 144 149 random 5;
#X floatatom 226 171 5 0 0 0 - - -, f 5;
#X text 260 171 var;
#X text 355 159 var \, 16 is silence;
#X obj 123 424 tri_trevor~;
#X obj 317 158 div 2;
#X obj 120 294 + 24;
#X connect 1 0 7 0;
#X connect 2 0 3 0;
#X connect 2 0 3 1;
#X connect 3 0 4 1;
#X connect 4 0 5 0;
#X connect 5 0 20 0;
#X connect 6 0 18 0;
#X connect 7 0 6 0;
#X connect 7 0 13 0;
#X connect 7 1 23 0;
#X connect 8 0 2 0;
#X connect 9 0 25 0;
#X connect 11 0 37 0;
#X connect 12 0 11 0;
#X connect 13 0 8 0;
#X connect 14 0 16 0;
#X connect 16 0 17 0;
#X connect 16 1 17 1;
#X connect 17 0 15 0;
#X connect 17 0 20 1;
#X connect 18 0 2 0;
#X connect 19 0 12 0;
#X connect 20 0 10 0;
#X connect 21 0 39 0;
#X connect 23 0 21 0;
#X connect 25 0 30 0;
#X connect 25 1 38 0;
#X connect 26 0 23 1;
#X connect 26 0 28 0;
#X connect 26 0 29 0;
#X connect 29 0 23 2;
#X connect 29 0 27 0;
#X connect 30 0 31 0;
#X connect 31 0 32 0;
#X connect 32 0 33 0;
#X connect 33 0 26 0;
#X connect 34 0 29 1;
#X connect 37 0 4 0;
#X connect 38 0 1 0;
#X connect 39 0 22 0;
#X connect 39 0 19 0;
#X connect 39 0 14 0;
#X restore 917 106 pd arp;
#X obj 951 137 cyclone/delay~ 64 64;
#X text 949 179 66;
#X text 460 698 vol;
#X floatatom 450 679 5 0 0 0 - - -, f 5;
#X text 572 664 vol;
#X floatatom 562 645 5 0 0 0 - - -, f 5;
#X text 577 385 volume;
#N canvas 0 22 598 435 OH 0;
#X obj 80 186 inlet;
#N canvas 0 22 450 278 (subpatch) 0;
#X array \$0acc-OH 8 float 3;
#A 0 0.674995 0.425001 0.674996 0.449999 0.650005 0.424995 0.650006
0.425001;
#X coords 0 1 8 0 100 40 1 0 0;
#X restore 102 120 graph;
#X obj 80 269 b;
#X obj 80 290 s tr808-oh;
#X obj 157 352 s tr808-OH-vol;
#X floatatom 80 251 5 0 0 0 - - -, f 5;
#X obj 80 216 t f f;
#X obj 157 244 array get \$0acc-OH 0 1;
#X obj 157 266 min 1;
#X obj 157 288 * 127;
#X floatatom 152 104 5 0 100 1 vol - -, f 5;
#X obj 152 37 loadbang;
#X msg 152 59 15;
#X obj 157 330 *;
#X obj 441 242 * 0.01;
#X msg 85 71 set \$1;
#X connect 0 0 6 0;
#X connect 2 0 3 0;
#X connect 5 0 2 0;
#X connect 6 0 5 0;
#X connect 6 1 7 0;
#X connect 7 0 8 0;
#X connect 8 0 9 0;
#X connect 9 0 13 0;
#X connect 10 0 14 0;
#X connect 10 0 15 0;
#X connect 11 0 12 0;
#X connect 12 0 10 0;
#X connect 13 0 4 0;
#X connect 14 0 13 1;
#X connect 15 0 12 0;
#X coords 0 -1 1 1 104 62 2 100 100;
#X restore 121 557 pd OH;
#X obj 121 501 div 2;
#X floatatom 174 490 5 0 0 0 - - -, f 5;
#N canvas 0 22 1385 840 phasemod 0;
#X floatatom 325 379 0 0 0 0 - - -;
#X obj 417 434 line~;
#X floatatom 229 393 0 0 0 0 - - -;
#X obj 229 507 cos~;
#X obj 229 463 +~;
#X obj 325 404 osc~ 0;
#X obj 417 408 pack 0 50;
#X floatatom 417 355 0 0 0 0 - - -;
#X obj 417 382 / 100;
#X text 391 317 modulation index;
#X text 391 332 in hundredths;
#X text 226 350 carrier;
#X text 225 368 frequency;
#X text 310 355 frequency;
#X text 311 338 modulation;
#X text 134 404 carrier;
#X text 134 419 phase -->;
#X text 107 447 phase;
#X text 106 462 modulation-->;
#X text 113 489 output;
#X text 112 506 waveform -->;
#X text 230 273 PHASE MODULATION;
#X obj 229 420 phasor~;
#X obj 494 787 outlet~;
#X obj 338 632 *~;
#X obj 649 442 del 5;
#X obj 609 494 line~;
#X obj 609 519 *~;
#X obj 796 25 inlet;
#X obj 846 138 change;
#X obj 796 69 t f f;
#X obj 694 191 f;
#X obj 721 191 + 1;
#X obj 694 119 div 16;
#X obj 694 98 + 1;
#X obj 694 145 sel 1;
#X text 894 116 var;
#X obj 368 691 expr~ atan($v1);
#X obj 602 331 mtof~;
#X obj 600 355 *~ 0.5;
#X floatatom 632 398 5 0 0 0 - - -, f 5;
#X msg 594 454 \$1 5;
#X obj 846 160 b;
#X obj 846 116 div 2;
#X obj 605 308 +;
#X obj 694 250 f 37;
#X obj 604 416 f 1.65;
#X text 443 352 22;
#X floatatom 746 625 0 0 0 0 - - -;
#X floatatom 929 638 0 0 0 0 - - -;
#X obj 842 684 trigger bang float;
#X obj 688 758 biquad~;
#X obj 741 599 hsl 128 17 20 20000 1 0 empty empty frequency 5 9 0
10 -203904 -1 -1 4400 0;
#X obj 932 616 hsl 128 17 0 300 0 0 empty empty bandwidth 5 9 0 10
-261682 -1 -1 2600 0;
#X obj 751 727 ggee/notch;
#X obj 488 764 hip~ 250;
#X obj 796 46 spigot;
#X obj 844 25 r bass-play;
#X obj 694 167 b;
#X obj 545 123 r reset-count;
#X floatatom 883 88 5 0 0 0 - - -, f 5;
#X msg 648 466 0 450;
#X obj 810 765 print;
#X obj 729 250 f 38;
#X obj 721 691 f 218.978;
#X obj 841 661 f 61.4173;
#X obj 672 653 loadbang;
#X obj 371 487 *~ 0.08;
#X obj 371 508 +~ 0.16;
#X text 352 439 0.22;
#X obj 325 436 *~;
#X obj 371 466 osc~ 0.02;
#X obj 748 191 mod 4;
#X obj 694 218 sel 0 1 2 3;
#X connect 0 0 5 0;
#X connect 2 0 22 0;
#X connect 3 0 24 0;
#X connect 4 0 3 0;
#X connect 5 0 70 0;
#X connect 6 0 1 0;
#X connect 7 0 8 0;
#X connect 8 0 6 0;
#X connect 22 0 4 0;
#X connect 24 0 37 0;
#X connect 25 0 61 0;
#X connect 26 0 27 0;
#X connect 26 0 27 1;
#X connect 27 0 24 1;
#X connect 28 0 56 0;
#X connect 29 0 42 0;
#X connect 30 0 34 0;
#X connect 30 1 43 0;
#X connect 31 0 32 0;
#X connect 31 0 73 0;
#X connect 32 0 72 0;
#X connect 33 0 35 0;
#X connect 34 0 33 0;
#X connect 35 0 58 0;
#X connect 37 0 51 0;
#X connect 38 0 39 0;
#X connect 38 0 22 0;
#X connect 39 0 5 0;
#X connect 40 0 46 1;
#X connect 41 0 26 0;
#X connect 42 0 25 0;
#X connect 42 0 46 0;
#X connect 43 0 29 0;
#X connect 44 0 38 0;
#X connect 45 0 44 0;
#X connect 46 0 41 0;
#X connect 50 0 54 0;
#X connect 50 1 54 1;
#X connect 51 0 55 0;
#X connect 52 0 48 0;
#X connect 53 0 49 0;
#X connect 54 0 51 0;
#X connect 54 0 62 0;
#X connect 55 0 23 0;
#X connect 56 0 30 0;
#X connect 57 0 56 1;
#X connect 58 0 31 0;
#X connect 59 0 31 1;
#X connect 60 0 43 1;
#X connect 61 0 26 0;
#X connect 63 0 44 0;
#X connect 64 0 54 0;
#X connect 65 0 50 0;
#X connect 66 0 64 0;
#X connect 66 0 65 0;
#X connect 67 0 68 0;
#X connect 68 0 70 1;
#X connect 70 0 4 1;
#X connect 71 0 67 0;
#X connect 72 0 31 1;
#X connect 73 0 45 0;
#X connect 73 1 45 0;
#X connect 73 2 63 0;
#X connect 73 3 45 0;
#X restore 551 298 pd phasemod;
#X obj 918 746 declare -path lst;
#X obj 551 326 throw~ bass;
#X obj 500 210 throw~ pad-l;
#X obj 520 189 throw~ pad-r;
#X obj 121 426 spigot;
#X obj 315 120 r drum-play;
#X obj 286 300 spigot;
#X obj 435 698 * 2;
#X obj 547 664 * 2;
#X msg 926 246 0;
#X text 955 247 reset all counters;
#X obj 967 276 s reset-count;
#X obj 911 628 list prepend 0;
#X obj 911 556 loadbang;
#X obj 1015 608 pch/midinum;
#X obj 911 650 array define scale 14;
#X obj 912 604 pch/2x8ve 4 7;
#X msg 921 580 bang;
#N canvas 136 32 1216 855 schedule 0;
#X obj 143 97 sel;
#X obj 143 121 f;
#X obj 169 121 + 1;
#X obj 173 97 r reset-count;
#X msg 141 73 \$1;
#X obj 75 38 inlet;
#X obj 181 543 sel;
#X msg 130 771 0;
#X obj 130 793 s all-play;
#X msg 96 794 1;
#X obj 96 816 s drum-play;
#X floatatom 256 150 5 0 0 0 - - -, f 5;
#X msg 160 750 1;
#X obj 162 773 s qblen;
#X obj 670 218 sel 15;
#X obj 662 480 s qblen;
#X msg 654 503 1;
#X obj 654 525 s bass-play;
#X obj 638 570 s OH-play;
#X msg 638 547 1;
#X msg 660 457 4;
#X obj 185 719 s OH-play;
#X msg 185 696 0;
#X obj 629 611 s pad-launch;
#X msg 254 780 0;
#X obj 258 803 s pad-launch;
#X msg 624 590 1;
#X obj 597 379 t b b b b b;
#X obj 597 357 sel 7;
#X obj 246 374 spigot;
#X obj 238 430 sel;
#X obj 238 452 random 4;
#X obj 238 474 s qbloc;
#X obj 294 777 s qbloc;
#X msg 287 753 0;
#X msg 273 329 1;
#X obj 280 353 tgl 15 0 empty empty empty 17 7 0 10 -262144 -1 -1 1
1;
#X obj 282 726 s snare-exit;
#X msg 282 703 0;
#X obj 238 408 mod 8;
#X obj 407 495 s snare-exit;
#X msg 407 472 1;
#X obj 402 379 t b b b;
#X obj 459 427 s bass-play;
#X msg 459 405 0;
#X obj 424 448 s OH-play;
#X msg 424 425 0;
#X msg 386 721 0;
#X obj 386 744 s snare-rev;
#X obj 927 79 r snare-exit-finished;
#X obj 988 230 s vc-play;
#X msg 985 207 1;
#X obj 971 301 s all-play;
#X msg 967 279 1;
#X obj 1006 280 s OH-play;
#X obj 927 101 t b b;
#X msg 986 162 0;
#X obj 986 184 s snare-rev;
#X obj 918 187 bng 15 250 50 0 empty empty empty 17 7 0 10 -262144
-1 -1;
#X obj 990 130 s snare-exit;
#X msg 990 107 0;
#X obj 967 257 del 17000;
#X obj 1007 385 r fuck-available;
#X obj 1030 461 s OH-play;
#X msg 1028 437 0, f 2;
#X obj 886 468 r fuck-now;
#X msg 1112 518 0;
#X obj 1112 540 s all-play;
#X text 825 687 CHIMES!!!;
#X obj 740 751 soundfiler;
#X floatatom 746 779 0 0 0 0 - - -;
#X msg 739 727 read -resize tchimes.wav chimes;
#X obj 800 782 array define chimes;
#X obj 944 695 tabplay~ chimes;
#X msg 904 598 0;
#X obj 1072 726 bng 15 250 50 0 empty empty empty 17 7 0 10 -262144
-1 -1;
#X obj 903 576 delay 5000;
#X obj 948 722 throw~ chimes;
#X obj 195 121 mod 512;
#X obj 402 357 sel 39;
#X msg 1060 413 1, f 2;
#X obj 1060 435 s wesley-drum;
#X obj 356 642 s wesley-drum;
#X msg 1072 752 1;
#X obj 1116 747 s OH-play;
#X msg 1113 723 1;
#X msg 1103 689 4;
#X obj 273 307 sel 23;
#X msg 321 753 8;
#X obj 181 566 t b b b b b b b b b b;
#X obj 549 673 spigot;
#X obj 541 729 sel;
#X obj 583 652 tgl 15 0 empty empty empty 17 7 0 10 -262144 -1 -1 1
1;
#X obj 543 797 s qblen;
#X obj 541 707 mod 2;
#X msg 354 619 0;
#X msg 606 775 2;
#X obj 922 668 spigot;
#X obj 981 629 tgl 15 0 empty empty empty 17 7 0 10 -262144 -1 -1 0
1;
#X obj 979 607 r chimes-play;
#X obj 1113 623 s chimes-play;
#X msg 1111 603 1;
#X msg 671 244 1;
#X obj 676 265 s pad-play;
#X msg 1111 561 1;
#X obj 1113 581 s pad-play;
#X obj 886 490 t b b b b;
#X obj 824 555 s all-play;
#X obj 826 531 delay 10000;
#X obj 541 773 + 1;
#X obj 541 751 random 4;
#X connect 0 0 1 0;
#X connect 1 0 2 0;
#X connect 1 0 6 0;
#X connect 1 0 11 0;
#X connect 1 0 28 0;
#X connect 1 0 29 0;
#X connect 1 0 79 0;
#X connect 1 0 87 0;
#X connect 1 0 90 0;
#X connect 1 0 14 0;
#X connect 2 0 78 0;
#X connect 3 0 1 1;
#X connect 4 0 0 0;
#X connect 5 0 4 0;
#X connect 6 0 89 0;
#X connect 7 0 8 0;
#X connect 9 0 10 0;
#X connect 12 0 13 0;
#X connect 14 0 102 0;
#X connect 16 0 17 0;
#X connect 19 0 18 0;
#X connect 20 0 15 0;
#X connect 22 0 21 0;
#X connect 24 0 25 0;
#X connect 26 0 23 0;
#X connect 27 0 26 0;
#X connect 27 1 19 0;
#X connect 27 2 16 0;
#X connect 27 3 20 0;
#X connect 28 0 27 0;
#X connect 29 0 39 0;
#X connect 30 0 31 0;
#X connect 31 0 32 0;
#X connect 34 0 33 0;
#X connect 34 0 36 0;
#X connect 34 0 92 0;
#X connect 35 0 36 0;
#X connect 36 0 29 1;
#X connect 38 0 37 0;
#X connect 39 0 30 0;
#X connect 41 0 40 0;
#X connect 42 0 41 0;
#X connect 42 1 46 0;
#X connect 42 2 44 0;
#X connect 44 0 43 0;
#X connect 46 0 45 0;
#X connect 47 0 48 0;
#X connect 49 0 55 0;
#X connect 51 0 50 0;
#X connect 53 0 52 0;
#X connect 53 0 54 0;
#X connect 55 0 51 0;
#X connect 55 0 58 0;
#X connect 55 0 61 0;
#X connect 55 1 56 0;
#X connect 55 1 60 0;
#X connect 56 0 57 0;
#X connect 60 0 59 0;
#X connect 61 0 53 0;
#X connect 62 0 64 0;
#X connect 62 0 80 0;
#X connect 64 0 63 0;
#X connect 65 0 106 0;
#X connect 66 0 67 0;
#X connect 69 0 70 0;
#X connect 71 0 69 0;
#X connect 73 0 77 0;
#X connect 73 1 75 0;
#X connect 73 1 74 0;
#X connect 74 0 97 0;
#X connect 75 0 83 0;
#X connect 75 0 85 0;
#X connect 75 0 86 0;
#X connect 76 0 74 0;
#X connect 78 0 1 1;
#X connect 79 0 42 0;
#X connect 80 0 81 0;
#X connect 83 0 92 0;
#X connect 85 0 84 0;
#X connect 86 0 39 1;
#X connect 87 0 35 0;
#X connect 88 0 39 1;
#X connect 89 0 9 0;
#X connect 89 1 7 0;
#X connect 89 2 12 0;
#X connect 89 3 22 0;
#X connect 89 4 24 0;
#X connect 89 5 34 0;
#X connect 89 5 88 0;
#X connect 89 6 38 0;
#X connect 89 7 47 0;
#X connect 89 8 95 0;
#X connect 90 0 94 0;
#X connect 91 0 110 0;
#X connect 92 0 90 1;
#X connect 94 0 91 0;
#X connect 95 0 82 0;
#X connect 96 0 93 0;
#X connect 97 0 73 0;
#X connect 98 0 97 1;
#X connect 99 0 98 0;
#X connect 101 0 100 0;
#X connect 102 0 103 0;
#X connect 104 0 105 0;
#X connect 106 0 76 0;
#X connect 106 0 108 0;
#X connect 106 1 101 0;
#X connect 106 2 104 0;
#X connect 106 3 66 0;
#X connect 108 0 107 0;
#X connect 109 0 93 0;
#X connect 110 0 109 0;
#X restore 159 84 pd schedule;
#X obj 121 457 spigot;
#X obj 206 427 r OH-play;
#X obj 133 735 tgl 15 0 OH-play empty OH 17 7 0 10 -262144 -1 -1 0
1;
#N canvas 423 262 910 616 pad 0;
#X obj 34 22 inlet;
#X obj 43 169 array get scale 0 1;
#X obj 42 92 change;
#X floatatom 118 219 5 0 0 0 - - -, f 5;
#N canvas 0 22 450 278 (subpatch) 0;
#X array peaks 16 float 3;
#A 0 2.14276 82.8571 2.14286 68.5715 1.42776 57.8572 1.42837 47.1427
1.42837 46.4287 2.14275 37.1429 2.14265 29.2858 2.85712 17.1429;
#X coords 0 100 16 0 200 140 1 0 0;
#X restore 635 251 graph;
#X obj 646 443 mtl/spectrum~;
#X obj 43 220 t b f;
#X obj 42 253 f;
#X obj 68 253 + 1;
#X obj 94 253 mod 4;
#X floatatom 169 271 5 0 0 0 - - -, f 5;
#X obj 194 304 print;
#X obj 42 114 * 7;
#X obj 42 70 div 8;
#X obj 40 288 pack f f 1000;
#X obj 42 136 + 5;
#X obj 319 169 array get scale 0 1;
#X floatatom 367 217 5 0 0 0 - - -, f 5;
#X obj 319 220 t b f;
#X obj 318 253 f;
#X obj 344 253 + 1;
#X obj 370 253 mod 4;
#X floatatom 445 271 5 0 0 0 - - -, f 5;
#X obj 316 288 pack f f 1000;
#X obj 176 424 tof/crossfade~ 2;
#X obj 188 531 outlet~;
#X obj 268 529 outlet~;
#X obj 543 97 f;
#X obj 569 97 + 1;
#X obj 542 175 sel;
#X obj 471 487 line~;
#X obj 472 444 tgl 15 0 empty empty empty 17 7 0 10 -262144 -1 -1 1
1;
#X obj 318 141 + 4;
#X obj 595 97 mod 8;
#X floatatom 93 143 5 0 0 0 - - -, f 5;
#X floatatom 359 142 5 0 0 0 - - -, f 5;
#X obj 411 343 *~ 5;
#X obj 318 345 *~ 5;
#X obj 135 343 *~ 5;
#X obj 42 345 *~ 5;
#X obj 43 198 + 36;
#X obj 174 457 hip~ 1000;
#X obj 270 449 hip~ 1000;
#X obj 543 72 sel;
#X floatatom 498 137 5 0 0 0 - - -, f 5;
#X obj 271 470 lop~ 4000;
#X obj 173 476 lop~ 4000;
#X obj 35 46 spigot;
#X obj 83 25 r pad-play;
#X msg 471 465 \$1 5000;
#X obj 591 53 r reset-count;
#X obj 554 459 r pad-launch;
#X obj 272 499 *~;
#X obj 179 502 *~;
#X obj 531 568 line~;
#X obj 553 482 moses 1;
#X msg 529 517 0 500;
#X obj 40 316 clone 4 sinebank;
#X obj 316 316 clone 4 sinebank;
#X obj 319 198 + 36.5;
#X msg 577 515 1 30000;
#X connect 0 0 47 0;
#X connect 1 0 40 0;
#X connect 2 0 12 0;
#X connect 6 0 7 0;
#X connect 6 1 14 1;
#X connect 7 0 8 0;
#X connect 7 0 14 0;
#X connect 8 0 9 0;
#X connect 9 0 7 1;
#X connect 10 0 14 2;
#X connect 12 0 15 0;
#X connect 12 0 32 0;
#X connect 13 0 2 0;
#X connect 14 0 11 0;
#X connect 14 0 57 0;
#X connect 15 0 1 0;
#X connect 15 0 34 0;
#X connect 16 0 59 0;
#X connect 18 0 19 0;
#X connect 18 1 23 1;
#X connect 19 0 20 0;
#X connect 19 0 23 0;
#X connect 20 0 21 0;
#X connect 21 0 19 1;
#X connect 22 0 23 2;
#X connect 23 0 58 0;
#X connect 24 0 41 0;
#X connect 24 1 42 0;
#X connect 27 0 28 0;
#X connect 27 0 29 0;
#X connect 27 0 44 0;
#X connect 28 0 33 0;
#X connect 29 0 31 0;
#X connect 30 0 24 4;
#X connect 31 0 49 0;
#X connect 32 0 16 0;
#X connect 32 0 35 0;
#X connect 33 0 27 1;
#X connect 36 0 24 3;
#X connect 37 0 24 2;
#X connect 38 0 5 0;
#X connect 38 0 24 1;
#X connect 39 0 24 0;
#X connect 40 0 3 0;
#X connect 40 0 6 0;
#X connect 41 0 46 0;
#X connect 42 0 45 0;
#X connect 43 0 27 0;
#X connect 45 0 52 0;
#X connect 46 0 53 0;
#X connect 47 0 13 0;
#X connect 47 0 43 0;
#X connect 48 0 47 1;
#X connect 49 0 30 0;
#X connect 50 0 27 1;
#X connect 51 0 55 0;
#X connect 52 0 26 0;
#X connect 53 0 25 0;
#X connect 54 0 53 1;
#X connect 54 0 52 1;
#X connect 55 0 56 0;
#X connect 55 1 60 0;
#X connect 56 0 54 0;
#X connect 57 0 39 0;
#X connect 57 1 38 0;
#X connect 58 0 37 0;
#X connect 58 1 36 0;
#X connect 59 0 17 0;
#X connect 59 0 18 0;
#X connect 60 0 54 0;
#X restore 492 166 pd pad;
#X text 507 145 TODO: add comb \, dynamics to pad;
#X obj 663 531 spigot;
#X obj 690 504 r snare-exit;
#X obj 727 700 s snare-rev;
#X obj 704 571 random 25;
#X obj 663 553 b;
#X msg 763 632 0;
#X obj 763 654 s drum-play;
#X obj 675 760 s snare-exit-finished;
#X obj 675 738 del 5000;
#N canvas 35 52 1138 793 vc 0;
#X obj 861 386 cnv 15 200 20 empty empty /pishi/ 2 12 0 8 -258401 -262144
0;
#X obj 861 409 nbx 5 14 -1e+37 1e+37 0 0 /pishi/transpose /pishi/transpose_
transpose 50 8 0 8 -262144 -1 -1 9 256;
#X obj 861 427 tgl 15 1 /pishi/switch /pishi/switch_ switch 17 7 0
8 -262144 -166441 -1 1 1;
#X obj 861 445 tgl 15 1 /pishi/method /pishi/method_ method 17 7 0
8 -262144 -166441 -1 1 1;
#X obj 309 487 mtl/pitchShift~ /id pishi;
#X obj 350 398 openpanel;
#X msg 349 421 read \$1;
#X msg 358 374 bang;
#X obj 250 448 mtl/player~ 0;
#X msg 538 334 11;
#X msg 573 333 10;
#X obj 602 382 s /pishi/transpose_;
#X floatatom 560 461 0 0 120 0 - - -;
#X text 591 463 level \, dB;
#X floatatom 585 485 0 0 100 0 - - -;
#X text 626 485 liveness \, 0-100;
#X floatatom 620 509 4 0 5000 0 - - -, f 4;
#X floatatom 655 532 0 0 100 0 - - -;
#X text 668 507 crossover frequency \, Hz.;
#X text 691 534 HF damping \, percent;
#X obj 307 523 hip~ 4000;
#X obj 420 525 hip~ 4000;
#X obj 229 387 mtl/samplefiler;
#X obj 109 208 bng 15 250 50 0 empty empty empty 17 7 0 10 -262144
-1 -1;
#X msg 187 256 add tt1.wav;
#X obj 118 234 t b b b;
#X msg 175 276 add tt2.wav;
#X msg 168 295 add tt3.wav;
#X obj 229 409 t b a;
#X msg 418 300 1, f 2;
#X obj 526 59 inlet;
#X obj 549 110 sel;
#X obj 549 170 f;
#X obj 577 170 + 1;
#X obj 606 170 mod 8;
#X obj 549 204 sel;
#X obj 549 227 f;
#X obj 577 227 + 1;
#X floatatom 493 196 5 0 0 0 - - -, f 5;
#X obj 606 227 mod 4;
#X msg 441 318 0, f 2;
#X floatatom 494 247 5 0 0 0 - - -, f 5;
#X msg 608 333 8, f 2;
#X obj 341 732 throw~ vc-l;
#X obj 422 734 throw~ vc-r;
#X obj 222 565 *~ 0.75;
#X obj 294 565 *~ 0.75;
#X obj 431 559 rev3~ 90 90 3000 30;
#X obj 531 84 spigot;
#X obj 565 63 r vc-play;
#X obj 833 34 r reset-count;
#X obj 47 183 loadbang;
#X msg 466 325 2, f 2;
#X obj 876 266 block~ 64 1 1;
#X obj 98 370 s /pishi/switch_;
#X msg 91 348 1;
#X obj 84 389 s /pishi/method_;
#X obj 781 133 f;
#X obj 809 133 + 1;
#X msg 656 197 4;
#X msg 791 195 5;
#X floatatom 832 157 5 0 0 0 - - -, f 5;
#X obj 549 256 sel 0 1 2 3 4;
#X obj 858 575 b;
#X msg 641 333 9;
#X obj 391 695 +~;
#X obj 439 696 +~;
#X obj 887 636 s fuck-available;
#X obj 465 349 t f b;
#X obj 483 380 s fuck-now;
#X floatatom 829 239 5 0 0 0 - - -, f 5;
#X obj 838 133 mod 64;
#X msg 446 222 4;
#X obj 788 170 sel 63;
#X connect 4 0 20 0;
#X connect 4 1 21 0;
#X connect 5 0 6 0;
#X connect 6 0 8 0;
#X connect 7 0 5 0;
#X connect 8 0 4 0;
#X connect 8 1 4 1;
#X connect 9 0 11 0;
#X connect 10 0 11 0;
#X connect 12 0 47 2;
#X connect 14 0 47 3;
#X connect 16 0 47 4;
#X connect 17 0 47 5;
#X connect 20 0 45 0;
#X connect 20 0 47 0;
#X connect 21 0 46 0;
#X connect 21 0 47 1;
#X connect 22 0 28 0;
#X connect 23 0 25 0;
#X connect 24 0 22 0;
#X connect 25 0 27 0;
#X connect 25 1 26 0;
#X connect 25 2 24 0;
#X connect 26 0 22 0;
#X connect 27 0 22 0;
#X connect 28 0 8 0;
#X connect 28 1 8 0;
#X connect 29 0 22 0;
#X connect 30 0 48 0;
#X connect 31 0 32 0;
#X connect 31 0 57 0;
#X connect 32 0 33 0;
#X connect 32 0 35 0;
#X connect 32 0 38 0;
#X connect 33 0 34 0;
#X connect 34 0 32 1;
#X connect 35 0 36 0;
#X connect 36 0 37 0;
#X connect 36 0 41 0;
#X connect 36 0 62 0;
#X connect 37 0 39 0;
#X connect 39 0 36 1;
#X connect 40 0 22 0;
#X connect 42 0 11 0;
#X connect 45 0 65 0;
#X connect 46 0 66 0;
#X connect 47 0 65 0;
#X connect 47 1 66 0;
#X connect 48 0 31 0;
#X connect 49 0 48 1;
#X connect 50 0 32 1;
#X connect 50 0 36 1;
#X connect 50 0 59 0;
#X connect 50 0 57 1;
#X connect 51 0 25 0;
#X connect 51 0 55 0;
#X connect 52 0 68 0;
#X connect 55 0 54 0;
#X connect 55 0 56 0;
#X connect 57 0 58 0;
#X connect 57 0 73 0;
#X connect 58 0 61 0;
#X connect 58 0 71 0;
#X connect 59 0 39 1;
#X connect 60 0 39 1;
#X connect 60 0 63 0;
#X connect 60 0 70 0;
#X connect 62 0 9 0;
#X connect 62 0 29 0;
#X connect 62 1 40 0;
#X connect 62 1 42 0;
#X connect 62 2 29 0;
#X connect 62 2 9 0;
#X connect 62 3 29 0;
#X connect 62 3 10 0;
#X connect 62 4 52 0;
#X connect 62 4 64 0;
#X connect 63 0 67 0;
#X connect 64 0 11 0;
#X connect 65 0 43 0;
#X connect 66 0 44 0;
#X connect 68 0 22 0;
#X connect 68 1 69 0;
#X connect 71 0 57 1;
#X connect 72 0 62 0;
#X connect 73 0 60 0;
#X restore 804 355 pd vc;
#X obj 677 714 b;
#X obj 519 597 t f f;
#X msg 721 678 0.2;
#X obj 905 174 output~;
#X obj 899 291 s qbloc;
#X obj 704 593 moses 2;
#X connect 0 0 1 0;
#X connect 0 0 59 0;
#X connect 1 0 2 0;
#X connect 1 1 47 0;
#X connect 2 0 40 0;
#X connect 2 0 63 0;
#X connect 2 0 45 0;
#X connect 2 0 74 0;
#X connect 3 0 19 0;
#X connect 6 0 17 0;
#X connect 6 1 26 0;
#X connect 13 0 27 0;
#X connect 13 1 16 0;
#X connect 13 2 15 0;
#X connect 15 0 18 0;
#X connect 16 0 18 0;
#X connect 17 0 8 0;
#X connect 18 0 21 1;
#X connect 19 0 6 0;
#X connect 19 1 20 0;
#X connect 20 0 21 0;
#X connect 20 1 13 0;
#X connect 21 0 23 0;
#X connect 23 0 48 0;
#X connect 23 1 76 0;
#X connect 26 0 9 0;
#X connect 27 0 18 0;
#X connect 28 0 37 0;
#X connect 29 0 30 0;
#X connect 29 0 78 0;
#X connect 30 0 78 1;
#X connect 33 0 48 1;
#X connect 35 0 49 1;
#X connect 38 0 28 0;
#X connect 39 0 38 1;
#X connect 40 0 42 0;
#X connect 45 0 60 0;
#X connect 46 0 45 1;
#X connect 46 0 47 1;
#X connect 47 0 3 0;
#X connect 48 0 24 0;
#X connect 49 0 12 0;
#X connect 50 0 79 0;
#X connect 53 0 56 0;
#X connect 54 0 57 0;
#X connect 57 0 53 0;
#X connect 58 0 57 0;
#X connect 60 0 38 0;
#X connect 61 0 60 1;
#X connect 63 0 43 0;
#X connect 63 1 44 0;
#X connect 65 0 69 0;
#X connect 66 0 65 1;
#X connect 68 0 80 0;
#X connect 69 0 68 0;
#X connect 69 0 77 0;
#X connect 70 0 71 0;
#X connect 73 0 72 0;
#X connect 75 0 73 0;
#X connect 76 0 49 0;
#X connect 76 1 65 0;
#X connect 77 0 67 0;
#X connect 80 0 70 0;
#X connect 80 0 75 0;
#X restore 80 338 pd trig;
#X obj 107 791 output~;
#X obj 79 377 tr808;
#X text 574 99 phrase is a combination of patterns;
#X text 586 121 add scratches for metronomic society;
#N canvas 680 160 518 588 reader 0;
#X obj 216 10 r \$0reader;
#X obj 230 279 unpack f f f;
#X obj 279 53 unpack;
#X obj 103 181 list prepend;
#X obj 103 428 unpack f f f;
#X obj 172 454 s \$0r-ptrn1;
#X obj 137 474 s \$0r-acc1;
#X obj 103 494 s \$0r-map1;
#X obj 299 305 s \$0r-ptrn2;
#X obj 264 325 s \$0r-acc2;
#X obj 230 345 s \$0r-map2;
#X obj 134 144 bng 10 250 50 0 empty empty debug 13 6 0 8 -262144 -1
-1;
#X msg 37 124 print;
#X obj 216 31 route write;
#X obj 103 55 list prepend add;
#X obj 103 77 list trim;
#X text 119 403 ptrn should be last;
#X obj 230 257 cyclone/zl rot -1;
#X obj 103 386 cyclone/zl rot -1;
#X obj 103 205 route 1 2;
#X obj 155 10 inlet;
#X obj 233 173 print l;
#X obj 103 116 rdr/reader pat 1;
#X connect 0 0 13 0;
#X connect 1 0 10 0;
#X connect 1 1 9 0;
#X connect 1 2 8 0;
#X connect 2 0 22 0;
#X connect 2 1 3 1;
#X connect 3 0 19 0;
#X connect 4 0 7 0;
#X connect 4 1 6 0;
#X connect 4 2 5 0;
#X connect 11 0 12 0;
#X connect 12 0 22 0;
#X connect 13 0 14 0;
#X connect 13 1 2 0;
#X connect 14 0 15 0;
#X connect 15 0 22 0;
#X connect 17 0 1 0;
#X connect 18 0 4 0;
#X connect 19 0 18 0;
#X connect 19 1 17 0;
#X connect 20 0 13 0;
#X connect 22 0 3 0;
#X connect 22 0 21 0;
#X coords 0 -1 1 1 75 57 1 100 100;
#X restore 220 248 pd reader;
#X obj 170 517 catch~ bass;
#X obj 247 583 catch~ pad-r;
#X obj 222 561 catch~ pad-l;
#X obj 233 642 catch~ vc-l;
#X obj 262 665 catch~ vc-r;
#X obj 1211 692 cnv 15 58 120 empty empty empty 20 12 0 20 -228856
-66577 0;
#X obj 1215 736 tgl 15 0 pad-play all-play pad 17 7 0 10 -262144 -1
-1 0 1;
#X obj 1215 755 tgl 15 0 bass-play all-play bass 17 7 0 10 -262144
-1 -1 0 1;
#X obj 1215 774 tgl 15 0 vc-play all-play vc 17 7 0 10 -262144 -1 -1
0 1;
#X obj 1215 717 tgl 15 0 drum-play all-play drum 17 7 0 10 -262144
-1 -1 0 1;
#X obj 1215 696 tgl 15 0 all-play empty all 17 7 0 10 -262144 -1 -1
0 1;
#X msg 242 190 \$1 1;
#X floatatom 240 167 5 0 0 0 - - -, f 5;
#X msg 286 214 \$1 2;
#X floatatom 289 193 5 0 0 0 - - -, f 5;
#X obj 170 539 *~ 0.562;
#X obj 251 605 *~ 0.141;
#X obj 195 606 *~ 0.141;
#N canvas 650 366 536 439 xfade 0;
#X obj 136 199 tof/crossfade~;
#X obj 99 42 inlet~;
#X obj 167 41 inlet~;
#X obj 367 153 r snare-rev;
#X msg 344 183 \$1 5;
#X obj 344 205 line~;
#X obj 169 242 outlet~;
#X obj 225 250 outlet~;
#X obj 201 118 rev3~ 100 77 3000 30;
#X floatatom 407 179 5 0 0 0 - - -, f 5;
#X connect 0 0 6 0;
#X connect 0 1 7 0;
#X connect 1 0 0 0;
#X connect 1 0 8 0;
#X connect 2 0 0 1;
#X connect 2 0 8 1;
#X connect 3 0 4 0;
#X connect 3 0 9 0;
#X connect 4 0 5 0;
#X connect 5 0 0 4;
#X connect 8 0 0 2;
#X connect 8 1 0 3;
#X restore 75 573 pd xfade;
#X obj 238 688 *~ 2;
#X obj 268 692 *~ 2;
#X obj 218 732 catch~ chimes;
#N canvas 0 22 683 451 wesley 0;
#X obj 52 41 inlet~;
#X obj 55 345 outlet~;
#X obj 152 47 r wesley-drum;
#X obj 44 180 *~;
#X obj 172 116 *~;
#X obj 83 133 == 0;
#X obj 135 250 pdkm/dkwesley~ 16 2;
#X obj 75 181 tgl 15 0 empty empty empty 17 7 0 10 -262144 -1 -1 0
1;
#X obj 201 116 tgl 15 0 empty empty empty 17 7 0 10 -262144 -1 -1 1
1;
#X obj 136 221 pdkm/dktanh~ 1.5;
#X connect 0 0 3 0;
#X connect 0 0 4 0;
#X connect 2 0 5 0;
#X connect 2 0 4 1;
#X connect 2 0 8 0;
#X connect 3 0 1 0;
#X connect 4 0 9 0;
#X connect 5 0 3 1;
#X connect 5 0 7 0;
#X connect 6 0 1 0;
#X connect 9 0 6 0;
#X restore 79 518 pd wesley;
#X msg 256 127 3;
#X msg 308 153 4;
#X obj 310 96 loadbang;
#X msg 665 781 print;
#X msg 664 733 start;
#X msg 666 759 stop;
#X text 717 733 start streaming audio;
#X text 712 759 stop streaming audio;
#X obj 100 829 writesf~ 2;
#X obj 218 754 *~ 1.5;
#X obj 1215 793 tgl 15 0 chimes-play all-play chimes 17 7 0 10 -262144
-1 -1 0 1;
#X msg 655 704 open -bytes 4 /tmp/msociety2.wav;
#X connect 0 0 2 0;
#X connect 0 1 3 0;
#X connect 2 0 1 0;
#X connect 2 0 4 0;
#X connect 4 0 5 0;
#X connect 6 0 42 0;
#X connect 6 1 42 1;
#X connect 7 0 33 0;
#X connect 11 0 26 0;
#X connect 12 0 27 0;
#X connect 13 0 28 0;
#X connect 14 0 30 0;
#X connect 15 0 31 0;
#X connect 22 0 10 0;
#X connect 23 0 22 0;
#X connect 24 0 10 0;
#X connect 25 0 24 0;
#X connect 26 0 6 0;
#X connect 26 0 6 1;
#X connect 27 0 6 1;
#X connect 28 0 6 0;
#X connect 29 0 6 0;
#X connect 29 1 6 1;
#X connect 30 0 6 0;
#X connect 31 0 6 1;
#X connect 32 0 43 0;
#X connect 33 0 29 0;
#X connect 33 0 29 1;
#X connect 34 0 23 0;
#X connect 35 0 25 0;
#X connect 36 0 34 0;
#X connect 36 0 35 0;
#X connect 37 0 42 0;
#X connect 38 0 42 0;
#X connect 39 0 42 0;
#X connect 43 0 6 1;
#X connect 43 0 6 0;
#X connect 45 0 42 0;
#X coords 0 855 1 854 40 20 0;
