#N canvas 793 123 524 580 10;
#X floatatom 100 100 3 0 127 0 - - -, f 3;
#X obj 110 55 loadbang;
#X obj 100 30 inlet;
#X obj 89 198 mod 12;
#X obj 89 220 route 0 1 2 3 4 5 6 7 8 9 10 11;
#X obj 95 331 symbol;
#X obj 62 363 symbol;
#X obj 100 100 cnv 14 32 14 empty empty empty 20 12 0 14 -262144 -66577
0;
#X symbolatom 100 100 3 0 0 0 - - -, f 3;
#X msg 89 275 C, f 2;
#X msg 116 275 C#, f 2;
#X msg 142 275 D, f 2;
#X msg 167 274 D#, f 2;
#X msg 192 274 E, f 2;
#X msg 218 275 F, f 2;
#X msg 246 274 F#, f 2;
#X msg 272 274 G, f 2;
#X msg 296 274 G#, f 2;
#X msg 320 274 A, f 2;
#X msg 344 274 A#, f 2;
#X msg 369 274 B, f 2;
#X obj 284 492 outlet;
#X text 238 115 TODO: quantize for slow scrolling;
#X msg 110 77 0, f 2;
#X msg 62 468 symbol \$1;
#X obj 62 159 t b f;
#X connect 0 0 25 0;
#X connect 1 0 23 0;
#X connect 2 0 0 0;
#X connect 3 0 4 0;
#X connect 3 0 21 0;
#X connect 4 0 9 0;
#X connect 4 1 10 0;
#X connect 4 2 11 0;
#X connect 4 3 12 0;
#X connect 4 4 13 0;
#X connect 4 5 14 0;
#X connect 4 6 15 0;
#X connect 4 7 16 0;
#X connect 4 8 17 0;
#X connect 4 9 18 0;
#X connect 4 10 19 0;
#X connect 4 11 20 0;
#X connect 5 0 6 1;
#X connect 6 0 24 0;
#X connect 9 0 5 0;
#X connect 10 0 5 0;
#X connect 11 0 5 0;
#X connect 12 0 5 0;
#X connect 13 0 5 0;
#X connect 14 0 5 0;
#X connect 15 0 5 0;
#X connect 16 0 5 0;
#X connect 17 0 5 0;
#X connect 18 0 5 0;
#X connect 19 0 5 0;
#X connect 20 0 5 0;
#X connect 23 0 0 0;
#X connect 24 0 8 0;
#X connect 25 0 6 0;
#X connect 25 1 3 0;
#X coords 0 -1 1 1 20 14 2 100 100;
