#N canvas 249 23 450 499 10;
#X obj 295 107 vsl 15 90 0.5 10 0 0 empty empty empty 0 -9 0 10 -262144
-1 -1 0 1;
#X obj 157 301 -~;
#X obj 157 363 /~;
#X obj 168 212 *~ -1;
#X obj 27 250 expr~ exp($v1*2.718);
#X obj 168 190 *~;
#X obj 24 318 expr~ (1/$v1)+$v1;
#X obj 168 251 expr~ exp($v1*2.718);
#X obj 133 31 inlet~;
#X obj 156 416 outlet~;
#X obj 180 151 clip~ 0.1 10;
#X obj 329 183 line~;
#X obj 328 153 pack 0 50;
#X obj 330 124 clip 0.5 10;
#X obj 177 98 inlet~;
#X connect 0 0 13 0;
#X connect 1 0 2 0;
#X connect 2 0 9 0;
#X connect 3 0 7 0;
#X connect 4 0 1 0;
#X connect 4 0 6 0;
#X connect 5 0 4 0;
#X connect 5 0 3 0;
#X connect 6 0 2 1;
#X connect 7 0 1 1;
#X connect 8 0 5 0;
#X connect 10 0 5 1;
#X connect 12 0 11 0;
#X connect 13 0 12 0;
#X connect 14 0 10 0;
