#N canvas 543 23 800 849 10;
#X obj 329 359 tabosc4~ \$0-xx;
#X obj 210 451 tabwrite~ \$0-xx;
#X obj 446 296 t b a;
#X obj 446 443 s \$0-xx;
#X msg 446 315 normalize;
#X msg 446 277 1 0 0.333 0 0.2 0 0.143 0 0.111 0 0.0909;
#X obj 391 236 loadbang;
#X msg 391 255 set 1;
#X obj 279 69 inlet;
#X obj 329 541 outlet~;
#X obj 318 187 t b f;
#X msg 392 182 60;
#X floatatom 100 115 5 0 0 1 freq #0-freqi #0-freq, f 5;
#X obj 329 340 f;
#X obj 329 321 r \$0-freq;
#X obj 160 100 bng 15 250 50 0 \$0-bang \$0-bangi empty 17 7 0 10 -262144
-1 -1;
#X obj 345 211 s \$0-freqi;
#X floatatom 100 131 5 0 500 1 metro #0-metroi #0-metro, f 5;
#X obj 367 151 s \$0-metroi;
#X obj 210 345 r \$0-metro;
#X obj 492 242 r \$0-bang;
#X obj 268 212 s \$0-bangi;
#X obj 279 88 route bang float freq metro sine sinesum;
#X obj 204 308 table \$0-xx 515;
#X obj 210 364 ometro 20;
#X msg 397 127 20;
#X obj 329 402 +~;
#X obj 563 497 inlet~;
#X obj 563 535 *~;
#X obj 563 554 rzero~ -1;
#X obj 661 336 block~ 1 1 1;
#X obj 473 349 list prepend 512;
#X obj 473 368 list prepend sinesum;
#X obj 446 196 list prepend set;
#X obj 473 387 list trim;
#X obj 446 218 list trim;
#X obj 329 424 cos~;
#X obj 341 517 tabsend~ \$0fb;
#X obj 578 516 tabreceive~ \$0fb;
#X obj 661 355 table \$0fb 1;
#X obj 329 490 hip~ 20;
#X connect 0 0 26 0;
#X connect 0 0 1 0;
#X connect 2 0 4 0;
#X connect 2 1 31 0;
#X connect 4 0 3 0;
#X connect 5 0 2 0;
#X connect 6 0 7 0;
#X connect 6 0 11 0;
#X connect 6 0 25 0;
#X connect 7 0 5 0;
#X connect 8 0 22 0;
#X connect 10 0 21 0;
#X connect 10 1 16 0;
#X connect 11 0 16 0;
#X connect 13 0 0 0;
#X connect 14 0 13 0;
#X connect 19 0 24 0;
#X connect 20 0 5 0;
#X connect 22 0 21 0;
#X connect 22 1 10 0;
#X connect 22 2 10 0;
#X connect 22 3 18 0;
#X connect 22 4 33 0;
#X connect 22 5 33 0;
#X connect 22 6 33 0;
#X connect 24 0 1 0;
#X connect 25 0 18 0;
#X connect 26 0 36 0;
#X connect 27 0 28 0;
#X connect 28 0 29 0;
#X connect 29 0 26 1;
#X connect 31 0 32 0;
#X connect 32 0 34 0;
#X connect 33 0 35 0;
#X connect 34 0 3 0;
#X connect 35 0 5 0;
#X connect 36 0 40 0;
#X connect 38 0 28 1;
#X connect 40 0 9 0;
#X connect 40 0 37 0;
#X coords 0 -1 1 1 75 49 1 100 100;
