#N canvas 0 22 1436 803 10;
#X obj 137 33 inlet;
#X obj 137 193 outlet;
#X obj 137 58 route bang float;
#X obj 155 103 moses 2;
#X msg 163 131 1;
#X obj 144 151 change;
#X obj 101 31 f \$1;
#X obj 101 12 loadbang;
#X obj 137 174 metro 1 64 samp;
#X connect 0 0 2 0;
#X connect 2 0 8 0;
#X connect 2 1 3 0;
#X connect 3 0 5 0;
#X connect 3 1 4 0;
#X connect 3 1 8 1;
#X connect 4 0 5 0;
#X connect 5 0 8 0;
#X connect 6 0 2 0;
#X connect 7 0 6 0;
#X connect 8 0 1 0;
