#N canvas 245 220 746 426 10;
#X obj 115 140 pois2;
#X floatatom 165 221 7 0 0 0 - - -, f 7;
#X floatatom 101 221 7 0 0 0 - - -, f 7;
#X obj 92 28 tgl 15 0 empty empty empty 17 7 0 10 -262144 -1 -1 0 1
;
#X text 124 123 log dist;
#X obj 316 103 log;
#X floatatom 316 125 7 0 0 0 - - -, f 7;
#X floatatom 316 83 5 0 0 0 - - -, f 5;
#X obj 316 144 exp;
#X floatatom 316 166 5 0 0 0 - - -, f 5;
#X obj 50 140 pois3_fix;
#X obj 89 312 tgl 25 0 empty empty empty 17 7 0 10 -262144 -1 -1 0
1;
#X obj 183 312 nbx 5 25 -1e+37 1e+37 0 0 empty empty min 0 -8 0 10
-262144 -1 -1 0 256;
#X obj 119 312 nbx 5 25 -1e+37 1e+37 0 0 empty empty max 0 -8 0 10
-262144 -1 -1 0 256;
#X floatatom 436 277 10 0 0 0 - - -, f 10;
#X floatatom 436 233 10 0 0 0 - - -, f 10;
#X obj 436 255 log;
#X floatatom 549 154 10 0 0 0 - - -, f 10;
#X obj 549 132 exp;
#X floatatom 549 82 7 0 0 0 - - -, f 7;
#X obj 549 101 * 0.0001;
#X obj 398 255 exp;
#X floatatom 398 233 5 0 0 0 - - -, f 5;
#X floatatom 398 277 5 0 0 0 - - -, f 5;
#X floatatom 641 150 10 0 0 0 - - -, f 10;
#X obj 641 126 * 0.0001;
#X floatatom 641 81 5 0 0 0 - - -, f 5;
#X obj 641 103 * 10000;
#X text 637 62 linear;
#X text 546 62 logarithmic;
#X floatatom 397 129 7 0 0 0 - - -, f 7;
#X floatatom 397 87 5 0 0 0 - - -, f 5;
#X floatatom 397 170 5 0 0 0 - - -, f 5;
#X obj 397 107 exp;
#X obj 397 148 log;
#X text 397 66 BAD;
#X obj 179 140 pois;
#X text 59 124 lin dist;
#X floatatom 229 221 7 0 0 0 - - -, f 7;
#X text 192 95 lower lam will trigger less events, f 14;
#X text 45 254 log dist means less values closer to max and more values
closer to min and mid of the range, f 46;
#X obj 592 252 * -0.001;
#X floatatom 592 274 5 0 0 0 - - -, f 5;
#X obj 592 293 exp;
#X floatatom 592 315 10 0 0 0 - - -, f 10;
#X floatatom 543 200 5 0 0 0 - - -, f 5;
#X obj 592 227 random 4000;
#X msg 592 203 bang;
#X text 552 339 large negative number is getting close to 0;
#X connect 0 1 1 0;
#X connect 3 0 0 0;
#X connect 3 0 10 0;
#X connect 3 0 36 0;
#X connect 5 0 6 0;
#X connect 6 0 8 0;
#X connect 7 0 5 0;
#X connect 8 0 9 0;
#X connect 10 1 2 0;
#X connect 15 0 16 0;
#X connect 16 0 14 0;
#X connect 18 0 17 0;
#X connect 19 0 20 0;
#X connect 20 0 18 0;
#X connect 21 0 23 0;
#X connect 22 0 21 0;
#X connect 25 0 24 0;
#X connect 26 0 27 0;
#X connect 27 0 25 0;
#X connect 30 0 34 0;
#X connect 31 0 33 0;
#X connect 33 0 30 0;
#X connect 34 0 32 0;
#X connect 36 1 38 0;
#X connect 41 0 42 0;
#X connect 42 0 43 0;
#X connect 43 0 44 0;
#X connect 46 0 41 0;
#X connect 47 0 46 0;
