#N canvas 542 110 610 616 10;
#X obj 156 240 feeddrum~;
#X msg 118 156 bang;
#X obj 169 512 output~;
#X obj 264 208 sig~;
#X msg 210 80 sinesum 1 0 0.333 0 0.2 0 0.143 0 0.111 0 0.0909;
#X obj 118 133 metro 1500;
#X obj 118 114 tgl 15 0 empty empty empty 17 7 0 10 -262144 -1 -1 1
1;
#X text 379 520 shelving;
#X obj 197 17 loadbang;
#X msg 56 95 freq \$1;
#X msg 29 172 metro \$1;
#X msg 251 102 sinesum 1;
#X msg 29 150 6;
#X msg 55 72 0.47;
#X msg 264 167 0.32;
#X text 385 536 compressor;
#X floatatom 428 264 3 -99 99 0 - #0-pole -, f 3;
#X obj 359 337 rpole~;
#X obj 427 288 / 100;
#X floatatom 380 265 4 -100 100 0 - #0-zero -, f 4;
#X obj 380 288 / 100;
#X obj 359 313 rzero~;
#X text 425 240 pole;
#X text 379 242 zero;
#X text 463 264 (in hundredths);
#X obj 272 454 expr~ atan($v1);
#X msg 407 208 90;
#X msg 354 208 70;
#X obj 235 408 clip~ -3 3;
#X obj 352 370 *~;
#X floatatom 381 373 5 0 0 0 - - -, f 5;
#X obj 381 392 / 100;
#X obj 409 443 env~ 8192;
#X msg 503 411 0;
#X floatatom 167 99 5 0 0 0 - - -, f 5;
#X floatatom 409 465 5 0 0 0 - - -, f 5;
#X text 110 576 need poisson;
#X floatatom 237 351 5 0 0 0 - - -, f 5;
#X floatatom 278 351 5 0 0 0 - - -, f 5;
#X obj 472 168 wrap~;
#X obj 472 149 *~ 64;
#X obj 472 187 /~ 64;
#X floatatom 522 133 5 2 1024 1 resolution - -, f 5;
#X obj 29 270 pois;
#X floatatom 118 330 7 0 0 0 - - -, f 7;
#X obj 38 457 pack f f;
#X obj 38 415 + 0.08;
#X obj 38 393 * 1e-05;
#X obj 127 416 t f;
#X floatatom 127 438 5 0 0 0 - - -, f 5;
#X floatatom 264 189 10 0 0 0 - - -, f 10;
#X obj 38 479 line 0.08;
#X obj 38 349 random 4000;
#X obj 38 371 - 2000;
#X connect 0 0 21 0;
#X connect 1 0 0 0;
#X connect 3 0 0 1;
#X connect 4 0 0 0;
#X connect 5 0 1 0;
#X connect 6 0 5 0;
#X connect 8 0 4 0;
#X connect 8 0 14 0;
#X connect 8 0 13 0;
#X connect 8 0 12 0;
#X connect 9 0 0 0;
#X connect 10 0 0 0;
#X connect 11 0 0 0;
#X connect 12 0 10 0;
#X connect 13 0 9 0;
#X connect 14 0 50 0;
#X connect 16 0 18 0;
#X connect 17 0 29 0;
#X connect 18 0 17 1;
#X connect 19 0 20 0;
#X connect 20 0 21 1;
#X connect 21 0 17 0;
#X connect 25 0 2 0;
#X connect 25 0 2 1;
#X connect 26 0 18 0;
#X connect 27 0 20 0;
#X connect 28 0 2 0;
#X connect 28 0 2 1;
#X connect 29 0 28 0;
#X connect 29 0 32 0;
#X connect 30 0 31 0;
#X connect 31 0 29 1;
#X connect 32 0 35 0;
#X connect 34 0 5 1;
#X connect 37 0 28 1;
#X connect 38 0 28 2;
#X connect 39 0 41 0;
#X connect 40 0 39 0;
#X connect 42 0 40 1;
#X connect 42 0 41 1;
#X connect 43 0 52 0;
#X connect 43 1 44 0;
#X connect 44 0 45 1;
#X connect 45 0 51 0;
#X connect 46 0 45 0;
#X connect 46 0 48 0;
#X connect 47 0 46 0;
#X connect 48 0 46 1;
#X connect 48 0 49 0;
#X connect 50 0 3 0;
#X connect 51 0 50 0;
#X connect 52 0 53 0;
#X connect 53 0 47 0;
