#N canvas 601 62 799 742 10;
#X obj 156 240 feeddrum~;
#X msg 118 156 bang;
#X obj 169 512 output~;
#X obj 264 208 sig~;
#X msg 216 61 sinesum 1 0 0.333 0 0.2 0 0.143 0 0.111 0 0.0909;
#X obj 118 133 metro 1500;
#X obj 118 114 tgl 15 0 empty empty empty 17 7 0 10 -262144 -1 -1 0
1;
#X text 379 520 shelving;
#X obj 197 17 loadbang;
#X msg 56 95 freq \$1;
#X msg 29 172 metro \$1;
#X msg 251 102 sinesum 1;
#X msg 29 150 6;
#X msg 55 72 0.47;
#X msg 264 167 0.32;
#X text 385 536 compressor;
#X floatatom 428 264 3 -99 99 0 - #0-pole -, f 3;
#X obj 359 337 rpole~;
#X obj 427 288 / 100;
#X floatatom 380 265 4 -100 100 0 - #0-zero -, f 4;
#X obj 380 288 / 100;
#X obj 359 313 rzero~;
#X text 425 240 pole;
#X text 379 242 zero;
#X text 463 264 (in hundredths);
#X msg 407 208 90;
#X msg 354 208 70;
#X obj 352 370 *~;
#X floatatom 381 373 5 0 0 0 - - -, f 5;
#X obj 381 392 / 100;
#X obj 409 443 env~ 8192;
#X msg 503 411 0;
#X floatatom 167 99 5 0 0 0 - - -, f 5;
#X floatatom 409 465 5 0 0 0 - - -, f 5;
#X text 110 576 need poisson;
#X obj 593 364 pois;
#X floatatom 683 432 7 0 0 0 - - -, f 7;
#X obj 602 587 pack f f;
#X floatatom 264 189 10 0 0 0 - - -, f 10;
#X obj 137 367 wrap~;
#X obj 137 348 *~ 64;
#X obj 137 386 /~ 64;
#X floatatom 187 332 5 2 1024 1 resolution - -, f 5;
#X obj 226 428 mtl/punch~;
#X msg 301 407 10;
#X obj 615 187 clip~ -3 3;
#X floatatom 645 150 5 0 0 0 - - -, f 5;
#X floatatom 671 167 5 0 0 0 - - -, f 5;
#X msg 618 337 0.2;
#X obj 593 337 tgl 15 0 empty empty empty 17 7 0 10 -262144 -1 -1 0
1;
#X floatatom 602 633 7 0 0 0 - - -, f 7;
#X obj 344 655 writesf~ 2;
#X msg 239 590 bang;
#X msg 385 592 start;
#X msg 387 618 stop;
#X text 438 592 start streaming audio;
#X text 433 618 stop streaming audio;
#X obj 74 428 tof/crossfade~ 1;
#X text 362 675 <-Click on the propeties menu to display params;
#X msg 730 483 0.08;
#X obj 602 561 min 0.7;
#X msg 36 584 stop;
#X obj 653 517 + 0.001;
#X obj 239 621 del 1 3 min;
#X obj 602 509 f 0.18;
#X obj 602 609 line 0.18;
#X obj 457 91 noise~;
#X obj 457 113 abs~;
#X obj 457 178 samphold~;
#X obj 532 50 phasor~ 0.1;
#X obj 610 11 noise~;
#X obj 610 33 abs~;
#X obj 610 77 +~ 0.01;
#X obj 600 241 snapshot~;
#X obj 610 220 bang~;
#X floatatom 600 263 5 0 0 0 - - -, f 5;
#X obj 457 200 lop~ 0.5;
#X obj 453 157 +~ 0.01;
#X msg 187 673 print;
#X obj 610 55 *~ 1;
#X obj 457 135 *~ 0.1;
#X msg 377 563 open -bytes 4 /tmp/foo6.wav;
#X connect 0 0 40 0;
#X connect 1 0 0 0;
#X connect 3 0 0 1;
#X connect 4 0 0 0;
#X connect 5 0 1 0;
#X connect 6 0 5 0;
#X connect 8 0 4 0;
#X connect 8 0 14 0;
#X connect 8 0 13 0;
#X connect 8 0 12 0;
#X connect 8 0 26 0;
#X connect 8 0 25 0;
#X connect 8 0 44 0;
#X connect 9 0 0 0;
#X connect 10 0 0 0;
#X connect 11 0 0 0;
#X connect 12 0 10 0;
#X connect 13 0 9 0;
#X connect 14 0 38 0;
#X connect 16 0 18 0;
#X connect 17 0 27 0;
#X connect 18 0 17 1;
#X connect 19 0 20 0;
#X connect 20 0 21 1;
#X connect 21 0 17 0;
#X connect 25 0 18 0;
#X connect 26 0 20 0;
#X connect 27 0 30 0;
#X connect 27 0 43 0;
#X connect 28 0 29 0;
#X connect 29 0 27 1;
#X connect 30 0 33 0;
#X connect 32 0 5 1;
#X connect 35 0 64 0;
#X connect 35 1 36 0;
#X connect 36 0 37 1;
#X connect 37 0 65 0;
#X connect 38 0 3 0;
#X connect 39 0 41 0;
#X connect 40 0 39 0;
#X connect 41 0 21 0;
#X connect 42 0 40 1;
#X connect 42 0 41 1;
#X connect 43 0 2 0;
#X connect 43 0 2 1;
#X connect 43 0 51 0;
#X connect 43 0 51 1;
#X connect 44 0 43 2;
#X connect 46 0 45 1;
#X connect 47 0 45 2;
#X connect 48 0 35 1;
#X connect 49 0 35 0;
#X connect 52 0 53 0;
#X connect 52 0 63 0;
#X connect 53 0 51 0;
#X connect 54 0 51 0;
#X connect 59 0 64 1;
#X connect 60 0 37 0;
#X connect 61 0 63 0;
#X connect 62 0 64 1;
#X connect 63 0 54 0;
#X connect 64 0 60 0;
#X connect 64 0 62 0;
#X connect 65 0 50 0;
#X connect 65 0 38 0;
#X connect 66 0 67 0;
#X connect 67 0 80 0;
#X connect 68 0 76 0;
#X connect 69 0 68 1;
#X connect 70 0 71 0;
#X connect 71 0 79 0;
#X connect 72 0 69 0;
#X connect 73 0 75 0;
#X connect 74 0 73 0;
#X connect 76 0 73 0;
#X connect 77 0 68 0;
#X connect 78 0 51 0;
#X connect 79 0 72 0;
#X connect 80 0 77 0;
#X connect 81 0 51 0;
