#N canvas 280 143 823 675 10;
#X obj 124 67 inlet;
#X obj 369 166 f \$1;
#X obj 405 115 loadbang;
#X obj 367 295 pack s s;
#X msg 367 323 read -resize \$1 \$2;
#X obj 368 498 array define \$0s;
#X obj 64 195 tabplay~ \$0s;
#X obj 405 137 t b b;
#X obj 424 262 symbol \$0s;
#X obj 367 345 soundfiler;
#X obj 394 390 samplerate~;
#X obj 394 412 / 1000;
#X obj 367 367 t f b;
#X obj 367 434 /;
#X floatatom 367 456 7 0 0 0 - - -, f 7;
#X text 415 455 duration in ms;
#X obj 369 188 + 1;
#X obj 128 506 outlet~;
#X obj 124 96 route bang vol;
#X obj 143 272 *~ 1;
#X floatatom 186 150 5 0 0 0 - - -, f 5;
#X msg 364 219 fruits/\$1.wav;
#X connect 0 0 18 0;
#X connect 1 0 16 0;
#X connect 2 0 7 0;
#X connect 3 0 4 0;
#X connect 4 0 9 0;
#X connect 6 0 19 0;
#X connect 7 0 1 0;
#X connect 7 1 8 0;
#X connect 8 0 3 1;
#X connect 9 0 12 0;
#X connect 10 0 11 0;
#X connect 11 0 13 1;
#X connect 12 0 13 0;
#X connect 12 1 10 0;
#X connect 13 0 14 0;
#X connect 16 0 21 0;
#X connect 18 0 6 0;
#X connect 18 1 19 1;
#X connect 18 1 20 0;
#X connect 19 0 17 0;
#X connect 21 0 3 0;
#X coords 0 675 1 674 39 24 0;
