#N canvas 280 143 823 675 10;
#X obj 124 67 inlet;
#X obj 369 166 f \$1;
#X obj 405 115 loadbang;
#X obj 367 295 pack s s;
#X msg 367 323 read -resize \$1 \$2;
#X msg 364 219 _oneshot_transient_ordered/\$1.wav;
#X obj 368 498 array define \$0s;
#X obj 64 195 tabplay~ \$0s;
#X obj 405 137 t b b;
#X obj 424 262 symbol \$0s;
#X obj 367 345 soundfiler;
#X obj 394 390 samplerate~;
#X obj 394 412 / 1000;
#X obj 367 367 t f b;
#X obj 367 434 /;
#X floatatom 367 456 7 0 0 0 - - -, f 7;
#X text 415 455 duration in ms;
#X obj 369 188 + 1;
#X obj 128 506 outlet~;
#X floatatom 186 150 5 0 0 0 - - -, f 5;
#X obj 158 246 line~;
#X obj 143 272 *~;
#X msg 236 180 1;
#X obj 158 220 pack 0 5;
#X obj 125 96 route bang float;
#X obj 137 130 b;
#X connect 0 0 24 0;
#X connect 1 0 17 0;
#X connect 2 0 8 0;
#X connect 2 0 22 0;
#X connect 3 0 4 0;
#X connect 4 0 10 0;
#X connect 5 0 3 0;
#X connect 7 0 21 0;
#X connect 8 0 1 0;
#X connect 8 1 9 0;
#X connect 9 0 3 1;
#X connect 10 0 13 0;
#X connect 11 0 12 0;
#X connect 12 0 14 1;
#X connect 13 0 14 0;
#X connect 13 1 11 0;
#X connect 14 0 15 0;
#X connect 17 0 5 0;
#X connect 20 0 21 1;
#X connect 21 0 18 0;
#X connect 22 0 23 0;
#X connect 23 0 20 0;
#X connect 24 0 7 0;
#X connect 24 1 19 0;
#X connect 24 1 23 0;
#X connect 24 1 25 0;
#X connect 25 0 7 0;
#X coords 0 675 1 674 39 24 0;
