#N canvas 345 200 857 648 10;
#X declare -path lst;
#X declare -path reader;
#X declare -path ext;
#N canvas 298 47 1108 716 cl 0;
#X obj 100 269 metro 1 64 samp;
#X obj 216 269 * 64;
#X obj 187 224 max 1;
#X obj 216 290 samptoms;
#X obj 921 251 f;
#X obj 955 251 + 1;
#X obj 164 147 bng 15 250 50 0 empty reset reset 17 7 0 10 -262144
-1 -1;
#X msg 921 221 0, f 2;
#X obj 989 251 mod 1e+38;
#X obj 982 306 s ms_in_tick;
#X obj 187 246 t f f;
#X obj 100 345 spdctrl4;
#X obj 102 115 hradio 12 1 0 9 empty empty subdiv/beat 0 -8 0 10 -262144
-1 -1 4;
#X obj 102 130 tgl 15 0 empty auto auto 17 7 0 10 -262144 -1 -1 1 1
;
#X obj 102 148 nbx 2 14 -1e+37 1e+37 0 0 empty speed spd 30 8 0 10
-262144 -1 -1 8 256;
#X obj 196 452 f 1;
#X obj 115 561 route;
#X obj 276 458 f;
#X obj 305 458 + 1;
#X obj 334 458 mod;
#X msg 498 261 0;
#X floatatom 286 482 5 0 0 0 - - -, f 5;
#X floatatom 271 557 5 0 0 0 - - -, f 5;
#X obj 264 534 array get \$0subdivisions;
#X obj 657 295 array define \$0subdivisions;
#X obj 684 271 array size \$0subdivisions;
#X obj 684 248 list length;
#X obj 657 193 t l l;
#X obj 267 420 spigot;
#X obj 300 396 tgl 15 0 empty empty empty 17 7 0 10 -262144 -1 -1 1
1;
#X obj 167 395 tgl 15 0 empty empty empty 17 7 0 10 -262144 -1 -1 0
1;
#X obj 178 526 t f;
#X obj 366 242 f;
#X obj 219 341 == 0;
#X obj 211 423 + 1;
#X obj 82 480 t f f;
#X obj 115 583 f;
#X obj 115 605 outlet;
#X obj 657 148 inlet;
#X text 701 149 list of subdivisions;
#X text 700 170 next subfiv every quarter bar;
#X obj 691 441 swap 60000;
#X obj 691 463 /;
#X floatatom 691 485 5 0 0 1 bpm - -, f 5;
#X obj 691 419 * 105;
#X text 211 41 clock with variable subdivisions per beat;
#X obj 164 130 tgl 15 0 empty play play 17 7 0 10 -262144 -1 -1 0 1
;
#X obj 128 418 spigot;
#X obj 657 217 list prepend 0;
#X obj 245 607 outlet;
#X obj 78 72 inlet;
#X text 116 73 subdivision;
#X obj 40 605 outlet;
#X obj 156 362 t b b;
#X text 245 628 quarter bang;
#X text 36 629 subdiv 1;
#X text 113 628 subdiv 1-9;
#X obj 451 613 s bang_on_permut_change;
#X obj 694 591 f;
#X obj 721 591 + 1;
#X obj 694 635 0;
#X obj 694 656 s play;
#X obj 478 546 sel;
#X floatatom 741 614 5 0 0 0 - - -, f 5;
#X obj 694 613 sel 2;
#X obj 273 500 t f f;
#X connect 0 0 11 0;
#X connect 1 0 3 0;
#X connect 2 0 10 0;
#X connect 3 0 11 1;
#X connect 3 0 44 0;
#X connect 4 0 5 0;
#X connect 5 0 8 0;
#X connect 6 0 20 0;
#X connect 7 0 4 1;
#X connect 8 0 4 1;
#X connect 10 0 0 1;
#X connect 10 1 1 0;
#X connect 11 0 35 0;
#X connect 11 1 53 0;
#X connect 12 0 34 0;
#X connect 13 0 32 0;
#X connect 14 0 2 0;
#X connect 15 0 31 0;
#X connect 16 0 36 0;
#X connect 17 0 18 0;
#X connect 17 0 21 0;
#X connect 17 0 65 0;
#X connect 18 0 19 0;
#X connect 19 0 17 1;
#X connect 20 0 58 1;
#X connect 20 0 17 1;
#X connect 23 0 22 0;
#X connect 23 0 31 0;
#X connect 26 0 25 0;
#X connect 26 0 19 1;
#X connect 27 0 48 0;
#X connect 27 1 26 0;
#X connect 28 0 17 0;
#X connect 29 0 28 1;
#X connect 30 0 47 1;
#X connect 31 0 16 1;
#X connect 32 0 33 0;
#X connect 32 0 29 0;
#X connect 33 0 30 0;
#X connect 34 0 15 1;
#X connect 35 0 16 0;
#X connect 35 0 52 0;
#X connect 35 1 36 1;
#X connect 36 0 37 0;
#X connect 38 0 27 0;
#X connect 41 0 42 0;
#X connect 41 1 42 1;
#X connect 42 0 43 0;
#X connect 44 0 41 0;
#X connect 46 0 0 0;
#X connect 47 0 15 0;
#X connect 48 0 24 0;
#X connect 50 0 12 0;
#X connect 53 0 47 0;
#X connect 53 0 28 0;
#X connect 53 1 49 0;
#X connect 58 0 59 0;
#X connect 58 0 63 0;
#X connect 58 0 64 0;
#X connect 59 0 58 1;
#X connect 60 0 61 0;
#X connect 62 0 57 0;
#X connect 62 0 58 0;
#X connect 64 0 60 0;
#X connect 65 0 23 0;
#X connect 65 1 62 0;
#X coords 0 -1 1 1 112 65 2 100 100;
#X restore 96 66 pd cl;
#X obj 670 597 declare -path lst;
#X obj 711 309 loadbang;
#X msg 220 66 1 2 1 3 1 4 1 5 1 6 1 7 1 8 1 9 8 7 6 5 4 3 2 1;
#X obj 113 152 bng 15 250 50 0 empty empty empty 17 7 0 10 -262144
-1 -1;
#X obj 129 573 output~;
#X obj 114 205 b;
#X obj 486 303 tof/crossfade~;
#N canvas 766 301 630 508 fxclip~ 0;
#X obj 104 182 inlet~;
#X obj 141 366 tof/crossfade~ 1;
#X obj 168 436 outlet~;
#X obj 398 188 pack 0 20;
#X floatatom 398 146 5 0 0 0 - - -, f 5;
#X obj 398 165 * 0.01;
#X obj 398 210 line~;
#X obj 187 271 clip~ 0 1;
#X obj 187 293 *~ 2;
#X obj 187 315 -~ 1;
#X obj 187 249 *~;
#X obj 242 112 inlet;
#X obj 398 112 inlet;
#X text 439 114 crossfade 0-100;
#X text 279 112 clip amount 1-100;
#X obj 242 134 max 1;
#X obj 242 157 pack 0 20;
#X obj 242 181 line~;
#X floatatom 103 125 5 0 100 1 clip_amt - -, f 5;
#X floatatom 103 143 5 0 100 1 xfade - -, f 5;
#X connect 0 0 1 0;
#X connect 0 0 10 0;
#X connect 1 0 2 0;
#X connect 3 0 6 0;
#X connect 4 0 5 0;
#X connect 5 0 3 0;
#X connect 6 0 1 2;
#X connect 7 0 8 0;
#X connect 8 0 9 0;
#X connect 9 0 1 1;
#X connect 10 0 7 0;
#X connect 11 0 15 0;
#X connect 12 0 4 0;
#X connect 15 0 16 0;
#X connect 16 0 17 0;
#X connect 17 0 10 1;
#X connect 18 0 15 0;
#X connect 19 0 4 0;
#X coords 0 -1 1 1 85 60 1 100 100;
#X restore 114 324 pd fxclip~;
#N canvas 766 301 630 508 rev~ 0;
#X obj 73 223 inlet~;
#X obj 132 443 outlet~;
#X obj 542 283 pack 0 20;
#X floatatom 542 241 5 0 0 0 - - -, f 5;
#X obj 542 260 * 0.01;
#X obj 542 305 line~;
#X obj 398 112 inlet;
#X text 439 114 crossfade 0-100;
#X floatatom 102 116 5 0 100 1 xfade - -, f 5;
#X floatatom 250 215 0 0 120 0 - - -;
#X text 291 215 level \, dB;
#X floatatom 285 237 0 0 100 0 - - -;
#X text 326 237 liveness \, 0-100;
#X floatatom 320 261 4 0 5000 0 - - -, f 4;
#X floatatom 355 284 0 0 100 0 - - -;
#X text 368 259 crossover frequency \, Hz.;
#X text 391 286 HF damping \, percent;
#X obj 212 441 outlet~;
#X obj 141 366 tof/crossfade~ 2;
#X obj 180 310 rev3~ 100 75 3000 20;
#X connect 0 0 18 0;
#X connect 0 0 18 1;
#X connect 0 0 19 0;
#X connect 2 0 5 0;
#X connect 3 0 4 0;
#X connect 4 0 2 0;
#X connect 5 0 18 4;
#X connect 6 0 3 0;
#X connect 8 0 3 0;
#X connect 9 0 19 2;
#X connect 11 0 19 3;
#X connect 13 0 19 4;
#X connect 14 0 19 5;
#X connect 18 0 1 0;
#X connect 18 1 17 0;
#X connect 19 0 18 2;
#X connect 19 1 18 3;
#X coords 0 -1 1 1 85 33 1 100 100;
#X restore 114 441 pd rev~;
#X floatatom 149 251 5 0 0 0 - - -, f 5;
#X floatatom 48 252 5 0 0 0 - - -, f 5;
#N canvas 0 22 450 278 (subpatch) 0;
#X array array1 44100 float 2;
#X coords 0 1 44100 -1 100 70 1 0 0;
#X restore 508 543 graph;
#X obj 131 414 tabwrite~ array1;
#X msg 138 393 bang;
#X msg 318 582 13 49;
#X text 407 234 TODO: control duration;
#X text 410 248 TODO: stereo fx;
#X msg 318 603 22 52;
#X msg 318 624 24 52;
#X text 415 262 TODO: compressor;
#X obj 670 576 declare -path reader;
#N canvas 925 88 450 300 events 0;
#X obj 156 130 qlist;
#X msg 191 81 read events.txt;
#X msg 200 105 write events.txt;
#X msg 121 74 next;
#X obj 156 152 print;
#X obj 242 176 print fin;
#X msg 239 134 rewind;
#X obj 39 26 inlet;
#X obj 59 197 r skip;
#X obj 59 219 print skip;
#X obj 39 48 route start;
#X msg 39 102 rewind \, next;
#X obj 206 56 loadbang;
#X connect 0 0 4 0;
#X connect 0 1 5 0;
#X connect 0 1 6 0;
#X connect 1 0 0 0;
#X connect 2 0 0 0;
#X connect 3 0 0 0;
#X connect 6 0 0 0;
#X connect 7 0 10 0;
#X connect 8 0 9 0;
#X connect 10 0 11 0;
#X connect 10 1 3 0;
#X connect 11 0 0 0;
#X connect 12 0 1 0;
#X restore 399 592 pd events;
#X obj 201 44 r subauto;
#X obj 96 17 r subman;
#X obj 670 554 declare -path ext;
#N canvas 700 88 713 744 permut 0;
#X obj 341 82 inlet;
#X obj 341 246 f;
#X obj 367 246 + 1;
#X obj 341 595 array define \$0permut;
#X msg 231 212 0, f 2;
#X obj 341 168 spigot;
#X obj 341 335 t l l;
#X obj 368 359 list-sum;
#X obj 368 404 s subman;
#X obj 368 381 - 1;
#X obj 341 431 dec2bin;
#X obj 341 572 list prepend 0;
#X obj 368 498 list length;
#X obj 407 543 array size \$0permut;
#X obj 341 473 t l l;
#X text 339 65 quarter bangs;
#X obj 70 73 inlet;
#X obj 102 116 tgl 15 0 empty permut_bypass bypass 17 7 0 10 -262144
-1 -1 1 1;
#X obj 70 244 spigot;
#X obj 21 189 spigot;
#X obj 219 131 == 0;
#X obj 70 476 outlet;
#X obj 70 287 f;
#X obj 96 287 + 1;
#X obj 122 287 mod;
#X obj 487 346 print permutation;
#X obj 226 275 spigot;
#X msg 296 116 0, f 2;
#X obj 226 476 outlet;
#X text 68 56 subdiv bangs;
#X text 68 495 subdiv bangs;
#X text 223 496 quarter bangs;
#X obj 102 134 bng 15 250 50 0 empty reset reset 17 7 0 10 -262144
-1 -1;
#X obj 70 222 b;
#X obj 109 382 print fuck;
#X obj 70 341 array get \$0permut 0 1;
#X floatatom 85 312 5 0 0 0 - - -, f 5;
#X obj 447 463 print permutation-bin;
#X obj 70 423 sel 1;
#X msg 25 318 0;
#X obj 341 268 +;
#X floatatom 369 270 5 0 0 0 - - -, f 5;
#X obj 341 301 reader permut5 permut5 1;
#X text 436 246 14 permutations;
#X obj 393 246 mod 14;
#X obj 341 198 f;
#X obj 367 198 + 1;
#X text 430 199 repeat 4 times every permutation;
#X obj 393 198 mod 4;
#X obj 341 220 sel;
#X floatatom 369 221 5 0 0 0 - - -, f 5;
#X obj 558 232 s bang_on_permut_change;
#X obj 368 520 moses 1;
#X msg 263 555 const 0;
#X connect 0 0 5 0;
#X connect 0 0 27 0;
#X connect 0 0 26 0;
#X connect 1 0 2 0;
#X connect 1 0 40 0;
#X connect 2 0 44 0;
#X connect 4 0 1 1;
#X connect 4 0 22 1;
#X connect 4 0 45 1;
#X connect 5 0 45 0;
#X connect 6 0 10 0;
#X connect 6 1 7 0;
#X connect 7 0 9 0;
#X connect 9 0 8 0;
#X connect 10 0 14 0;
#X connect 10 0 37 0;
#X connect 11 0 3 0;
#X connect 12 0 24 1;
#X connect 12 0 52 0;
#X connect 14 0 11 0;
#X connect 14 1 12 0;
#X connect 16 0 19 0;
#X connect 16 0 33 0;
#X connect 17 0 20 0;
#X connect 17 0 19 1;
#X connect 17 0 26 1;
#X connect 18 0 22 0;
#X connect 19 0 21 0;
#X connect 20 0 18 1;
#X connect 20 0 5 1;
#X connect 22 0 23 0;
#X connect 22 0 35 0;
#X connect 22 0 36 0;
#X connect 23 0 24 0;
#X connect 24 0 22 1;
#X connect 26 0 28 0;
#X connect 27 0 22 1;
#X connect 32 0 4 0;
#X connect 33 0 18 0;
#X connect 35 0 34 0;
#X connect 35 0 38 0;
#X connect 38 0 21 0;
#X connect 39 0 35 0;
#X connect 40 0 42 0;
#X connect 41 0 40 1;
#X connect 42 0 6 0;
#X connect 44 0 1 1;
#X connect 45 0 46 0;
#X connect 45 0 49 0;
#X connect 45 0 50 0;
#X connect 46 0 48 0;
#X connect 48 0 45 1;
#X connect 49 0 1 0;
#X connect 49 0 51 0;
#X connect 52 0 53 0;
#X connect 52 1 13 0;
#X connect 53 0 3 0;
#X coords 0 -1 1 1 55 52 1 100 100;
#X restore 148 138 pd permut;
#X msg 711 331 \; permut_bypass 1 \; speed 8 \; auto 0 \;;
#X obj 218 208 change;
#X floatatom 218 230 5 0 0 1 subdiv - -, f 5;
#X msg 399 570 start;
#X msg 711 397 bang;
#X obj 711 419 s reset;
#X obj 21 250 52;
#X obj 114 249 + 24;
#X msg 53 307 vis 52 1;
#N canvas 37 113 570 374 vari 0;
#X obj 194 69 r bang_on_permut_change;
#X obj 194 91 f;
#X obj 221 91 + 1;
#X obj 142 342 outlet;
#X msg 169 191 28 29;
#X msg 203 234 50 19;
#X obj 395 36 r reset;
#X msg 395 58 0;
#X obj 194 114 route 0 1;
#X obj 248 91 mod 2;
#X connect 0 0 1 0;
#X connect 1 0 2 0;
#X connect 1 0 8 0;
#X connect 2 0 9 0;
#X connect 4 0 3 0;
#X connect 5 0 3 0;
#X connect 6 0 7 0;
#X connect 7 0 1 1;
#X connect 8 0 4 0;
#X connect 8 1 5 0;
#X connect 9 0 1 1;
#X restore 268 120 pd vari;
#X obj 96 39 moses;
#X obj 114 226 random 1;
#X obj 356 183 clone 5 c_fruit;
#X obj 356 159 f;
#X obj 382 159 + 1;
#X obj 409 159 mod 5;
#N canvas 937 364 450 300 wrap 0;
#X obj 73 47 inlet~;
#X obj 107 97 *~ 64;
#X obj 107 135 /~ 64;
#X obj 107 116 wrap~;
#X obj 92 154 -~;
#X floatatom 178 81 5 0 1024 1 resolution - -, f 5;
#N canvas 766 301 630 508 rev~ 0;
#X obj 73 223 inlet~;
#X obj 132 443 outlet~;
#X obj 542 283 pack 0 20;
#X floatatom 542 241 5 0 0 0 - - -, f 5;
#X obj 542 260 * 0.01;
#X obj 542 305 line~;
#X obj 398 112 inlet;
#X text 439 114 crossfade 0-100;
#X floatatom 102 116 5 0 100 1 xfade - -, f 5;
#X floatatom 250 215 0 0 120 0 - - -;
#X text 291 215 level \, dB;
#X floatatom 285 237 0 0 100 0 - - -;
#X text 326 237 liveness \, 0-100;
#X floatatom 320 261 4 0 5000 0 - - -, f 4;
#X floatatom 355 284 0 0 100 0 - - -;
#X text 368 259 crossover frequency \, Hz.;
#X text 391 286 HF damping \, percent;
#X obj 212 441 outlet~;
#X obj 141 366 tof/crossfade~ 2;
#X obj 180 310 rev3~ 100 80 3000 20;
#X connect 0 0 18 0;
#X connect 0 0 18 1;
#X connect 0 0 19 0;
#X connect 2 0 5 0;
#X connect 3 0 4 0;
#X connect 4 0 2 0;
#X connect 5 0 18 4;
#X connect 6 0 3 0;
#X connect 8 0 3 0;
#X connect 9 0 19 2;
#X connect 11 0 19 3;
#X connect 13 0 19 4;
#X connect 14 0 19 5;
#X connect 18 0 1 0;
#X connect 18 1 17 0;
#X connect 19 0 18 2;
#X connect 19 1 18 3;
#X coords 0 -1 1 1 85 33 1 100 100;
#X restore 110 225 pd rev~;
#X obj 121 268 outlet~;
#X obj 182 272 outlet~;
#X obj 139 171 db~ 95;
#X obj 92 191 *~;
#X connect 0 0 1 0;
#X connect 0 0 4 0;
#X connect 1 0 3 0;
#X connect 2 0 4 1;
#X connect 3 0 2 0;
#X connect 4 0 10 0;
#X connect 5 0 1 1;
#X connect 5 0 2 1;
#X connect 6 0 7 0;
#X connect 6 1 8 0;
#X connect 9 0 10 1;
#X connect 10 0 6 0;
#X restore 355 212 pd wrap;
#X obj 384 402 clone 8 c_major;
#X obj 378 353 sel;
#N canvas 0 22 567 495 wrap 0;
#X obj 73 47 inlet~;
#X obj 107 97 *~ 64;
#X obj 107 135 /~ 64;
#X obj 107 116 wrap~;
#X obj 92 154 -~;
#X floatatom 178 81 5 0 1024 1 resolution - -, f 5;
#N canvas 766 301 630 508 rev~ 0;
#X obj 73 223 inlet~;
#X obj 132 443 outlet~;
#X obj 542 283 pack 0 20;
#X floatatom 542 241 5 0 0 0 - - -, f 5;
#X obj 542 260 * 0.01;
#X obj 542 305 line~;
#X obj 398 112 inlet;
#X text 439 114 crossfade 0-100;
#X floatatom 102 116 5 0 100 1 xfade - -, f 5;
#X floatatom 250 215 0 0 120 0 - - -;
#X text 291 215 level \, dB;
#X floatatom 285 237 0 0 100 0 - - -;
#X text 326 237 liveness \, 0-100;
#X floatatom 320 261 4 0 5000 0 - - -, f 4;
#X floatatom 355 284 0 0 100 0 - - -;
#X text 368 259 crossover frequency \, Hz.;
#X text 391 286 HF damping \, percent;
#X obj 212 441 outlet~;
#X obj 141 366 tof/crossfade~ 2;
#X obj 180 310 rev3~ 100 80 3000 20;
#X connect 0 0 18 0;
#X connect 0 0 18 1;
#X connect 0 0 19 0;
#X connect 2 0 5 0;
#X connect 3 0 4 0;
#X connect 4 0 2 0;
#X connect 5 0 18 4;
#X connect 6 0 3 0;
#X connect 8 0 3 0;
#X connect 9 0 19 2;
#X connect 11 0 19 3;
#X connect 13 0 19 4;
#X connect 14 0 19 5;
#X connect 18 0 1 0;
#X connect 18 1 17 0;
#X connect 19 0 18 2;
#X connect 19 1 18 3;
#X coords 0 -1 1 1 85 33 1 100 100;
#X restore 152 319 pd rev~;
#X obj 110 209 clip~ 0 1;
#X obj 110 231 *~ 2;
#X obj 110 253 -~ 1;
#X obj 110 185 *~ 5;
#X obj 175 278 db~ 75;
#X obj 110 275 *~;
#X obj 153 382 outlet~;
#X obj 214 386 outlet~;
#X connect 0 0 1 0;
#X connect 0 0 4 0;
#X connect 1 0 3 0;
#X connect 2 0 4 1;
#X connect 3 0 2 0;
#X connect 4 0 10 0;
#X connect 5 0 1 1;
#X connect 5 0 2 1;
#X connect 6 0 13 0;
#X connect 6 1 14 0;
#X connect 7 0 8 0;
#X connect 8 0 9 0;
#X connect 9 0 12 0;
#X connect 10 0 7 0;
#X connect 11 0 12 1;
#X connect 12 0 6 0;
#X restore 370 429 pd wrap;
#X obj 384 380 random 8;
#N canvas 0 22 567 495 wrap 0;
#X obj 73 47 inlet~;
#X obj 107 97 *~ 64;
#X obj 107 135 /~ 64;
#X obj 107 116 wrap~;
#X obj 92 154 -~;
#X floatatom 178 81 5 0 1024 1 resolution - -, f 5;
#X obj 200 360 output~;
#N canvas 766 301 630 508 rev~ 0;
#X obj 73 223 inlet~;
#X obj 132 443 outlet~;
#X obj 542 283 pack 0 20;
#X floatatom 542 241 5 0 0 0 - - -, f 5;
#X obj 542 260 * 0.01;
#X obj 542 305 line~;
#X obj 398 112 inlet;
#X text 439 114 crossfade 0-100;
#X floatatom 102 116 5 0 100 1 xfade - -, f 5;
#X floatatom 250 215 0 0 120 0 - - -;
#X text 291 215 level \, dB;
#X floatatom 285 237 0 0 100 0 - - -;
#X text 326 237 liveness \, 0-100;
#X floatatom 320 261 4 0 5000 0 - - -, f 4;
#X floatatom 355 284 0 0 100 0 - - -;
#X text 368 259 crossover frequency \, Hz.;
#X text 391 286 HF damping \, percent;
#X obj 212 441 outlet~;
#X obj 141 366 tof/crossfade~ 2;
#X obj 180 310 rev3~ 100 80 3000 20;
#X connect 0 0 18 0;
#X connect 0 0 18 1;
#X connect 0 0 19 0;
#X connect 2 0 5 0;
#X connect 3 0 4 0;
#X connect 4 0 2 0;
#X connect 5 0 18 4;
#X connect 6 0 3 0;
#X connect 8 0 3 0;
#X connect 9 0 19 2;
#X connect 11 0 19 3;
#X connect 13 0 19 4;
#X connect 14 0 19 5;
#X connect 18 0 1 0;
#X connect 18 1 17 0;
#X connect 19 0 18 2;
#X connect 19 1 18 3;
#X coords 0 -1 1 1 85 33 1 100 100;
#X restore 152 318 pd rev~;
#X connect 0 0 1 0;
#X connect 0 0 4 0;
#X connect 1 0 3 0;
#X connect 2 0 4 1;
#X connect 3 0 2 0;
#X connect 4 0 7 0;
#X connect 5 0 1 1;
#X connect 5 0 2 1;
#X connect 7 0 6 0;
#X connect 7 1 6 1;
#X restore 227 357 pd wrap;
#X obj 378 331 random 4;
#X obj 114 289 clone 57 c_sample;
#X msg 514 457 print;
#X msg 512 414 start;
#X msg 515 435 stop;
#X obj 495 488 writesf~ 2;
#X msg 495 367 open -bytes 4 /tmp/barb.wav;
#X obj 236 514 +~;
#X obj 288 514 +~;
#X obj 28 202 route 1;
#X msg 312 183 0;
#X obj 268 142 unpack f f;
#X obj 388 106 r play;
#X obj 388 128 sel;
#X obj 34 161 spigot;
#X obj 78 156 tgl 15 0 empty empty empty 17 7 0 10 -262144 -1 -1 0
1;
#X msg 354 117 0;
#X connect 0 0 63 0;
#X connect 0 1 4 0;
#X connect 0 1 26 0;
#X connect 0 2 26 1;
#X connect 2 0 27 0;
#X connect 3 0 0 1;
#X connect 6 0 38 0;
#X connect 8 0 9 0;
#X connect 8 0 13 0;
#X connect 9 0 56 0;
#X connect 9 1 57 0;
#X connect 10 0 34 1;
#X connect 11 0 33 1;
#X connect 14 0 13 0;
#X connect 23 0 0 1;
#X connect 24 0 37 0;
#X connect 26 0 28 0;
#X connect 26 0 6 0;
#X connect 28 0 29 0;
#X connect 30 0 22 0;
#X connect 31 0 32 0;
#X connect 33 0 50 0;
#X connect 34 0 50 0;
#X connect 35 0 50 0;
#X connect 36 0 60 0;
#X connect 37 1 0 0;
#X connect 38 0 34 0;
#X connect 39 0 43 0;
#X connect 40 0 41 0;
#X connect 40 0 39 0;
#X connect 41 0 42 0;
#X connect 42 0 40 1;
#X connect 43 0 56 1;
#X connect 43 1 57 1;
#X connect 44 0 46 0;
#X connect 45 0 47 0;
#X connect 46 0 56 0;
#X connect 46 1 57 0;
#X connect 47 0 44 0;
#X connect 49 0 45 0;
#X connect 50 0 8 0;
#X connect 51 0 54 0;
#X connect 52 0 54 0;
#X connect 53 0 54 0;
#X connect 55 0 54 0;
#X connect 56 0 5 0;
#X connect 56 0 54 0;
#X connect 57 0 5 1;
#X connect 57 0 54 1;
#X connect 58 0 33 0;
#X connect 59 0 40 1;
#X connect 60 0 11 0;
#X connect 60 1 10 0;
#X connect 61 0 62 0;
#X connect 62 0 40 0;
#X connect 62 0 65 0;
#X connect 63 0 58 0;
#X connect 64 0 63 1;
#X connect 65 0 64 0;
