#N canvas 412 69 943 704 10;
#X obj 283 192 + 1;
#X obj 196 421 change;
#X obj 376 420 change;
#X obj 555 431 change;
#X obj 724 424 change;
#X obj 256 74 inlet;
#X text 294 75 bang;
#X obj 196 447 b;
#X obj 376 445 b;
#X obj 555 456 b;
#X obj 724 448 b;
#X obj 382 84 loadbang;
#X obj 310 192 mod;
#X obj 382 123 f 1260;
#X obj 724 399 div;
#X obj 555 406 div;
#X obj 376 395 div;
#X obj 196 396 div;
#X obj 412 217 list-map;
#X obj 529 203 swap;
#X obj 382 145 t f b f;
#X obj 529 225 /;
#X obj 48 399 sel;
#X obj 62 630 outlet 1tk;
#X obj 218 591 outlet 3tk;
#X obj 389 544 outlet 5tk;
#X obj 561 506 outlet 7tk;
#X obj 728 475 outlet 9tk;
#X obj 290 421 change;
#X obj 290 447 b;
#X obj 290 396 div;
#X obj 307 566 outlet 4tk;
#X obj 256 192 f;
#X obj 256 232 t f f;
#X obj 835 387 sel;
#X obj 835 409 outlet;
#X text 831 429 quarter bang;
#X obj 709 142 r ms_in_tick;
#X floatatom 709 164 5 0 0 0 - - -, f 5;
#X obj 709 184 * 1260;
#X obj 835 280 timer;
#X obj 835 256 t b b;
#X floatatom 835 302 5 0 0 0 - - -, f 5;
#X msg 412 193 2 3 4 5 6 7 9;
#X obj 120 422 change;
#X obj 120 448 b;
#X obj 120 397 div;
#X obj 142 612 outlet 2tk;
#X obj 458 421 change;
#X obj 458 446 b;
#X obj 458 396 div;
#X obj 682 515 del;
#X obj 660 486 t b;
#X obj 478 524 outlet 6tk;
#X obj 662 544 outlet 8tk;
#X obj 709 206 / 8;
#X obj 412 255 unpack f f f f f f f;
#X connect 0 0 12 0;
#X connect 1 0 7 0;
#X connect 2 0 8 0;
#X connect 3 0 9 0;
#X connect 4 0 10 0;
#X connect 5 0 32 0;
#X connect 7 0 24 0;
#X connect 8 0 25 0;
#X connect 9 0 26 0;
#X connect 10 0 27 0;
#X connect 11 0 13 0;
#X connect 12 0 32 1;
#X connect 13 0 20 0;
#X connect 14 0 4 0;
#X connect 15 0 3 0;
#X connect 16 0 2 0;
#X connect 17 0 1 0;
#X connect 18 0 56 0;
#X connect 18 1 19 0;
#X connect 19 0 21 0;
#X connect 19 1 21 1;
#X connect 20 0 12 1;
#X connect 20 1 43 0;
#X connect 20 2 19 1;
#X connect 21 0 18 1;
#X connect 22 0 23 0;
#X connect 28 0 29 0;
#X connect 29 0 31 0;
#X connect 29 0 52 0;
#X connect 30 0 28 0;
#X connect 32 0 0 0;
#X connect 32 0 33 0;
#X connect 33 0 14 0;
#X connect 33 0 15 0;
#X connect 33 0 16 0;
#X connect 33 0 17 0;
#X connect 33 0 22 0;
#X connect 33 0 30 0;
#X connect 33 0 50 0;
#X connect 33 1 34 0;
#X connect 34 0 35 0;
#X connect 37 0 38 0;
#X connect 38 0 39 0;
#X connect 39 0 55 0;
#X connect 40 0 42 0;
#X connect 41 0 40 0;
#X connect 41 1 40 1;
#X connect 43 0 18 0;
#X connect 44 0 45 0;
#X connect 45 0 47 0;
#X connect 46 0 44 0;
#X connect 48 0 49 0;
#X connect 49 0 53 0;
#X connect 50 0 48 0;
#X connect 51 0 54 0;
#X connect 52 0 51 0;
#X connect 52 0 54 0;
#X connect 55 0 51 1;
#X connect 56 0 46 1;
#X connect 56 1 17 1;
#X connect 56 2 30 1;
#X connect 56 3 16 1;
#X connect 56 4 50 1;
#X connect 56 5 15 1;
#X connect 56 6 14 1;
