#N canvas 412 69 943 704 10;
#X obj 283 192 + 1;
#X obj 196 421 change;
#X obj 376 420 change;
#X obj 555 431 change;
#X obj 724 424 change;
#X obj 256 74 inlet;
#X text 294 75 bang;
#X obj 196 447 b;
#X obj 376 445 b;
#X obj 555 456 b;
#X obj 724 448 b;
#X obj 382 84 loadbang;
#X obj 310 192 mod;
#X obj 382 123 f 1260;
#X obj 724 399 div;
#X obj 555 406 div;
#X obj 376 395 div;
#X obj 196 396 div;
#X obj 412 217 list-map;
#X obj 529 203 swap;
#X obj 382 145 t f b f;
#X obj 529 225 /;
#X obj 48 399 sel;
#X obj 290 421 change;
#X obj 290 447 b;
#X obj 290 396 div;
#X obj 256 192 f;
#X obj 256 232 t f f;
#X obj 835 387 sel;
#X obj 835 409 outlet;
#X text 831 429 quarter bang;
#X obj 669 183 r ms_in_tick;
#X floatatom 669 205 5 0 0 0 - - -, f 5;
#X obj 669 225 * 1260;
#X obj 835 280 timer;
#X obj 835 256 t b b;
#X floatatom 835 302 5 0 0 0 - - -, f 5;
#X msg 412 193 2 3 4 5 6 7 9;
#X obj 120 422 change;
#X obj 120 448 b;
#X obj 120 397 div;
#X obj 458 421 change;
#X obj 458 446 b;
#X obj 458 396 div;
#X obj 682 515 del;
#X obj 660 486 t b;
#X obj 669 247 / 8;
#X obj 412 255 unpack f f f f f f f;
#X obj 50 469 1;
#X obj 121 476 2;
#X obj 198 476 3;
#X obj 293 477 4;
#X obj 379 477 5;
#X obj 462 486 6;
#X obj 559 492 7;
#X obj 717 568 9;
#X obj 631 544 8;
#X obj 321 632 outlet;
#X text 441 123 TODO: replace with 105;
#X connect 0 0 12 0;
#X connect 1 0 7 0;
#X connect 2 0 8 0;
#X connect 3 0 9 0;
#X connect 4 0 10 0;
#X connect 5 0 26 0;
#X connect 7 0 50 0;
#X connect 8 0 52 0;
#X connect 9 0 54 0;
#X connect 10 0 55 0;
#X connect 11 0 13 0;
#X connect 12 0 26 1;
#X connect 13 0 20 0;
#X connect 14 0 4 0;
#X connect 15 0 3 0;
#X connect 16 0 2 0;
#X connect 17 0 1 0;
#X connect 18 0 47 0;
#X connect 18 1 19 0;
#X connect 19 0 21 0;
#X connect 19 1 21 1;
#X connect 20 0 12 1;
#X connect 20 1 37 0;
#X connect 20 2 19 1;
#X connect 21 0 18 1;
#X connect 22 0 48 0;
#X connect 23 0 24 0;
#X connect 24 0 45 0;
#X connect 24 0 51 0;
#X connect 25 0 23 0;
#X connect 26 0 0 0;
#X connect 26 0 27 0;
#X connect 27 0 14 0;
#X connect 27 0 15 0;
#X connect 27 0 16 0;
#X connect 27 0 17 0;
#X connect 27 0 22 0;
#X connect 27 0 25 0;
#X connect 27 0 43 0;
#X connect 27 1 28 0;
#X connect 28 0 29 0;
#X connect 31 0 32 0;
#X connect 32 0 33 0;
#X connect 33 0 46 0;
#X connect 34 0 36 0;
#X connect 35 0 34 0;
#X connect 35 1 34 1;
#X connect 37 0 18 0;
#X connect 38 0 39 0;
#X connect 39 0 49 0;
#X connect 40 0 38 0;
#X connect 41 0 42 0;
#X connect 42 0 53 0;
#X connect 43 0 41 0;
#X connect 44 0 56 0;
#X connect 45 0 44 0;
#X connect 45 0 56 0;
#X connect 46 0 44 1;
#X connect 47 0 40 1;
#X connect 47 1 17 1;
#X connect 47 2 25 1;
#X connect 47 3 16 1;
#X connect 47 4 43 1;
#X connect 47 5 15 1;
#X connect 47 6 14 1;
#X connect 48 0 57 0;
#X connect 49 0 57 0;
#X connect 50 0 57 0;
#X connect 51 0 57 0;
#X connect 52 0 57 0;
#X connect 53 0 57 0;
#X connect 54 0 57 0;
#X connect 55 0 57 0;
#X connect 56 0 57 0;
