#N canvas 4 23 1436 855 16;
#X obj 654 287 tabwrite~ array1;
#N canvas 0 22 450 278 (subpatch) 0;
#X array array1 1000 float 0;
#X coords 0 1 1000 -1 200 140 1;
#X restore 915 359 graph;
#X obj 682 216 tgl 15 0 empty empty empty 17 7 0 10 -262144 -1 -1 1
1;
#X obj 527 282 env~ 8192;
#X floatatom 527 312 7 0 0 0 - - -, f 7;
#X obj 413 260 output~;
#X obj 682 188 loadbang;
#X floatatom 461 537 3 0 0 0 - - -, f 3;
#X text 500 535 pitch;
#X obj 414 445 sigmund~ -hop 4096 pitch;
#X obj 414 475 moses;
#X obj 730 465 mtl/spectrum~;
#X obj 461 564 mtof;
#X floatatom 461 594 7 0 0 0 - - -, f 7;
#X obj 537 180 adc~ 2;
#X text 536 594 frequency;
#X obj 461 506 int;
#X obj 683 234 metro 250;
#X connect 2 0 17 0;
#X connect 3 0 4 0;
#X connect 6 0 2 0;
#X connect 7 0 12 0;
#X connect 9 0 10 0;
#X connect 10 1 16 0;
#X connect 12 0 13 0;
#X connect 14 0 3 0;
#X connect 14 0 0 0;
#X connect 14 0 9 0;
#X connect 14 0 5 0;
#X connect 14 0 5 1;
#X connect 14 0 11 0;
#X connect 16 0 7 0;
#X connect 17 0 0 0;
