#N canvas 4 23 1436 855 16;
#X obj 914 309 tabwrite~ array1;
#N canvas 0 22 450 278 (subpatch) 0;
#X array array1 1000 float 0;
#X coords 0 1 1000 -1 200 140 1;
#X restore 915 359 graph;
#X obj 917 257 tgl 15 0 empty empty empty 17 7 0 10 -262144 -1 -1 1
1;
#X obj 740 201 env~ 8192;
#X floatatom 740 231 7 0 0 0 - - -, f 7;
#X obj 917 229 loadbang;
#X obj 579 458 mtl/spectrum~;
#X obj 763 445 output~;
#N canvas 0 22 450 278 (subpatch) 0;
#X array array2 1000 float 0;
#X coords 0 1 1000 -1 200 140 1 0 0;
#X restore 1124 358 graph;
#X obj 1124 308 tabwrite~ array2;
#X obj 918 275 metro 500;
#X obj 269 317 hardsync~;
#X obj 270 365 output~;
#X obj 139 176 pack 0 20;
#X obj 139 206 line~;
#X floatatom 135 148 5 0 0 0 - - -, f 5;
#X obj 249 168 pack 0 20;
#X obj 249 198 line~;
#X floatatom 245 140 5 0 0 0 - - -, f 5;
#X floatatom 363 162 5 0 0 0 - - -, f 5;
#X obj 363 189 / 100;
#X obj 340 229 pack 0 20;
#X obj 340 259 line~;
#X text 132 119 slave;
#X text 242 115 master;
#X text 361 133 phase offset;
#X msg 530 203 mode \$1;
#X obj 533 168 tgl 24 0 empty empty empty 17 7 0 10 -262144 -1 -1 0
1;
#X connect 2 0 10 0;
#X connect 3 0 4 0;
#X connect 5 0 2 0;
#X connect 10 0 0 0;
#X connect 10 0 9 0;
#X connect 11 0 12 0;
#X connect 11 0 12 1;
#X connect 13 0 14 0;
#X connect 14 0 11 0;
#X connect 15 0 13 0;
#X connect 16 0 17 0;
#X connect 17 0 11 1;
#X connect 18 0 16 0;
#X connect 19 0 20 0;
#X connect 20 0 21 0;
#X connect 21 0 22 0;
#X connect 22 0 11 2;
#X connect 26 0 11 3;
#X connect 27 0 26 0;
