#N canvas 60 473 355 385 16;
#X obj 65 306 dac~;
#X obj 114 183 pack f 50;
#X obj 114 157 dbtorms;
#X floatatom 104 107 5 0 110 0 - #0r-stub -, f 5;
#X obj 114 205 line~;
#X obj 49 266 *~;
#X obj 89 266 *~;
#X obj 49 20 inlet~;
#X obj 83 47 inlet~;
#X connect 1 0 4 0;
#X connect 2 0 1 0;
#X connect 3 0 2 0;
#X connect 4 0 6 1;
#X connect 4 0 5 1;
#X connect 5 0 0 0;
#X connect 6 0 0 1;
#X connect 7 0 5 0;
#X connect 8 0 6 0;
#X coords 0 -1 1 1 60 35 2 100 100;
