#N canvas 197 75 725 673 10;
#X msg 337 486 1, f 2;
#N canvas 829 23 634 802 patgen 1;
#N canvas 21 23 706 829 interp 1;
#X obj 532 111 list length;
#X text 604 111 tuplet size;
#X text 244 191 absolute size;
#X msg 188 217 1 \$1;
#X obj 188 239 /;
#X obj 173 290 *;
#X obj 110 191 list-iter;
#X obj 173 313 +;
#X obj 173 335 f;
#X msg 379 221 0, f 2;
#X obj 173 390 * 100;
#X obj 173 412 % 100;
#X obj 506 239 iter;
#X msg 571 243 1 \$1;
#X obj 571 265 /;
#X obj 506 306 *;
#X text 183 774 straight;
#X text 241 456 phrased;
#X obj 188 191 list-sum;
#X obj 506 360 * 100;
#X obj 506 382 % 100;
#X obj 53 56 t l b l l b b l;
#X obj 124 556 list-obix;
#X obj 36 520 list-obix;
#X obj 56 323 iter;
#X obj 56 345 t f f;
#X obj 64 601 -;
#X text 346 773 potential energies;
#X obj 506 406 * 0.01;
#X obj 173 434 * 0.01;
#X obj 53 27 inlet;
#X obj 139 724 list;
#X obj 139 773 outlet;
#X obj 302 773 outlet;
#X text 600 443 straight;
#X obj 152 671 t b l;
#X obj 173 357 + 0.005;
#X obj 506 328 + 0.005;
#X obj 173 456 list-group;
#X obj 531 442 list-group;
#X obj 152 645 list-group;
#X obj 173 478 cyclone/zl rot 1;
#X connect 0 0 13 0;
#X connect 0 0 12 1;
#X connect 0 0 24 1;
#X connect 0 0 38 1;
#X connect 0 0 39 1;
#X connect 0 0 40 1;
#X connect 3 0 4 0;
#X connect 4 0 5 1;
#X connect 5 0 7 0;
#X connect 6 0 5 0;
#X connect 7 0 8 0;
#X connect 8 0 7 1;
#X connect 8 0 36 0;
#X connect 9 0 7 1;
#X connect 10 0 11 0;
#X connect 11 0 29 0;
#X connect 12 0 15 0;
#X connect 13 0 14 0;
#X connect 14 0 15 1;
#X connect 15 0 37 0;
#X connect 18 0 3 0;
#X connect 19 0 20 0;
#X connect 20 0 28 0;
#X connect 21 1 24 0;
#X connect 21 2 6 0;
#X connect 21 3 18 0;
#X connect 21 4 9 0;
#X connect 21 5 12 0;
#X connect 21 6 0 0;
#X connect 22 0 26 1;
#X connect 23 0 26 0;
#X connect 24 0 25 0;
#X connect 25 0 23 0;
#X connect 25 1 22 0;
#X connect 26 0 40 0;
#X connect 28 0 39 0;
#X connect 29 0 38 0;
#X connect 30 0 21 0;
#X connect 31 0 32 0;
#X connect 35 0 31 0;
#X connect 35 1 33 0;
#X connect 36 0 10 0;
#X connect 37 0 19 0;
#X connect 38 0 41 0;
#X connect 39 0 22 1;
#X connect 39 0 31 1;
#X connect 40 0 35 0;
#X connect 41 0 23 1;
#X restore 254 196 pd interp;
#X obj 435 231 print potential energy;
#X obj 435 254 print straight tuplet;
#X obj 125 39 inlet;
#X obj 254 100 inlet;
#X obj 125 414 list-obix;
#X obj 247 413 list-obix;
#X obj 342 280 list length;
#X obj 125 334 iter;
#X obj 125 82 t b f;
#X obj 125 356 t f f;
#X obj 155 475 +;
#X obj 155 531 * 100;
#X obj 155 655 % 100;
#X obj 164 132 * 0.01;
#X obj 196 452 *;
#X text 164 39 amount of groove \, %;
#X text 295 100 pattern \, l;
#X obj 226 724 outlet;
#X obj 435 277 print pattern;
#X floatatom 87 535 10 0 0 0 - - -, f 10;
#X floatatom 120 697 10 0 0 0 - - -, f 10;
#X obj 155 503 + 0.005;
#X obj 155 616 +;
#X obj 182 590 v \$0offset;
#X obj 155 565 t f b;
#X obj 226 691 list-group;
#X connect 0 0 2 0;
#X connect 0 0 5 1;
#X connect 0 1 1 0;
#X connect 0 1 6 1;
#X connect 0 1 7 0;
#X connect 3 0 9 0;
#X connect 4 0 0 0;
#X connect 5 0 11 0;
#X connect 6 0 15 0;
#X connect 7 0 8 1;
#X connect 7 0 26 1;
#X connect 8 0 10 0;
#X connect 9 0 8 0;
#X connect 9 1 14 0;
#X connect 10 0 5 0;
#X connect 10 1 6 0;
#X connect 11 0 22 0;
#X connect 11 0 20 0;
#X connect 12 0 25 0;
#X connect 13 0 21 0;
#X connect 13 0 26 0;
#X connect 14 0 15 1;
#X connect 15 0 11 1;
#X connect 22 0 12 0;
#X connect 23 0 13 0;
#X connect 24 0 23 1;
#X connect 25 0 23 0;
#X connect 25 1 24 0;
#X connect 26 0 18 0;
#X connect 26 0 19 0;
#X restore 373 197 pd patgen;
#X floatatom 381 177 5 0 100 0 - - -, f 5;
#X obj 337 443 list-iter;
#X obj 337 319 list;
#X obj 337 279 once;
#X obj 373 219 t b l;
#X msg 337 251 reload;
#X obj 337 349 t l b;
#X obj 337 464 t b f;
#N canvas 157 214 450 278 (subpatch) 0;
#X array \$0cycle 100 float 0;
#X coords 0 1.1 100 0 100 70 1 0 0;
#X restore 480 436 graph;
#X obj 364 372 f \$0;
#X msg 364 397 \; \$1cycle const 0;
#X obj 337 509 tabwrite \$0cycle;
#X obj 232 55 inlet;
#X text 161 112 phase;
#X obj 155 421 outlet;
#X obj 191 176 sel;
#X obj 416 253 outlet;
#X text 459 253 indexes;
#X obj 373 154 f;
#X text 216 176 reset pattern at 0;
#X obj 137 307 bng 15 250 50 0 empty empty empty 17 7 0 10 -262144
-1 -1;
#X obj 112 285 sel 1;
#X obj 76 209 tabread \$0cycle;
#X obj 358 112 t b l;
#X text 289 128 groove;
#X text 426 275 for visualisation;
#X obj 518 139 v \$0offset;
#X obj 424 155 list;
#X obj 479 107 t b b f;
#X obj 152 152 t f f f;
#N canvas 0 22 450 300 dur 0;
#X obj 78 122 list-ixob;
#X obj 78 197 list-obix;
#X obj 78 99 f;
#X obj 254 145 list-diffs;
#X obj 254 123 list append 100;
#X obj 57 43 inlet;
#X obj 153 49 inlet;
#X obj 267 69 inlet;
#X obj 78 241 outlet;
#X obj 78 219 * 0.01;
#X connect 0 0 1 0;
#X connect 1 0 9 0;
#X connect 2 0 0 0;
#X connect 3 0 1 1;
#X connect 4 0 3 0;
#X connect 5 0 2 0;
#X connect 6 0 2 1;
#X connect 7 0 0 1;
#X connect 7 0 4 0;
#X connect 9 0 8 0;
#X restore 155 356 pd dur;
#X text 199 422 duration;
#X obj 232 80 route float groove pattern offset;
#X connect 0 0 13 0;
#X connect 1 0 6 0;
#X connect 3 0 9 0;
#X connect 4 0 8 0;
#X connect 5 0 4 0;
#X connect 6 0 7 0;
#X connect 6 1 4 1;
#X connect 6 1 18 0;
#X connect 6 1 32 2;
#X connect 7 0 5 0;
#X connect 8 0 3 0;
#X connect 8 1 11 0;
#X connect 9 0 0 0;
#X connect 9 1 13 1;
#X connect 11 0 12 0;
#X connect 14 0 34 0;
#X connect 17 0 5 0;
#X connect 20 0 2 0;
#X connect 20 0 1 0;
#X connect 23 0 22 0;
#X connect 23 0 32 0;
#X connect 24 0 23 0;
#X connect 25 0 20 0;
#X connect 25 1 29 0;
#X connect 29 0 1 1;
#X connect 30 0 20 0;
#X connect 30 1 29 1;
#X connect 30 2 28 0;
#X connect 31 0 24 0;
#X connect 31 1 32 1;
#X connect 31 2 17 0;
#X connect 32 0 16 0;
#X connect 34 0 31 0;
#X connect 34 1 20 0;
#X connect 34 2 25 0;
#X connect 34 3 30 0;
