#N canvas 0 22 265 280 12;
#X obj 93 153 samplerate~;
#X obj 44 96 * 1000;
#X obj 44 121 t f b;
#X obj 44 179 /;
#X obj 44 63 inlet;
#X obj 44 204 outlet;
#X connect 0 0 3 1;
#X connect 1 0 2 0;
#X connect 2 0 3 0;
#X connect 2 1 0 0;
#X connect 3 0 5 0;
#X connect 4 0 1 0;
