#N canvas 704 149 681 558 10;
#X floatatom 103 120 3 0 0 1 tpb - #0tpb, f 3;
#X text 179 120 ticks/bar;
#X text 180 141 #bars;
#X floatatom 103 141 3 0 0 1 bs - _#0bs, f 3;
#X obj 103 282 outlet;
#X obj 103 55 pack 16 2;
#X obj 103 76 unpack;
#X obj 285 145 inlet;
#N canvas 212 23 829 855 range 0;
#X floatatom 103 121 2 0 1e+38 1 b - _#0b, f 2;
#X floatatom 103 163 2 1 1e+38 1 qbs - _#0qbs, f 2;
#X obj 58 14 inlet;
#X obj 58 816 outlet;
#X floatatom 103 142 2 0 3 1 qb - _#0qb, f 2;
#X text 92 697 ticks to skip;
#X obj 237 415 r _\$0b;
#X obj 307 276 r _\$0qb;
#X obj 307 375 *;
#X obj 356 339 / 4;
#X obj 290 487 *;
#X obj 304 517 +;
#X obj 307 400 t b f;
#X text 91 647 ticks to play;
#X obj 202 383 *;
#X obj 58 646 mod;
#X floatatom 66 670 3 0 0 0 - - -, f 3;
#X obj 58 696 +;
#X floatatom 70 722 5 0 0 0 - - -, f 5;
#X obj 202 275 r _\$0qbs;
#X obj 202 343 f;
#X text 91 756 ticks total;
#X obj 422 539 *;
#X obj 468 197 r _\$0bs;
#X obj 455 249 f;
#X obj 468 222 t b f;
#X obj 58 756 mod;
#X floatatom 120 776 5 0 0 0 - - -, f 5;
#X obj 134 121 tgl 20 0 \$0_bp \$0bp bp 2 8 0 14 -262144 -1 -1 1 1
;
#X obj 89 280 expr $i1^1;
#X obj 58 323 spigot;
#X obj 276 454 f;
#X obj 307 336 f;
#X obj 385 283 t b f;
#X obj 115 323 spigot;
#X obj 224 195 r \$0_bp;
#X obj 171 573 pack 0 f f f;
#X obj 171 598 unpack 0 f f f;
#X obj 105 251 f;
#X obj 280 85 sel;
#X obj 105 217 t b b;
#X obj 58 177 t f;
#X obj 280 57 mod;
#X obj 58 37 t f f;
#X text 310 58 upd every bar (cud be a quarter-bar);
#X text 412 683 wraps around;
#X text 411 664 select a range to play;
#X obj 455 37 r \$0tpb;
#X connect 2 0 43 0;
#X connect 6 0 31 0;
#X connect 7 0 32 0;
#X connect 8 0 12 0;
#X connect 9 0 8 1;
#X connect 9 0 14 1;
#X connect 10 0 11 0;
#X connect 11 0 36 2;
#X connect 12 0 31 0;
#X connect 12 1 11 1;
#X connect 14 0 36 1;
#X connect 15 0 16 0;
#X connect 15 0 17 0;
#X connect 17 0 18 0;
#X connect 17 0 26 0;
#X connect 19 0 20 0;
#X connect 20 0 14 0;
#X connect 22 0 36 3;
#X connect 23 0 25 0;
#X connect 24 0 33 0;
#X connect 25 0 24 0;
#X connect 25 1 22 1;
#X connect 26 0 27 0;
#X connect 26 0 3 0;
#X connect 29 0 30 1;
#X connect 30 0 15 0;
#X connect 31 0 10 0;
#X connect 32 0 8 0;
#X connect 33 0 32 0;
#X connect 33 0 20 0;
#X connect 33 1 22 0;
#X connect 33 1 10 1;
#X connect 33 1 9 0;
#X connect 34 0 26 0;
#X connect 35 0 38 1;
#X connect 36 0 37 0;
#X connect 37 1 15 1;
#X connect 37 2 17 1;
#X connect 37 3 26 1;
#X connect 38 0 34 1;
#X connect 38 0 29 0;
#X connect 39 0 40 0;
#X connect 40 0 38 0;
#X connect 40 1 36 0;
#X connect 41 0 34 0;
#X connect 41 0 30 0;
#X connect 42 0 39 0;
#X connect 43 0 41 0;
#X connect 43 1 42 0;
#X connect 47 0 24 0;
#X connect 47 0 42 1;
#X coords 0 -1 1 1 60 85 1 100 100;
#X restore 103 162 pd range;
#X floatatom 123 259 3 0 0 0 - - -, f 3;
#X text 179 182 bar# to start from [0 \, inf) \, bypass tgl;
#X text 179 204 quarter-bar to start from [0 \, 3];
#X text 178 225 quarter-bars to play [1 \, inf);
#X text 333 146 clock;
#X obj 103 20 loadbang;
#X obj 178 49 s \$0bp;
#X connect 5 0 6 0;
#X connect 6 0 0 0;
#X connect 6 1 3 0;
#X connect 7 0 8 0;
#X connect 8 0 9 0;
#X connect 8 0 4 0;
#X connect 14 0 15 0;
#X connect 14 0 5 0;
#X coords 0 -1 1 1 74 150 1 100 100;
