#N canvas 100 115 688 557 10;
#X obj 356 142 f;
#X obj 396 142 + 1;
#X obj 208 253 div 2;
#X obj 124 278 change;
#X obj 208 278 change;
#X obj 124 253 div 1;
#X obj 367 278 change;
#X obj 367 253 div 4;
#X obj 291 278 change;
#X obj 291 253 div 3;
#X obj 443 278 change;
#X obj 522 277 change;
#X obj 356 74 inlet;
#X obj 474 74 inlet;
#X msg 474 97 0, f 2;
#X text 394 75 bang;
#X obj 356 167 mod 96;
#X obj 443 253 div 8;
#X obj 522 252 div 16;
#X obj 124 304 b;
#X obj 208 303 b;
#X obj 291 303 b;
#X obj 367 303 b;
#X obj 443 303 b;
#X obj 522 301 b;
#X obj 164 481 outlet 1x;
#X obj 247 445 outlet 0.5x;
#X obj 307 409 outlet 0.33x;
#X obj 376 376 outlet 0.25x;
#X obj 449 353 outlet 0.125x;
#X obj 522 327 outlet 0.0625x;
#X text 511 74 sync;
#X connect 0 0 16 0;
#X connect 1 0 0 1;
#X connect 2 0 4 0;
#X connect 3 0 19 0;
#X connect 4 0 20 0;
#X connect 5 0 3 0;
#X connect 6 0 22 0;
#X connect 7 0 6 0;
#X connect 8 0 21 0;
#X connect 9 0 8 0;
#X connect 10 0 23 0;
#X connect 11 0 24 0;
#X connect 12 0 0 0;
#X connect 13 0 14 0;
#X connect 14 0 0 1;
#X connect 16 0 1 0;
#X connect 16 0 2 0;
#X connect 16 0 5 0;
#X connect 16 0 7 0;
#X connect 16 0 9 0;
#X connect 16 0 17 0;
#X connect 16 0 18 0;
#X connect 17 0 10 0;
#X connect 18 0 11 0;
#X connect 19 0 25 0;
#X connect 20 0 26 0;
#X connect 21 0 27 0;
#X connect 22 0 28 0;
#X connect 23 0 29 0;
#X connect 24 0 30 0;
