#N canvas 387 215 845 643 12;
#X obj 60 50 inlet;
#X obj 132 395 textfile;
#X obj 248 54 symbol \$1;
#X msg 248 80 read \$1.txt cr \, rewind;
#X msg 320 378 rewind;
#X obj 283 344 t b b;
#X obj 132 439 outlet;
#X text 111 51 bang;
#X obj 60 140 until;
#X obj 60 84 f \$2;
#X text 241 463 \$2 #lines to read per bang;
#X text 241 442 \$1 filename;
#X obj 433 329 inlet;
#X msg 346 44 bang;
#X obj 248 28 loadbang;
#X obj 250 148 symbol \$1;
#X msg 250 123 bang;
#X msg 250 174 write \$1.txt cr;
#X obj 277 243 list prepend add;
#X msg 277 218;
#X msg 278 279 clear;
#X connect 0 0 9 0;
#X connect 1 0 6 0;
#X connect 1 1 5 0;
#X connect 2 0 3 0;
#X connect 3 0 1 0;
#X connect 4 0 1 0;
#X connect 5 0 1 0;
#X connect 5 1 4 0;
#X connect 8 0 1 0;
#X connect 9 0 8 0;
#X connect 12 0 4 0;
#X connect 13 0 2 0;
#X connect 14 0 2 0;
#X connect 15 0 17 0;
#X connect 16 0 15 0;
#X connect 17 0 1 0;
#X connect 18 0 1 0;
#X connect 19 0 18 0;
#X connect 20 0 1 0;
