#N canvas 199 171 257 296 12;
#X obj 44 153 until;
#X obj 44 190 f;
#X obj 83 190 + 1;
#X msg 94 153 0, f 1;
#X obj 44 29 inlet;
#X obj 44 225 outlet;
#X obj 44 59 route bang float;
#X obj 44 122 f \$1;
#X obj 44 91 t b b;
#X obj 106 91 t b f;
#X connect 0 0 1 0;
#X connect 1 0 2 0;
#X connect 1 0 5 0;
#X connect 2 0 1 1;
#X connect 3 0 1 1;
#X connect 4 0 6 0;
#X connect 6 0 8 0;
#X connect 6 1 9 0;
#X connect 7 0 0 0;
#X connect 8 0 7 0;
#X connect 8 1 3 0;
#X connect 9 0 8 0;
#X connect 9 1 7 1;
