#N canvas 1 51 369 279 10;
#X obj 44 37 inlet;
#X text 91 37 0-1;
#X obj 142 128 inlet;
#X obj 289 65 inlet;
#X obj 68 157 list-scalar;
#X obj 215 131 list-scalar;
#X obj 107 212 lists-sum;
#X obj 44 59 t f f;
#X obj 107 234 outlet;
#X obj 44 128 -;
#X obj 44 98 swap 1;
#X connect 0 0 7 0;
#X connect 2 0 4 1;
#X connect 3 0 5 1;
#X connect 4 0 6 0;
#X connect 5 0 6 1;
#X connect 6 0 8 0;
#X connect 7 0 10 0;
#X connect 7 1 5 0;
#X connect 9 0 4 0;
#X connect 10 0 9 0;
#X connect 10 1 9 1;
