#N canvas 118 22 823 724 10;
#X declare -path ../lib;
#X obj 59 251 osc~;
#X floatatom 59 231 5 0 0 0 - - -, f 5;
#X obj 332 8 r~ s1;
#X obj 441 8 r~ s2;
#X obj 332 621 declare -path ../lib;
#X obj 119 515 dac~;
#X obj 119 482 *~;
#X obj 172 472 pack f 30;
#X obj 172 493 line~;
#X floatatom 172 454 5 0 0 0 - - -, f 5;
#X obj 119 370 osc~;
#X obj -16 324 +~;
#X floatatom -16 68 5 0 0 0 - - -, f 5;
#X obj 59 293 *~;
#X floatatom 135 232 5 0 0 0 - - -, f 5;
#X obj 18 267 s~ s1;
#X obj 132 399 s~ s2;
#X obj 332 24 graph_two;
#X text 125 356 /;
#X obj -16 48 r cf;
#X text 133 346 Frequency;
#X obj 331 386 graph_spectrum_2.5k;
#X text -3 372 B) MAIN (CARRIER);
#X text 18 381 OSCILLATOR;
#X floatatom 59 71 5 0 0 0 - - -, f 5;
#X obj 135 203 *;
#X obj 59 111 t b f;
#X obj 135 181 t b f;
#X text 10 190 A) MODULATING;
#X text 30 200 OSCILLATOR;
#X text -9 536 harmonicity ratio (hr) = cf/mf;
#X obj 59 89 line;
#X obj 135 160 line;
#X text 99 231 mf;
#X text 179 232 mi;
#X text 25 68 cf;
#X obj 135 250 pack f 30;
#X obj 135 277 line~;
#X text 215 454 A;
#X obj 201 400 r A;
#X obj 59 48 r hr;
#X obj 135 135 r i;
#X msg -6 645 \; cf 300 \; hr 1 \; i 5 \, 0 500 \; A 1 \, 0 1000;
#X text 167 136 index;
#X text 101 72 harmonicity ratio;
#X msg -6 575 \; cf 100 \; hr 1 \; i 10 \, 0 800 \; A 1 \, 0 1000;
#X msg 186 575 \; cf 100 \; hr 1.34 \; i 10 \, 0 800 \; A 1 \, 0 1000
;
#X text 120 553 mf = cf/hr;
#X obj 59 136 *;
#X obj 201 421 line;
#X msg 89 646 \; cf 300 \; hr 4 \; i 5 \, 0 300 \; A 1 \, 0 500;
#X msg -4 432 \; cf 100 \; hr 1 \; i 10 \; A 1;
#X floatatom 203 108 5 0 0 0 - - -, f 5;
#X obj 203 127 / 10;
#X obj 203 149 pack f 100;
#X msg 190 645 \; cf 300 \; hr 0.23 \; i 7 \, 0 6000 \; A 1 \, 0 4000
;
#X msg 87 575 \; cf 100 \; hr 2 \; i 15 \, 0 7000 \; A 1 \, 0 7000
;
#X obj 248 249 adc~;
#X obj 248 290 env~;
#X floatatom 248 312 5 0 0 0 - - -, f 5;
#X floatatom 248 353 5 0 0 0 - - -, f 5;
#X obj 248 372 moses 0;
#X msg 248 394 0;
#X floatatom 248 416 5 0 0 0 - - -, f 5;
#X obj 248 435 * 10;
#X obj 248 331 - 56;
#X connect 0 0 13 0;
#X connect 0 0 15 0;
#X connect 1 0 0 0;
#X connect 2 0 17 0;
#X connect 3 0 17 1;
#X connect 6 0 5 0;
#X connect 6 0 5 1;
#X connect 7 0 8 0;
#X connect 8 0 6 1;
#X connect 9 0 7 0;
#X connect 10 0 6 0;
#X connect 10 0 16 0;
#X connect 10 0 21 0;
#X connect 11 0 10 0;
#X connect 12 0 11 0;
#X connect 12 0 48 0;
#X connect 13 0 11 1;
#X connect 14 0 36 0;
#X connect 19 0 12 0;
#X connect 24 0 31 0;
#X connect 25 0 14 0;
#X connect 26 0 48 0;
#X connect 26 1 48 1;
#X connect 27 0 25 0;
#X connect 27 1 25 1;
#X connect 31 0 26 0;
#X connect 32 0 27 0;
#X connect 36 0 37 0;
#X connect 37 0 13 1;
#X connect 39 0 49 0;
#X connect 40 0 24 0;
#X connect 41 0 32 0;
#X connect 48 0 1 0;
#X connect 48 0 25 0;
#X connect 49 0 9 0;
#X connect 52 0 53 0;
#X connect 53 0 54 0;
#X connect 54 0 32 0;
#X connect 57 0 58 0;
#X connect 58 0 59 0;
#X connect 59 0 65 0;
#X connect 60 0 61 0;
#X connect 61 0 62 0;
#X connect 61 1 63 0;
#X connect 62 0 63 0;
#X connect 63 0 64 0;
#X connect 64 0 52 0;
#X connect 65 0 60 0;
