#N canvas 625 300 450 300 12;
#X obj 139 101 bng 20 250 50 0 empty empty empty 17 7 0 10 -262144
-1 -1;
#X obj 68 160 print;
#X obj 68 134 compmrnd;
#X msg 130 56 4 2;
#X msg 68 58 8 2;
#X msg 190 58 16 4;
#X msg 121 28 4 3;
#X msg 184 107 4 1;
#X obj 196 181 compmrnd;
#X msg 194 149 4 1;
#X msg 249 148 4 2;
#X obj 198 215 print;
#X obj 303 94 comprnd;
#X msg 340 43 4;
#X msg 303 46 bang;
#X obj 303 119 print;
#X connect 0 0 2 0;
#X connect 2 0 1 0;
#X connect 3 0 2 0;
#X connect 4 0 2 0;
#X connect 5 0 2 0;
#X connect 6 0 2 0;
#X connect 7 0 2 0;
#X connect 8 0 11 0;
#X connect 9 0 8 0;
#X connect 10 0 8 0;
#X connect 12 0 15 0;
#X connect 13 0 12 0;
#X connect 14 0 12 0;
