#N canvas 249 23 692 782 10;
#X obj 288 382 -~;
#X obj 288 444 /~;
#X obj 301 333 *~ -1;
#X obj 167 357 expr~ exp($v1*2.718);
#X obj 166 392 expr~ (1/$v1)+$v1;
#X obj 302 357 expr~ exp($v1*2.718);
#X obj 237 27 inlet~;
#X obj 320 614 outlet~;
#X obj 385 276 line~;
#X obj 386 217 clip 0.5 10;
#X obj 384 246 pack 0 20;
#X obj 301 311 *~;
#X obj 107 118 hsl 70 15 0.5 10 0 0 empty empty empty -2 -8 0 10 -262144
-1 -1 0 1;
#X connect 0 0 1 0;
#X connect 1 0 7 0;
#X connect 2 0 5 0;
#X connect 3 0 0 0;
#X connect 3 0 4 0;
#X connect 4 0 1 1;
#X connect 5 0 0 1;
#X connect 6 0 11 0;
#X connect 8 0 11 1;
#X connect 9 0 10 0;
#X connect 10 0 8 0;
#X connect 11 0 3 0;
#X connect 11 0 2 0;
#X connect 12 0 9 0;
#X coords 0 -1 1 1 85 37 1 100 100;
