#N canvas 697 320 513 487 12;
#X declare -path ../lst;
#X obj 80 79 inlet;
#X obj 80 338 outlet;
#X obj 255 343 declare -path ../lst;
#X obj 232 133 list-map;
#X obj 313 133 + 3;
#X obj 232 79 loadbang;
#X obj 149 246 list;
#X obj 80 108 b;
#X obj 244 205 list-map;
#X obj 319 205 + 12;
#X obj 232 158 t l l;
#X text 112 312 E flat minor pentatonic scale in 2 octaves;
#X msg 124 200 bang;
#X obj 80 284 list;
#X msg 232 108 0 3 5 7 10;
#X connect 0 0 7 0;
#X connect 3 0 10 0;
#X connect 3 1 4 0;
#X connect 4 0 3 1;
#X connect 5 0 14 0;
#X connect 6 0 13 1;
#X connect 7 0 13 0;
#X connect 8 0 6 1;
#X connect 8 1 9 0;
#X connect 9 0 8 1;
#X connect 10 0 6 0;
#X connect 10 1 8 0;
#X connect 12 0 13 0;
#X connect 13 0 1 0;
#X connect 14 0 3 0;
