#N canvas 508 199 767 663 12;
#X obj 220 199 spigot 1;
#X msg 342 223 0, f 2;
#X msg 343 262 1, f 2;
#X obj 177 164 t b b;
#X obj 273 313 bng 15 250 50 0 empty empty empty 17 7 0 10 -262144
-1 -1;
#X obj 177 293 fetch 0 4;
#X obj 220 225 rand 0 4;
#X obj 177 90 inlet;
#X obj 597 115 inlet;
#X obj 224 533 outlet;
#X obj 405 432 outlet;
#X text 652 115 scale;
#X obj 408 72 inlet;
#X obj 445 319 * 12;
#X obj 445 293 + 1;
#X obj 177 363 scale_holder;
#X obj 408 148 f \$1;
#X obj 447 109 loadbang;
#X text 286 532 pitch;
#X text 456 73 pitch class (0-7);
#X obj 177 411 +;
#X obj 408 173 sel;
#X msg 399 216 3, f 2;
#X obj 220 250 t f f b;
#X obj 287 134 r start;
#X obj 287 159 b;
#X text 466 434 done;
#X connect 0 0 6 0;
#X connect 1 0 0 1;
#X connect 2 0 0 1;
#X connect 3 0 5 0;
#X connect 3 1 0 0;
#X connect 5 0 15 0;
#X connect 5 1 2 0;
#X connect 5 1 4 0;
#X connect 5 1 10 0;
#X connect 6 0 23 0;
#X connect 7 0 3 0;
#X connect 8 0 15 1;
#X connect 12 0 16 0;
#X connect 13 0 20 1;
#X connect 14 0 13 0;
#X connect 15 0 20 0;
#X connect 16 0 21 0;
#X connect 17 0 16 0;
#X connect 20 0 9 0;
#X connect 21 0 22 0;
#X connect 21 1 14 0;
#X connect 22 0 14 0;
#X connect 23 0 5 1;
#X connect 23 2 1 0;
#X connect 24 0 25 0;
#X connect 25 0 6 0;
