#N canvas 793 123 524 580 10;
#X floatatom 100 100 5 0 127 0 - - -, f 5;
#X obj 100 125 change;
#X obj 110 55 loadbang;
#X obj 100 30 inlet;
#X obj 427 237 div 12;
#X obj 329 377 - 1;
#X obj 89 198 mod 12;
#X obj 89 220 route 0 1 2 3 4 5 6 7 8 9 10 11;
#X obj 95 331 symbol;
#X obj 62 439 pack s f;
#X obj 62 363 symbol;
#X msg 62 468 symbol \$1\$2;
#X obj 100 100 cnv 14 32 14 empty empty empty 20 12 0 14 -262144 -66577
0;
#X symbolatom 100 100 5 0 0 0 - - -, f 5;
#X msg 110 77 60, f 2;
#X msg 89 275 C, f 2;
#X msg 116 275 C#, f 2;
#X msg 142 275 D, f 2;
#X msg 167 274 D#, f 2;
#X msg 192 274 E, f 2;
#X msg 218 275 F, f 2;
#X msg 246 274 F#, f 2;
#X msg 272 274 G, f 2;
#X msg 296 274 G#, f 2;
#X msg 320 274 A, f 2;
#X msg 344 274 A#, f 2;
#X msg 369 274 B, f 2;
#X obj 284 492 outlet;
#X obj 428 333 clip 1 4;
#X obj 62 159 t b f f;
#X text 238 115 TODO: quantize for slow scrolling;
#X obj 284 443 expr $i1+$i2*12;
#X connect 0 0 1 0;
#X connect 0 0 29 0;
#X connect 2 0 14 0;
#X connect 3 0 0 0;
#X connect 4 0 5 0;
#X connect 4 0 31 1;
#X connect 5 0 9 1;
#X connect 6 0 7 0;
#X connect 6 0 31 0;
#X connect 7 0 15 0;
#X connect 7 1 16 0;
#X connect 7 2 17 0;
#X connect 7 3 18 0;
#X connect 7 4 19 0;
#X connect 7 5 20 0;
#X connect 7 6 21 0;
#X connect 7 7 22 0;
#X connect 7 8 23 0;
#X connect 7 9 24 0;
#X connect 7 10 25 0;
#X connect 7 11 26 0;
#X connect 8 0 10 1;
#X connect 9 0 11 0;
#X connect 10 0 9 0;
#X connect 11 0 13 0;
#X connect 14 0 0 0;
#X connect 15 0 8 0;
#X connect 16 0 8 0;
#X connect 17 0 8 0;
#X connect 18 0 8 0;
#X connect 19 0 8 0;
#X connect 20 0 8 0;
#X connect 21 0 8 0;
#X connect 22 0 8 0;
#X connect 23 0 8 0;
#X connect 24 0 8 0;
#X connect 25 0 8 0;
#X connect 26 0 8 0;
#X connect 29 0 10 0;
#X connect 29 1 6 0;
#X connect 29 2 4 0;
#X connect 31 0 27 0;
#X coords 0 -1 1 1 32 14 2 100 100;
