#N canvas 697 320 472 474 12;
#X obj 90 79 inlet;
#X obj 90 385 outlet;
#X obj 90 333 + \$1;
#X obj 228 234 f \$2;
#X obj 228 259 - \$1;
#X obj 150 166 loadbang;
#X obj 258 81 inlet;
#X obj 258 106 t b f;
#X obj 362 80 inlet;
#X obj 362 108 t b f;
#X obj 90 302 cyclone/urn;
#X obj 243 306 random;
#X msg 25 241 clear;
#X connect 0 0 10 0;
#X connect 2 0 1 0;
#X connect 3 0 4 0;
#X connect 4 0 10 1;
#X connect 5 0 3 0;
#X connect 6 0 7 0;
#X connect 7 0 3 0;
#X connect 7 1 4 1;
#X connect 7 1 2 1;
#X connect 8 0 9 0;
#X connect 9 0 3 0;
#X connect 9 1 3 1;
#X connect 10 0 2 0;
#X connect 10 1 12 0;
#X connect 12 0 10 0;
