#N canvas 697 320 513 487 12;
#X declare -path ../lst;
#X obj 59 56 inlet;
#X obj 102 351 outlet;
#X obj 243 285 declare -path ../lst;
#X obj 59 109 route float bang;
#X obj 261 127 loadbang;
#X obj 169 220 list;
#X obj 59 220 list-obix;
#X obj 264 56 inlet;
#X text 317 55 scale;
#X obj 261 154 black_keys;
#X connect 0 0 3 0;
#X connect 3 0 6 0;
#X connect 3 1 5 0;
#X connect 4 0 9 0;
#X connect 5 0 1 0;
#X connect 6 0 1 0;
#X connect 7 0 5 1;
#X connect 7 0 6 1;
#X connect 9 0 5 1;
#X connect 9 0 6 1;
