#N canvas 521 244 358 251 10;
#X obj 60 151 pow;
#X obj 60 105 / 12;
#X obj 60 127 swap 2;
#X obj 60 173 outlet;
#X obj 60 56 inlet;
#X obj 60 81 max;
#X text 130 84 equal-tempered chromatic scale;
#X connect 0 0 3 0;
#X connect 1 0 2 0;
#X connect 2 0 0 0;
#X connect 2 1 0 1;
#X connect 4 0 5 0;
#X connect 5 0 1 0;
