#N canvas 394 143 701 608 10;
#X obj 104 107 phasor~;
#X obj 104 199 cos~;
#X obj 104 26 inlet;
#X obj 104 247 *~;
#X obj 104 539 outlet~;
#X text 214 187 variable: attack rms \, attack time \, decay time;
#X text 188 220 variable: envelope modulation;
#X text 118 88 variable: random tiny freq shift;
#X text 131 154 variable: phase mod \, phase distortion;
#X obj 104 154 +~;
#X text 383 71 increase block size \, downsample for performance;
#X text 236 296 bitcrushing \, downsampling \, cos or tan distortion
;
#X text 236 311 delay \, pan \, fake stereo;
#X obj 170 539 outlet~;
#X obj 104 48 route freq peak;
#X text 233 246 amp mod with controllable amp of sidebands (see porres)
;
#X obj 173 186 senv3~;
#X text 209 11 different amps for different channels;
#X obj 104 268 expr~ atan($v1);
#X obj 418 143 cyclone/triangle~ 0.5;
#X text 242 134 variable multiplier;
#X text 305 112 variable freq (increment slowly to 2.5);
#X msg 477 363 1;
#X obj 477 395 change;
#X obj 290 378 > 10;
#X obj 500 417 tgl 15 0 empty empty empty 17 7 0 10 -262144 -1 -1 0
1;
#X obj 147 68 t l b;
#X obj 477 439 switch~ 64 1 1;
#X obj 290 355 env~ 8192;
#X obj 104 481 dkcospan~;
#X obj 155 398 random 2000;
#X obj 155 420 - 1000;
#X obj 155 442 * 0.001;
#X obj 155 375 loadbang;
#X obj 104 290 *~ 1;
#X obj 207 134 *~ 3;
#X obj 207 112 zexy/noisi~ 1.1;
#X connect 0 0 9 0;
#X connect 1 0 3 0;
#X connect 2 0 14 0;
#X connect 3 0 18 0;
#X connect 9 0 1 0;
#X connect 14 0 0 0;
#X connect 14 1 26 0;
#X connect 16 0 3 1;
#X connect 18 0 34 0;
#X connect 22 0 23 0;
#X connect 23 0 25 0;
#X connect 23 0 27 0;
#X connect 24 0 23 0;
#X connect 26 0 16 0;
#X connect 26 1 22 0;
#X connect 28 0 24 0;
#X connect 29 0 4 0;
#X connect 29 1 13 0;
#X connect 30 0 31 0;
#X connect 31 0 32 0;
#X connect 32 0 29 1;
#X connect 33 0 30 0;
#X connect 34 0 28 0;
#X connect 34 0 29 0;
#X connect 35 0 9 1;
#X connect 36 0 35 0;
