#N canvas 395 184 512 568 10;
#X obj 65 209 tabread peaks;
#X obj 65 251 dbtorms;
#X obj 65 187 t f f;
#X obj 65 305 list prepend;
#X obj 65 116 t b f;
#X obj 209 167 t f f;
#X msg 182 281 \$1 freq;
#X obj 174 334 list append;
#X msg 134 240 \$1 peak;
#X obj 65 31 inlet;
#X obj 65 406 outlet~;
#X obj 140 406 outlet~;
#X obj 303 413 env~ 8192;
#X obj 303 462 change;
#X obj 326 484 tgl 15 0 empty empty empty 17 7 0 10 -262144 -1 -1 1
1;
#X obj 303 506 switch~ 64 1 1;
#X obj 303 391 +~;
#X msg 458 238 1;
#X obj 303 435 > 10;
#X obj 65 53 t l b;
#X obj 65 86 unpack;
#X text 111 32 pitch dur;
#X obj 65 276 pack 0 200 750;
#N canvas 0 22 450 300 5th-8ve 0;
#X obj 121 84 mod 2;
#X obj 121 106 moses 1;
#X msg 160 128 7;
#X obj 76 55 t f f;
#X obj 86 201 + 31;
#X obj 64 105 * 12;
#X obj 86 179 +;
#X msg 121 128 0;
#X obj 64 83 div 2;
#X obj 252 144 inlet;
#X obj 31 17 inlet;
#X obj 86 223 outlet;
#X text 292 145 initial pitch;
#X connect 0 0 1 0;
#X connect 1 0 7 0;
#X connect 1 1 2 0;
#X connect 2 0 6 1;
#X connect 3 0 8 0;
#X connect 3 1 0 0;
#X connect 4 0 11 0;
#X connect 5 0 6 0;
#X connect 6 0 4 0;
#X connect 7 0 6 1;
#X connect 8 0 5 0;
#X connect 9 0 4 1;
#X connect 10 0 3 0;
#X restore 252 240 pd 5th-8ve;
#X obj 252 262 mtof;
#X obj 172 143 * 8;
#X obj 247 307 +;
#X obj 340 262 * 0.01;
#X obj 340 218 loadbang;
#X obj 340 240 random 250;
#X obj 65 374 clone 16 sine;
#X obj 65 150 iter 16;
#X connect 0 0 1 0;
#X connect 1 0 22 0;
#X connect 2 0 0 0;
#X connect 2 1 8 0;
#X connect 3 0 30 0;
#X connect 4 0 31 0;
#X connect 4 1 23 1;
#X connect 5 0 6 0;
#X connect 5 1 23 0;
#X connect 6 0 7 0;
#X connect 7 0 30 0;
#X connect 8 0 3 1;
#X connect 9 0 19 0;
#X connect 12 0 18 0;
#X connect 13 0 14 0;
#X connect 13 0 15 0;
#X connect 16 0 12 0;
#X connect 17 0 13 0;
#X connect 18 0 13 0;
#X connect 19 0 20 0;
#X connect 19 1 17 0;
#X connect 20 0 4 0;
#X connect 20 1 25 0;
#X connect 22 0 3 0;
#X connect 23 0 24 0;
#X connect 24 0 26 0;
#X connect 25 0 22 2;
#X connect 26 0 7 1;
#X connect 27 0 26 1;
#X connect 28 0 29 0;
#X connect 29 0 27 0;
#X connect 30 0 10 0;
#X connect 30 0 16 0;
#X connect 30 1 11 0;
#X connect 30 1 16 1;
#X connect 31 0 2 0;
#X connect 31 0 5 0;
